%TF.GenerationSoftware,KiCad,Pcbnew,(5.1.6-0-10_14)*%
%TF.CreationDate,2021-01-13T12:07:43-08:00*%
%TF.ProjectId,temperatureController,74656d70-6572-4617-9475-7265436f6e74,rev?*%
%TF.SameCoordinates,Original*%
%TF.FileFunction,Legend,Top*%
%TF.FilePolarity,Positive*%
%FSLAX46Y46*%
G04 Gerber Fmt 4.6, Leading zero omitted, Abs format (unit mm)*
G04 Created by KiCad (PCBNEW (5.1.6-0-10_14)) date 2021-01-13 12:07:43*
%MOMM*%
%LPD*%
G01*
G04 APERTURE LIST*
%ADD10C,0.700000*%
%ADD11C,0.150000*%
%ADD12C,0.600000*%
%ADD13C,0.120000*%
%ADD14C,0.100000*%
%ADD15C,0.152400*%
G04 APERTURE END LIST*
D10*
X188056380Y-106227904D02*
X190913523Y-106227904D01*
X189484952Y-111227904D02*
X189484952Y-106227904D01*
X192580190Y-108608857D02*
X194246857Y-108608857D01*
X194961142Y-111227904D02*
X192580190Y-111227904D01*
X192580190Y-106227904D01*
X194961142Y-106227904D01*
X197104000Y-111227904D02*
X197104000Y-106227904D01*
X198770666Y-109799333D01*
X200437333Y-106227904D01*
X200437333Y-111227904D01*
X202818285Y-111227904D02*
X202818285Y-106227904D01*
X204723047Y-106227904D01*
X205199238Y-106466000D01*
X205437333Y-106704095D01*
X205675428Y-107180285D01*
X205675428Y-107894571D01*
X205437333Y-108370761D01*
X205199238Y-108608857D01*
X204723047Y-108846952D01*
X202818285Y-108846952D01*
D11*
X207208523Y-69937380D02*
X207018047Y-69937380D01*
X206922809Y-69985000D01*
X206875190Y-70032619D01*
X206779952Y-70175476D01*
X206732333Y-70365952D01*
X206732333Y-70746904D01*
X206779952Y-70842142D01*
X206827571Y-70889761D01*
X206922809Y-70937380D01*
X207113285Y-70937380D01*
X207208523Y-70889761D01*
X207256142Y-70842142D01*
X207303761Y-70746904D01*
X207303761Y-70508809D01*
X207256142Y-70413571D01*
X207208523Y-70365952D01*
X207113285Y-70318333D01*
X206922809Y-70318333D01*
X206827571Y-70365952D01*
X206779952Y-70413571D01*
X206732333Y-70508809D01*
X207494238Y-71032619D02*
X208256142Y-71032619D01*
X208494238Y-70937380D02*
X208494238Y-69937380D01*
X208732333Y-69937380D01*
X208875190Y-69985000D01*
X208970428Y-70080238D01*
X209018047Y-70175476D01*
X209065666Y-70365952D01*
X209065666Y-70508809D01*
X209018047Y-70699285D01*
X208970428Y-70794523D01*
X208875190Y-70889761D01*
X208732333Y-70937380D01*
X208494238Y-70937380D01*
X217709714Y-77541380D02*
X217138285Y-77541380D01*
X217424000Y-77541380D02*
X217424000Y-76541380D01*
X217328761Y-76684238D01*
X217233523Y-76779476D01*
X217138285Y-76827095D01*
X207470380Y-76668380D02*
X207565619Y-76668380D01*
X207660857Y-76716000D01*
X207708476Y-76763619D01*
X207756095Y-76858857D01*
X207803714Y-77049333D01*
X207803714Y-77287428D01*
X207756095Y-77477904D01*
X207708476Y-77573142D01*
X207660857Y-77620761D01*
X207565619Y-77668380D01*
X207470380Y-77668380D01*
X207375142Y-77620761D01*
X207327523Y-77573142D01*
X207279904Y-77477904D01*
X207232285Y-77287428D01*
X207232285Y-77049333D01*
X207279904Y-76858857D01*
X207327523Y-76763619D01*
X207375142Y-76716000D01*
X207470380Y-76668380D01*
X222218285Y-76763619D02*
X222265904Y-76716000D01*
X222361142Y-76668380D01*
X222599238Y-76668380D01*
X222694476Y-76716000D01*
X222742095Y-76763619D01*
X222789714Y-76858857D01*
X222789714Y-76954095D01*
X222742095Y-77096952D01*
X222170666Y-77668380D01*
X222789714Y-77668380D01*
X204866857Y-85018571D02*
X204533523Y-85018571D01*
X204533523Y-85542380D02*
X204533523Y-84542380D01*
X205009714Y-84542380D01*
X207192714Y-84542380D02*
X207859380Y-84542380D01*
X207430809Y-85542380D01*
X208002238Y-85637619D02*
X208764142Y-85637619D01*
X209002238Y-85542380D02*
X209002238Y-84542380D01*
X209240333Y-84542380D01*
X209383190Y-84590000D01*
X209478428Y-84685238D01*
X209526047Y-84780476D01*
X209573666Y-84970952D01*
X209573666Y-85113809D01*
X209526047Y-85304285D01*
X209478428Y-85399523D01*
X209383190Y-85494761D01*
X209240333Y-85542380D01*
X209002238Y-85542380D01*
X211089904Y-84748666D02*
X211566095Y-84748666D01*
X210994666Y-85034380D02*
X211328000Y-84034380D01*
X211661333Y-85034380D01*
X216098428Y-84637571D02*
X216241285Y-84685190D01*
X216288904Y-84732809D01*
X216336523Y-84828047D01*
X216336523Y-84970904D01*
X216288904Y-85066142D01*
X216241285Y-85113761D01*
X216146047Y-85161380D01*
X215765095Y-85161380D01*
X215765095Y-84161380D01*
X216098428Y-84161380D01*
X216193666Y-84209000D01*
X216241285Y-84256619D01*
X216288904Y-84351857D01*
X216288904Y-84447095D01*
X216241285Y-84542333D01*
X216193666Y-84589952D01*
X216098428Y-84637571D01*
X215765095Y-84637571D01*
X221241904Y-84082000D02*
X221146666Y-84034380D01*
X221003809Y-84034380D01*
X220860952Y-84082000D01*
X220765714Y-84177238D01*
X220718095Y-84272476D01*
X220670476Y-84462952D01*
X220670476Y-84605809D01*
X220718095Y-84796285D01*
X220765714Y-84891523D01*
X220860952Y-84986761D01*
X221003809Y-85034380D01*
X221099047Y-85034380D01*
X221241904Y-84986761D01*
X221289523Y-84939142D01*
X221289523Y-84605809D01*
X221099047Y-84605809D01*
X222742095Y-91654380D02*
X222265904Y-91654380D01*
X222218285Y-92130571D01*
X222265904Y-92082952D01*
X222361142Y-92035333D01*
X222599238Y-92035333D01*
X222694476Y-92082952D01*
X222742095Y-92130571D01*
X222789714Y-92225809D01*
X222789714Y-92463904D01*
X222742095Y-92559142D01*
X222694476Y-92606761D01*
X222599238Y-92654380D01*
X222361142Y-92654380D01*
X222265904Y-92606761D01*
X222218285Y-92559142D01*
X219202095Y-92654380D02*
X219202095Y-91654380D01*
X219440190Y-91654380D01*
X219583047Y-91702000D01*
X219678285Y-91797238D01*
X219725904Y-91892476D01*
X219773523Y-92082952D01*
X219773523Y-92225809D01*
X219725904Y-92416285D01*
X219678285Y-92511523D01*
X219583047Y-92606761D01*
X219440190Y-92654380D01*
X219202095Y-92654380D01*
X220202095Y-92654380D02*
X220202095Y-91654380D01*
X220583047Y-91654380D01*
X220678285Y-91702000D01*
X220725904Y-91749619D01*
X220773523Y-91844857D01*
X220773523Y-91987714D01*
X220725904Y-92082952D01*
X220678285Y-92130571D01*
X220583047Y-92178190D01*
X220202095Y-92178190D01*
X217868476Y-91860714D02*
X217868476Y-92527380D01*
X217630380Y-91479761D02*
X217392285Y-92194047D01*
X218011333Y-92194047D01*
X214749095Y-92527380D02*
X214749095Y-91527380D01*
X214987190Y-91527380D01*
X215130047Y-91575000D01*
X215225285Y-91670238D01*
X215272904Y-91765476D01*
X215320523Y-91955952D01*
X215320523Y-92098809D01*
X215272904Y-92289285D01*
X215225285Y-92384523D01*
X215130047Y-92479761D01*
X214987190Y-92527380D01*
X214749095Y-92527380D01*
X212526523Y-92432142D02*
X212478904Y-92479761D01*
X212336047Y-92527380D01*
X212240809Y-92527380D01*
X212097952Y-92479761D01*
X212002714Y-92384523D01*
X211955095Y-92289285D01*
X211907476Y-92098809D01*
X211907476Y-91955952D01*
X211955095Y-91765476D01*
X212002714Y-91670238D01*
X212097952Y-91575000D01*
X212240809Y-91527380D01*
X212336047Y-91527380D01*
X212478904Y-91575000D01*
X212526523Y-91622619D01*
X209589714Y-91876571D02*
X209923047Y-91876571D01*
X210065904Y-92400380D02*
X209589714Y-92400380D01*
X209589714Y-91400380D01*
X210065904Y-91400380D01*
X206398904Y-92527380D02*
X206398904Y-91527380D01*
X206637000Y-91527380D01*
X206779857Y-91575000D01*
X206875095Y-91670238D01*
X206922714Y-91765476D01*
X206970333Y-91955952D01*
X206970333Y-92098809D01*
X206922714Y-92289285D01*
X206875095Y-92384523D01*
X206779857Y-92479761D01*
X206637000Y-92527380D01*
X206398904Y-92527380D01*
X207303666Y-91527380D02*
X207922714Y-91527380D01*
X207589380Y-91908333D01*
X207732238Y-91908333D01*
X207827476Y-91955952D01*
X207875095Y-92003571D01*
X207922714Y-92098809D01*
X207922714Y-92336904D01*
X207875095Y-92432142D01*
X207827476Y-92479761D01*
X207732238Y-92527380D01*
X207446523Y-92527380D01*
X207351285Y-92479761D01*
X207303666Y-92432142D01*
X195627714Y-95924666D02*
X196103904Y-95924666D01*
X195532476Y-96210380D02*
X195865809Y-95210380D01*
X196199142Y-96210380D01*
X196437238Y-95210380D02*
X197103904Y-95210380D01*
X196675333Y-96210380D01*
X195627714Y-93257666D02*
X196103904Y-93257666D01*
X195532476Y-93543380D02*
X195865809Y-92543380D01*
X196199142Y-93543380D01*
X196961047Y-92543380D02*
X196770571Y-92543380D01*
X196675333Y-92591000D01*
X196627714Y-92638619D01*
X196532476Y-92781476D01*
X196484857Y-92971952D01*
X196484857Y-93352904D01*
X196532476Y-93448142D01*
X196580095Y-93495761D01*
X196675333Y-93543380D01*
X196865809Y-93543380D01*
X196961047Y-93495761D01*
X197008666Y-93448142D01*
X197056285Y-93352904D01*
X197056285Y-93114809D01*
X197008666Y-93019571D01*
X196961047Y-92971952D01*
X196865809Y-92924333D01*
X196675333Y-92924333D01*
X196580095Y-92971952D01*
X196532476Y-93019571D01*
X196484857Y-93114809D01*
X195627714Y-90717666D02*
X196103904Y-90717666D01*
X195532476Y-91003380D02*
X195865809Y-90003380D01*
X196199142Y-91003380D01*
X196437238Y-90003380D02*
X197056285Y-90003380D01*
X196722952Y-90384333D01*
X196865809Y-90384333D01*
X196961047Y-90431952D01*
X197008666Y-90479571D01*
X197056285Y-90574809D01*
X197056285Y-90812904D01*
X197008666Y-90908142D01*
X196961047Y-90955761D01*
X196865809Y-91003380D01*
X196580095Y-91003380D01*
X196484857Y-90955761D01*
X196437238Y-90908142D01*
X195754714Y-88177666D02*
X196230904Y-88177666D01*
X195659476Y-88463380D02*
X195992809Y-87463380D01*
X196326142Y-88463380D01*
X196611857Y-87558619D02*
X196659476Y-87511000D01*
X196754714Y-87463380D01*
X196992809Y-87463380D01*
X197088047Y-87511000D01*
X197135666Y-87558619D01*
X197183285Y-87653857D01*
X197183285Y-87749095D01*
X197135666Y-87891952D01*
X196564238Y-88463380D01*
X197183285Y-88463380D01*
X195730904Y-86050380D02*
X195730904Y-85050380D01*
X195969000Y-85050380D01*
X196111857Y-85098000D01*
X196207095Y-85193238D01*
X196254714Y-85288476D01*
X196302333Y-85478952D01*
X196302333Y-85621809D01*
X196254714Y-85812285D01*
X196207095Y-85907523D01*
X196111857Y-86002761D01*
X195969000Y-86050380D01*
X195730904Y-86050380D01*
X196635666Y-85050380D02*
X197254714Y-85050380D01*
X196921380Y-85431333D01*
X197064238Y-85431333D01*
X197159476Y-85478952D01*
X197207095Y-85526571D01*
X197254714Y-85621809D01*
X197254714Y-85859904D01*
X197207095Y-85955142D01*
X197159476Y-86002761D01*
X197064238Y-86050380D01*
X196778523Y-86050380D01*
X196683285Y-86002761D01*
X196635666Y-85955142D01*
X195730904Y-83510380D02*
X195730904Y-82510380D01*
X195969000Y-82510380D01*
X196111857Y-82558000D01*
X196207095Y-82653238D01*
X196254714Y-82748476D01*
X196302333Y-82938952D01*
X196302333Y-83081809D01*
X196254714Y-83272285D01*
X196207095Y-83367523D01*
X196111857Y-83462761D01*
X195969000Y-83510380D01*
X195730904Y-83510380D01*
X196683285Y-82605619D02*
X196730904Y-82558000D01*
X196826142Y-82510380D01*
X197064238Y-82510380D01*
X197159476Y-82558000D01*
X197207095Y-82605619D01*
X197254714Y-82700857D01*
X197254714Y-82796095D01*
X197207095Y-82938952D01*
X196635666Y-83510380D01*
X197254714Y-83510380D01*
X195730904Y-80843380D02*
X195730904Y-79843380D01*
X195969000Y-79843380D01*
X196111857Y-79891000D01*
X196207095Y-79986238D01*
X196254714Y-80081476D01*
X196302333Y-80271952D01*
X196302333Y-80414809D01*
X196254714Y-80605285D01*
X196207095Y-80700523D01*
X196111857Y-80795761D01*
X195969000Y-80843380D01*
X195730904Y-80843380D01*
X197254714Y-80843380D02*
X196683285Y-80843380D01*
X196969000Y-80843380D02*
X196969000Y-79843380D01*
X196873761Y-79986238D01*
X196778523Y-80081476D01*
X196683285Y-80129095D01*
X195730904Y-78557380D02*
X195730904Y-77557380D01*
X195969000Y-77557380D01*
X196111857Y-77605000D01*
X196207095Y-77700238D01*
X196254714Y-77795476D01*
X196302333Y-77985952D01*
X196302333Y-78128809D01*
X196254714Y-78319285D01*
X196207095Y-78414523D01*
X196111857Y-78509761D01*
X195969000Y-78557380D01*
X195730904Y-78557380D01*
X196921380Y-77557380D02*
X197016619Y-77557380D01*
X197111857Y-77605000D01*
X197159476Y-77652619D01*
X197207095Y-77747857D01*
X197254714Y-77938333D01*
X197254714Y-78176428D01*
X197207095Y-78366904D01*
X197159476Y-78462142D01*
X197111857Y-78509761D01*
X197016619Y-78557380D01*
X196921380Y-78557380D01*
X196826142Y-78509761D01*
X196778523Y-78462142D01*
X196730904Y-78366904D01*
X196683285Y-78176428D01*
X196683285Y-77938333D01*
X196730904Y-77747857D01*
X196778523Y-77652619D01*
X196826142Y-77605000D01*
X196921380Y-77557380D01*
D12*
X188818095Y-104552523D02*
X188818095Y-100552523D01*
X190151428Y-103409666D01*
X191484761Y-100552523D01*
X191484761Y-104552523D01*
X193389523Y-102457285D02*
X194722857Y-102457285D01*
X195294285Y-104552523D02*
X193389523Y-104552523D01*
X193389523Y-100552523D01*
X195294285Y-100552523D01*
X196818095Y-103409666D02*
X198722857Y-103409666D01*
X196437142Y-104552523D02*
X197770476Y-100552523D01*
X199103809Y-104552523D01*
X200246666Y-104362047D02*
X200818095Y-104552523D01*
X201770476Y-104552523D01*
X202151428Y-104362047D01*
X202341904Y-104171571D01*
X202532380Y-103790619D01*
X202532380Y-103409666D01*
X202341904Y-103028714D01*
X202151428Y-102838238D01*
X201770476Y-102647761D01*
X201008571Y-102457285D01*
X200627619Y-102266809D01*
X200437142Y-102076333D01*
X200246666Y-101695380D01*
X200246666Y-101314428D01*
X200437142Y-100933476D01*
X200627619Y-100743000D01*
X201008571Y-100552523D01*
X201960952Y-100552523D01*
X202532380Y-100743000D01*
D11*
X121324619Y-107323190D02*
X121324619Y-107894619D01*
X120324619Y-107608904D02*
X121324619Y-107608904D01*
X120848428Y-108227952D02*
X120848428Y-108561285D01*
X120324619Y-108704142D02*
X120324619Y-108227952D01*
X121324619Y-108227952D01*
X121324619Y-108704142D01*
X120419857Y-109704142D02*
X120372238Y-109656523D01*
X120324619Y-109513666D01*
X120324619Y-109418428D01*
X120372238Y-109275571D01*
X120467476Y-109180333D01*
X120562714Y-109132714D01*
X120753190Y-109085095D01*
X120896047Y-109085095D01*
X121086523Y-109132714D01*
X121181761Y-109180333D01*
X121277000Y-109275571D01*
X121324619Y-109418428D01*
X121324619Y-109513666D01*
X121277000Y-109656523D01*
X121229380Y-109704142D01*
X120229380Y-109894619D02*
X120229380Y-110656523D01*
X120324619Y-111370809D02*
X120324619Y-110894619D01*
X121324619Y-110894619D01*
X123166119Y-93218166D02*
X122166119Y-93551500D01*
X123166119Y-93884833D01*
X122166119Y-94218166D02*
X123166119Y-94218166D01*
X123166119Y-94456261D01*
X123118500Y-94599119D01*
X123023261Y-94694357D01*
X122928023Y-94741976D01*
X122737547Y-94789595D01*
X122594690Y-94789595D01*
X122404214Y-94741976D01*
X122308976Y-94694357D01*
X122213738Y-94599119D01*
X122166119Y-94456261D01*
X122166119Y-94218166D01*
X122166119Y-95218166D02*
X123166119Y-95218166D01*
X123166119Y-95456261D01*
X123118500Y-95599119D01*
X123023261Y-95694357D01*
X122928023Y-95741976D01*
X122737547Y-95789595D01*
X122594690Y-95789595D01*
X122404214Y-95741976D01*
X122308976Y-95694357D01*
X122213738Y-95599119D01*
X122166119Y-95456261D01*
X122166119Y-95218166D01*
X149614785Y-114006880D02*
X150186214Y-114006880D01*
X149900500Y-115006880D02*
X149900500Y-114006880D01*
X150900500Y-114959261D02*
X150805261Y-115006880D01*
X150614785Y-115006880D01*
X150519547Y-114959261D01*
X150471928Y-114864023D01*
X150471928Y-114483071D01*
X150519547Y-114387833D01*
X150614785Y-114340214D01*
X150805261Y-114340214D01*
X150900500Y-114387833D01*
X150948119Y-114483071D01*
X150948119Y-114578309D01*
X150471928Y-114673547D01*
X151376690Y-115006880D02*
X151376690Y-114340214D01*
X151376690Y-114435452D02*
X151424309Y-114387833D01*
X151519547Y-114340214D01*
X151662404Y-114340214D01*
X151757642Y-114387833D01*
X151805261Y-114483071D01*
X151805261Y-115006880D01*
X151805261Y-114483071D02*
X151852880Y-114387833D01*
X151948119Y-114340214D01*
X152090976Y-114340214D01*
X152186214Y-114387833D01*
X152233833Y-114483071D01*
X152233833Y-115006880D01*
X152710023Y-114340214D02*
X152710023Y-115340214D01*
X152710023Y-114387833D02*
X152805261Y-114340214D01*
X152995738Y-114340214D01*
X153090976Y-114387833D01*
X153138595Y-114435452D01*
X153186214Y-114530690D01*
X153186214Y-114816404D01*
X153138595Y-114911642D01*
X153090976Y-114959261D01*
X152995738Y-115006880D01*
X152805261Y-115006880D01*
X152710023Y-114959261D01*
X154186214Y-114911642D02*
X154138595Y-114959261D01*
X153995738Y-115006880D01*
X153900500Y-115006880D01*
X153757642Y-114959261D01*
X153662404Y-114864023D01*
X153614785Y-114768785D01*
X153567166Y-114578309D01*
X153567166Y-114435452D01*
X153614785Y-114244976D01*
X153662404Y-114149738D01*
X153757642Y-114054500D01*
X153900500Y-114006880D01*
X153995738Y-114006880D01*
X154138595Y-114054500D01*
X154186214Y-114102119D01*
X154757642Y-115006880D02*
X154662404Y-114959261D01*
X154614785Y-114911642D01*
X154567166Y-114816404D01*
X154567166Y-114530690D01*
X154614785Y-114435452D01*
X154662404Y-114387833D01*
X154757642Y-114340214D01*
X154900500Y-114340214D01*
X154995738Y-114387833D01*
X155043357Y-114435452D01*
X155090976Y-114530690D01*
X155090976Y-114816404D01*
X155043357Y-114911642D01*
X154995738Y-114959261D01*
X154900500Y-115006880D01*
X154757642Y-115006880D01*
X155519547Y-114340214D02*
X155519547Y-115006880D01*
X155519547Y-114435452D02*
X155567166Y-114387833D01*
X155662404Y-114340214D01*
X155805261Y-114340214D01*
X155900500Y-114387833D01*
X155948119Y-114483071D01*
X155948119Y-115006880D01*
X156281452Y-114340214D02*
X156662404Y-114340214D01*
X156424309Y-114006880D02*
X156424309Y-114864023D01*
X156471928Y-114959261D01*
X156567166Y-115006880D01*
X156662404Y-115006880D01*
X156995738Y-115006880D02*
X156995738Y-114340214D01*
X156995738Y-114530690D02*
X157043357Y-114435452D01*
X157090976Y-114387833D01*
X157186214Y-114340214D01*
X157281452Y-114340214D01*
X157757642Y-115006880D02*
X157662404Y-114959261D01*
X157614785Y-114911642D01*
X157567166Y-114816404D01*
X157567166Y-114530690D01*
X157614785Y-114435452D01*
X157662404Y-114387833D01*
X157757642Y-114340214D01*
X157900500Y-114340214D01*
X157995738Y-114387833D01*
X158043357Y-114435452D01*
X158090976Y-114530690D01*
X158090976Y-114816404D01*
X158043357Y-114911642D01*
X157995738Y-114959261D01*
X157900500Y-115006880D01*
X157757642Y-115006880D01*
X158662404Y-115006880D02*
X158567166Y-114959261D01*
X158519547Y-114864023D01*
X158519547Y-114006880D01*
X159186214Y-115006880D02*
X159090976Y-114959261D01*
X159043357Y-114864023D01*
X159043357Y-114006880D01*
X159948119Y-114959261D02*
X159852880Y-115006880D01*
X159662404Y-115006880D01*
X159567166Y-114959261D01*
X159519547Y-114864023D01*
X159519547Y-114483071D01*
X159567166Y-114387833D01*
X159662404Y-114340214D01*
X159852880Y-114340214D01*
X159948119Y-114387833D01*
X159995738Y-114483071D01*
X159995738Y-114578309D01*
X159519547Y-114673547D01*
X160424309Y-115006880D02*
X160424309Y-114340214D01*
X160424309Y-114530690D02*
X160471928Y-114435452D01*
X160519547Y-114387833D01*
X160614785Y-114340214D01*
X160710023Y-114340214D01*
X161710023Y-114340214D02*
X161948119Y-115006880D01*
X162186214Y-114340214D01*
X162519547Y-114102119D02*
X162567166Y-114054500D01*
X162662404Y-114006880D01*
X162900500Y-114006880D01*
X162995738Y-114054500D01*
X163043357Y-114102119D01*
X163090976Y-114197357D01*
X163090976Y-114292595D01*
X163043357Y-114435452D01*
X162471928Y-115006880D01*
X163090976Y-115006880D01*
X145543357Y-115656880D02*
X145543357Y-116371166D01*
X145495738Y-116514023D01*
X145400500Y-116609261D01*
X145257642Y-116656880D01*
X145162404Y-116656880D01*
X146162404Y-116656880D02*
X146067166Y-116609261D01*
X146019547Y-116561642D01*
X145971928Y-116466404D01*
X145971928Y-116180690D01*
X146019547Y-116085452D01*
X146067166Y-116037833D01*
X146162404Y-115990214D01*
X146305261Y-115990214D01*
X146400500Y-116037833D01*
X146448119Y-116085452D01*
X146495738Y-116180690D01*
X146495738Y-116466404D01*
X146448119Y-116561642D01*
X146400500Y-116609261D01*
X146305261Y-116656880D01*
X146162404Y-116656880D01*
X146924309Y-116656880D02*
X146924309Y-115990214D01*
X146924309Y-116180690D02*
X146971928Y-116085452D01*
X147019547Y-116037833D01*
X147114785Y-115990214D01*
X147210023Y-115990214D01*
X147971928Y-116656880D02*
X147971928Y-115656880D01*
X147971928Y-116609261D02*
X147876690Y-116656880D01*
X147686214Y-116656880D01*
X147590976Y-116609261D01*
X147543357Y-116561642D01*
X147495738Y-116466404D01*
X147495738Y-116180690D01*
X147543357Y-116085452D01*
X147590976Y-116037833D01*
X147686214Y-115990214D01*
X147876690Y-115990214D01*
X147971928Y-116037833D01*
X148876690Y-116656880D02*
X148876690Y-116133071D01*
X148829071Y-116037833D01*
X148733833Y-115990214D01*
X148543357Y-115990214D01*
X148448119Y-116037833D01*
X148876690Y-116609261D02*
X148781452Y-116656880D01*
X148543357Y-116656880D01*
X148448119Y-116609261D01*
X148400500Y-116514023D01*
X148400500Y-116418785D01*
X148448119Y-116323547D01*
X148543357Y-116275928D01*
X148781452Y-116275928D01*
X148876690Y-116228309D01*
X149352880Y-115990214D02*
X149352880Y-116656880D01*
X149352880Y-116085452D02*
X149400500Y-116037833D01*
X149495738Y-115990214D01*
X149638595Y-115990214D01*
X149733833Y-116037833D01*
X149781452Y-116133071D01*
X149781452Y-116656880D01*
X151019547Y-116133071D02*
X151352880Y-116133071D01*
X151495738Y-116656880D02*
X151019547Y-116656880D01*
X151019547Y-115656880D01*
X151495738Y-115656880D01*
X152352880Y-116656880D02*
X152352880Y-115656880D01*
X152352880Y-116609261D02*
X152257642Y-116656880D01*
X152067166Y-116656880D01*
X151971928Y-116609261D01*
X151924309Y-116561642D01*
X151876690Y-116466404D01*
X151876690Y-116180690D01*
X151924309Y-116085452D01*
X151971928Y-116037833D01*
X152067166Y-115990214D01*
X152257642Y-115990214D01*
X152352880Y-116037833D01*
X152829071Y-116656880D02*
X152829071Y-115990214D01*
X152829071Y-116085452D02*
X152876690Y-116037833D01*
X152971928Y-115990214D01*
X153114785Y-115990214D01*
X153210023Y-116037833D01*
X153257642Y-116133071D01*
X153257642Y-116656880D01*
X153257642Y-116133071D02*
X153305261Y-116037833D01*
X153400500Y-115990214D01*
X153543357Y-115990214D01*
X153638595Y-116037833D01*
X153686214Y-116133071D01*
X153686214Y-116656880D01*
X154590976Y-115990214D02*
X154590976Y-116656880D01*
X154162404Y-115990214D02*
X154162404Y-116514023D01*
X154210023Y-116609261D01*
X154305261Y-116656880D01*
X154448119Y-116656880D01*
X154543357Y-116609261D01*
X154590976Y-116561642D01*
X155067166Y-115990214D02*
X155067166Y-116656880D01*
X155067166Y-116085452D02*
X155114785Y-116037833D01*
X155210023Y-115990214D01*
X155352880Y-115990214D01*
X155448119Y-116037833D01*
X155495738Y-116133071D01*
X155495738Y-116656880D01*
X156400500Y-116656880D02*
X156400500Y-115656880D01*
X156400500Y-116609261D02*
X156305261Y-116656880D01*
X156114785Y-116656880D01*
X156019547Y-116609261D01*
X155971928Y-116561642D01*
X155924309Y-116466404D01*
X155924309Y-116180690D01*
X155971928Y-116085452D01*
X156019547Y-116037833D01*
X156114785Y-115990214D01*
X156305261Y-115990214D01*
X156400500Y-116037833D01*
X156829071Y-116609261D02*
X156924309Y-116656880D01*
X157114785Y-116656880D01*
X157210023Y-116609261D01*
X157257642Y-116514023D01*
X157257642Y-116466404D01*
X157210023Y-116371166D01*
X157114785Y-116323547D01*
X156971928Y-116323547D01*
X156876690Y-116275928D01*
X156829071Y-116180690D01*
X156829071Y-116133071D01*
X156876690Y-116037833D01*
X156971928Y-115990214D01*
X157114785Y-115990214D01*
X157210023Y-116037833D01*
X157733833Y-116609261D02*
X157733833Y-116656880D01*
X157686214Y-116752119D01*
X157638595Y-116799738D01*
X158924309Y-115656880D02*
X158924309Y-116466404D01*
X158971928Y-116561642D01*
X159019547Y-116609261D01*
X159114785Y-116656880D01*
X159305261Y-116656880D01*
X159400500Y-116609261D01*
X159448119Y-116561642D01*
X159495738Y-116466404D01*
X159495738Y-115656880D01*
X160543357Y-116561642D02*
X160495738Y-116609261D01*
X160352880Y-116656880D01*
X160257642Y-116656880D01*
X160114785Y-116609261D01*
X160019547Y-116514023D01*
X159971928Y-116418785D01*
X159924309Y-116228309D01*
X159924309Y-116085452D01*
X159971928Y-115894976D01*
X160019547Y-115799738D01*
X160114785Y-115704500D01*
X160257642Y-115656880D01*
X160352880Y-115656880D01*
X160495738Y-115704500D01*
X160543357Y-115752119D01*
X162067166Y-116133071D02*
X162210023Y-116180690D01*
X162257642Y-116228309D01*
X162305261Y-116323547D01*
X162305261Y-116466404D01*
X162257642Y-116561642D01*
X162210023Y-116609261D01*
X162114785Y-116656880D01*
X161733833Y-116656880D01*
X161733833Y-115656880D01*
X162067166Y-115656880D01*
X162162404Y-115704500D01*
X162210023Y-115752119D01*
X162257642Y-115847357D01*
X162257642Y-115942595D01*
X162210023Y-116037833D01*
X162162404Y-116085452D01*
X162067166Y-116133071D01*
X161733833Y-116133071D01*
X163114785Y-116609261D02*
X163019547Y-116656880D01*
X162829071Y-116656880D01*
X162733833Y-116609261D01*
X162686214Y-116514023D01*
X162686214Y-116133071D01*
X162733833Y-116037833D01*
X162829071Y-115990214D01*
X163019547Y-115990214D01*
X163114785Y-116037833D01*
X163162404Y-116133071D01*
X163162404Y-116228309D01*
X162686214Y-116323547D01*
X163590976Y-116656880D02*
X163590976Y-115990214D01*
X163590976Y-116180690D02*
X163638595Y-116085452D01*
X163686214Y-116037833D01*
X163781452Y-115990214D01*
X163876690Y-115990214D01*
X164210023Y-116656880D02*
X164210023Y-115656880D01*
X164305261Y-116275928D02*
X164590976Y-116656880D01*
X164590976Y-115990214D02*
X164210023Y-116371166D01*
X165400500Y-116609261D02*
X165305261Y-116656880D01*
X165114785Y-116656880D01*
X165019547Y-116609261D01*
X164971928Y-116514023D01*
X164971928Y-116133071D01*
X165019547Y-116037833D01*
X165114785Y-115990214D01*
X165305261Y-115990214D01*
X165400500Y-116037833D01*
X165448119Y-116133071D01*
X165448119Y-116228309D01*
X164971928Y-116323547D01*
X166019547Y-116656880D02*
X165924309Y-116609261D01*
X165876690Y-116514023D01*
X165876690Y-115656880D01*
X166781452Y-116609261D02*
X166686214Y-116656880D01*
X166495738Y-116656880D01*
X166400500Y-116609261D01*
X166352880Y-116514023D01*
X166352880Y-116133071D01*
X166400500Y-116037833D01*
X166495738Y-115990214D01*
X166686214Y-115990214D01*
X166781452Y-116037833D01*
X166829071Y-116133071D01*
X166829071Y-116228309D01*
X166352880Y-116323547D01*
X167162404Y-115990214D02*
X167400500Y-116656880D01*
X167638595Y-115990214D02*
X167400500Y-116656880D01*
X167305261Y-116894976D01*
X167257642Y-116942595D01*
X167162404Y-116990214D01*
D10*
X187573190Y-65523809D02*
X188287476Y-65761904D01*
X189477952Y-65761904D01*
X189954142Y-65523809D01*
X190192238Y-65285714D01*
X190430333Y-64809523D01*
X190430333Y-64333333D01*
X190192238Y-63857142D01*
X189954142Y-63619047D01*
X189477952Y-63380952D01*
X188525571Y-63142857D01*
X188049380Y-62904761D01*
X187811285Y-62666666D01*
X187573190Y-62190476D01*
X187573190Y-61714285D01*
X187811285Y-61238095D01*
X188049380Y-61000000D01*
X188525571Y-60761904D01*
X189716047Y-60761904D01*
X190430333Y-61000000D01*
X192573190Y-63142857D02*
X194239857Y-63142857D01*
X194954142Y-65761904D02*
X192573190Y-65761904D01*
X192573190Y-60761904D01*
X194954142Y-60761904D01*
X196382714Y-60761904D02*
X199239857Y-60761904D01*
X197811285Y-65761904D02*
X197811285Y-60761904D01*
X204001761Y-60761904D02*
X206858904Y-60761904D01*
X205430333Y-65761904D02*
X205430333Y-60761904D01*
X208525571Y-63142857D02*
X210192238Y-63142857D01*
X210906523Y-65761904D02*
X208525571Y-65761904D01*
X208525571Y-60761904D01*
X210906523Y-60761904D01*
X213049380Y-65761904D02*
X213049380Y-60761904D01*
X214716047Y-64333333D01*
X216382714Y-60761904D01*
X216382714Y-65761904D01*
X218763666Y-65761904D02*
X218763666Y-60761904D01*
X220668428Y-60761904D01*
X221144619Y-61000000D01*
X221382714Y-61238095D01*
X221620809Y-61714285D01*
X221620809Y-62428571D01*
X221382714Y-62904761D01*
X221144619Y-63142857D01*
X220668428Y-63380952D01*
X218763666Y-63380952D01*
D13*
%TO.C,A1*%
X168399000Y-104714500D02*
X186439000Y-104714500D01*
X168399000Y-61274500D02*
X168399000Y-104714500D01*
X186439000Y-61274500D02*
X168399000Y-61274500D01*
D14*
X181229000Y-58864500D02*
X181229000Y-69024500D01*
X173609000Y-58864500D02*
X181229000Y-58864500D01*
X173609000Y-69024500D02*
X173609000Y-58864500D01*
X181229000Y-69024500D02*
X173609000Y-69024500D01*
D13*
X183769000Y-63944500D02*
X186439000Y-63944500D01*
X183769000Y-99504500D02*
X183769000Y-63944500D01*
X183769000Y-99504500D02*
X186439000Y-99504500D01*
X171069000Y-63944500D02*
X168399000Y-63944500D01*
X171069000Y-102044500D02*
X171069000Y-63944500D01*
X171069000Y-102044500D02*
X168399000Y-102044500D01*
X186439000Y-104714500D02*
X186439000Y-102044500D01*
X186439000Y-99504500D02*
X186439000Y-61274500D01*
X183769000Y-102044500D02*
X186439000Y-102044500D01*
X183769000Y-99504500D02*
X183769000Y-102044500D01*
%TO.C,R2*%
X152860000Y-96266000D02*
X152860000Y-86025000D01*
X157501000Y-96266000D02*
X157501000Y-95595000D01*
X157480000Y-91766000D02*
X157480000Y-90481000D01*
X157501000Y-86680000D02*
X157501000Y-86025000D01*
X152860000Y-96266000D02*
X157501000Y-96266000D01*
X152860000Y-86025000D02*
X157501000Y-86025000D01*
X154369000Y-96266000D02*
X154369000Y-86025000D01*
X152860000Y-92995000D02*
X154369000Y-92995000D01*
X152860000Y-89295000D02*
X154369000Y-89295000D01*
D11*
%TO.C,TP4*%
X145799000Y-62611000D02*
G75*
G03*
X145799000Y-62611000I-1400000J0D01*
G01*
%TO.C,TP6*%
X151641000Y-62484000D02*
G75*
G03*
X151641000Y-62484000I-1400000J0D01*
G01*
%TO.C,TP5*%
X165039500Y-62611000D02*
G75*
G03*
X165039500Y-62611000I-1400000J0D01*
G01*
%TO.C,TP2*%
X165357000Y-67691000D02*
G75*
G03*
X165357000Y-67691000I-1400000J0D01*
G01*
D13*
%TO.C,R5*%
X155255752Y-67639000D02*
X154733248Y-67639000D01*
X155255752Y-66219000D02*
X154733248Y-66219000D01*
%TO.C,R3*%
X155382752Y-63321000D02*
X154860248Y-63321000D01*
X155382752Y-61901000D02*
X154860248Y-61901000D01*
%TO.C,C3*%
X158961000Y-67493248D02*
X158961000Y-68015752D01*
X157541000Y-67493248D02*
X157541000Y-68015752D01*
%TO.C,C2*%
X159079000Y-63247748D02*
X159079000Y-63770252D01*
X157659000Y-63247748D02*
X157659000Y-63770252D01*
D11*
%TO.C,TP1*%
X151323500Y-67627500D02*
G75*
G03*
X151323500Y-67627500I-1400000J0D01*
G01*
D13*
%TO.C,J3*%
X184048100Y-113048200D02*
X182068100Y-113048200D01*
X184048100Y-112698200D02*
X184048100Y-113048200D01*
X184818100Y-112698200D02*
X184048100Y-112698200D01*
X184818100Y-114748200D02*
X184818100Y-112698200D01*
X184818100Y-116868200D02*
X184818100Y-116568200D01*
X184018100Y-116868200D02*
X184818100Y-116868200D01*
X184018100Y-118168200D02*
X184018100Y-116868200D01*
X174198100Y-118168200D02*
X184018100Y-118168200D01*
X174198100Y-116868200D02*
X174198100Y-118168200D01*
X173398100Y-116868200D02*
X174198100Y-116868200D01*
X173398100Y-116568200D02*
X173398100Y-116868200D01*
X173398100Y-112698200D02*
X173398100Y-114748200D01*
X174168100Y-112698200D02*
X173398100Y-112698200D01*
X174168100Y-113048200D02*
X174168100Y-112698200D01*
X176148100Y-113048200D02*
X174168100Y-113048200D01*
X176148100Y-112458200D02*
X176148100Y-113048200D01*
%TO.C,R4*%
X155114248Y-72719000D02*
X155636752Y-72719000D01*
X155114248Y-71299000D02*
X155636752Y-71299000D01*
%TO.C,Q1*%
X152495000Y-93037000D02*
X150985000Y-93037000D01*
X152495000Y-89336000D02*
X150985000Y-89336000D01*
X150985000Y-86066000D02*
X150985000Y-96306000D01*
X152495000Y-96306000D02*
X147854000Y-96306000D01*
X152495000Y-86066000D02*
X147854000Y-86066000D01*
X147854000Y-86066000D02*
X147854000Y-96306000D01*
X152495000Y-86066000D02*
X152495000Y-96306000D01*
D11*
%TO.C,TP3*%
X145799000Y-67627500D02*
G75*
G03*
X145799000Y-67627500I-1400000J0D01*
G01*
D13*
%TO.C,U1*%
X207910500Y-107760500D02*
X207910500Y-109575500D01*
X207645500Y-107760500D02*
X207910500Y-107760500D01*
X207645500Y-103900500D02*
X207645500Y-107760500D01*
X207645500Y-100040500D02*
X207910500Y-100040500D01*
X207645500Y-103900500D02*
X207645500Y-100040500D01*
X223265500Y-107760500D02*
X223000500Y-107760500D01*
X223265500Y-103900500D02*
X223265500Y-107760500D01*
X223265500Y-100040500D02*
X223000500Y-100040500D01*
X223265500Y-103900500D02*
X223265500Y-100040500D01*
%TO.C,RV1*%
X133295500Y-71532000D02*
X133295500Y-72362000D01*
X133295500Y-73982000D02*
X133295500Y-74512000D01*
X133295500Y-76882000D02*
X133295500Y-78062000D01*
X133295500Y-68322000D02*
X128575500Y-68322000D01*
X133295500Y-78072000D02*
X128575500Y-78072000D01*
X133295500Y-68322000D02*
X133295500Y-69812000D01*
X121983500Y-67984000D02*
X121983500Y-77724000D01*
%TO.C,R1*%
X225944500Y-103711752D02*
X225944500Y-103189248D01*
X224524500Y-103711752D02*
X224524500Y-103189248D01*
D15*
%TO.C,LED2*%
X198475600Y-95173800D02*
X228752400Y-95173800D01*
X198475600Y-82118200D02*
X198475600Y-95173800D01*
X228752400Y-82118200D02*
X198475600Y-82118200D01*
X228752400Y-95173800D02*
X228752400Y-82118200D01*
%TO.C,LED1*%
X198475600Y-80251300D02*
X228752400Y-80251300D01*
X198475600Y-67195700D02*
X198475600Y-80251300D01*
X228752400Y-67195700D02*
X198475600Y-67195700D01*
X228752400Y-80251300D02*
X228752400Y-67195700D01*
D13*
%TO.C,J4*%
X194116000Y-97659500D02*
X192786000Y-97659500D01*
X194116000Y-96329500D02*
X194116000Y-97659500D01*
X194116000Y-95059500D02*
X191456000Y-95059500D01*
X191456000Y-95059500D02*
X191456000Y-77219500D01*
X194116000Y-95059500D02*
X194116000Y-77219500D01*
X194116000Y-77219500D02*
X191456000Y-77219500D01*
%TO.C,J2*%
X129934500Y-107006000D02*
X129934500Y-96156000D01*
X124834500Y-107006000D02*
X129934500Y-107006000D01*
X125134500Y-106506000D02*
X124834500Y-107006000D01*
X119734500Y-106506000D02*
X125134500Y-106506000D01*
X119984500Y-107006000D02*
X119734500Y-106506000D01*
X119934500Y-107006000D02*
X119984500Y-107006000D01*
X118034500Y-107006000D02*
X119934500Y-107006000D01*
X118284500Y-106506000D02*
X118034500Y-107006000D01*
X117334500Y-106506000D02*
X118284500Y-106506000D01*
X117334500Y-96156000D02*
X117334500Y-106506000D01*
X129934500Y-96156000D02*
X117334500Y-96156000D01*
%TO.C,J1*%
X135137000Y-84350500D02*
X135137000Y-83300500D01*
X134087000Y-83300500D02*
X135137000Y-83300500D01*
X129037000Y-92700500D02*
X120237000Y-92700500D01*
X120237000Y-92700500D02*
X120237000Y-83500500D01*
X134937000Y-90000500D02*
X134937000Y-92700500D01*
X134937000Y-92700500D02*
X133037000Y-92700500D01*
X120237000Y-83500500D02*
X134937000Y-83500500D01*
X134937000Y-83500500D02*
X134937000Y-86100500D01*
%TO.C,C1*%
X197424646Y-73606000D02*
X197424646Y-72606000D01*
X197924646Y-73106000D02*
X196924646Y-73106000D01*
X187364000Y-70830000D02*
X187364000Y-69632000D01*
X187404000Y-71093000D02*
X187404000Y-69369000D01*
X187444000Y-71293000D02*
X187444000Y-69169000D01*
X187484000Y-71461000D02*
X187484000Y-69001000D01*
X187524000Y-71609000D02*
X187524000Y-68853000D01*
X187564000Y-71741000D02*
X187564000Y-68721000D01*
X187604000Y-71861000D02*
X187604000Y-68601000D01*
X187644000Y-71973000D02*
X187644000Y-68489000D01*
X187684000Y-72077000D02*
X187684000Y-68385000D01*
X187724000Y-72175000D02*
X187724000Y-68287000D01*
X187764000Y-72268000D02*
X187764000Y-68194000D01*
X187804000Y-72356000D02*
X187804000Y-68106000D01*
X187844000Y-72440000D02*
X187844000Y-68022000D01*
X187884000Y-72520000D02*
X187884000Y-67942000D01*
X187924000Y-72596000D02*
X187924000Y-67866000D01*
X187964000Y-72670000D02*
X187964000Y-67792000D01*
X188004000Y-72741000D02*
X188004000Y-67721000D01*
X188044000Y-72810000D02*
X188044000Y-67652000D01*
X188084000Y-72876000D02*
X188084000Y-67586000D01*
X188124000Y-72940000D02*
X188124000Y-67522000D01*
X188164000Y-73001000D02*
X188164000Y-67461000D01*
X188204000Y-73061000D02*
X188204000Y-67401000D01*
X188244000Y-73120000D02*
X188244000Y-67342000D01*
X188284000Y-73176000D02*
X188284000Y-67286000D01*
X188324000Y-73231000D02*
X188324000Y-67231000D01*
X188364000Y-73285000D02*
X188364000Y-67177000D01*
X188404000Y-73337000D02*
X188404000Y-67125000D01*
X188444000Y-73387000D02*
X188444000Y-67075000D01*
X188484000Y-73437000D02*
X188484000Y-67025000D01*
X188524000Y-73485000D02*
X188524000Y-66977000D01*
X188564000Y-73532000D02*
X188564000Y-66930000D01*
X188604000Y-73578000D02*
X188604000Y-66884000D01*
X188644000Y-73623000D02*
X188644000Y-66839000D01*
X188684000Y-73667000D02*
X188684000Y-66795000D01*
X188724000Y-68990000D02*
X188724000Y-66753000D01*
X188724000Y-73709000D02*
X188724000Y-71472000D01*
X188764000Y-68990000D02*
X188764000Y-66711000D01*
X188764000Y-73751000D02*
X188764000Y-71472000D01*
X188804000Y-68990000D02*
X188804000Y-66670000D01*
X188804000Y-73792000D02*
X188804000Y-71472000D01*
X188844000Y-68990000D02*
X188844000Y-66630000D01*
X188844000Y-73832000D02*
X188844000Y-71472000D01*
X188884000Y-68990000D02*
X188884000Y-66591000D01*
X188884000Y-73871000D02*
X188884000Y-71472000D01*
X188924000Y-68990000D02*
X188924000Y-66552000D01*
X188924000Y-73910000D02*
X188924000Y-71472000D01*
X188964000Y-68990000D02*
X188964000Y-66515000D01*
X188964000Y-73947000D02*
X188964000Y-71472000D01*
X189004000Y-68990000D02*
X189004000Y-66478000D01*
X189004000Y-73984000D02*
X189004000Y-71472000D01*
X189044000Y-68990000D02*
X189044000Y-66442000D01*
X189044000Y-74020000D02*
X189044000Y-71472000D01*
X189084000Y-68990000D02*
X189084000Y-66407000D01*
X189084000Y-74055000D02*
X189084000Y-71472000D01*
X189124000Y-68990000D02*
X189124000Y-66373000D01*
X189124000Y-74089000D02*
X189124000Y-71472000D01*
X189164000Y-68990000D02*
X189164000Y-66339000D01*
X189164000Y-74123000D02*
X189164000Y-71472000D01*
X189204000Y-68990000D02*
X189204000Y-66306000D01*
X189204000Y-74156000D02*
X189204000Y-71472000D01*
X189244000Y-68990000D02*
X189244000Y-66274000D01*
X189244000Y-74188000D02*
X189244000Y-71472000D01*
X189284000Y-68990000D02*
X189284000Y-66242000D01*
X189284000Y-74220000D02*
X189284000Y-71472000D01*
X189324000Y-68990000D02*
X189324000Y-66211000D01*
X189324000Y-74251000D02*
X189324000Y-71472000D01*
X189364000Y-68990000D02*
X189364000Y-66181000D01*
X189364000Y-74281000D02*
X189364000Y-71472000D01*
X189404000Y-68990000D02*
X189404000Y-66151000D01*
X189404000Y-74311000D02*
X189404000Y-71472000D01*
X189444000Y-68990000D02*
X189444000Y-66121000D01*
X189444000Y-74341000D02*
X189444000Y-71472000D01*
X189484000Y-68990000D02*
X189484000Y-66093000D01*
X189484000Y-74369000D02*
X189484000Y-71472000D01*
X189524000Y-68990000D02*
X189524000Y-66065000D01*
X189524000Y-74397000D02*
X189524000Y-71472000D01*
X189564000Y-68990000D02*
X189564000Y-66037000D01*
X189564000Y-74425000D02*
X189564000Y-71472000D01*
X189604000Y-68990000D02*
X189604000Y-66010000D01*
X189604000Y-74452000D02*
X189604000Y-71472000D01*
X189644000Y-68990000D02*
X189644000Y-65984000D01*
X189644000Y-74478000D02*
X189644000Y-71472000D01*
X189684000Y-68990000D02*
X189684000Y-65958000D01*
X189684000Y-74504000D02*
X189684000Y-71472000D01*
X189724000Y-68990000D02*
X189724000Y-65933000D01*
X189724000Y-74529000D02*
X189724000Y-71472000D01*
X189764000Y-68990000D02*
X189764000Y-65908000D01*
X189764000Y-74554000D02*
X189764000Y-71472000D01*
X189804000Y-68990000D02*
X189804000Y-65884000D01*
X189804000Y-74578000D02*
X189804000Y-71472000D01*
X189844000Y-68990000D02*
X189844000Y-65860000D01*
X189844000Y-74602000D02*
X189844000Y-71472000D01*
X189884000Y-68990000D02*
X189884000Y-65836000D01*
X189884000Y-74626000D02*
X189884000Y-71472000D01*
X189924000Y-68990000D02*
X189924000Y-65814000D01*
X189924000Y-74648000D02*
X189924000Y-71472000D01*
X189964000Y-68990000D02*
X189964000Y-65791000D01*
X189964000Y-74671000D02*
X189964000Y-71472000D01*
X190004000Y-68990000D02*
X190004000Y-65769000D01*
X190004000Y-74693000D02*
X190004000Y-71472000D01*
X190044000Y-68990000D02*
X190044000Y-65748000D01*
X190044000Y-74714000D02*
X190044000Y-71472000D01*
X190084000Y-68990000D02*
X190084000Y-65727000D01*
X190084000Y-74735000D02*
X190084000Y-71472000D01*
X190124000Y-68990000D02*
X190124000Y-65706000D01*
X190124000Y-74756000D02*
X190124000Y-71472000D01*
X190164000Y-68990000D02*
X190164000Y-65686000D01*
X190164000Y-74776000D02*
X190164000Y-71472000D01*
X190204000Y-68990000D02*
X190204000Y-65667000D01*
X190204000Y-74795000D02*
X190204000Y-71472000D01*
X190244000Y-68990000D02*
X190244000Y-65647000D01*
X190244000Y-74815000D02*
X190244000Y-71472000D01*
X190284000Y-68990000D02*
X190284000Y-65628000D01*
X190284000Y-74834000D02*
X190284000Y-71472000D01*
X190324000Y-68990000D02*
X190324000Y-65610000D01*
X190324000Y-74852000D02*
X190324000Y-71472000D01*
X190364000Y-68990000D02*
X190364000Y-65592000D01*
X190364000Y-74870000D02*
X190364000Y-71472000D01*
X190404000Y-68990000D02*
X190404000Y-65574000D01*
X190404000Y-74888000D02*
X190404000Y-71472000D01*
X190444000Y-68990000D02*
X190444000Y-65557000D01*
X190444000Y-74905000D02*
X190444000Y-71472000D01*
X190484000Y-68990000D02*
X190484000Y-65541000D01*
X190484000Y-74921000D02*
X190484000Y-71472000D01*
X190524000Y-68990000D02*
X190524000Y-65524000D01*
X190524000Y-74938000D02*
X190524000Y-71472000D01*
X190564000Y-68990000D02*
X190564000Y-65508000D01*
X190564000Y-74954000D02*
X190564000Y-71472000D01*
X190604000Y-68990000D02*
X190604000Y-65493000D01*
X190604000Y-74969000D02*
X190604000Y-71472000D01*
X190644000Y-68990000D02*
X190644000Y-65477000D01*
X190644000Y-74985000D02*
X190644000Y-71472000D01*
X190684000Y-68990000D02*
X190684000Y-65463000D01*
X190684000Y-74999000D02*
X190684000Y-71472000D01*
X190724000Y-68990000D02*
X190724000Y-65448000D01*
X190724000Y-75014000D02*
X190724000Y-71472000D01*
X190764000Y-68990000D02*
X190764000Y-65434000D01*
X190764000Y-75028000D02*
X190764000Y-71472000D01*
X190804000Y-68990000D02*
X190804000Y-65420000D01*
X190804000Y-75042000D02*
X190804000Y-71472000D01*
X190844000Y-68990000D02*
X190844000Y-65407000D01*
X190844000Y-75055000D02*
X190844000Y-71472000D01*
X190884000Y-68990000D02*
X190884000Y-65394000D01*
X190884000Y-75068000D02*
X190884000Y-71472000D01*
X190924000Y-68990000D02*
X190924000Y-65381000D01*
X190924000Y-75081000D02*
X190924000Y-71472000D01*
X190964000Y-68990000D02*
X190964000Y-65369000D01*
X190964000Y-75093000D02*
X190964000Y-71472000D01*
X191004000Y-68990000D02*
X191004000Y-65357000D01*
X191004000Y-75105000D02*
X191004000Y-71472000D01*
X191044000Y-68990000D02*
X191044000Y-65346000D01*
X191044000Y-75116000D02*
X191044000Y-71472000D01*
X191084000Y-68990000D02*
X191084000Y-65334000D01*
X191084000Y-75128000D02*
X191084000Y-71472000D01*
X191124000Y-68990000D02*
X191124000Y-65324000D01*
X191124000Y-75138000D02*
X191124000Y-71472000D01*
X191164000Y-68990000D02*
X191164000Y-65313000D01*
X191164000Y-75149000D02*
X191164000Y-71472000D01*
X191204000Y-75159000D02*
X191204000Y-65303000D01*
X191244000Y-75169000D02*
X191244000Y-65293000D01*
X191284000Y-75178000D02*
X191284000Y-65284000D01*
X191324000Y-75187000D02*
X191324000Y-65275000D01*
X191364000Y-75196000D02*
X191364000Y-65266000D01*
X191404000Y-75205000D02*
X191404000Y-65257000D01*
X191444000Y-75213000D02*
X191444000Y-65249000D01*
X191484000Y-75221000D02*
X191484000Y-65241000D01*
X191524000Y-75228000D02*
X191524000Y-65234000D01*
X191564000Y-75235000D02*
X191564000Y-65227000D01*
X191604000Y-75242000D02*
X191604000Y-65220000D01*
X191644000Y-75249000D02*
X191644000Y-65213000D01*
X191684000Y-75255000D02*
X191684000Y-65207000D01*
X191724000Y-75261000D02*
X191724000Y-65201000D01*
X191765000Y-75266000D02*
X191765000Y-65196000D01*
X191805000Y-75271000D02*
X191805000Y-65191000D01*
X191845000Y-75276000D02*
X191845000Y-65186000D01*
X191885000Y-75281000D02*
X191885000Y-65181000D01*
X191925000Y-75285000D02*
X191925000Y-65177000D01*
X191965000Y-75289000D02*
X191965000Y-65173000D01*
X192005000Y-75293000D02*
X192005000Y-65169000D01*
X192045000Y-75296000D02*
X192045000Y-65166000D01*
X192085000Y-75299000D02*
X192085000Y-65163000D01*
X192125000Y-75301000D02*
X192125000Y-65161000D01*
X192165000Y-75304000D02*
X192165000Y-65158000D01*
X192205000Y-75306000D02*
X192205000Y-65156000D01*
X192245000Y-75308000D02*
X192245000Y-65154000D01*
X192285000Y-75309000D02*
X192285000Y-65153000D01*
X192325000Y-75310000D02*
X192325000Y-65152000D01*
X192365000Y-75311000D02*
X192365000Y-65151000D01*
X192405000Y-75311000D02*
X192405000Y-65151000D01*
X192445000Y-75311000D02*
X192445000Y-65151000D01*
X197565000Y-70231000D02*
G75*
G03*
X197565000Y-70231000I-5120000J0D01*
G01*
%TO.C,A1*%
D11*
X176704714Y-106021166D02*
X177180904Y-106021166D01*
X176609476Y-106306880D02*
X176942809Y-105306880D01*
X177276142Y-106306880D01*
X178133285Y-106306880D02*
X177561857Y-106306880D01*
X177847571Y-106306880D02*
X177847571Y-105306880D01*
X177752333Y-105449738D01*
X177657095Y-105544976D01*
X177561857Y-105592595D01*
X176474595Y-61809380D02*
X176474595Y-62618904D01*
X176522214Y-62714142D01*
X176569833Y-62761761D01*
X176665071Y-62809380D01*
X176855547Y-62809380D01*
X176950785Y-62761761D01*
X176998404Y-62714142D01*
X177046023Y-62618904D01*
X177046023Y-61809380D01*
X177474595Y-62761761D02*
X177617452Y-62809380D01*
X177855547Y-62809380D01*
X177950785Y-62761761D01*
X177998404Y-62714142D01*
X178046023Y-62618904D01*
X178046023Y-62523666D01*
X177998404Y-62428428D01*
X177950785Y-62380809D01*
X177855547Y-62333190D01*
X177665071Y-62285571D01*
X177569833Y-62237952D01*
X177522214Y-62190333D01*
X177474595Y-62095095D01*
X177474595Y-61999857D01*
X177522214Y-61904619D01*
X177569833Y-61857000D01*
X177665071Y-61809380D01*
X177903166Y-61809380D01*
X178046023Y-61857000D01*
X178807928Y-62285571D02*
X178950785Y-62333190D01*
X178998404Y-62380809D01*
X179046023Y-62476047D01*
X179046023Y-62618904D01*
X178998404Y-62714142D01*
X178950785Y-62761761D01*
X178855547Y-62809380D01*
X178474595Y-62809380D01*
X178474595Y-61809380D01*
X178807928Y-61809380D01*
X178903166Y-61857000D01*
X178950785Y-61904619D01*
X178998404Y-61999857D01*
X178998404Y-62095095D01*
X178950785Y-62190333D01*
X178903166Y-62237952D01*
X178807928Y-62285571D01*
X178474595Y-62285571D01*
%TO.C,R2*%
X152312380Y-91311666D02*
X151836190Y-91645000D01*
X152312380Y-91883095D02*
X151312380Y-91883095D01*
X151312380Y-91502142D01*
X151360000Y-91406904D01*
X151407619Y-91359285D01*
X151502857Y-91311666D01*
X151645714Y-91311666D01*
X151740952Y-91359285D01*
X151788571Y-91406904D01*
X151836190Y-91502142D01*
X151836190Y-91883095D01*
X151407619Y-90930714D02*
X151360000Y-90883095D01*
X151312380Y-90787857D01*
X151312380Y-90549761D01*
X151360000Y-90454523D01*
X151407619Y-90406904D01*
X151502857Y-90359285D01*
X151598095Y-90359285D01*
X151740952Y-90406904D01*
X152312380Y-90978333D01*
X152312380Y-90359285D01*
%TO.C,TP4*%
X141946619Y-64563380D02*
X142279952Y-65563380D01*
X142613285Y-64563380D01*
X142946619Y-65563380D02*
X142946619Y-64563380D01*
X143184714Y-64563380D01*
X143327571Y-64611000D01*
X143422809Y-64706238D01*
X143470428Y-64801476D01*
X143518047Y-64991952D01*
X143518047Y-65134809D01*
X143470428Y-65325285D01*
X143422809Y-65420523D01*
X143327571Y-65515761D01*
X143184714Y-65563380D01*
X142946619Y-65563380D01*
X144518047Y-65563380D02*
X144184714Y-65087190D01*
X143946619Y-65563380D02*
X143946619Y-64563380D01*
X144327571Y-64563380D01*
X144422809Y-64611000D01*
X144470428Y-64658619D01*
X144518047Y-64753857D01*
X144518047Y-64896714D01*
X144470428Y-64991952D01*
X144422809Y-65039571D01*
X144327571Y-65087190D01*
X143946619Y-65087190D01*
X144946619Y-65563380D02*
X144946619Y-64563380D01*
X145279952Y-64563380D02*
X145613285Y-65563380D01*
X145946619Y-64563380D01*
X146279952Y-65039571D02*
X146613285Y-65039571D01*
X146756142Y-65563380D02*
X146279952Y-65563380D01*
X146279952Y-64563380D01*
X146756142Y-64563380D01*
%TO.C,TP6*%
X147907666Y-64436380D02*
X148241000Y-65436380D01*
X148574333Y-64436380D01*
X148860047Y-65388761D02*
X149002904Y-65436380D01*
X149241000Y-65436380D01*
X149336238Y-65388761D01*
X149383857Y-65341142D01*
X149431476Y-65245904D01*
X149431476Y-65150666D01*
X149383857Y-65055428D01*
X149336238Y-65007809D01*
X149241000Y-64960190D01*
X149050523Y-64912571D01*
X148955285Y-64864952D01*
X148907666Y-64817333D01*
X148860047Y-64722095D01*
X148860047Y-64626857D01*
X148907666Y-64531619D01*
X148955285Y-64484000D01*
X149050523Y-64436380D01*
X149288619Y-64436380D01*
X149431476Y-64484000D01*
X149860047Y-65436380D02*
X149860047Y-64436380D01*
X150431476Y-65436380D01*
X150431476Y-64436380D01*
X150860047Y-65388761D02*
X151002904Y-65436380D01*
X151241000Y-65436380D01*
X151336238Y-65388761D01*
X151383857Y-65341142D01*
X151431476Y-65245904D01*
X151431476Y-65150666D01*
X151383857Y-65055428D01*
X151336238Y-65007809D01*
X151241000Y-64960190D01*
X151050523Y-64912571D01*
X150955285Y-64864952D01*
X150907666Y-64817333D01*
X150860047Y-64722095D01*
X150860047Y-64626857D01*
X150907666Y-64531619D01*
X150955285Y-64484000D01*
X151050523Y-64436380D01*
X151288619Y-64436380D01*
X151431476Y-64484000D01*
X151860047Y-65436380D02*
X151860047Y-64436380D01*
X151860047Y-64912571D02*
X152431476Y-64912571D01*
X152431476Y-65436380D02*
X152431476Y-64436380D01*
%TO.C,TP5*%
X160496642Y-64563380D02*
X160829976Y-65563380D01*
X161163309Y-64563380D01*
X161449023Y-65515761D02*
X161591880Y-65563380D01*
X161829976Y-65563380D01*
X161925214Y-65515761D01*
X161972833Y-65468142D01*
X162020452Y-65372904D01*
X162020452Y-65277666D01*
X161972833Y-65182428D01*
X161925214Y-65134809D01*
X161829976Y-65087190D01*
X161639500Y-65039571D01*
X161544261Y-64991952D01*
X161496642Y-64944333D01*
X161449023Y-64849095D01*
X161449023Y-64753857D01*
X161496642Y-64658619D01*
X161544261Y-64611000D01*
X161639500Y-64563380D01*
X161877595Y-64563380D01*
X162020452Y-64611000D01*
X162449023Y-65563380D02*
X162449023Y-64563380D01*
X163020452Y-65563380D01*
X163020452Y-64563380D01*
X163449023Y-65515761D02*
X163591880Y-65563380D01*
X163829976Y-65563380D01*
X163925214Y-65515761D01*
X163972833Y-65468142D01*
X164020452Y-65372904D01*
X164020452Y-65277666D01*
X163972833Y-65182428D01*
X163925214Y-65134809D01*
X163829976Y-65087190D01*
X163639500Y-65039571D01*
X163544261Y-64991952D01*
X163496642Y-64944333D01*
X163449023Y-64849095D01*
X163449023Y-64753857D01*
X163496642Y-64658619D01*
X163544261Y-64611000D01*
X163639500Y-64563380D01*
X163877595Y-64563380D01*
X164020452Y-64611000D01*
X164449023Y-65563380D02*
X164449023Y-64563380D01*
X164449023Y-65039571D02*
X165020452Y-65039571D01*
X165020452Y-65563380D02*
X165020452Y-64563380D01*
X165258547Y-65658619D02*
X166020452Y-65658619D01*
X166591880Y-65039571D02*
X166258547Y-65039571D01*
X166258547Y-65563380D02*
X166258547Y-64563380D01*
X166734738Y-64563380D01*
%TO.C,TP2*%
X160933190Y-69643380D02*
X161266523Y-70643380D01*
X161599857Y-69643380D01*
X161885571Y-70595761D02*
X162028428Y-70643380D01*
X162266523Y-70643380D01*
X162361761Y-70595761D01*
X162409380Y-70548142D01*
X162457000Y-70452904D01*
X162457000Y-70357666D01*
X162409380Y-70262428D01*
X162361761Y-70214809D01*
X162266523Y-70167190D01*
X162076047Y-70119571D01*
X161980809Y-70071952D01*
X161933190Y-70024333D01*
X161885571Y-69929095D01*
X161885571Y-69833857D01*
X161933190Y-69738619D01*
X161980809Y-69691000D01*
X162076047Y-69643380D01*
X162314142Y-69643380D01*
X162457000Y-69691000D01*
X162885571Y-70643380D02*
X162885571Y-69643380D01*
X163457000Y-70643380D01*
X163457000Y-69643380D01*
X163885571Y-70595761D02*
X164028428Y-70643380D01*
X164266523Y-70643380D01*
X164361761Y-70595761D01*
X164409380Y-70548142D01*
X164457000Y-70452904D01*
X164457000Y-70357666D01*
X164409380Y-70262428D01*
X164361761Y-70214809D01*
X164266523Y-70167190D01*
X164076047Y-70119571D01*
X163980809Y-70071952D01*
X163933190Y-70024333D01*
X163885571Y-69929095D01*
X163885571Y-69833857D01*
X163933190Y-69738619D01*
X163980809Y-69691000D01*
X164076047Y-69643380D01*
X164314142Y-69643380D01*
X164457000Y-69691000D01*
X165361761Y-70643380D02*
X164885571Y-70643380D01*
X164885571Y-69643380D01*
X165457000Y-70738619D02*
X166218904Y-70738619D01*
X166790333Y-70119571D02*
X166457000Y-70119571D01*
X166457000Y-70643380D02*
X166457000Y-69643380D01*
X166933190Y-69643380D01*
%TO.C,R5*%
X154827833Y-69031380D02*
X154494500Y-68555190D01*
X154256404Y-69031380D02*
X154256404Y-68031380D01*
X154637357Y-68031380D01*
X154732595Y-68079000D01*
X154780214Y-68126619D01*
X154827833Y-68221857D01*
X154827833Y-68364714D01*
X154780214Y-68459952D01*
X154732595Y-68507571D01*
X154637357Y-68555190D01*
X154256404Y-68555190D01*
X155732595Y-68031380D02*
X155256404Y-68031380D01*
X155208785Y-68507571D01*
X155256404Y-68459952D01*
X155351642Y-68412333D01*
X155589738Y-68412333D01*
X155684976Y-68459952D01*
X155732595Y-68507571D01*
X155780214Y-68602809D01*
X155780214Y-68840904D01*
X155732595Y-68936142D01*
X155684976Y-68983761D01*
X155589738Y-69031380D01*
X155351642Y-69031380D01*
X155256404Y-68983761D01*
X155208785Y-68936142D01*
%TO.C,R3*%
X154954833Y-64713380D02*
X154621500Y-64237190D01*
X154383404Y-64713380D02*
X154383404Y-63713380D01*
X154764357Y-63713380D01*
X154859595Y-63761000D01*
X154907214Y-63808619D01*
X154954833Y-63903857D01*
X154954833Y-64046714D01*
X154907214Y-64141952D01*
X154859595Y-64189571D01*
X154764357Y-64237190D01*
X154383404Y-64237190D01*
X155288166Y-63713380D02*
X155907214Y-63713380D01*
X155573880Y-64094333D01*
X155716738Y-64094333D01*
X155811976Y-64141952D01*
X155859595Y-64189571D01*
X155907214Y-64284809D01*
X155907214Y-64522904D01*
X155859595Y-64618142D01*
X155811976Y-64665761D01*
X155716738Y-64713380D01*
X155431023Y-64713380D01*
X155335785Y-64665761D01*
X155288166Y-64618142D01*
%TO.C,C3*%
X160258142Y-67921166D02*
X160305761Y-67968785D01*
X160353380Y-68111642D01*
X160353380Y-68206880D01*
X160305761Y-68349738D01*
X160210523Y-68444976D01*
X160115285Y-68492595D01*
X159924809Y-68540214D01*
X159781952Y-68540214D01*
X159591476Y-68492595D01*
X159496238Y-68444976D01*
X159401000Y-68349738D01*
X159353380Y-68206880D01*
X159353380Y-68111642D01*
X159401000Y-67968785D01*
X159448619Y-67921166D01*
X159353380Y-67587833D02*
X159353380Y-66968785D01*
X159734333Y-67302119D01*
X159734333Y-67159261D01*
X159781952Y-67064023D01*
X159829571Y-67016404D01*
X159924809Y-66968785D01*
X160162904Y-66968785D01*
X160258142Y-67016404D01*
X160305761Y-67064023D01*
X160353380Y-67159261D01*
X160353380Y-67444976D01*
X160305761Y-67540214D01*
X160258142Y-67587833D01*
%TO.C,C2*%
X160376142Y-63675666D02*
X160423761Y-63723285D01*
X160471380Y-63866142D01*
X160471380Y-63961380D01*
X160423761Y-64104238D01*
X160328523Y-64199476D01*
X160233285Y-64247095D01*
X160042809Y-64294714D01*
X159899952Y-64294714D01*
X159709476Y-64247095D01*
X159614238Y-64199476D01*
X159519000Y-64104238D01*
X159471380Y-63961380D01*
X159471380Y-63866142D01*
X159519000Y-63723285D01*
X159566619Y-63675666D01*
X159566619Y-63294714D02*
X159519000Y-63247095D01*
X159471380Y-63151857D01*
X159471380Y-62913761D01*
X159519000Y-62818523D01*
X159566619Y-62770904D01*
X159661857Y-62723285D01*
X159757095Y-62723285D01*
X159899952Y-62770904D01*
X160471380Y-63342333D01*
X160471380Y-62723285D01*
%TO.C,TP1*%
X148090214Y-69492880D02*
X148423547Y-70492880D01*
X148756880Y-69492880D01*
X149042595Y-70445261D02*
X149185452Y-70492880D01*
X149423547Y-70492880D01*
X149518785Y-70445261D01*
X149566404Y-70397642D01*
X149614023Y-70302404D01*
X149614023Y-70207166D01*
X149566404Y-70111928D01*
X149518785Y-70064309D01*
X149423547Y-70016690D01*
X149233071Y-69969071D01*
X149137833Y-69921452D01*
X149090214Y-69873833D01*
X149042595Y-69778595D01*
X149042595Y-69683357D01*
X149090214Y-69588119D01*
X149137833Y-69540500D01*
X149233071Y-69492880D01*
X149471166Y-69492880D01*
X149614023Y-69540500D01*
X150042595Y-70492880D02*
X150042595Y-69492880D01*
X150614023Y-70492880D01*
X150614023Y-69492880D01*
X151042595Y-70445261D02*
X151185452Y-70492880D01*
X151423547Y-70492880D01*
X151518785Y-70445261D01*
X151566404Y-70397642D01*
X151614023Y-70302404D01*
X151614023Y-70207166D01*
X151566404Y-70111928D01*
X151518785Y-70064309D01*
X151423547Y-70016690D01*
X151233071Y-69969071D01*
X151137833Y-69921452D01*
X151090214Y-69873833D01*
X151042595Y-69778595D01*
X151042595Y-69683357D01*
X151090214Y-69588119D01*
X151137833Y-69540500D01*
X151233071Y-69492880D01*
X151471166Y-69492880D01*
X151614023Y-69540500D01*
X152518785Y-70492880D02*
X152042595Y-70492880D01*
X152042595Y-69492880D01*
%TO.C,J3*%
X178774766Y-110710580D02*
X178774766Y-111424866D01*
X178727147Y-111567723D01*
X178631909Y-111662961D01*
X178489052Y-111710580D01*
X178393814Y-111710580D01*
X179155719Y-110710580D02*
X179774766Y-110710580D01*
X179441433Y-111091533D01*
X179584290Y-111091533D01*
X179679528Y-111139152D01*
X179727147Y-111186771D01*
X179774766Y-111282009D01*
X179774766Y-111520104D01*
X179727147Y-111615342D01*
X179679528Y-111662961D01*
X179584290Y-111710580D01*
X179298576Y-111710580D01*
X179203338Y-111662961D01*
X179155719Y-111615342D01*
%TO.C,R4*%
X155344833Y-74302880D02*
X155011500Y-73826690D01*
X154773404Y-74302880D02*
X154773404Y-73302880D01*
X155154357Y-73302880D01*
X155249595Y-73350500D01*
X155297214Y-73398119D01*
X155344833Y-73493357D01*
X155344833Y-73636214D01*
X155297214Y-73731452D01*
X155249595Y-73779071D01*
X155154357Y-73826690D01*
X154773404Y-73826690D01*
X156201976Y-73636214D02*
X156201976Y-74302880D01*
X155963880Y-73255261D02*
X155725785Y-73969547D01*
X156344833Y-73969547D01*
%TO.C,Q1*%
X154042619Y-91281238D02*
X153995000Y-91376476D01*
X153899761Y-91471714D01*
X153756904Y-91614571D01*
X153709285Y-91709809D01*
X153709285Y-91805047D01*
X153947380Y-91757428D02*
X153899761Y-91852666D01*
X153804523Y-91947904D01*
X153614047Y-91995523D01*
X153280714Y-91995523D01*
X153090238Y-91947904D01*
X152995000Y-91852666D01*
X152947380Y-91757428D01*
X152947380Y-91566952D01*
X152995000Y-91471714D01*
X153090238Y-91376476D01*
X153280714Y-91328857D01*
X153614047Y-91328857D01*
X153804523Y-91376476D01*
X153899761Y-91471714D01*
X153947380Y-91566952D01*
X153947380Y-91757428D01*
X153947380Y-90376476D02*
X153947380Y-90947904D01*
X153947380Y-90662190D02*
X152947380Y-90662190D01*
X153090238Y-90757428D01*
X153185476Y-90852666D01*
X153233095Y-90947904D01*
%TO.C,TP3*%
X142803761Y-69810380D02*
X143375190Y-69810380D01*
X143089476Y-70810380D02*
X143089476Y-69810380D01*
X143660904Y-70762761D02*
X143803761Y-70810380D01*
X144041857Y-70810380D01*
X144137095Y-70762761D01*
X144184714Y-70715142D01*
X144232333Y-70619904D01*
X144232333Y-70524666D01*
X144184714Y-70429428D01*
X144137095Y-70381809D01*
X144041857Y-70334190D01*
X143851380Y-70286571D01*
X143756142Y-70238952D01*
X143708523Y-70191333D01*
X143660904Y-70096095D01*
X143660904Y-70000857D01*
X143708523Y-69905619D01*
X143756142Y-69858000D01*
X143851380Y-69810380D01*
X144089476Y-69810380D01*
X144232333Y-69858000D01*
X144660904Y-70286571D02*
X144994238Y-70286571D01*
X145137095Y-70810380D02*
X144660904Y-70810380D01*
X144660904Y-69810380D01*
X145137095Y-69810380D01*
X145422809Y-69810380D02*
X145994238Y-69810380D01*
X145708523Y-70810380D02*
X145708523Y-69810380D01*
%TO.C,H4*%
X224765095Y-115222380D02*
X224765095Y-114222380D01*
X224765095Y-114698571D02*
X225336523Y-114698571D01*
X225336523Y-115222380D02*
X225336523Y-114222380D01*
X226241285Y-114555714D02*
X226241285Y-115222380D01*
X226003190Y-114174761D02*
X225765095Y-114889047D01*
X226384142Y-114889047D01*
%TO.C,H3*%
X126238095Y-63182380D02*
X126238095Y-62182380D01*
X126238095Y-62658571D02*
X126809523Y-62658571D01*
X126809523Y-63182380D02*
X126809523Y-62182380D01*
X127190476Y-62182380D02*
X127809523Y-62182380D01*
X127476190Y-62563333D01*
X127619047Y-62563333D01*
X127714285Y-62610952D01*
X127761904Y-62658571D01*
X127809523Y-62753809D01*
X127809523Y-62991904D01*
X127761904Y-63087142D01*
X127714285Y-63134761D01*
X127619047Y-63182380D01*
X127333333Y-63182380D01*
X127238095Y-63134761D01*
X127190476Y-63087142D01*
%TO.C,H2*%
X224765095Y-65222380D02*
X224765095Y-64222380D01*
X224765095Y-64698571D02*
X225336523Y-64698571D01*
X225336523Y-65222380D02*
X225336523Y-64222380D01*
X225765095Y-64317619D02*
X225812714Y-64270000D01*
X225907952Y-64222380D01*
X226146047Y-64222380D01*
X226241285Y-64270000D01*
X226288904Y-64317619D01*
X226336523Y-64412857D01*
X226336523Y-64508095D01*
X226288904Y-64650952D01*
X225717476Y-65222380D01*
X226336523Y-65222380D01*
%TO.C,H1*%
X123698095Y-113982380D02*
X123698095Y-112982380D01*
X123698095Y-113458571D02*
X124269523Y-113458571D01*
X124269523Y-113982380D02*
X124269523Y-112982380D01*
X125269523Y-113982380D02*
X124698095Y-113982380D01*
X124983809Y-113982380D02*
X124983809Y-112982380D01*
X124888571Y-113125238D01*
X124793333Y-113220476D01*
X124698095Y-113268095D01*
%TO.C,U1*%
X206257880Y-104662404D02*
X207067404Y-104662404D01*
X207162642Y-104614785D01*
X207210261Y-104567166D01*
X207257880Y-104471928D01*
X207257880Y-104281452D01*
X207210261Y-104186214D01*
X207162642Y-104138595D01*
X207067404Y-104090976D01*
X206257880Y-104090976D01*
X207257880Y-103090976D02*
X207257880Y-103662404D01*
X207257880Y-103376690D02*
X206257880Y-103376690D01*
X206400738Y-103471928D01*
X206495976Y-103567166D01*
X206543595Y-103662404D01*
%TO.C,RV1*%
X126870261Y-81800380D02*
X126536928Y-81324190D01*
X126298833Y-81800380D02*
X126298833Y-80800380D01*
X126679785Y-80800380D01*
X126775023Y-80848000D01*
X126822642Y-80895619D01*
X126870261Y-80990857D01*
X126870261Y-81133714D01*
X126822642Y-81228952D01*
X126775023Y-81276571D01*
X126679785Y-81324190D01*
X126298833Y-81324190D01*
X127155976Y-80800380D02*
X127489309Y-81800380D01*
X127822642Y-80800380D01*
X128679785Y-81800380D02*
X128108357Y-81800380D01*
X128394071Y-81800380D02*
X128394071Y-80800380D01*
X128298833Y-80943238D01*
X128203595Y-81038476D01*
X128108357Y-81086095D01*
%TO.C,R1*%
X224036880Y-103617166D02*
X223560690Y-103950500D01*
X224036880Y-104188595D02*
X223036880Y-104188595D01*
X223036880Y-103807642D01*
X223084500Y-103712404D01*
X223132119Y-103664785D01*
X223227357Y-103617166D01*
X223370214Y-103617166D01*
X223465452Y-103664785D01*
X223513071Y-103712404D01*
X223560690Y-103807642D01*
X223560690Y-104188595D01*
X224036880Y-102664785D02*
X224036880Y-103236214D01*
X224036880Y-102950500D02*
X223036880Y-102950500D01*
X223179738Y-103045738D01*
X223274976Y-103140976D01*
X223322595Y-103236214D01*
%TO.C,LED2*%
X214066380Y-89765047D02*
X214066380Y-90241238D01*
X213066380Y-90241238D01*
X213542571Y-89431714D02*
X213542571Y-89098380D01*
X214066380Y-88955523D02*
X214066380Y-89431714D01*
X213066380Y-89431714D01*
X213066380Y-88955523D01*
X214066380Y-88526952D02*
X213066380Y-88526952D01*
X213066380Y-88288857D01*
X213114000Y-88146000D01*
X213209238Y-88050761D01*
X213304476Y-88003142D01*
X213494952Y-87955523D01*
X213637809Y-87955523D01*
X213828285Y-88003142D01*
X213923523Y-88050761D01*
X214018761Y-88146000D01*
X214066380Y-88288857D01*
X214066380Y-88526952D01*
X213161619Y-87574571D02*
X213114000Y-87526952D01*
X213066380Y-87431714D01*
X213066380Y-87193619D01*
X213114000Y-87098380D01*
X213161619Y-87050761D01*
X213256857Y-87003142D01*
X213352095Y-87003142D01*
X213494952Y-87050761D01*
X214066380Y-87622190D01*
X214066380Y-87003142D01*
X214066380Y-92622190D02*
X214066380Y-93098380D01*
X213066380Y-93098380D01*
X213066380Y-92431714D02*
X213066380Y-91860285D01*
X214066380Y-92146000D02*
X213066380Y-92146000D01*
X213971142Y-90955523D02*
X214018761Y-91003142D01*
X214066380Y-91146000D01*
X214066380Y-91241238D01*
X214018761Y-91384095D01*
X213923523Y-91479333D01*
X213828285Y-91526952D01*
X213637809Y-91574571D01*
X213494952Y-91574571D01*
X213304476Y-91526952D01*
X213209238Y-91479333D01*
X213114000Y-91384095D01*
X213066380Y-91241238D01*
X213066380Y-91146000D01*
X213114000Y-91003142D01*
X213161619Y-90955523D01*
X213685428Y-90526952D02*
X213685428Y-89765047D01*
X213399714Y-88860285D02*
X214066380Y-88860285D01*
X213018761Y-89098380D02*
X213733047Y-89336476D01*
X213733047Y-88717428D01*
X213066380Y-88431714D02*
X213066380Y-87765047D01*
X214066380Y-88193619D01*
X213161619Y-87431714D02*
X213114000Y-87384095D01*
X213066380Y-87288857D01*
X213066380Y-87050761D01*
X213114000Y-86955523D01*
X213161619Y-86907904D01*
X213256857Y-86860285D01*
X213352095Y-86860285D01*
X213494952Y-86907904D01*
X214066380Y-87479333D01*
X214066380Y-86860285D01*
X213399714Y-86003142D02*
X214066380Y-86003142D01*
X213018761Y-86241238D02*
X213733047Y-86479333D01*
X213733047Y-85860285D01*
X213066380Y-85193619D02*
X213780666Y-85193619D01*
X213923523Y-85241238D01*
X214018761Y-85336476D01*
X214066380Y-85479333D01*
X214066380Y-85574571D01*
X214066380Y-84146000D02*
X213590190Y-84479333D01*
X214066380Y-84717428D02*
X213066380Y-84717428D01*
X213066380Y-84336476D01*
X213114000Y-84241238D01*
X213161619Y-84193619D01*
X213256857Y-84146000D01*
X213399714Y-84146000D01*
X213494952Y-84193619D01*
X213542571Y-84241238D01*
X213590190Y-84336476D01*
X213590190Y-84717428D01*
X190240246Y-93726000D02*
X190478342Y-93726000D01*
X190383104Y-93964095D02*
X190478342Y-93726000D01*
X190383104Y-93487904D01*
X190668818Y-93868857D02*
X190478342Y-93726000D01*
X190668818Y-93583142D01*
X190240246Y-93726000D02*
X190478342Y-93726000D01*
X190383104Y-93964095D02*
X190478342Y-93726000D01*
X190383104Y-93487904D01*
X190668818Y-93868857D02*
X190478342Y-93726000D01*
X190668818Y-93583142D01*
%TO.C,LED1*%
X214066380Y-74842547D02*
X214066380Y-75318738D01*
X213066380Y-75318738D01*
X213542571Y-74509214D02*
X213542571Y-74175880D01*
X214066380Y-74033023D02*
X214066380Y-74509214D01*
X213066380Y-74509214D01*
X213066380Y-74033023D01*
X214066380Y-73604452D02*
X213066380Y-73604452D01*
X213066380Y-73366357D01*
X213114000Y-73223500D01*
X213209238Y-73128261D01*
X213304476Y-73080642D01*
X213494952Y-73033023D01*
X213637809Y-73033023D01*
X213828285Y-73080642D01*
X213923523Y-73128261D01*
X214018761Y-73223500D01*
X214066380Y-73366357D01*
X214066380Y-73604452D01*
X214066380Y-72080642D02*
X214066380Y-72652071D01*
X214066380Y-72366357D02*
X213066380Y-72366357D01*
X213209238Y-72461595D01*
X213304476Y-72556833D01*
X213352095Y-72652071D01*
X214066380Y-77699690D02*
X214066380Y-78175880D01*
X213066380Y-78175880D01*
X213066380Y-77509214D02*
X213066380Y-76937785D01*
X214066380Y-77223500D02*
X213066380Y-77223500D01*
X213971142Y-76033023D02*
X214018761Y-76080642D01*
X214066380Y-76223500D01*
X214066380Y-76318738D01*
X214018761Y-76461595D01*
X213923523Y-76556833D01*
X213828285Y-76604452D01*
X213637809Y-76652071D01*
X213494952Y-76652071D01*
X213304476Y-76604452D01*
X213209238Y-76556833D01*
X213114000Y-76461595D01*
X213066380Y-76318738D01*
X213066380Y-76223500D01*
X213114000Y-76080642D01*
X213161619Y-76033023D01*
X213685428Y-75604452D02*
X213685428Y-74842547D01*
X213399714Y-73937785D02*
X214066380Y-73937785D01*
X213018761Y-74175880D02*
X213733047Y-74413976D01*
X213733047Y-73794928D01*
X213066380Y-73509214D02*
X213066380Y-72842547D01*
X214066380Y-73271119D01*
X213161619Y-72509214D02*
X213114000Y-72461595D01*
X213066380Y-72366357D01*
X213066380Y-72128261D01*
X213114000Y-72033023D01*
X213161619Y-71985404D01*
X213256857Y-71937785D01*
X213352095Y-71937785D01*
X213494952Y-71985404D01*
X214066380Y-72556833D01*
X214066380Y-71937785D01*
X213399714Y-71080642D02*
X214066380Y-71080642D01*
X213018761Y-71318738D02*
X213733047Y-71556833D01*
X213733047Y-70937785D01*
X213066380Y-70271119D02*
X213780666Y-70271119D01*
X213923523Y-70318738D01*
X214018761Y-70413976D01*
X214066380Y-70556833D01*
X214066380Y-70652071D01*
X214066380Y-69223500D02*
X213590190Y-69556833D01*
X214066380Y-69794928D02*
X213066380Y-69794928D01*
X213066380Y-69413976D01*
X213114000Y-69318738D01*
X213161619Y-69271119D01*
X213256857Y-69223500D01*
X213399714Y-69223500D01*
X213494952Y-69271119D01*
X213542571Y-69318738D01*
X213590190Y-69413976D01*
X213590190Y-69794928D01*
X190240246Y-78803500D02*
X190478342Y-78803500D01*
X190383104Y-79041595D02*
X190478342Y-78803500D01*
X190383104Y-78565404D01*
X190668818Y-78946357D02*
X190478342Y-78803500D01*
X190668818Y-78660642D01*
X190240246Y-78803500D02*
X190478342Y-78803500D01*
X190383104Y-79041595D02*
X190478342Y-78803500D01*
X190383104Y-78565404D01*
X190668818Y-78946357D02*
X190478342Y-78803500D01*
X190668818Y-78660642D01*
%TO.C,J4*%
X192452666Y-98111880D02*
X192452666Y-98826166D01*
X192405047Y-98969023D01*
X192309809Y-99064261D01*
X192166952Y-99111880D01*
X192071714Y-99111880D01*
X193357428Y-98445214D02*
X193357428Y-99111880D01*
X193119333Y-98064261D02*
X192881238Y-98778547D01*
X193500285Y-98778547D01*
%TO.C,J2*%
X130076880Y-97219333D02*
X130791166Y-97219333D01*
X130934023Y-97266952D01*
X131029261Y-97362190D01*
X131076880Y-97505047D01*
X131076880Y-97600285D01*
X130172119Y-96790761D02*
X130124500Y-96743142D01*
X130076880Y-96647904D01*
X130076880Y-96409809D01*
X130124500Y-96314571D01*
X130172119Y-96266952D01*
X130267357Y-96219333D01*
X130362595Y-96219333D01*
X130505452Y-96266952D01*
X131076880Y-96838380D01*
X131076880Y-96219333D01*
%TO.C,J1*%
X125253666Y-93302880D02*
X125253666Y-94017166D01*
X125206047Y-94160023D01*
X125110809Y-94255261D01*
X124967952Y-94302880D01*
X124872714Y-94302880D01*
X126253666Y-94302880D02*
X125682238Y-94302880D01*
X125967952Y-94302880D02*
X125967952Y-93302880D01*
X125872714Y-93445738D01*
X125777476Y-93540976D01*
X125682238Y-93588595D01*
%TO.C,C1*%
X192278333Y-76838142D02*
X192230714Y-76885761D01*
X192087857Y-76933380D01*
X191992619Y-76933380D01*
X191849761Y-76885761D01*
X191754523Y-76790523D01*
X191706904Y-76695285D01*
X191659285Y-76504809D01*
X191659285Y-76361952D01*
X191706904Y-76171476D01*
X191754523Y-76076238D01*
X191849761Y-75981000D01*
X191992619Y-75933380D01*
X192087857Y-75933380D01*
X192230714Y-75981000D01*
X192278333Y-76028619D01*
X193230714Y-76933380D02*
X192659285Y-76933380D01*
X192945000Y-76933380D02*
X192945000Y-75933380D01*
X192849761Y-76076238D01*
X192754523Y-76171476D01*
X192659285Y-76219095D01*
%TD*%
M02*
