M48
; DRILL file {KiCad (5.1.6-0-10_14)} date Monday, January 04, 2021 at 05:29:51 PM
; FORMAT={-:-/ absolute / inch / decimal}
; #@! TF.CreationDate,2021-01-04T17:29:51-08:00
; #@! TF.GenerationSoftware,Kicad,Pcbnew,(5.1.6-0-10_14)
; #@! TF.FileFunction,Plated,1,2,PTH
FMAT,2
INCH
T1C0.0157
T2C0.0300
T3C0.0394
T4C0.0520
T5C0.0551
T6C0.0591
T7C0.0787
T8C0.0866
T9C0.1213
%
G90
G05
T1
X4.985Y-4.59
X5.415Y-4.53
X5.555Y-4.41
X5.615Y-4.075
X5.62Y-4.41
X5.645Y-4.1128
X5.645Y-4.1699
X5.853Y-3.2695
X5.8977Y-2.9798
X5.9275Y-3.3425
X6.0Y-3.5
X6.155Y-4.195
X6.2675Y-4.195
X6.2875Y-4.15
X6.4325Y-3.36
X6.4927Y-3.4873
X6.4975Y-3.5325
X6.5475Y-3.535
X6.9025Y-3.8675
X6.9075Y-3.4225
X6.91Y-4.15
X6.9279Y-3.615
X6.9725Y-3.4725
X6.985Y-3.5325
X6.9975Y-3.3025
X7.0008Y-3.6991
X7.054Y-3.5775
X7.1225Y-3.8675
X7.155Y-4.205
X7.1625Y-3.4725
X7.2875Y-3.7225
X7.324Y-3.7514
X7.35Y-4.155
X7.3643Y-3.3825
X7.445Y-3.92
X7.505Y-3.9175
X7.5325Y-3.565
X7.545Y-3.42
X7.555Y-3.75
X7.5675Y-3.705
X7.5875Y-4.2875
X7.6025Y-3.7925
X7.6835Y-3.54
X7.69Y-3.7325
X7.7475Y-3.425
X7.775Y-3.3025
X7.825Y-3.7275
T2
X7.055Y-2.6525
X7.155Y-2.6525
X7.155Y-3.0525
X7.255Y-3.0525
X7.355Y-2.6525
X7.355Y-3.0525
X7.455Y-2.6525
X7.455Y-3.0525
X7.555Y-3.0525
X7.655Y-3.0525
X7.755Y-2.6525
X7.755Y-3.0525
X7.055Y-3.24
X7.155Y-3.24
X7.155Y-3.64
X7.255Y-3.64
X7.355Y-3.24
X7.355Y-3.64
X7.455Y-3.24
X7.455Y-3.64
X7.555Y-3.64
X7.655Y-3.64
X7.755Y-3.24
X7.755Y-3.64
T3
X5.045Y-4.295
X6.625Y-3.02
X6.625Y-3.12
X6.625Y-3.22
X6.625Y-3.32
X6.625Y-3.42
X6.625Y-3.52
X6.625Y-3.62
X6.625Y-3.72
X5.645Y-4.5175
X6.6125Y-4.0125
X6.7125Y-4.0125
X5.8356Y-2.42
X6.0325Y-2.42
X5.48Y-2.665
X5.7725Y-2.895
X5.7725Y-2.995
X5.7725Y-3.095
X5.7725Y-3.195
X5.7725Y-3.295
X5.7725Y-3.395
X5.7725Y-3.495
X5.7725Y-3.595
X5.7725Y-3.695
X5.7725Y-3.795
X5.7725Y-3.895
X5.7725Y-3.995
X5.7725Y-4.095
X5.7725Y-4.195
X5.7725Y-4.295
X6.3725Y-2.895
X6.3725Y-2.995
X6.3725Y-3.095
X6.3725Y-3.195
X6.3725Y-3.295
X6.3725Y-3.395
X6.3725Y-3.495
X6.3725Y-3.595
X6.3725Y-3.695
X6.3725Y-3.795
X6.3725Y-3.895
X6.3725Y-3.995
X6.3725Y-4.095
X6.3725Y-4.195
X6.3725Y-4.295
X5.32Y-4.095
X5.32Y-4.2919
X5.495Y-4.465
T4
X4.8675Y-3.89
X4.8675Y-4.0869
T5
X5.2825Y-2.7247
X5.2825Y-2.8724
T6
X5.2825Y-3.02
T9
X7.874Y-4.4488
X5.0Y-2.45
X7.874Y-2.4803
X4.9Y-4.45
T3
G00X5.031Y-3.4292
M15
G01X5.031Y-3.5079
M16
G05
G00X5.1156Y-3.6575
M15
G01X5.1944Y-3.6575
M16
G05
G00X5.277Y-3.4292
M15
G01X5.277Y-3.5079
M16
G05
T7
G00X4.9085Y-3.0712
M15
G01X4.8691Y-3.0712
M16
G05
T8
G00X4.9045Y-2.6539
M15
G01X4.8731Y-2.6539
M16
G05
T0
M30
