%TF.GenerationSoftware,KiCad,Pcbnew,(5.1.6-0-10_14)*%
%TF.CreationDate,2021-01-13T12:07:43-08:00*%
%TF.ProjectId,temperatureController,74656d70-6572-4617-9475-7265436f6e74,rev?*%
%TF.SameCoordinates,Original*%
%TF.FileFunction,Soldermask,Top*%
%TF.FilePolarity,Negative*%
%FSLAX46Y46*%
G04 Gerber Fmt 4.6, Leading zero omitted, Abs format (unit mm)*
G04 Created by KiCad (PCBNEW (5.1.6-0-10_14)) date 2021-01-13 12:07:43*
%MOMM*%
%LPD*%
G01*
G04 APERTURE LIST*
%ADD10O,1.700000X1.700000*%
%ADD11R,1.700000X1.700000*%
%ADD12O,1.900000X1.900000*%
%ADD13C,2.100000*%
%ADD14R,1.400000X4.600000*%
%ADD15R,1.900000X4.000000*%
%ADD16O,2.100000X2.005000*%
%ADD17R,2.100000X2.005000*%
%ADD18C,4.100000*%
%ADD19O,5.100000X4.100000*%
%ADD20C,2.600000*%
%ADD21R,2.100000X2.100000*%
%ADD22C,1.370000*%
%ADD23O,1.800000X1.800000*%
%ADD24R,1.800000X1.800000*%
%ADD25O,4.060000X2.080000*%
%ADD26R,4.060000X2.080000*%
%ADD27R,3.600000X3.600000*%
G04 APERTURE END LIST*
D10*
%TO.C,A1*%
X169799000Y-65214500D03*
X185039000Y-65214500D03*
X169799000Y-100774500D03*
X185039000Y-67754500D03*
X169799000Y-98234500D03*
X185039000Y-70294500D03*
X169799000Y-95694500D03*
X185039000Y-72834500D03*
X169799000Y-93154500D03*
X185039000Y-75374500D03*
X169799000Y-90614500D03*
X185039000Y-77914500D03*
X169799000Y-88074500D03*
X185039000Y-80454500D03*
X169799000Y-85534500D03*
X185039000Y-82994500D03*
X169799000Y-82994500D03*
X185039000Y-85534500D03*
X169799000Y-80454500D03*
X185039000Y-88074500D03*
X169799000Y-77914500D03*
X185039000Y-90614500D03*
X169799000Y-75374500D03*
X185039000Y-93154500D03*
X169799000Y-72834500D03*
X185039000Y-95694500D03*
X169799000Y-70294500D03*
X185039000Y-98234500D03*
X169799000Y-67754500D03*
D11*
X185039000Y-100774500D03*
%TD*%
D12*
%TO.C,R2*%
X157480000Y-88345000D03*
X157480000Y-93345000D03*
%TD*%
D13*
%TO.C,TP4*%
X144399000Y-62611000D03*
%TD*%
%TO.C,TP6*%
X150241000Y-62484000D03*
%TD*%
%TO.C,TP5*%
X163639500Y-62611000D03*
%TD*%
%TO.C,TP2*%
X163957000Y-67691000D03*
%TD*%
%TO.C,R5*%
G36*
G01*
X154594500Y-66450738D02*
X154594500Y-67407262D01*
G75*
G02*
X154322762Y-67679000I-271738J0D01*
G01*
X153616238Y-67679000D01*
G75*
G02*
X153344500Y-67407262I0J271738D01*
G01*
X153344500Y-66450738D01*
G75*
G02*
X153616238Y-66179000I271738J0D01*
G01*
X154322762Y-66179000D01*
G75*
G02*
X154594500Y-66450738I0J-271738D01*
G01*
G37*
G36*
G01*
X156644500Y-66450738D02*
X156644500Y-67407262D01*
G75*
G02*
X156372762Y-67679000I-271738J0D01*
G01*
X155666238Y-67679000D01*
G75*
G02*
X155394500Y-67407262I0J271738D01*
G01*
X155394500Y-66450738D01*
G75*
G02*
X155666238Y-66179000I271738J0D01*
G01*
X156372762Y-66179000D01*
G75*
G02*
X156644500Y-66450738I0J-271738D01*
G01*
G37*
%TD*%
%TO.C,R3*%
G36*
G01*
X154721500Y-62132738D02*
X154721500Y-63089262D01*
G75*
G02*
X154449762Y-63361000I-271738J0D01*
G01*
X153743238Y-63361000D01*
G75*
G02*
X153471500Y-63089262I0J271738D01*
G01*
X153471500Y-62132738D01*
G75*
G02*
X153743238Y-61861000I271738J0D01*
G01*
X154449762Y-61861000D01*
G75*
G02*
X154721500Y-62132738I0J-271738D01*
G01*
G37*
G36*
G01*
X156771500Y-62132738D02*
X156771500Y-63089262D01*
G75*
G02*
X156499762Y-63361000I-271738J0D01*
G01*
X155793238Y-63361000D01*
G75*
G02*
X155521500Y-63089262I0J271738D01*
G01*
X155521500Y-62132738D01*
G75*
G02*
X155793238Y-61861000I271738J0D01*
G01*
X156499762Y-61861000D01*
G75*
G02*
X156771500Y-62132738I0J-271738D01*
G01*
G37*
%TD*%
%TO.C,C3*%
G36*
G01*
X157772738Y-68154500D02*
X158729262Y-68154500D01*
G75*
G02*
X159001000Y-68426238I0J-271738D01*
G01*
X159001000Y-69132762D01*
G75*
G02*
X158729262Y-69404500I-271738J0D01*
G01*
X157772738Y-69404500D01*
G75*
G02*
X157501000Y-69132762I0J271738D01*
G01*
X157501000Y-68426238D01*
G75*
G02*
X157772738Y-68154500I271738J0D01*
G01*
G37*
G36*
G01*
X157772738Y-66104500D02*
X158729262Y-66104500D01*
G75*
G02*
X159001000Y-66376238I0J-271738D01*
G01*
X159001000Y-67082762D01*
G75*
G02*
X158729262Y-67354500I-271738J0D01*
G01*
X157772738Y-67354500D01*
G75*
G02*
X157501000Y-67082762I0J271738D01*
G01*
X157501000Y-66376238D01*
G75*
G02*
X157772738Y-66104500I271738J0D01*
G01*
G37*
%TD*%
%TO.C,C2*%
G36*
G01*
X157890738Y-63909000D02*
X158847262Y-63909000D01*
G75*
G02*
X159119000Y-64180738I0J-271738D01*
G01*
X159119000Y-64887262D01*
G75*
G02*
X158847262Y-65159000I-271738J0D01*
G01*
X157890738Y-65159000D01*
G75*
G02*
X157619000Y-64887262I0J271738D01*
G01*
X157619000Y-64180738D01*
G75*
G02*
X157890738Y-63909000I271738J0D01*
G01*
G37*
G36*
G01*
X157890738Y-61859000D02*
X158847262Y-61859000D01*
G75*
G02*
X159119000Y-62130738I0J-271738D01*
G01*
X159119000Y-62837262D01*
G75*
G02*
X158847262Y-63109000I-271738J0D01*
G01*
X157890738Y-63109000D01*
G75*
G02*
X157619000Y-62837262I0J271738D01*
G01*
X157619000Y-62130738D01*
G75*
G02*
X157890738Y-61859000I271738J0D01*
G01*
G37*
%TD*%
%TO.C,TP1*%
X149923500Y-67627500D03*
%TD*%
D14*
%TO.C,J3*%
X185562500Y-108943000D03*
X183062500Y-108943000D03*
X180562500Y-108943000D03*
X178062500Y-108943000D03*
X175562500Y-108943000D03*
X173062500Y-108943000D03*
D15*
X188762500Y-115429600D03*
X169862500Y-115443000D03*
%TD*%
%TO.C,R4*%
G36*
G01*
X155775500Y-72487262D02*
X155775500Y-71530738D01*
G75*
G02*
X156047238Y-71259000I271738J0D01*
G01*
X156753762Y-71259000D01*
G75*
G02*
X157025500Y-71530738I0J-271738D01*
G01*
X157025500Y-72487262D01*
G75*
G02*
X156753762Y-72759000I-271738J0D01*
G01*
X156047238Y-72759000D01*
G75*
G02*
X155775500Y-72487262I0J271738D01*
G01*
G37*
G36*
G01*
X153725500Y-72487262D02*
X153725500Y-71530738D01*
G75*
G02*
X153997238Y-71259000I271738J0D01*
G01*
X154703762Y-71259000D01*
G75*
G02*
X154975500Y-71530738I0J-271738D01*
G01*
X154975500Y-72487262D01*
G75*
G02*
X154703762Y-72759000I-271738J0D01*
G01*
X153997238Y-72759000D01*
G75*
G02*
X153725500Y-72487262I0J271738D01*
G01*
G37*
%TD*%
D16*
%TO.C,Q1*%
X149225000Y-93726000D03*
X149225000Y-91186000D03*
D17*
X149225000Y-88646000D03*
%TD*%
D13*
%TO.C,TP3*%
X144399000Y-67627500D03*
%TD*%
D18*
%TO.C,H4*%
X225527000Y-114270000D03*
%TD*%
%TO.C,H3*%
X127000000Y-62230000D03*
%TD*%
%TO.C,H2*%
X225527000Y-64270000D03*
%TD*%
%TO.C,H1*%
X124460000Y-113030000D03*
%TD*%
%TO.C,U1*%
G36*
G01*
X208645500Y-100325500D02*
X208295500Y-100325500D01*
G75*
G02*
X208120500Y-100150500I0J175000D01*
G01*
X208120500Y-98350500D01*
G75*
G02*
X208295500Y-98175500I175000J0D01*
G01*
X208645500Y-98175500D01*
G75*
G02*
X208820500Y-98350500I0J-175000D01*
G01*
X208820500Y-100150500D01*
G75*
G02*
X208645500Y-100325500I-175000J0D01*
G01*
G37*
G36*
G01*
X209915500Y-100325500D02*
X209565500Y-100325500D01*
G75*
G02*
X209390500Y-100150500I0J175000D01*
G01*
X209390500Y-98350500D01*
G75*
G02*
X209565500Y-98175500I175000J0D01*
G01*
X209915500Y-98175500D01*
G75*
G02*
X210090500Y-98350500I0J-175000D01*
G01*
X210090500Y-100150500D01*
G75*
G02*
X209915500Y-100325500I-175000J0D01*
G01*
G37*
G36*
G01*
X211185500Y-100325500D02*
X210835500Y-100325500D01*
G75*
G02*
X210660500Y-100150500I0J175000D01*
G01*
X210660500Y-98350500D01*
G75*
G02*
X210835500Y-98175500I175000J0D01*
G01*
X211185500Y-98175500D01*
G75*
G02*
X211360500Y-98350500I0J-175000D01*
G01*
X211360500Y-100150500D01*
G75*
G02*
X211185500Y-100325500I-175000J0D01*
G01*
G37*
G36*
G01*
X212455500Y-100325500D02*
X212105500Y-100325500D01*
G75*
G02*
X211930500Y-100150500I0J175000D01*
G01*
X211930500Y-98350500D01*
G75*
G02*
X212105500Y-98175500I175000J0D01*
G01*
X212455500Y-98175500D01*
G75*
G02*
X212630500Y-98350500I0J-175000D01*
G01*
X212630500Y-100150500D01*
G75*
G02*
X212455500Y-100325500I-175000J0D01*
G01*
G37*
G36*
G01*
X213725500Y-100325500D02*
X213375500Y-100325500D01*
G75*
G02*
X213200500Y-100150500I0J175000D01*
G01*
X213200500Y-98350500D01*
G75*
G02*
X213375500Y-98175500I175000J0D01*
G01*
X213725500Y-98175500D01*
G75*
G02*
X213900500Y-98350500I0J-175000D01*
G01*
X213900500Y-100150500D01*
G75*
G02*
X213725500Y-100325500I-175000J0D01*
G01*
G37*
G36*
G01*
X214995500Y-100325500D02*
X214645500Y-100325500D01*
G75*
G02*
X214470500Y-100150500I0J175000D01*
G01*
X214470500Y-98350500D01*
G75*
G02*
X214645500Y-98175500I175000J0D01*
G01*
X214995500Y-98175500D01*
G75*
G02*
X215170500Y-98350500I0J-175000D01*
G01*
X215170500Y-100150500D01*
G75*
G02*
X214995500Y-100325500I-175000J0D01*
G01*
G37*
G36*
G01*
X216265500Y-100325500D02*
X215915500Y-100325500D01*
G75*
G02*
X215740500Y-100150500I0J175000D01*
G01*
X215740500Y-98350500D01*
G75*
G02*
X215915500Y-98175500I175000J0D01*
G01*
X216265500Y-98175500D01*
G75*
G02*
X216440500Y-98350500I0J-175000D01*
G01*
X216440500Y-100150500D01*
G75*
G02*
X216265500Y-100325500I-175000J0D01*
G01*
G37*
G36*
G01*
X217535500Y-100325500D02*
X217185500Y-100325500D01*
G75*
G02*
X217010500Y-100150500I0J175000D01*
G01*
X217010500Y-98350500D01*
G75*
G02*
X217185500Y-98175500I175000J0D01*
G01*
X217535500Y-98175500D01*
G75*
G02*
X217710500Y-98350500I0J-175000D01*
G01*
X217710500Y-100150500D01*
G75*
G02*
X217535500Y-100325500I-175000J0D01*
G01*
G37*
G36*
G01*
X218805500Y-100325500D02*
X218455500Y-100325500D01*
G75*
G02*
X218280500Y-100150500I0J175000D01*
G01*
X218280500Y-98350500D01*
G75*
G02*
X218455500Y-98175500I175000J0D01*
G01*
X218805500Y-98175500D01*
G75*
G02*
X218980500Y-98350500I0J-175000D01*
G01*
X218980500Y-100150500D01*
G75*
G02*
X218805500Y-100325500I-175000J0D01*
G01*
G37*
G36*
G01*
X220075500Y-100325500D02*
X219725500Y-100325500D01*
G75*
G02*
X219550500Y-100150500I0J175000D01*
G01*
X219550500Y-98350500D01*
G75*
G02*
X219725500Y-98175500I175000J0D01*
G01*
X220075500Y-98175500D01*
G75*
G02*
X220250500Y-98350500I0J-175000D01*
G01*
X220250500Y-100150500D01*
G75*
G02*
X220075500Y-100325500I-175000J0D01*
G01*
G37*
G36*
G01*
X221345500Y-100325500D02*
X220995500Y-100325500D01*
G75*
G02*
X220820500Y-100150500I0J175000D01*
G01*
X220820500Y-98350500D01*
G75*
G02*
X220995500Y-98175500I175000J0D01*
G01*
X221345500Y-98175500D01*
G75*
G02*
X221520500Y-98350500I0J-175000D01*
G01*
X221520500Y-100150500D01*
G75*
G02*
X221345500Y-100325500I-175000J0D01*
G01*
G37*
G36*
G01*
X222615500Y-100325500D02*
X222265500Y-100325500D01*
G75*
G02*
X222090500Y-100150500I0J175000D01*
G01*
X222090500Y-98350500D01*
G75*
G02*
X222265500Y-98175500I175000J0D01*
G01*
X222615500Y-98175500D01*
G75*
G02*
X222790500Y-98350500I0J-175000D01*
G01*
X222790500Y-100150500D01*
G75*
G02*
X222615500Y-100325500I-175000J0D01*
G01*
G37*
G36*
G01*
X222615500Y-109625500D02*
X222265500Y-109625500D01*
G75*
G02*
X222090500Y-109450500I0J175000D01*
G01*
X222090500Y-107650500D01*
G75*
G02*
X222265500Y-107475500I175000J0D01*
G01*
X222615500Y-107475500D01*
G75*
G02*
X222790500Y-107650500I0J-175000D01*
G01*
X222790500Y-109450500D01*
G75*
G02*
X222615500Y-109625500I-175000J0D01*
G01*
G37*
G36*
G01*
X221345500Y-109625500D02*
X220995500Y-109625500D01*
G75*
G02*
X220820500Y-109450500I0J175000D01*
G01*
X220820500Y-107650500D01*
G75*
G02*
X220995500Y-107475500I175000J0D01*
G01*
X221345500Y-107475500D01*
G75*
G02*
X221520500Y-107650500I0J-175000D01*
G01*
X221520500Y-109450500D01*
G75*
G02*
X221345500Y-109625500I-175000J0D01*
G01*
G37*
G36*
G01*
X220075500Y-109625500D02*
X219725500Y-109625500D01*
G75*
G02*
X219550500Y-109450500I0J175000D01*
G01*
X219550500Y-107650500D01*
G75*
G02*
X219725500Y-107475500I175000J0D01*
G01*
X220075500Y-107475500D01*
G75*
G02*
X220250500Y-107650500I0J-175000D01*
G01*
X220250500Y-109450500D01*
G75*
G02*
X220075500Y-109625500I-175000J0D01*
G01*
G37*
G36*
G01*
X218805500Y-109625500D02*
X218455500Y-109625500D01*
G75*
G02*
X218280500Y-109450500I0J175000D01*
G01*
X218280500Y-107650500D01*
G75*
G02*
X218455500Y-107475500I175000J0D01*
G01*
X218805500Y-107475500D01*
G75*
G02*
X218980500Y-107650500I0J-175000D01*
G01*
X218980500Y-109450500D01*
G75*
G02*
X218805500Y-109625500I-175000J0D01*
G01*
G37*
G36*
G01*
X217535500Y-109625500D02*
X217185500Y-109625500D01*
G75*
G02*
X217010500Y-109450500I0J175000D01*
G01*
X217010500Y-107650500D01*
G75*
G02*
X217185500Y-107475500I175000J0D01*
G01*
X217535500Y-107475500D01*
G75*
G02*
X217710500Y-107650500I0J-175000D01*
G01*
X217710500Y-109450500D01*
G75*
G02*
X217535500Y-109625500I-175000J0D01*
G01*
G37*
G36*
G01*
X216265500Y-109625500D02*
X215915500Y-109625500D01*
G75*
G02*
X215740500Y-109450500I0J175000D01*
G01*
X215740500Y-107650500D01*
G75*
G02*
X215915500Y-107475500I175000J0D01*
G01*
X216265500Y-107475500D01*
G75*
G02*
X216440500Y-107650500I0J-175000D01*
G01*
X216440500Y-109450500D01*
G75*
G02*
X216265500Y-109625500I-175000J0D01*
G01*
G37*
G36*
G01*
X214995500Y-109625500D02*
X214645500Y-109625500D01*
G75*
G02*
X214470500Y-109450500I0J175000D01*
G01*
X214470500Y-107650500D01*
G75*
G02*
X214645500Y-107475500I175000J0D01*
G01*
X214995500Y-107475500D01*
G75*
G02*
X215170500Y-107650500I0J-175000D01*
G01*
X215170500Y-109450500D01*
G75*
G02*
X214995500Y-109625500I-175000J0D01*
G01*
G37*
G36*
G01*
X213725500Y-109625500D02*
X213375500Y-109625500D01*
G75*
G02*
X213200500Y-109450500I0J175000D01*
G01*
X213200500Y-107650500D01*
G75*
G02*
X213375500Y-107475500I175000J0D01*
G01*
X213725500Y-107475500D01*
G75*
G02*
X213900500Y-107650500I0J-175000D01*
G01*
X213900500Y-109450500D01*
G75*
G02*
X213725500Y-109625500I-175000J0D01*
G01*
G37*
G36*
G01*
X212455500Y-109625500D02*
X212105500Y-109625500D01*
G75*
G02*
X211930500Y-109450500I0J175000D01*
G01*
X211930500Y-107650500D01*
G75*
G02*
X212105500Y-107475500I175000J0D01*
G01*
X212455500Y-107475500D01*
G75*
G02*
X212630500Y-107650500I0J-175000D01*
G01*
X212630500Y-109450500D01*
G75*
G02*
X212455500Y-109625500I-175000J0D01*
G01*
G37*
G36*
G01*
X211185500Y-109625500D02*
X210835500Y-109625500D01*
G75*
G02*
X210660500Y-109450500I0J175000D01*
G01*
X210660500Y-107650500D01*
G75*
G02*
X210835500Y-107475500I175000J0D01*
G01*
X211185500Y-107475500D01*
G75*
G02*
X211360500Y-107650500I0J-175000D01*
G01*
X211360500Y-109450500D01*
G75*
G02*
X211185500Y-109625500I-175000J0D01*
G01*
G37*
G36*
G01*
X209915500Y-109625500D02*
X209565500Y-109625500D01*
G75*
G02*
X209390500Y-109450500I0J175000D01*
G01*
X209390500Y-107650500D01*
G75*
G02*
X209565500Y-107475500I175000J0D01*
G01*
X209915500Y-107475500D01*
G75*
G02*
X210090500Y-107650500I0J-175000D01*
G01*
X210090500Y-109450500D01*
G75*
G02*
X209915500Y-109625500I-175000J0D01*
G01*
G37*
G36*
G01*
X208645500Y-109625500D02*
X208295500Y-109625500D01*
G75*
G02*
X208120500Y-109450500I0J175000D01*
G01*
X208120500Y-107650500D01*
G75*
G02*
X208295500Y-107475500I175000J0D01*
G01*
X208645500Y-107475500D01*
G75*
G02*
X208820500Y-107650500I0J-175000D01*
G01*
X208820500Y-109450500D01*
G75*
G02*
X208645500Y-109625500I-175000J0D01*
G01*
G37*
%TD*%
D19*
%TO.C,RV1*%
X124175500Y-78008000D03*
X124175500Y-67408000D03*
D20*
X134175500Y-69208000D03*
X134175500Y-72958000D03*
D21*
X134175500Y-76708000D03*
%TD*%
%TO.C,R1*%
G36*
G01*
X225712762Y-103050500D02*
X224756238Y-103050500D01*
G75*
G02*
X224484500Y-102778762I0J271738D01*
G01*
X224484500Y-102072238D01*
G75*
G02*
X224756238Y-101800500I271738J0D01*
G01*
X225712762Y-101800500D01*
G75*
G02*
X225984500Y-102072238I0J-271738D01*
G01*
X225984500Y-102778762D01*
G75*
G02*
X225712762Y-103050500I-271738J0D01*
G01*
G37*
G36*
G01*
X225712762Y-105100500D02*
X224756238Y-105100500D01*
G75*
G02*
X224484500Y-104828762I0J271738D01*
G01*
X224484500Y-104122238D01*
G75*
G02*
X224756238Y-103850500I271738J0D01*
G01*
X225712762Y-103850500D01*
G75*
G02*
X225984500Y-104122238I0J-271738D01*
G01*
X225984500Y-104828762D01*
G75*
G02*
X225712762Y-105100500I-271738J0D01*
G01*
G37*
%TD*%
D22*
%TO.C,LED2*%
X204724000Y-83566000D03*
X207264000Y-83566000D03*
X212344000Y-83566000D03*
X214884000Y-83566000D03*
X222504000Y-83566000D03*
X222504000Y-93726000D03*
X219964000Y-93726000D03*
X217424000Y-93726000D03*
X214884000Y-93726000D03*
X212344000Y-93726000D03*
X209804000Y-93726000D03*
X207264000Y-93726000D03*
%TD*%
%TO.C,LED1*%
X204724000Y-68643500D03*
X207264000Y-68643500D03*
X212344000Y-68643500D03*
X214884000Y-68643500D03*
X222504000Y-68643500D03*
X222504000Y-78803500D03*
X219964000Y-78803500D03*
X217424000Y-78803500D03*
X214884000Y-78803500D03*
X212344000Y-78803500D03*
X209804000Y-78803500D03*
X207264000Y-78803500D03*
%TD*%
D23*
%TO.C,J4*%
X192786000Y-78549500D03*
X192786000Y-81089500D03*
X192786000Y-83629500D03*
X192786000Y-86169500D03*
X192786000Y-88709500D03*
X192786000Y-91249500D03*
X192786000Y-93789500D03*
D24*
X192786000Y-96329500D03*
%TD*%
D25*
%TO.C,J2*%
X123634500Y-103806000D03*
D26*
X123634500Y-98806000D03*
%TD*%
%TO.C,J1*%
G36*
G01*
X129137000Y-93800500D02*
X129137000Y-92000500D01*
G75*
G02*
X130037000Y-91100500I900000J0D01*
G01*
X131837000Y-91100500D01*
G75*
G02*
X132737000Y-92000500I0J-900000D01*
G01*
X132737000Y-93800500D01*
G75*
G02*
X131837000Y-94700500I-900000J0D01*
G01*
X130037000Y-94700500D01*
G75*
G02*
X129137000Y-93800500I0J900000D01*
G01*
G37*
G36*
G01*
X126237000Y-89125500D02*
X126237000Y-87075500D01*
G75*
G02*
X127012000Y-86300500I775000J0D01*
G01*
X128562000Y-86300500D01*
G75*
G02*
X129337000Y-87075500I0J-775000D01*
G01*
X129337000Y-89125500D01*
G75*
G02*
X128562000Y-89900500I-775000J0D01*
G01*
X127012000Y-89900500D01*
G75*
G02*
X126237000Y-89125500I0J775000D01*
G01*
G37*
D27*
X134037000Y-88100500D03*
%TD*%
D13*
%TO.C,C1*%
X189945000Y-70231000D03*
D21*
X194945000Y-70231000D03*
%TD*%
M02*
