%TF.GenerationSoftware,KiCad,Pcbnew,(5.1.6-0-10_14)*%
%TF.CreationDate,2021-01-23T16:50:38-08:00*%
%TF.ProjectId,temperatureController,74656d70-6572-4617-9475-7265436f6e74,rev?*%
%TF.SameCoordinates,Original*%
%TF.FileFunction,Paste,Top*%
%TF.FilePolarity,Positive*%
%FSLAX46Y46*%
G04 Gerber Fmt 4.6, Leading zero omitted, Abs format (unit mm)*
G04 Created by KiCad (PCBNEW (5.1.6-0-10_14)) date 2021-01-23 16:50:38*
%MOMM*%
%LPD*%
G01*
G04 APERTURE LIST*
%ADD10R,0.450000X1.500000*%
%ADD11R,1.300000X4.500000*%
%ADD12R,1.800000X3.900000*%
G04 APERTURE END LIST*
%TO.C,C5*%
G36*
G01*
X157930001Y-72956000D02*
X157029999Y-72956000D01*
G75*
G02*
X156780000Y-72706001I0J249999D01*
G01*
X156780000Y-72055999D01*
G75*
G02*
X157029999Y-71806000I249999J0D01*
G01*
X157930001Y-71806000D01*
G75*
G02*
X158180000Y-72055999I0J-249999D01*
G01*
X158180000Y-72706001D01*
G75*
G02*
X157930001Y-72956000I-249999J0D01*
G01*
G37*
G36*
G01*
X157930001Y-75006000D02*
X157029999Y-75006000D01*
G75*
G02*
X156780000Y-74756001I0J249999D01*
G01*
X156780000Y-74105999D01*
G75*
G02*
X157029999Y-73856000I249999J0D01*
G01*
X157930001Y-73856000D01*
G75*
G02*
X158180000Y-74105999I0J-249999D01*
G01*
X158180000Y-74756001D01*
G75*
G02*
X157930001Y-75006000I-249999J0D01*
G01*
G37*
%TD*%
%TO.C,U2*%
G36*
G01*
X155805000Y-76350000D02*
X155805000Y-76050000D01*
G75*
G02*
X155955000Y-75900000I150000J0D01*
G01*
X157605000Y-75900000D01*
G75*
G02*
X157755000Y-76050000I0J-150000D01*
G01*
X157755000Y-76350000D01*
G75*
G02*
X157605000Y-76500000I-150000J0D01*
G01*
X155955000Y-76500000D01*
G75*
G02*
X155805000Y-76350000I0J150000D01*
G01*
G37*
G36*
G01*
X155805000Y-77620000D02*
X155805000Y-77320000D01*
G75*
G02*
X155955000Y-77170000I150000J0D01*
G01*
X157605000Y-77170000D01*
G75*
G02*
X157755000Y-77320000I0J-150000D01*
G01*
X157755000Y-77620000D01*
G75*
G02*
X157605000Y-77770000I-150000J0D01*
G01*
X155955000Y-77770000D01*
G75*
G02*
X155805000Y-77620000I0J150000D01*
G01*
G37*
G36*
G01*
X155805000Y-78890000D02*
X155805000Y-78590000D01*
G75*
G02*
X155955000Y-78440000I150000J0D01*
G01*
X157605000Y-78440000D01*
G75*
G02*
X157755000Y-78590000I0J-150000D01*
G01*
X157755000Y-78890000D01*
G75*
G02*
X157605000Y-79040000I-150000J0D01*
G01*
X155955000Y-79040000D01*
G75*
G02*
X155805000Y-78890000I0J150000D01*
G01*
G37*
G36*
G01*
X155805000Y-80160000D02*
X155805000Y-79860000D01*
G75*
G02*
X155955000Y-79710000I150000J0D01*
G01*
X157605000Y-79710000D01*
G75*
G02*
X157755000Y-79860000I0J-150000D01*
G01*
X157755000Y-80160000D01*
G75*
G02*
X157605000Y-80310000I-150000J0D01*
G01*
X155955000Y-80310000D01*
G75*
G02*
X155805000Y-80160000I0J150000D01*
G01*
G37*
G36*
G01*
X150855000Y-80160000D02*
X150855000Y-79860000D01*
G75*
G02*
X151005000Y-79710000I150000J0D01*
G01*
X152655000Y-79710000D01*
G75*
G02*
X152805000Y-79860000I0J-150000D01*
G01*
X152805000Y-80160000D01*
G75*
G02*
X152655000Y-80310000I-150000J0D01*
G01*
X151005000Y-80310000D01*
G75*
G02*
X150855000Y-80160000I0J150000D01*
G01*
G37*
G36*
G01*
X150855000Y-78890000D02*
X150855000Y-78590000D01*
G75*
G02*
X151005000Y-78440000I150000J0D01*
G01*
X152655000Y-78440000D01*
G75*
G02*
X152805000Y-78590000I0J-150000D01*
G01*
X152805000Y-78890000D01*
G75*
G02*
X152655000Y-79040000I-150000J0D01*
G01*
X151005000Y-79040000D01*
G75*
G02*
X150855000Y-78890000I0J150000D01*
G01*
G37*
G36*
G01*
X150855000Y-77620000D02*
X150855000Y-77320000D01*
G75*
G02*
X151005000Y-77170000I150000J0D01*
G01*
X152655000Y-77170000D01*
G75*
G02*
X152805000Y-77320000I0J-150000D01*
G01*
X152805000Y-77620000D01*
G75*
G02*
X152655000Y-77770000I-150000J0D01*
G01*
X151005000Y-77770000D01*
G75*
G02*
X150855000Y-77620000I0J150000D01*
G01*
G37*
G36*
G01*
X150855000Y-76350000D02*
X150855000Y-76050000D01*
G75*
G02*
X151005000Y-75900000I150000J0D01*
G01*
X152655000Y-75900000D01*
G75*
G02*
X152805000Y-76050000I0J-150000D01*
G01*
X152805000Y-76350000D01*
G75*
G02*
X152655000Y-76500000I-150000J0D01*
G01*
X151005000Y-76500000D01*
G75*
G02*
X150855000Y-76350000I0J150000D01*
G01*
G37*
%TD*%
%TO.C,R9*%
G36*
G01*
X149548001Y-76013000D02*
X148647999Y-76013000D01*
G75*
G02*
X148398000Y-75763001I0J249999D01*
G01*
X148398000Y-75112999D01*
G75*
G02*
X148647999Y-74863000I249999J0D01*
G01*
X149548001Y-74863000D01*
G75*
G02*
X149798000Y-75112999I0J-249999D01*
G01*
X149798000Y-75763001D01*
G75*
G02*
X149548001Y-76013000I-249999J0D01*
G01*
G37*
G36*
G01*
X149548001Y-78063000D02*
X148647999Y-78063000D01*
G75*
G02*
X148398000Y-77813001I0J249999D01*
G01*
X148398000Y-77162999D01*
G75*
G02*
X148647999Y-76913000I249999J0D01*
G01*
X149548001Y-76913000D01*
G75*
G02*
X149798000Y-77162999I0J-249999D01*
G01*
X149798000Y-77813001D01*
G75*
G02*
X149548001Y-78063000I-249999J0D01*
G01*
G37*
%TD*%
%TO.C,R8*%
G36*
G01*
X160323000Y-81337999D02*
X160323000Y-82238001D01*
G75*
G02*
X160073001Y-82488000I-249999J0D01*
G01*
X159422999Y-82488000D01*
G75*
G02*
X159173000Y-82238001I0J249999D01*
G01*
X159173000Y-81337999D01*
G75*
G02*
X159422999Y-81088000I249999J0D01*
G01*
X160073001Y-81088000D01*
G75*
G02*
X160323000Y-81337999I0J-249999D01*
G01*
G37*
G36*
G01*
X162373000Y-81337999D02*
X162373000Y-82238001D01*
G75*
G02*
X162123001Y-82488000I-249999J0D01*
G01*
X161472999Y-82488000D01*
G75*
G02*
X161223000Y-82238001I0J249999D01*
G01*
X161223000Y-81337999D01*
G75*
G02*
X161472999Y-81088000I249999J0D01*
G01*
X162123001Y-81088000D01*
G75*
G02*
X162373000Y-81337999I0J-249999D01*
G01*
G37*
%TD*%
%TO.C,R7*%
G36*
G01*
X146107999Y-79181000D02*
X147008001Y-79181000D01*
G75*
G02*
X147258000Y-79430999I0J-249999D01*
G01*
X147258000Y-80081001D01*
G75*
G02*
X147008001Y-80331000I-249999J0D01*
G01*
X146107999Y-80331000D01*
G75*
G02*
X145858000Y-80081001I0J249999D01*
G01*
X145858000Y-79430999D01*
G75*
G02*
X146107999Y-79181000I249999J0D01*
G01*
G37*
G36*
G01*
X146107999Y-77131000D02*
X147008001Y-77131000D01*
G75*
G02*
X147258000Y-77380999I0J-249999D01*
G01*
X147258000Y-78031001D01*
G75*
G02*
X147008001Y-78281000I-249999J0D01*
G01*
X146107999Y-78281000D01*
G75*
G02*
X145858000Y-78031001I0J249999D01*
G01*
X145858000Y-77380999D01*
G75*
G02*
X146107999Y-77131000I249999J0D01*
G01*
G37*
%TD*%
%TO.C,R6*%
G36*
G01*
X146116999Y-75380000D02*
X147017001Y-75380000D01*
G75*
G02*
X147267000Y-75629999I0J-249999D01*
G01*
X147267000Y-76280001D01*
G75*
G02*
X147017001Y-76530000I-249999J0D01*
G01*
X146116999Y-76530000D01*
G75*
G02*
X145867000Y-76280001I0J249999D01*
G01*
X145867000Y-75629999D01*
G75*
G02*
X146116999Y-75380000I249999J0D01*
G01*
G37*
G36*
G01*
X146116999Y-73330000D02*
X147017001Y-73330000D01*
G75*
G02*
X147267000Y-73579999I0J-249999D01*
G01*
X147267000Y-74230001D01*
G75*
G02*
X147017001Y-74480000I-249999J0D01*
G01*
X146116999Y-74480000D01*
G75*
G02*
X145867000Y-74230001I0J249999D01*
G01*
X145867000Y-73579999D01*
G75*
G02*
X146116999Y-73330000I249999J0D01*
G01*
G37*
%TD*%
D10*
%TO.C,Q2*%
X135890000Y-88138000D03*
X136540000Y-90798000D03*
X135240000Y-90798000D03*
%TD*%
%TO.C,C4*%
G36*
G01*
X141683000Y-81984001D02*
X141683000Y-81083999D01*
G75*
G02*
X141932999Y-80834000I249999J0D01*
G01*
X142583001Y-80834000D01*
G75*
G02*
X142833000Y-81083999I0J-249999D01*
G01*
X142833000Y-81984001D01*
G75*
G02*
X142583001Y-82234000I-249999J0D01*
G01*
X141932999Y-82234000D01*
G75*
G02*
X141683000Y-81984001I0J249999D01*
G01*
G37*
G36*
G01*
X139633000Y-81984001D02*
X139633000Y-81083999D01*
G75*
G02*
X139882999Y-80834000I249999J0D01*
G01*
X140533001Y-80834000D01*
G75*
G02*
X140783000Y-81083999I0J-249999D01*
G01*
X140783000Y-81984001D01*
G75*
G02*
X140533001Y-82234000I-249999J0D01*
G01*
X139882999Y-82234000D01*
G75*
G02*
X139633000Y-81984001I0J249999D01*
G01*
G37*
%TD*%
%TO.C,R5*%
G36*
G01*
X154891000Y-73856001D02*
X154891000Y-72955999D01*
G75*
G02*
X155140999Y-72706000I249999J0D01*
G01*
X155791001Y-72706000D01*
G75*
G02*
X156041000Y-72955999I0J-249999D01*
G01*
X156041000Y-73856001D01*
G75*
G02*
X155791001Y-74106000I-249999J0D01*
G01*
X155140999Y-74106000D01*
G75*
G02*
X154891000Y-73856001I0J249999D01*
G01*
G37*
G36*
G01*
X152841000Y-73856001D02*
X152841000Y-72955999D01*
G75*
G02*
X153090999Y-72706000I249999J0D01*
G01*
X153741001Y-72706000D01*
G75*
G02*
X153991000Y-72955999I0J-249999D01*
G01*
X153991000Y-73856001D01*
G75*
G02*
X153741001Y-74106000I-249999J0D01*
G01*
X153090999Y-74106000D01*
G75*
G02*
X152841000Y-73856001I0J249999D01*
G01*
G37*
%TD*%
%TO.C,R3*%
G36*
G01*
X161241000Y-80206001D02*
X161241000Y-79305999D01*
G75*
G02*
X161490999Y-79056000I249999J0D01*
G01*
X162141001Y-79056000D01*
G75*
G02*
X162391000Y-79305999I0J-249999D01*
G01*
X162391000Y-80206001D01*
G75*
G02*
X162141001Y-80456000I-249999J0D01*
G01*
X161490999Y-80456000D01*
G75*
G02*
X161241000Y-80206001I0J249999D01*
G01*
G37*
G36*
G01*
X159191000Y-80206001D02*
X159191000Y-79305999D01*
G75*
G02*
X159440999Y-79056000I249999J0D01*
G01*
X160091001Y-79056000D01*
G75*
G02*
X160341000Y-79305999I0J-249999D01*
G01*
X160341000Y-80206001D01*
G75*
G02*
X160091001Y-80456000I-249999J0D01*
G01*
X159440999Y-80456000D01*
G75*
G02*
X159191000Y-80206001I0J249999D01*
G01*
G37*
%TD*%
%TO.C,C3*%
G36*
G01*
X154882000Y-71815001D02*
X154882000Y-70914999D01*
G75*
G02*
X155131999Y-70665000I249999J0D01*
G01*
X155782001Y-70665000D01*
G75*
G02*
X156032000Y-70914999I0J-249999D01*
G01*
X156032000Y-71815001D01*
G75*
G02*
X155782001Y-72065000I-249999J0D01*
G01*
X155131999Y-72065000D01*
G75*
G02*
X154882000Y-71815001I0J249999D01*
G01*
G37*
G36*
G01*
X152832000Y-71815001D02*
X152832000Y-70914999D01*
G75*
G02*
X153081999Y-70665000I249999J0D01*
G01*
X153732001Y-70665000D01*
G75*
G02*
X153982000Y-70914999I0J-249999D01*
G01*
X153982000Y-71815001D01*
G75*
G02*
X153732001Y-72065000I-249999J0D01*
G01*
X153081999Y-72065000D01*
G75*
G02*
X152832000Y-71815001I0J249999D01*
G01*
G37*
%TD*%
%TO.C,C2*%
G36*
G01*
X160341000Y-77273999D02*
X160341000Y-78174001D01*
G75*
G02*
X160091001Y-78424000I-249999J0D01*
G01*
X159440999Y-78424000D01*
G75*
G02*
X159191000Y-78174001I0J249999D01*
G01*
X159191000Y-77273999D01*
G75*
G02*
X159440999Y-77024000I249999J0D01*
G01*
X160091001Y-77024000D01*
G75*
G02*
X160341000Y-77273999I0J-249999D01*
G01*
G37*
G36*
G01*
X162391000Y-77273999D02*
X162391000Y-78174001D01*
G75*
G02*
X162141001Y-78424000I-249999J0D01*
G01*
X161490999Y-78424000D01*
G75*
G02*
X161241000Y-78174001I0J249999D01*
G01*
X161241000Y-77273999D01*
G75*
G02*
X161490999Y-77024000I249999J0D01*
G01*
X162141001Y-77024000D01*
G75*
G02*
X162391000Y-77273999I0J-249999D01*
G01*
G37*
%TD*%
D11*
%TO.C,J3*%
X185562500Y-118976000D03*
X183062500Y-118976000D03*
X180562500Y-118976000D03*
X178062500Y-118976000D03*
X175562500Y-118976000D03*
X173062500Y-118976000D03*
D12*
X188762500Y-125462600D03*
X169862500Y-125476000D03*
%TD*%
%TO.C,R4*%
G36*
G01*
X141683000Y-79952001D02*
X141683000Y-79051999D01*
G75*
G02*
X141932999Y-78802000I249999J0D01*
G01*
X142583001Y-78802000D01*
G75*
G02*
X142833000Y-79051999I0J-249999D01*
G01*
X142833000Y-79952001D01*
G75*
G02*
X142583001Y-80202000I-249999J0D01*
G01*
X141932999Y-80202000D01*
G75*
G02*
X141683000Y-79952001I0J249999D01*
G01*
G37*
G36*
G01*
X139633000Y-79952001D02*
X139633000Y-79051999D01*
G75*
G02*
X139882999Y-78802000I249999J0D01*
G01*
X140533001Y-78802000D01*
G75*
G02*
X140783000Y-79051999I0J-249999D01*
G01*
X140783000Y-79952001D01*
G75*
G02*
X140533001Y-80202000I-249999J0D01*
G01*
X139882999Y-80202000D01*
G75*
G02*
X139633000Y-79952001I0J249999D01*
G01*
G37*
%TD*%
%TO.C,U1*%
G36*
G01*
X208620500Y-100275500D02*
X208320500Y-100275500D01*
G75*
G02*
X208170500Y-100125500I0J150000D01*
G01*
X208170500Y-98375500D01*
G75*
G02*
X208320500Y-98225500I150000J0D01*
G01*
X208620500Y-98225500D01*
G75*
G02*
X208770500Y-98375500I0J-150000D01*
G01*
X208770500Y-100125500D01*
G75*
G02*
X208620500Y-100275500I-150000J0D01*
G01*
G37*
G36*
G01*
X209890500Y-100275500D02*
X209590500Y-100275500D01*
G75*
G02*
X209440500Y-100125500I0J150000D01*
G01*
X209440500Y-98375500D01*
G75*
G02*
X209590500Y-98225500I150000J0D01*
G01*
X209890500Y-98225500D01*
G75*
G02*
X210040500Y-98375500I0J-150000D01*
G01*
X210040500Y-100125500D01*
G75*
G02*
X209890500Y-100275500I-150000J0D01*
G01*
G37*
G36*
G01*
X211160500Y-100275500D02*
X210860500Y-100275500D01*
G75*
G02*
X210710500Y-100125500I0J150000D01*
G01*
X210710500Y-98375500D01*
G75*
G02*
X210860500Y-98225500I150000J0D01*
G01*
X211160500Y-98225500D01*
G75*
G02*
X211310500Y-98375500I0J-150000D01*
G01*
X211310500Y-100125500D01*
G75*
G02*
X211160500Y-100275500I-150000J0D01*
G01*
G37*
G36*
G01*
X212430500Y-100275500D02*
X212130500Y-100275500D01*
G75*
G02*
X211980500Y-100125500I0J150000D01*
G01*
X211980500Y-98375500D01*
G75*
G02*
X212130500Y-98225500I150000J0D01*
G01*
X212430500Y-98225500D01*
G75*
G02*
X212580500Y-98375500I0J-150000D01*
G01*
X212580500Y-100125500D01*
G75*
G02*
X212430500Y-100275500I-150000J0D01*
G01*
G37*
G36*
G01*
X213700500Y-100275500D02*
X213400500Y-100275500D01*
G75*
G02*
X213250500Y-100125500I0J150000D01*
G01*
X213250500Y-98375500D01*
G75*
G02*
X213400500Y-98225500I150000J0D01*
G01*
X213700500Y-98225500D01*
G75*
G02*
X213850500Y-98375500I0J-150000D01*
G01*
X213850500Y-100125500D01*
G75*
G02*
X213700500Y-100275500I-150000J0D01*
G01*
G37*
G36*
G01*
X214970500Y-100275500D02*
X214670500Y-100275500D01*
G75*
G02*
X214520500Y-100125500I0J150000D01*
G01*
X214520500Y-98375500D01*
G75*
G02*
X214670500Y-98225500I150000J0D01*
G01*
X214970500Y-98225500D01*
G75*
G02*
X215120500Y-98375500I0J-150000D01*
G01*
X215120500Y-100125500D01*
G75*
G02*
X214970500Y-100275500I-150000J0D01*
G01*
G37*
G36*
G01*
X216240500Y-100275500D02*
X215940500Y-100275500D01*
G75*
G02*
X215790500Y-100125500I0J150000D01*
G01*
X215790500Y-98375500D01*
G75*
G02*
X215940500Y-98225500I150000J0D01*
G01*
X216240500Y-98225500D01*
G75*
G02*
X216390500Y-98375500I0J-150000D01*
G01*
X216390500Y-100125500D01*
G75*
G02*
X216240500Y-100275500I-150000J0D01*
G01*
G37*
G36*
G01*
X217510500Y-100275500D02*
X217210500Y-100275500D01*
G75*
G02*
X217060500Y-100125500I0J150000D01*
G01*
X217060500Y-98375500D01*
G75*
G02*
X217210500Y-98225500I150000J0D01*
G01*
X217510500Y-98225500D01*
G75*
G02*
X217660500Y-98375500I0J-150000D01*
G01*
X217660500Y-100125500D01*
G75*
G02*
X217510500Y-100275500I-150000J0D01*
G01*
G37*
G36*
G01*
X218780500Y-100275500D02*
X218480500Y-100275500D01*
G75*
G02*
X218330500Y-100125500I0J150000D01*
G01*
X218330500Y-98375500D01*
G75*
G02*
X218480500Y-98225500I150000J0D01*
G01*
X218780500Y-98225500D01*
G75*
G02*
X218930500Y-98375500I0J-150000D01*
G01*
X218930500Y-100125500D01*
G75*
G02*
X218780500Y-100275500I-150000J0D01*
G01*
G37*
G36*
G01*
X220050500Y-100275500D02*
X219750500Y-100275500D01*
G75*
G02*
X219600500Y-100125500I0J150000D01*
G01*
X219600500Y-98375500D01*
G75*
G02*
X219750500Y-98225500I150000J0D01*
G01*
X220050500Y-98225500D01*
G75*
G02*
X220200500Y-98375500I0J-150000D01*
G01*
X220200500Y-100125500D01*
G75*
G02*
X220050500Y-100275500I-150000J0D01*
G01*
G37*
G36*
G01*
X221320500Y-100275500D02*
X221020500Y-100275500D01*
G75*
G02*
X220870500Y-100125500I0J150000D01*
G01*
X220870500Y-98375500D01*
G75*
G02*
X221020500Y-98225500I150000J0D01*
G01*
X221320500Y-98225500D01*
G75*
G02*
X221470500Y-98375500I0J-150000D01*
G01*
X221470500Y-100125500D01*
G75*
G02*
X221320500Y-100275500I-150000J0D01*
G01*
G37*
G36*
G01*
X222590500Y-100275500D02*
X222290500Y-100275500D01*
G75*
G02*
X222140500Y-100125500I0J150000D01*
G01*
X222140500Y-98375500D01*
G75*
G02*
X222290500Y-98225500I150000J0D01*
G01*
X222590500Y-98225500D01*
G75*
G02*
X222740500Y-98375500I0J-150000D01*
G01*
X222740500Y-100125500D01*
G75*
G02*
X222590500Y-100275500I-150000J0D01*
G01*
G37*
G36*
G01*
X222590500Y-109575500D02*
X222290500Y-109575500D01*
G75*
G02*
X222140500Y-109425500I0J150000D01*
G01*
X222140500Y-107675500D01*
G75*
G02*
X222290500Y-107525500I150000J0D01*
G01*
X222590500Y-107525500D01*
G75*
G02*
X222740500Y-107675500I0J-150000D01*
G01*
X222740500Y-109425500D01*
G75*
G02*
X222590500Y-109575500I-150000J0D01*
G01*
G37*
G36*
G01*
X221320500Y-109575500D02*
X221020500Y-109575500D01*
G75*
G02*
X220870500Y-109425500I0J150000D01*
G01*
X220870500Y-107675500D01*
G75*
G02*
X221020500Y-107525500I150000J0D01*
G01*
X221320500Y-107525500D01*
G75*
G02*
X221470500Y-107675500I0J-150000D01*
G01*
X221470500Y-109425500D01*
G75*
G02*
X221320500Y-109575500I-150000J0D01*
G01*
G37*
G36*
G01*
X220050500Y-109575500D02*
X219750500Y-109575500D01*
G75*
G02*
X219600500Y-109425500I0J150000D01*
G01*
X219600500Y-107675500D01*
G75*
G02*
X219750500Y-107525500I150000J0D01*
G01*
X220050500Y-107525500D01*
G75*
G02*
X220200500Y-107675500I0J-150000D01*
G01*
X220200500Y-109425500D01*
G75*
G02*
X220050500Y-109575500I-150000J0D01*
G01*
G37*
G36*
G01*
X218780500Y-109575500D02*
X218480500Y-109575500D01*
G75*
G02*
X218330500Y-109425500I0J150000D01*
G01*
X218330500Y-107675500D01*
G75*
G02*
X218480500Y-107525500I150000J0D01*
G01*
X218780500Y-107525500D01*
G75*
G02*
X218930500Y-107675500I0J-150000D01*
G01*
X218930500Y-109425500D01*
G75*
G02*
X218780500Y-109575500I-150000J0D01*
G01*
G37*
G36*
G01*
X217510500Y-109575500D02*
X217210500Y-109575500D01*
G75*
G02*
X217060500Y-109425500I0J150000D01*
G01*
X217060500Y-107675500D01*
G75*
G02*
X217210500Y-107525500I150000J0D01*
G01*
X217510500Y-107525500D01*
G75*
G02*
X217660500Y-107675500I0J-150000D01*
G01*
X217660500Y-109425500D01*
G75*
G02*
X217510500Y-109575500I-150000J0D01*
G01*
G37*
G36*
G01*
X216240500Y-109575500D02*
X215940500Y-109575500D01*
G75*
G02*
X215790500Y-109425500I0J150000D01*
G01*
X215790500Y-107675500D01*
G75*
G02*
X215940500Y-107525500I150000J0D01*
G01*
X216240500Y-107525500D01*
G75*
G02*
X216390500Y-107675500I0J-150000D01*
G01*
X216390500Y-109425500D01*
G75*
G02*
X216240500Y-109575500I-150000J0D01*
G01*
G37*
G36*
G01*
X214970500Y-109575500D02*
X214670500Y-109575500D01*
G75*
G02*
X214520500Y-109425500I0J150000D01*
G01*
X214520500Y-107675500D01*
G75*
G02*
X214670500Y-107525500I150000J0D01*
G01*
X214970500Y-107525500D01*
G75*
G02*
X215120500Y-107675500I0J-150000D01*
G01*
X215120500Y-109425500D01*
G75*
G02*
X214970500Y-109575500I-150000J0D01*
G01*
G37*
G36*
G01*
X213700500Y-109575500D02*
X213400500Y-109575500D01*
G75*
G02*
X213250500Y-109425500I0J150000D01*
G01*
X213250500Y-107675500D01*
G75*
G02*
X213400500Y-107525500I150000J0D01*
G01*
X213700500Y-107525500D01*
G75*
G02*
X213850500Y-107675500I0J-150000D01*
G01*
X213850500Y-109425500D01*
G75*
G02*
X213700500Y-109575500I-150000J0D01*
G01*
G37*
G36*
G01*
X212430500Y-109575500D02*
X212130500Y-109575500D01*
G75*
G02*
X211980500Y-109425500I0J150000D01*
G01*
X211980500Y-107675500D01*
G75*
G02*
X212130500Y-107525500I150000J0D01*
G01*
X212430500Y-107525500D01*
G75*
G02*
X212580500Y-107675500I0J-150000D01*
G01*
X212580500Y-109425500D01*
G75*
G02*
X212430500Y-109575500I-150000J0D01*
G01*
G37*
G36*
G01*
X211160500Y-109575500D02*
X210860500Y-109575500D01*
G75*
G02*
X210710500Y-109425500I0J150000D01*
G01*
X210710500Y-107675500D01*
G75*
G02*
X210860500Y-107525500I150000J0D01*
G01*
X211160500Y-107525500D01*
G75*
G02*
X211310500Y-107675500I0J-150000D01*
G01*
X211310500Y-109425500D01*
G75*
G02*
X211160500Y-109575500I-150000J0D01*
G01*
G37*
G36*
G01*
X209890500Y-109575500D02*
X209590500Y-109575500D01*
G75*
G02*
X209440500Y-109425500I0J150000D01*
G01*
X209440500Y-107675500D01*
G75*
G02*
X209590500Y-107525500I150000J0D01*
G01*
X209890500Y-107525500D01*
G75*
G02*
X210040500Y-107675500I0J-150000D01*
G01*
X210040500Y-109425500D01*
G75*
G02*
X209890500Y-109575500I-150000J0D01*
G01*
G37*
G36*
G01*
X208620500Y-109575500D02*
X208320500Y-109575500D01*
G75*
G02*
X208170500Y-109425500I0J150000D01*
G01*
X208170500Y-107675500D01*
G75*
G02*
X208320500Y-107525500I150000J0D01*
G01*
X208620500Y-107525500D01*
G75*
G02*
X208770500Y-107675500I0J-150000D01*
G01*
X208770500Y-109425500D01*
G75*
G02*
X208620500Y-109575500I-150000J0D01*
G01*
G37*
%TD*%
%TO.C,R1*%
G36*
G01*
X225684501Y-103000500D02*
X224784499Y-103000500D01*
G75*
G02*
X224534500Y-102750501I0J249999D01*
G01*
X224534500Y-102100499D01*
G75*
G02*
X224784499Y-101850500I249999J0D01*
G01*
X225684501Y-101850500D01*
G75*
G02*
X225934500Y-102100499I0J-249999D01*
G01*
X225934500Y-102750501D01*
G75*
G02*
X225684501Y-103000500I-249999J0D01*
G01*
G37*
G36*
G01*
X225684501Y-105050500D02*
X224784499Y-105050500D01*
G75*
G02*
X224534500Y-104800501I0J249999D01*
G01*
X224534500Y-104150499D01*
G75*
G02*
X224784499Y-103900500I249999J0D01*
G01*
X225684501Y-103900500D01*
G75*
G02*
X225934500Y-104150499I0J-249999D01*
G01*
X225934500Y-104800501D01*
G75*
G02*
X225684501Y-105050500I-249999J0D01*
G01*
G37*
%TD*%
M02*
