M48
; DRILL file {KiCad (5.1.6-0-10_14)} date Wednesday, January 13, 2021 at 12:07:45 PM
; FORMAT={-:-/ absolute / inch / decimal}
; #@! TF.CreationDate,2021-01-13T12:07:45-08:00
; #@! TF.GenerationSoftware,Kicad,Pcbnew,(5.1.6-0-10_14)
; #@! TF.FileFunction,Plated,1,2,PTH
FMAT,2
INCH
T1C0.0157
T2C0.0300
T3C0.0394
T4C0.0433
T5C0.0520
T6C0.0551
T7C0.0591
T8C0.0787
T9C0.0866
T10C0.1213
%
G90
G05
T1
X5.875Y-2.825
X6.1325Y-2.9025
X6.1625Y-2.7661
X6.205Y-2.835
X6.295Y-2.73
X6.2975Y-2.55
X6.87Y-3.505
X6.87Y-3.79
X6.87Y-3.92
X6.91Y-4.16
X7.08Y-4.1
X7.12Y-3.42
X7.18Y-3.97
X7.18Y-4.085
X7.1862Y-3.4412
X7.33Y-3.2275
X7.34Y-3.315
X7.455Y-3.1
X7.475Y-3.325
X7.5359Y-4.0266
X7.798Y-3.822
X7.8959Y-4.2734
X7.9087Y-4.3113
X7.9125Y-3.4725
X7.9329Y-3.665
X7.9775Y-3.5225
X7.99Y-3.5825
X8.0025Y-3.3525
X8.0058Y-3.7491
X8.059Y-3.6275
X8.1275Y-3.9175
X8.16Y-4.255
X8.1675Y-3.5225
X8.2925Y-3.7725
X8.329Y-3.8014
X8.355Y-4.205
X8.3693Y-3.4325
X8.45Y-3.97
X8.51Y-3.9675
X8.5375Y-3.615
X8.55Y-3.47
X8.56Y-3.8
X8.5725Y-3.755
X8.5925Y-4.3375
X8.6075Y-3.8425
X8.6885Y-3.59
X8.695Y-3.7825
X8.7525Y-3.475
X8.78Y-3.3525
X8.8175Y-4.0275
X8.8175Y-4.115
X8.83Y-3.7775
T2
X8.06Y-3.29
X8.16Y-3.29
X8.16Y-3.69
X8.26Y-3.69
X8.36Y-3.29
X8.36Y-3.69
X8.46Y-3.29
X8.46Y-3.69
X8.56Y-3.69
X8.66Y-3.69
X8.76Y-3.29
X8.76Y-3.69
X8.06Y-2.7025
X8.16Y-2.7025
X8.16Y-3.1025
X8.26Y-3.1025
X8.36Y-2.7025
X8.36Y-3.1025
X8.46Y-2.7025
X8.46Y-3.1025
X8.56Y-3.1025
X8.66Y-3.1025
X8.76Y-2.7025
X8.76Y-3.1025
T3
X6.2Y-3.4781
X6.2Y-3.675
X6.4425Y-2.465
X5.685Y-2.465
X7.59Y-3.0925
X7.59Y-3.1925
X7.59Y-3.2925
X7.59Y-3.3925
X7.59Y-3.4925
X7.59Y-3.5925
X7.59Y-3.6925
X7.59Y-3.7925
X5.915Y-2.46
X6.685Y-2.5675
X6.685Y-2.6675
X6.685Y-2.7675
X6.685Y-2.8675
X6.685Y-2.9675
X6.685Y-3.0675
X6.685Y-3.1675
X6.685Y-3.2675
X6.685Y-3.3675
X6.685Y-3.4675
X6.685Y-3.5675
X6.685Y-3.6675
X6.685Y-3.7675
X6.685Y-3.8675
X6.685Y-3.9675
X7.285Y-2.5675
X7.285Y-2.6675
X7.285Y-2.7675
X7.285Y-2.8675
X7.285Y-2.9675
X7.285Y-3.0675
X7.285Y-3.1675
X7.285Y-3.2675
X7.285Y-3.3675
X7.285Y-3.4675
X7.285Y-3.5675
X7.285Y-3.6675
X7.285Y-3.7675
X7.285Y-3.8675
X7.285Y-3.9675
X7.4781Y-2.765
X7.675Y-2.765
X5.9025Y-2.6625
X5.685Y-2.6625
X6.455Y-2.665
T4
X5.875Y-3.49
X5.875Y-3.59
X5.875Y-3.69
T5
X4.8675Y-3.89
X4.8675Y-4.0869
T6
X5.2825Y-2.7247
X5.2825Y-2.8724
T7
X5.2825Y-3.02
T10
X8.879Y-2.5303
X5.0Y-2.45
X4.9Y-4.45
X8.879Y-4.4988
T3
G00X5.031Y-3.4292
M15
G01X5.031Y-3.5079
M16
G05
G00X5.1156Y-3.6575
M15
G01X5.1944Y-3.6575
M16
G05
G00X5.277Y-3.4292
M15
G01X5.277Y-3.5079
M16
G05
T8
G00X4.9085Y-3.0712
M15
G01X4.8691Y-3.0712
M16
G05
T9
G00X4.9045Y-2.6539
M15
G01X4.8731Y-2.6539
M16
G05
T0
M30
