%TF.GenerationSoftware,KiCad,Pcbnew,(5.1.6-0-10_14)*%
%TF.CreationDate,2021-01-04T17:29:47-08:00*%
%TF.ProjectId,temperatureController,74656d70-6572-4617-9475-7265436f6e74,rev?*%
%TF.SameCoordinates,Original*%
%TF.FileFunction,Soldermask,Bot*%
%TF.FilePolarity,Negative*%
%FSLAX46Y46*%
G04 Gerber Fmt 4.6, Leading zero omitted, Abs format (unit mm)*
G04 Created by KiCad (PCBNEW (5.1.6-0-10_14)) date 2021-01-04 17:29:47*
%MOMM*%
%LPD*%
G01*
G04 APERTURE LIST*
%ADD10O,1.900000X1.900000*%
%ADD11C,2.100000*%
%ADD12O,1.700000X1.700000*%
%ADD13R,1.700000X1.700000*%
%ADD14C,4.100000*%
%ADD15O,5.100000X4.100000*%
%ADD16C,2.600000*%
%ADD17R,2.100000X2.100000*%
%ADD18C,1.370000*%
%ADD19O,1.800000X1.800000*%
%ADD20R,1.800000X1.800000*%
%ADD21O,4.060000X2.080000*%
%ADD22R,4.060000X2.080000*%
%ADD23R,3.600000X3.600000*%
G04 APERTURE END LIST*
D10*
%TO.C,R2*%
X135128000Y-109013000D03*
X135128000Y-104013000D03*
%TD*%
D11*
%TO.C,TP4*%
X143383000Y-114744500D03*
%TD*%
%TO.C,TP3*%
X139192000Y-67691000D03*
%TD*%
%TO.C,TP2*%
X128143000Y-109093000D03*
%TD*%
%TO.C,TP1*%
X139573000Y-113411000D03*
%TD*%
D12*
%TO.C,A1*%
X161861500Y-109093000D03*
X146621500Y-109093000D03*
X161861500Y-73533000D03*
X146621500Y-106553000D03*
X161861500Y-76073000D03*
X146621500Y-104013000D03*
X161861500Y-78613000D03*
X146621500Y-101473000D03*
X161861500Y-81153000D03*
X146621500Y-98933000D03*
X161861500Y-83693000D03*
X146621500Y-96393000D03*
X161861500Y-86233000D03*
X146621500Y-93853000D03*
X161861500Y-88773000D03*
X146621500Y-91313000D03*
X161861500Y-91313000D03*
X146621500Y-88773000D03*
X161861500Y-93853000D03*
X146621500Y-86233000D03*
X161861500Y-96393000D03*
X146621500Y-83693000D03*
X161861500Y-98933000D03*
X146621500Y-81153000D03*
X161861500Y-101473000D03*
X146621500Y-78613000D03*
X161861500Y-104013000D03*
X146621500Y-76073000D03*
X161861500Y-106553000D03*
D13*
X146621500Y-73533000D03*
%TD*%
D14*
%TO.C,H4*%
X200000000Y-113000000D03*
%TD*%
%TO.C,H3*%
X127000000Y-62230000D03*
%TD*%
%TO.C,H2*%
X200000000Y-63000000D03*
%TD*%
%TO.C,H1*%
X124460000Y-113030000D03*
%TD*%
D15*
%TO.C,RV1*%
X124175500Y-78008000D03*
X124175500Y-67408000D03*
D16*
X134175500Y-69208000D03*
X134175500Y-72958000D03*
D17*
X134175500Y-76708000D03*
%TD*%
%TO.C,R1*%
G36*
G01*
X190265000Y-101252762D02*
X190265000Y-100296238D01*
G75*
G02*
X190536738Y-100024500I271738J0D01*
G01*
X191243262Y-100024500D01*
G75*
G02*
X191515000Y-100296238I0J-271738D01*
G01*
X191515000Y-101252762D01*
G75*
G02*
X191243262Y-101524500I-271738J0D01*
G01*
X190536738Y-101524500D01*
G75*
G02*
X190265000Y-101252762I0J271738D01*
G01*
G37*
G36*
G01*
X188215000Y-101252762D02*
X188215000Y-100296238D01*
G75*
G02*
X188486738Y-100024500I271738J0D01*
G01*
X189193262Y-100024500D01*
G75*
G02*
X189465000Y-100296238I0J-271738D01*
G01*
X189465000Y-101252762D01*
G75*
G02*
X189193262Y-101524500I-271738J0D01*
G01*
X188486738Y-101524500D01*
G75*
G02*
X188215000Y-101252762I0J271738D01*
G01*
G37*
%TD*%
D18*
%TO.C,LED2*%
X179197000Y-82296000D03*
X181737000Y-82296000D03*
X186817000Y-82296000D03*
X189357000Y-82296000D03*
X196977000Y-82296000D03*
X196977000Y-92456000D03*
X194437000Y-92456000D03*
X191897000Y-92456000D03*
X189357000Y-92456000D03*
X186817000Y-92456000D03*
X184277000Y-92456000D03*
X181737000Y-92456000D03*
%TD*%
%TO.C,LED1*%
X179197000Y-67373500D03*
X181737000Y-67373500D03*
X186817000Y-67373500D03*
X189357000Y-67373500D03*
X196977000Y-67373500D03*
X196977000Y-77533500D03*
X194437000Y-77533500D03*
X191897000Y-77533500D03*
X189357000Y-77533500D03*
X186817000Y-77533500D03*
X184277000Y-77533500D03*
X181737000Y-77533500D03*
%TD*%
D19*
%TO.C,J4*%
X168275000Y-94488000D03*
X168275000Y-91948000D03*
X168275000Y-89408000D03*
X168275000Y-86868000D03*
X168275000Y-84328000D03*
X168275000Y-81788000D03*
X168275000Y-79248000D03*
D20*
X168275000Y-76708000D03*
%TD*%
D19*
%TO.C,J3*%
X170497500Y-101917500D03*
D20*
X167957500Y-101917500D03*
%TD*%
D21*
%TO.C,J2*%
X123634500Y-103806000D03*
D22*
X123634500Y-98806000D03*
%TD*%
%TO.C,J1*%
G36*
G01*
X129137000Y-93800500D02*
X129137000Y-92000500D01*
G75*
G02*
X130037000Y-91100500I900000J0D01*
G01*
X131837000Y-91100500D01*
G75*
G02*
X132737000Y-92000500I0J-900000D01*
G01*
X132737000Y-93800500D01*
G75*
G02*
X131837000Y-94700500I-900000J0D01*
G01*
X130037000Y-94700500D01*
G75*
G02*
X129137000Y-93800500I0J900000D01*
G01*
G37*
G36*
G01*
X126237000Y-89125500D02*
X126237000Y-87075500D01*
G75*
G02*
X127012000Y-86300500I775000J0D01*
G01*
X128562000Y-86300500D01*
G75*
G02*
X129337000Y-87075500I0J-775000D01*
G01*
X129337000Y-89125500D01*
G75*
G02*
X128562000Y-89900500I-775000J0D01*
G01*
X127012000Y-89900500D01*
G75*
G02*
X126237000Y-89125500I0J775000D01*
G01*
G37*
D23*
X134037000Y-88100500D03*
%TD*%
D11*
%TO.C,C1*%
X148225500Y-61468000D03*
D17*
X153225500Y-61468000D03*
%TD*%
M02*
