%TF.GenerationSoftware,KiCad,Pcbnew,(5.1.6-0-10_14)*%
%TF.CreationDate,2021-01-24T09:17:52-08:00*%
%TF.ProjectId,temperatureController,74656d70-6572-4617-9475-7265436f6e74,rev?*%
%TF.SameCoordinates,Original*%
%TF.FileFunction,Copper,L1,Top*%
%TF.FilePolarity,Positive*%
%FSLAX46Y46*%
G04 Gerber Fmt 4.6, Leading zero omitted, Abs format (unit mm)*
G04 Created by KiCad (PCBNEW (5.1.6-0-10_14)) date 2021-01-24 09:17:52*
%MOMM*%
%LPD*%
G01*
G04 APERTURE LIST*
%TA.AperFunction,ComponentPad*%
%ADD10C,6.000000*%
%TD*%
%TA.AperFunction,ComponentPad*%
%ADD11O,2.500000X2.500000*%
%TD*%
%TA.AperFunction,ComponentPad*%
%ADD12R,2.500000X2.500000*%
%TD*%
%TA.AperFunction,SMDPad,CuDef*%
%ADD13R,0.450000X1.500000*%
%TD*%
%TA.AperFunction,ComponentPad*%
%ADD14O,1.700000X1.700000*%
%TD*%
%TA.AperFunction,ComponentPad*%
%ADD15R,1.700000X1.700000*%
%TD*%
%TA.AperFunction,ComponentPad*%
%ADD16O,1.600000X1.600000*%
%TD*%
%TA.AperFunction,ComponentPad*%
%ADD17R,1.600000X1.600000*%
%TD*%
%TA.AperFunction,ComponentPad*%
%ADD18O,1.800000X1.800000*%
%TD*%
%TA.AperFunction,ComponentPad*%
%ADD19C,2.000000*%
%TD*%
%TA.AperFunction,SMDPad,CuDef*%
%ADD20R,1.300000X4.500000*%
%TD*%
%TA.AperFunction,SMDPad,CuDef*%
%ADD21R,1.800000X3.900000*%
%TD*%
%TA.AperFunction,ComponentPad*%
%ADD22O,2.000000X1.905000*%
%TD*%
%TA.AperFunction,ComponentPad*%
%ADD23R,2.000000X1.905000*%
%TD*%
%TA.AperFunction,ComponentPad*%
%ADD24C,4.000000*%
%TD*%
%TA.AperFunction,ComponentPad*%
%ADD25O,5.000000X4.000000*%
%TD*%
%TA.AperFunction,ComponentPad*%
%ADD26C,2.500000*%
%TD*%
%TA.AperFunction,ComponentPad*%
%ADD27R,2.000000X2.000000*%
%TD*%
%TA.AperFunction,ComponentPad*%
%ADD28C,1.270000*%
%TD*%
%TA.AperFunction,ComponentPad*%
%ADD29O,1.980000X3.960000*%
%TD*%
%TA.AperFunction,ComponentPad*%
%ADD30R,1.980000X3.960000*%
%TD*%
%TA.AperFunction,ComponentPad*%
%ADD31R,3.500000X3.500000*%
%TD*%
%TA.AperFunction,ViaPad*%
%ADD32C,0.800000*%
%TD*%
%TA.AperFunction,Conductor*%
%ADD33C,0.250000*%
%TD*%
%TA.AperFunction,Conductor*%
%ADD34C,1.000000*%
%TD*%
%TA.AperFunction,Conductor*%
%ADD35C,2.500000*%
%TD*%
G04 APERTURE END LIST*
%TO.P,U2,8*%
%TO.N,VDD*%
%TA.AperFunction,SMDPad,CuDef*%
G36*
G01*
X155805000Y-76350000D02*
X155805000Y-76050000D01*
G75*
G02*
X155955000Y-75900000I150000J0D01*
G01*
X157605000Y-75900000D01*
G75*
G02*
X157755000Y-76050000I0J-150000D01*
G01*
X157755000Y-76350000D01*
G75*
G02*
X157605000Y-76500000I-150000J0D01*
G01*
X155955000Y-76500000D01*
G75*
G02*
X155805000Y-76350000I0J150000D01*
G01*
G37*
%TD.AperFunction*%
%TO.P,U2,7*%
%TO.N,/VSNS_F*%
%TA.AperFunction,SMDPad,CuDef*%
G36*
G01*
X155805000Y-77620000D02*
X155805000Y-77320000D01*
G75*
G02*
X155955000Y-77170000I150000J0D01*
G01*
X157605000Y-77170000D01*
G75*
G02*
X157755000Y-77320000I0J-150000D01*
G01*
X157755000Y-77620000D01*
G75*
G02*
X157605000Y-77770000I-150000J0D01*
G01*
X155955000Y-77770000D01*
G75*
G02*
X155805000Y-77620000I0J150000D01*
G01*
G37*
%TD.AperFunction*%
%TO.P,U2,6*%
%TO.N,/VSNSL-*%
%TA.AperFunction,SMDPad,CuDef*%
G36*
G01*
X155805000Y-78890000D02*
X155805000Y-78590000D01*
G75*
G02*
X155955000Y-78440000I150000J0D01*
G01*
X157605000Y-78440000D01*
G75*
G02*
X157755000Y-78590000I0J-150000D01*
G01*
X157755000Y-78890000D01*
G75*
G02*
X157605000Y-79040000I-150000J0D01*
G01*
X155955000Y-79040000D01*
G75*
G02*
X155805000Y-78890000I0J150000D01*
G01*
G37*
%TD.AperFunction*%
%TO.P,U2,5*%
%TO.N,/VSNSH+*%
%TA.AperFunction,SMDPad,CuDef*%
G36*
G01*
X155805000Y-80160000D02*
X155805000Y-79860000D01*
G75*
G02*
X155955000Y-79710000I150000J0D01*
G01*
X157605000Y-79710000D01*
G75*
G02*
X157755000Y-79860000I0J-150000D01*
G01*
X157755000Y-80160000D01*
G75*
G02*
X157605000Y-80310000I-150000J0D01*
G01*
X155955000Y-80310000D01*
G75*
G02*
X155805000Y-80160000I0J150000D01*
G01*
G37*
%TD.AperFunction*%
%TO.P,U2,4*%
%TO.N,GND*%
%TA.AperFunction,SMDPad,CuDef*%
G36*
G01*
X150855000Y-80160000D02*
X150855000Y-79860000D01*
G75*
G02*
X151005000Y-79710000I150000J0D01*
G01*
X152655000Y-79710000D01*
G75*
G02*
X152805000Y-79860000I0J-150000D01*
G01*
X152805000Y-80160000D01*
G75*
G02*
X152655000Y-80310000I-150000J0D01*
G01*
X151005000Y-80310000D01*
G75*
G02*
X150855000Y-80160000I0J150000D01*
G01*
G37*
%TD.AperFunction*%
%TO.P,U2,3*%
%TO.N,/2.5V*%
%TA.AperFunction,SMDPad,CuDef*%
G36*
G01*
X150855000Y-78890000D02*
X150855000Y-78590000D01*
G75*
G02*
X151005000Y-78440000I150000J0D01*
G01*
X152655000Y-78440000D01*
G75*
G02*
X152805000Y-78590000I0J-150000D01*
G01*
X152805000Y-78890000D01*
G75*
G02*
X152655000Y-79040000I-150000J0D01*
G01*
X151005000Y-79040000D01*
G75*
G02*
X150855000Y-78890000I0J150000D01*
G01*
G37*
%TD.AperFunction*%
%TO.P,U2,2*%
%TO.N,/2.5V_BUF*%
%TA.AperFunction,SMDPad,CuDef*%
G36*
G01*
X150855000Y-77620000D02*
X150855000Y-77320000D01*
G75*
G02*
X151005000Y-77170000I150000J0D01*
G01*
X152655000Y-77170000D01*
G75*
G02*
X152805000Y-77320000I0J-150000D01*
G01*
X152805000Y-77620000D01*
G75*
G02*
X152655000Y-77770000I-150000J0D01*
G01*
X151005000Y-77770000D01*
G75*
G02*
X150855000Y-77620000I0J150000D01*
G01*
G37*
%TD.AperFunction*%
%TO.P,U2,1*%
%TA.AperFunction,SMDPad,CuDef*%
G36*
G01*
X150855000Y-76350000D02*
X150855000Y-76050000D01*
G75*
G02*
X151005000Y-75900000I150000J0D01*
G01*
X152655000Y-75900000D01*
G75*
G02*
X152805000Y-76050000I0J-150000D01*
G01*
X152805000Y-76350000D01*
G75*
G02*
X152655000Y-76500000I-150000J0D01*
G01*
X151005000Y-76500000D01*
G75*
G02*
X150855000Y-76350000I0J150000D01*
G01*
G37*
%TD.AperFunction*%
%TD*%
%TO.P,R5,2*%
%TO.N,/2.5V_BUF*%
%TA.AperFunction,SMDPad,CuDef*%
G36*
G01*
X146743000Y-81366999D02*
X146743000Y-82267001D01*
G75*
G02*
X146493001Y-82517000I-249999J0D01*
G01*
X145842999Y-82517000D01*
G75*
G02*
X145593000Y-82267001I0J249999D01*
G01*
X145593000Y-81366999D01*
G75*
G02*
X145842999Y-81117000I249999J0D01*
G01*
X146493001Y-81117000D01*
G75*
G02*
X146743000Y-81366999I0J-249999D01*
G01*
G37*
%TD.AperFunction*%
%TO.P,R5,1*%
%TO.N,/VSNSH+*%
%TA.AperFunction,SMDPad,CuDef*%
G36*
G01*
X148793000Y-81366999D02*
X148793000Y-82267001D01*
G75*
G02*
X148543001Y-82517000I-249999J0D01*
G01*
X147892999Y-82517000D01*
G75*
G02*
X147643000Y-82267001I0J249999D01*
G01*
X147643000Y-81366999D01*
G75*
G02*
X147892999Y-81117000I249999J0D01*
G01*
X148543001Y-81117000D01*
G75*
G02*
X148793000Y-81366999I0J-249999D01*
G01*
G37*
%TD.AperFunction*%
%TD*%
%TO.P,C3,2*%
%TO.N,/2.5V_BUF*%
%TA.AperFunction,SMDPad,CuDef*%
G36*
G01*
X146743000Y-79305999D02*
X146743000Y-80206001D01*
G75*
G02*
X146493001Y-80456000I-249999J0D01*
G01*
X145842999Y-80456000D01*
G75*
G02*
X145593000Y-80206001I0J249999D01*
G01*
X145593000Y-79305999D01*
G75*
G02*
X145842999Y-79056000I249999J0D01*
G01*
X146493001Y-79056000D01*
G75*
G02*
X146743000Y-79305999I0J-249999D01*
G01*
G37*
%TD.AperFunction*%
%TO.P,C3,1*%
%TO.N,/VSNSH+*%
%TA.AperFunction,SMDPad,CuDef*%
G36*
G01*
X148793000Y-79305999D02*
X148793000Y-80206001D01*
G75*
G02*
X148543001Y-80456000I-249999J0D01*
G01*
X147892999Y-80456000D01*
G75*
G02*
X147643000Y-80206001I0J249999D01*
G01*
X147643000Y-79305999D01*
G75*
G02*
X147892999Y-79056000I249999J0D01*
G01*
X148543001Y-79056000D01*
G75*
G02*
X148793000Y-79305999I0J-249999D01*
G01*
G37*
%TD.AperFunction*%
%TD*%
%TO.P,C5,2*%
%TO.N,GND*%
%TA.AperFunction,SMDPad,CuDef*%
G36*
G01*
X157930001Y-72956000D02*
X157029999Y-72956000D01*
G75*
G02*
X156780000Y-72706001I0J249999D01*
G01*
X156780000Y-72055999D01*
G75*
G02*
X157029999Y-71806000I249999J0D01*
G01*
X157930001Y-71806000D01*
G75*
G02*
X158180000Y-72055999I0J-249999D01*
G01*
X158180000Y-72706001D01*
G75*
G02*
X157930001Y-72956000I-249999J0D01*
G01*
G37*
%TD.AperFunction*%
%TO.P,C5,1*%
%TO.N,VDD*%
%TA.AperFunction,SMDPad,CuDef*%
G36*
G01*
X157930001Y-75006000D02*
X157029999Y-75006000D01*
G75*
G02*
X156780000Y-74756001I0J249999D01*
G01*
X156780000Y-74105999D01*
G75*
G02*
X157029999Y-73856000I249999J0D01*
G01*
X157930001Y-73856000D01*
G75*
G02*
X158180000Y-74105999I0J-249999D01*
G01*
X158180000Y-74756001D01*
G75*
G02*
X157930001Y-75006000I-249999J0D01*
G01*
G37*
%TD.AperFunction*%
%TD*%
D10*
%TO.P,HS1,1*%
%TO.N,Net-(HS1-Pad1)*%
X152400000Y-119380000D03*
X152400000Y-93980000D03*
%TD*%
D11*
%TO.P,RL1,8*%
%TO.N,Net-(Q2-Pad3)*%
X130436000Y-87870000D03*
%TO.P,RL1,7*%
%TO.N,/VSNSH*%
X130436000Y-102870000D03*
%TO.P,RL1,6*%
%TO.N,/TECL*%
X130436000Y-107870000D03*
%TO.P,RL1,5*%
%TO.N,VDD*%
X130436000Y-112870000D03*
%TO.P,RL1,4*%
%TO.N,/VSNSH*%
X122936000Y-112870000D03*
%TO.P,RL1,3*%
%TO.N,/TECH*%
X122936000Y-107870000D03*
%TO.P,RL1,2*%
%TO.N,VDD*%
X122936000Y-102870000D03*
D12*
%TO.P,RL1,1*%
X122936000Y-87870000D03*
%TD*%
%TO.P,R9,2*%
%TO.N,/VSNSH*%
%TA.AperFunction,SMDPad,CuDef*%
G36*
G01*
X146743000Y-83378999D02*
X146743000Y-84279001D01*
G75*
G02*
X146493001Y-84529000I-249999J0D01*
G01*
X145842999Y-84529000D01*
G75*
G02*
X145593000Y-84279001I0J249999D01*
G01*
X145593000Y-83378999D01*
G75*
G02*
X145842999Y-83129000I249999J0D01*
G01*
X146493001Y-83129000D01*
G75*
G02*
X146743000Y-83378999I0J-249999D01*
G01*
G37*
%TD.AperFunction*%
%TO.P,R9,1*%
%TO.N,/VSNSH+*%
%TA.AperFunction,SMDPad,CuDef*%
G36*
G01*
X148793000Y-83378999D02*
X148793000Y-84279001D01*
G75*
G02*
X148543001Y-84529000I-249999J0D01*
G01*
X147892999Y-84529000D01*
G75*
G02*
X147643000Y-84279001I0J249999D01*
G01*
X147643000Y-83378999D01*
G75*
G02*
X147892999Y-83129000I249999J0D01*
G01*
X148543001Y-83129000D01*
G75*
G02*
X148793000Y-83378999I0J-249999D01*
G01*
G37*
%TD.AperFunction*%
%TD*%
%TO.P,R8,2*%
%TO.N,/VSNSL*%
%TA.AperFunction,SMDPad,CuDef*%
G36*
G01*
X160323000Y-81337999D02*
X160323000Y-82238001D01*
G75*
G02*
X160073001Y-82488000I-249999J0D01*
G01*
X159422999Y-82488000D01*
G75*
G02*
X159173000Y-82238001I0J249999D01*
G01*
X159173000Y-81337999D01*
G75*
G02*
X159422999Y-81088000I249999J0D01*
G01*
X160073001Y-81088000D01*
G75*
G02*
X160323000Y-81337999I0J-249999D01*
G01*
G37*
%TD.AperFunction*%
%TO.P,R8,1*%
%TO.N,/VSNSL-*%
%TA.AperFunction,SMDPad,CuDef*%
G36*
G01*
X162373000Y-81337999D02*
X162373000Y-82238001D01*
G75*
G02*
X162123001Y-82488000I-249999J0D01*
G01*
X161472999Y-82488000D01*
G75*
G02*
X161223000Y-82238001I0J249999D01*
G01*
X161223000Y-81337999D01*
G75*
G02*
X161472999Y-81088000I249999J0D01*
G01*
X162123001Y-81088000D01*
G75*
G02*
X162373000Y-81337999I0J-249999D01*
G01*
G37*
%TD.AperFunction*%
%TD*%
%TO.P,R7,2*%
%TO.N,GND*%
%TA.AperFunction,SMDPad,CuDef*%
G36*
G01*
X146734000Y-75241999D02*
X146734000Y-76142001D01*
G75*
G02*
X146484001Y-76392000I-249999J0D01*
G01*
X145833999Y-76392000D01*
G75*
G02*
X145584000Y-76142001I0J249999D01*
G01*
X145584000Y-75241999D01*
G75*
G02*
X145833999Y-74992000I249999J0D01*
G01*
X146484001Y-74992000D01*
G75*
G02*
X146734000Y-75241999I0J-249999D01*
G01*
G37*
%TD.AperFunction*%
%TO.P,R7,1*%
%TO.N,/2.5V*%
%TA.AperFunction,SMDPad,CuDef*%
G36*
G01*
X148784000Y-75241999D02*
X148784000Y-76142001D01*
G75*
G02*
X148534001Y-76392000I-249999J0D01*
G01*
X147883999Y-76392000D01*
G75*
G02*
X147634000Y-76142001I0J249999D01*
G01*
X147634000Y-75241999D01*
G75*
G02*
X147883999Y-74992000I249999J0D01*
G01*
X148534001Y-74992000D01*
G75*
G02*
X148784000Y-75241999I0J-249999D01*
G01*
G37*
%TD.AperFunction*%
%TD*%
%TO.P,R6,2*%
%TO.N,/2.5V*%
%TA.AperFunction,SMDPad,CuDef*%
G36*
G01*
X147634000Y-78174001D02*
X147634000Y-77273999D01*
G75*
G02*
X147883999Y-77024000I249999J0D01*
G01*
X148534001Y-77024000D01*
G75*
G02*
X148784000Y-77273999I0J-249999D01*
G01*
X148784000Y-78174001D01*
G75*
G02*
X148534001Y-78424000I-249999J0D01*
G01*
X147883999Y-78424000D01*
G75*
G02*
X147634000Y-78174001I0J249999D01*
G01*
G37*
%TD.AperFunction*%
%TO.P,R6,1*%
%TO.N,VDD*%
%TA.AperFunction,SMDPad,CuDef*%
G36*
G01*
X145584000Y-78174001D02*
X145584000Y-77273999D01*
G75*
G02*
X145833999Y-77024000I249999J0D01*
G01*
X146484001Y-77024000D01*
G75*
G02*
X146734000Y-77273999I0J-249999D01*
G01*
X146734000Y-78174001D01*
G75*
G02*
X146484001Y-78424000I-249999J0D01*
G01*
X145833999Y-78424000D01*
G75*
G02*
X145584000Y-78174001I0J249999D01*
G01*
G37*
%TD.AperFunction*%
%TD*%
D13*
%TO.P,Q2,3*%
%TO.N,Net-(Q2-Pad3)*%
X135890000Y-88138000D03*
%TO.P,Q2,2*%
%TO.N,GND*%
X136540000Y-90798000D03*
%TO.P,Q2,1*%
%TO.N,/RELAY*%
X135240000Y-90798000D03*
%TD*%
D14*
%TO.P,J5,4*%
%TO.N,GND*%
X200025000Y-62865000D03*
%TO.P,J5,3*%
X197485000Y-62865000D03*
%TO.P,J5,2*%
X200025000Y-60325000D03*
D15*
%TO.P,J5,1*%
X197485000Y-60325000D03*
%TD*%
%TO.P,C4,2*%
%TO.N,GND*%
%TA.AperFunction,SMDPad,CuDef*%
G36*
G01*
X141683000Y-81984001D02*
X141683000Y-81083999D01*
G75*
G02*
X141932999Y-80834000I249999J0D01*
G01*
X142583001Y-80834000D01*
G75*
G02*
X142833000Y-81083999I0J-249999D01*
G01*
X142833000Y-81984001D01*
G75*
G02*
X142583001Y-82234000I-249999J0D01*
G01*
X141932999Y-82234000D01*
G75*
G02*
X141683000Y-81984001I0J249999D01*
G01*
G37*
%TD.AperFunction*%
%TO.P,C4,1*%
%TO.N,/VDR_F*%
%TA.AperFunction,SMDPad,CuDef*%
G36*
G01*
X139633000Y-81984001D02*
X139633000Y-81083999D01*
G75*
G02*
X139882999Y-80834000I249999J0D01*
G01*
X140533001Y-80834000D01*
G75*
G02*
X140783000Y-81083999I0J-249999D01*
G01*
X140783000Y-81984001D01*
G75*
G02*
X140533001Y-82234000I-249999J0D01*
G01*
X139882999Y-82234000D01*
G75*
G02*
X139633000Y-81984001I0J249999D01*
G01*
G37*
%TD.AperFunction*%
%TD*%
D16*
%TO.P,A1,16*%
%TO.N,/SCK*%
X169799000Y-65214500D03*
%TO.P,A1,15*%
%TO.N,/MISO*%
X185039000Y-65214500D03*
%TO.P,A1,30*%
%TO.N,Net-(A1-Pad30)*%
X169799000Y-100774500D03*
%TO.P,A1,14*%
%TO.N,/MOSI*%
X185039000Y-67754500D03*
%TO.P,A1,29*%
%TO.N,GND*%
X169799000Y-98234500D03*
%TO.P,A1,13*%
%TO.N,/SS*%
X185039000Y-70294500D03*
%TO.P,A1,28*%
%TO.N,Net-(A1-Pad28)*%
X169799000Y-95694500D03*
%TO.P,A1,12*%
%TO.N,Net-(A1-Pad12)*%
X185039000Y-72834500D03*
%TO.P,A1,27*%
%TO.N,VDD*%
X169799000Y-93154500D03*
%TO.P,A1,11*%
%TO.N,Net-(A1-Pad11)*%
X185039000Y-75374500D03*
%TO.P,A1,26*%
%TO.N,/A7*%
X169799000Y-90614500D03*
%TO.P,A1,10*%
%TO.N,/RELAY*%
X185039000Y-77914500D03*
%TO.P,A1,25*%
%TO.N,/A6*%
X169799000Y-88074500D03*
%TO.P,A1,9*%
%TO.N,/ALT*%
X185039000Y-80454500D03*
%TO.P,A1,24*%
%TO.N,/SCL*%
X169799000Y-85534500D03*
%TO.P,A1,8*%
%TO.N,/VDRIVE*%
X185039000Y-82994500D03*
%TO.P,A1,23*%
%TO.N,/SDA*%
X169799000Y-82994500D03*
%TO.P,A1,7*%
%TO.N,/D4*%
X185039000Y-85534500D03*
%TO.P,A1,22*%
%TO.N,/A3*%
X169799000Y-80454500D03*
%TO.P,A1,6*%
%TO.N,/D3*%
X185039000Y-88074500D03*
%TO.P,A1,21*%
%TO.N,Net-(A1-Pad21)*%
X169799000Y-77914500D03*
%TO.P,A1,5*%
%TO.N,/D2*%
X185039000Y-90614500D03*
%TO.P,A1,20*%
%TO.N,/TSET*%
X169799000Y-75374500D03*
%TO.P,A1,4*%
%TO.N,GND*%
X185039000Y-93154500D03*
%TO.P,A1,19*%
%TO.N,/VSNS_F*%
X169799000Y-72834500D03*
%TO.P,A1,3*%
%TO.N,Net-(A1-Pad3)*%
X185039000Y-95694500D03*
%TO.P,A1,18*%
%TO.N,Net-(A1-Pad18)*%
X169799000Y-70294500D03*
%TO.P,A1,2*%
%TO.N,/D0*%
X185039000Y-98234500D03*
%TO.P,A1,17*%
%TO.N,Net-(A1-Pad17)*%
X169799000Y-67754500D03*
D17*
%TO.P,A1,1*%
%TO.N,/D1*%
X185039000Y-100774500D03*
%TD*%
D18*
%TO.P,R2,2*%
%TO.N,/VSNSH*%
X156845000Y-103585000D03*
%TO.P,R2,1*%
%TO.N,/VSNSL*%
X156845000Y-108585000D03*
%TD*%
D19*
%TO.P,TP4,1*%
%TO.N,/VDRIVE*%
X141478000Y-76708000D03*
%TD*%
%TO.P,TP6,1*%
%TO.N,/VSNSH*%
X152654000Y-82550000D03*
%TD*%
%TO.P,TP5,1*%
%TO.N,/VSNS_F*%
X163639500Y-68072000D03*
%TD*%
%TO.P,TP2,1*%
%TO.N,/2.5V_BUF*%
X153543000Y-70104000D03*
%TD*%
%TO.P,R3,2*%
%TO.N,/VSNSL-*%
%TA.AperFunction,SMDPad,CuDef*%
G36*
G01*
X161241000Y-80206001D02*
X161241000Y-79305999D01*
G75*
G02*
X161490999Y-79056000I249999J0D01*
G01*
X162141001Y-79056000D01*
G75*
G02*
X162391000Y-79305999I0J-249999D01*
G01*
X162391000Y-80206001D01*
G75*
G02*
X162141001Y-80456000I-249999J0D01*
G01*
X161490999Y-80456000D01*
G75*
G02*
X161241000Y-80206001I0J249999D01*
G01*
G37*
%TD.AperFunction*%
%TO.P,R3,1*%
%TO.N,/VSNS_F*%
%TA.AperFunction,SMDPad,CuDef*%
G36*
G01*
X159191000Y-80206001D02*
X159191000Y-79305999D01*
G75*
G02*
X159440999Y-79056000I249999J0D01*
G01*
X160091001Y-79056000D01*
G75*
G02*
X160341000Y-79305999I0J-249999D01*
G01*
X160341000Y-80206001D01*
G75*
G02*
X160091001Y-80456000I-249999J0D01*
G01*
X159440999Y-80456000D01*
G75*
G02*
X159191000Y-80206001I0J249999D01*
G01*
G37*
%TD.AperFunction*%
%TD*%
%TO.P,C2,2*%
%TO.N,/VSNS_F*%
%TA.AperFunction,SMDPad,CuDef*%
G36*
G01*
X160341000Y-77273999D02*
X160341000Y-78174001D01*
G75*
G02*
X160091001Y-78424000I-249999J0D01*
G01*
X159440999Y-78424000D01*
G75*
G02*
X159191000Y-78174001I0J249999D01*
G01*
X159191000Y-77273999D01*
G75*
G02*
X159440999Y-77024000I249999J0D01*
G01*
X160091001Y-77024000D01*
G75*
G02*
X160341000Y-77273999I0J-249999D01*
G01*
G37*
%TD.AperFunction*%
%TO.P,C2,1*%
%TO.N,/VSNSL-*%
%TA.AperFunction,SMDPad,CuDef*%
G36*
G01*
X162391000Y-77273999D02*
X162391000Y-78174001D01*
G75*
G02*
X162141001Y-78424000I-249999J0D01*
G01*
X161490999Y-78424000D01*
G75*
G02*
X161241000Y-78174001I0J249999D01*
G01*
X161241000Y-77273999D01*
G75*
G02*
X161490999Y-77024000I249999J0D01*
G01*
X162141001Y-77024000D01*
G75*
G02*
X162391000Y-77273999I0J-249999D01*
G01*
G37*
%TD.AperFunction*%
%TD*%
%TO.P,TP1,1*%
%TO.N,/VSNSL*%
X156464000Y-82550000D03*
%TD*%
D20*
%TO.P,J3,6*%
%TO.N,Net-(J3-Pad6)*%
X185562500Y-118976000D03*
%TO.P,J3,5*%
%TO.N,/ALT*%
X183062500Y-118976000D03*
%TO.P,J3,4*%
%TO.N,/SCL*%
X180562500Y-118976000D03*
%TO.P,J3,3*%
%TO.N,/SDA*%
X178062500Y-118976000D03*
%TO.P,J3,2*%
%TO.N,GND*%
X175562500Y-118976000D03*
%TO.P,J3,1*%
%TO.N,VDD*%
X173062500Y-118976000D03*
D21*
%TO.P,J3,MP*%
%TO.N,N/C*%
X188762500Y-125462600D03*
X169862500Y-125476000D03*
%TD*%
%TO.P,R4,2*%
%TO.N,/VDRIVE*%
%TA.AperFunction,SMDPad,CuDef*%
G36*
G01*
X141683000Y-79952001D02*
X141683000Y-79051999D01*
G75*
G02*
X141932999Y-78802000I249999J0D01*
G01*
X142583001Y-78802000D01*
G75*
G02*
X142833000Y-79051999I0J-249999D01*
G01*
X142833000Y-79952001D01*
G75*
G02*
X142583001Y-80202000I-249999J0D01*
G01*
X141932999Y-80202000D01*
G75*
G02*
X141683000Y-79952001I0J249999D01*
G01*
G37*
%TD.AperFunction*%
%TO.P,R4,1*%
%TO.N,/VDR_F*%
%TA.AperFunction,SMDPad,CuDef*%
G36*
G01*
X139633000Y-79952001D02*
X139633000Y-79051999D01*
G75*
G02*
X139882999Y-78802000I249999J0D01*
G01*
X140533001Y-78802000D01*
G75*
G02*
X140783000Y-79051999I0J-249999D01*
G01*
X140783000Y-79952001D01*
G75*
G02*
X140533001Y-80202000I-249999J0D01*
G01*
X139882999Y-80202000D01*
G75*
G02*
X139633000Y-79952001I0J249999D01*
G01*
G37*
%TD.AperFunction*%
%TD*%
D22*
%TO.P,Q1,3*%
%TO.N,GND*%
X148590000Y-108966000D03*
%TO.P,Q1,2*%
%TO.N,/VSNSL*%
X148590000Y-106426000D03*
D23*
%TO.P,Q1,1*%
%TO.N,/VDR_F*%
X148590000Y-103886000D03*
%TD*%
D19*
%TO.P,TP3,1*%
%TO.N,/TSET*%
X144399000Y-67627500D03*
%TD*%
D24*
%TO.P,H4,1*%
%TO.N,N/C*%
X225527000Y-114270000D03*
%TD*%
%TO.P,H3,1*%
%TO.N,N/C*%
X139065000Y-60960000D03*
%TD*%
%TO.P,H2,1*%
%TO.N,N/C*%
X225527000Y-64270000D03*
%TD*%
%TO.P,H1,1*%
%TO.N,N/C*%
X135890000Y-124460000D03*
%TD*%
%TO.P,U1,24*%
%TO.N,/MISO*%
%TA.AperFunction,SMDPad,CuDef*%
G36*
G01*
X208620500Y-100275500D02*
X208320500Y-100275500D01*
G75*
G02*
X208170500Y-100125500I0J150000D01*
G01*
X208170500Y-98375500D01*
G75*
G02*
X208320500Y-98225500I150000J0D01*
G01*
X208620500Y-98225500D01*
G75*
G02*
X208770500Y-98375500I0J-150000D01*
G01*
X208770500Y-100125500D01*
G75*
G02*
X208620500Y-100275500I-150000J0D01*
G01*
G37*
%TD.AperFunction*%
%TO.P,U1,23*%
%TO.N,/SEGD*%
%TA.AperFunction,SMDPad,CuDef*%
G36*
G01*
X209890500Y-100275500D02*
X209590500Y-100275500D01*
G75*
G02*
X209440500Y-100125500I0J150000D01*
G01*
X209440500Y-98375500D01*
G75*
G02*
X209590500Y-98225500I150000J0D01*
G01*
X209890500Y-98225500D01*
G75*
G02*
X210040500Y-98375500I0J-150000D01*
G01*
X210040500Y-100125500D01*
G75*
G02*
X209890500Y-100275500I-150000J0D01*
G01*
G37*
%TD.AperFunction*%
%TO.P,U1,22*%
%TO.N,/SEGDP*%
%TA.AperFunction,SMDPad,CuDef*%
G36*
G01*
X211160500Y-100275500D02*
X210860500Y-100275500D01*
G75*
G02*
X210710500Y-100125500I0J150000D01*
G01*
X210710500Y-98375500D01*
G75*
G02*
X210860500Y-98225500I150000J0D01*
G01*
X211160500Y-98225500D01*
G75*
G02*
X211310500Y-98375500I0J-150000D01*
G01*
X211310500Y-100125500D01*
G75*
G02*
X211160500Y-100275500I-150000J0D01*
G01*
G37*
%TD.AperFunction*%
%TO.P,U1,21*%
%TO.N,/SEGE*%
%TA.AperFunction,SMDPad,CuDef*%
G36*
G01*
X212430500Y-100275500D02*
X212130500Y-100275500D01*
G75*
G02*
X211980500Y-100125500I0J150000D01*
G01*
X211980500Y-98375500D01*
G75*
G02*
X212130500Y-98225500I150000J0D01*
G01*
X212430500Y-98225500D01*
G75*
G02*
X212580500Y-98375500I0J-150000D01*
G01*
X212580500Y-100125500D01*
G75*
G02*
X212430500Y-100275500I-150000J0D01*
G01*
G37*
%TD.AperFunction*%
%TO.P,U1,20*%
%TO.N,/SEGC*%
%TA.AperFunction,SMDPad,CuDef*%
G36*
G01*
X213700500Y-100275500D02*
X213400500Y-100275500D01*
G75*
G02*
X213250500Y-100125500I0J150000D01*
G01*
X213250500Y-98375500D01*
G75*
G02*
X213400500Y-98225500I150000J0D01*
G01*
X213700500Y-98225500D01*
G75*
G02*
X213850500Y-98375500I0J-150000D01*
G01*
X213850500Y-100125500D01*
G75*
G02*
X213700500Y-100275500I-150000J0D01*
G01*
G37*
%TD.AperFunction*%
%TO.P,U1,19*%
%TO.N,VDD*%
%TA.AperFunction,SMDPad,CuDef*%
G36*
G01*
X214970500Y-100275500D02*
X214670500Y-100275500D01*
G75*
G02*
X214520500Y-100125500I0J150000D01*
G01*
X214520500Y-98375500D01*
G75*
G02*
X214670500Y-98225500I150000J0D01*
G01*
X214970500Y-98225500D01*
G75*
G02*
X215120500Y-98375500I0J-150000D01*
G01*
X215120500Y-100125500D01*
G75*
G02*
X214970500Y-100275500I-150000J0D01*
G01*
G37*
%TD.AperFunction*%
%TO.P,U1,18*%
%TO.N,/ISET*%
%TA.AperFunction,SMDPad,CuDef*%
G36*
G01*
X216240500Y-100275500D02*
X215940500Y-100275500D01*
G75*
G02*
X215790500Y-100125500I0J150000D01*
G01*
X215790500Y-98375500D01*
G75*
G02*
X215940500Y-98225500I150000J0D01*
G01*
X216240500Y-98225500D01*
G75*
G02*
X216390500Y-98375500I0J-150000D01*
G01*
X216390500Y-100125500D01*
G75*
G02*
X216240500Y-100275500I-150000J0D01*
G01*
G37*
%TD.AperFunction*%
%TO.P,U1,17*%
%TO.N,/SEGG*%
%TA.AperFunction,SMDPad,CuDef*%
G36*
G01*
X217510500Y-100275500D02*
X217210500Y-100275500D01*
G75*
G02*
X217060500Y-100125500I0J150000D01*
G01*
X217060500Y-98375500D01*
G75*
G02*
X217210500Y-98225500I150000J0D01*
G01*
X217510500Y-98225500D01*
G75*
G02*
X217660500Y-98375500I0J-150000D01*
G01*
X217660500Y-100125500D01*
G75*
G02*
X217510500Y-100275500I-150000J0D01*
G01*
G37*
%TD.AperFunction*%
%TO.P,U1,16*%
%TO.N,/SEGB*%
%TA.AperFunction,SMDPad,CuDef*%
G36*
G01*
X218780500Y-100275500D02*
X218480500Y-100275500D01*
G75*
G02*
X218330500Y-100125500I0J150000D01*
G01*
X218330500Y-98375500D01*
G75*
G02*
X218480500Y-98225500I150000J0D01*
G01*
X218780500Y-98225500D01*
G75*
G02*
X218930500Y-98375500I0J-150000D01*
G01*
X218930500Y-100125500D01*
G75*
G02*
X218780500Y-100275500I-150000J0D01*
G01*
G37*
%TD.AperFunction*%
%TO.P,U1,15*%
%TO.N,/SEGF*%
%TA.AperFunction,SMDPad,CuDef*%
G36*
G01*
X220050500Y-100275500D02*
X219750500Y-100275500D01*
G75*
G02*
X219600500Y-100125500I0J150000D01*
G01*
X219600500Y-98375500D01*
G75*
G02*
X219750500Y-98225500I150000J0D01*
G01*
X220050500Y-98225500D01*
G75*
G02*
X220200500Y-98375500I0J-150000D01*
G01*
X220200500Y-100125500D01*
G75*
G02*
X220050500Y-100275500I-150000J0D01*
G01*
G37*
%TD.AperFunction*%
%TO.P,U1,14*%
%TO.N,/SEGA*%
%TA.AperFunction,SMDPad,CuDef*%
G36*
G01*
X221320500Y-100275500D02*
X221020500Y-100275500D01*
G75*
G02*
X220870500Y-100125500I0J150000D01*
G01*
X220870500Y-98375500D01*
G75*
G02*
X221020500Y-98225500I150000J0D01*
G01*
X221320500Y-98225500D01*
G75*
G02*
X221470500Y-98375500I0J-150000D01*
G01*
X221470500Y-100125500D01*
G75*
G02*
X221320500Y-100275500I-150000J0D01*
G01*
G37*
%TD.AperFunction*%
%TO.P,U1,13*%
%TO.N,/SCK*%
%TA.AperFunction,SMDPad,CuDef*%
G36*
G01*
X222590500Y-100275500D02*
X222290500Y-100275500D01*
G75*
G02*
X222140500Y-100125500I0J150000D01*
G01*
X222140500Y-98375500D01*
G75*
G02*
X222290500Y-98225500I150000J0D01*
G01*
X222590500Y-98225500D01*
G75*
G02*
X222740500Y-98375500I0J-150000D01*
G01*
X222740500Y-100125500D01*
G75*
G02*
X222590500Y-100275500I-150000J0D01*
G01*
G37*
%TD.AperFunction*%
%TO.P,U1,12*%
%TO.N,/SS*%
%TA.AperFunction,SMDPad,CuDef*%
G36*
G01*
X222590500Y-109575500D02*
X222290500Y-109575500D01*
G75*
G02*
X222140500Y-109425500I0J150000D01*
G01*
X222140500Y-107675500D01*
G75*
G02*
X222290500Y-107525500I150000J0D01*
G01*
X222590500Y-107525500D01*
G75*
G02*
X222740500Y-107675500I0J-150000D01*
G01*
X222740500Y-109425500D01*
G75*
G02*
X222590500Y-109575500I-150000J0D01*
G01*
G37*
%TD.AperFunction*%
%TO.P,U1,11*%
%TO.N,/DIG1*%
%TA.AperFunction,SMDPad,CuDef*%
G36*
G01*
X221320500Y-109575500D02*
X221020500Y-109575500D01*
G75*
G02*
X220870500Y-109425500I0J150000D01*
G01*
X220870500Y-107675500D01*
G75*
G02*
X221020500Y-107525500I150000J0D01*
G01*
X221320500Y-107525500D01*
G75*
G02*
X221470500Y-107675500I0J-150000D01*
G01*
X221470500Y-109425500D01*
G75*
G02*
X221320500Y-109575500I-150000J0D01*
G01*
G37*
%TD.AperFunction*%
%TO.P,U1,10*%
%TO.N,/DIG5*%
%TA.AperFunction,SMDPad,CuDef*%
G36*
G01*
X220050500Y-109575500D02*
X219750500Y-109575500D01*
G75*
G02*
X219600500Y-109425500I0J150000D01*
G01*
X219600500Y-107675500D01*
G75*
G02*
X219750500Y-107525500I150000J0D01*
G01*
X220050500Y-107525500D01*
G75*
G02*
X220200500Y-107675500I0J-150000D01*
G01*
X220200500Y-109425500D01*
G75*
G02*
X220050500Y-109575500I-150000J0D01*
G01*
G37*
%TD.AperFunction*%
%TO.P,U1,9*%
%TO.N,GND*%
%TA.AperFunction,SMDPad,CuDef*%
G36*
G01*
X218780500Y-109575500D02*
X218480500Y-109575500D01*
G75*
G02*
X218330500Y-109425500I0J150000D01*
G01*
X218330500Y-107675500D01*
G75*
G02*
X218480500Y-107525500I150000J0D01*
G01*
X218780500Y-107525500D01*
G75*
G02*
X218930500Y-107675500I0J-150000D01*
G01*
X218930500Y-109425500D01*
G75*
G02*
X218780500Y-109575500I-150000J0D01*
G01*
G37*
%TD.AperFunction*%
%TO.P,U1,8*%
%TO.N,/DIG7_D*%
%TA.AperFunction,SMDPad,CuDef*%
G36*
G01*
X217510500Y-109575500D02*
X217210500Y-109575500D01*
G75*
G02*
X217060500Y-109425500I0J150000D01*
G01*
X217060500Y-107675500D01*
G75*
G02*
X217210500Y-107525500I150000J0D01*
G01*
X217510500Y-107525500D01*
G75*
G02*
X217660500Y-107675500I0J-150000D01*
G01*
X217660500Y-109425500D01*
G75*
G02*
X217510500Y-109575500I-150000J0D01*
G01*
G37*
%TD.AperFunction*%
%TO.P,U1,7*%
%TO.N,/DIG3*%
%TA.AperFunction,SMDPad,CuDef*%
G36*
G01*
X216240500Y-109575500D02*
X215940500Y-109575500D01*
G75*
G02*
X215790500Y-109425500I0J150000D01*
G01*
X215790500Y-107675500D01*
G75*
G02*
X215940500Y-107525500I150000J0D01*
G01*
X216240500Y-107525500D01*
G75*
G02*
X216390500Y-107675500I0J-150000D01*
G01*
X216390500Y-109425500D01*
G75*
G02*
X216240500Y-109575500I-150000J0D01*
G01*
G37*
%TD.AperFunction*%
%TO.P,U1,6*%
%TO.N,/DIG2*%
%TA.AperFunction,SMDPad,CuDef*%
G36*
G01*
X214970500Y-109575500D02*
X214670500Y-109575500D01*
G75*
G02*
X214520500Y-109425500I0J150000D01*
G01*
X214520500Y-107675500D01*
G75*
G02*
X214670500Y-107525500I150000J0D01*
G01*
X214970500Y-107525500D01*
G75*
G02*
X215120500Y-107675500I0J-150000D01*
G01*
X215120500Y-109425500D01*
G75*
G02*
X214970500Y-109575500I-150000J0D01*
G01*
G37*
%TD.AperFunction*%
%TO.P,U1,5*%
%TO.N,/DIG6_D*%
%TA.AperFunction,SMDPad,CuDef*%
G36*
G01*
X213700500Y-109575500D02*
X213400500Y-109575500D01*
G75*
G02*
X213250500Y-109425500I0J150000D01*
G01*
X213250500Y-107675500D01*
G75*
G02*
X213400500Y-107525500I150000J0D01*
G01*
X213700500Y-107525500D01*
G75*
G02*
X213850500Y-107675500I0J-150000D01*
G01*
X213850500Y-109425500D01*
G75*
G02*
X213700500Y-109575500I-150000J0D01*
G01*
G37*
%TD.AperFunction*%
%TO.P,U1,4*%
%TO.N,GND*%
%TA.AperFunction,SMDPad,CuDef*%
G36*
G01*
X212430500Y-109575500D02*
X212130500Y-109575500D01*
G75*
G02*
X211980500Y-109425500I0J150000D01*
G01*
X211980500Y-107675500D01*
G75*
G02*
X212130500Y-107525500I150000J0D01*
G01*
X212430500Y-107525500D01*
G75*
G02*
X212580500Y-107675500I0J-150000D01*
G01*
X212580500Y-109425500D01*
G75*
G02*
X212430500Y-109575500I-150000J0D01*
G01*
G37*
%TD.AperFunction*%
%TO.P,U1,3*%
%TO.N,/DIG4*%
%TA.AperFunction,SMDPad,CuDef*%
G36*
G01*
X211160500Y-109575500D02*
X210860500Y-109575500D01*
G75*
G02*
X210710500Y-109425500I0J150000D01*
G01*
X210710500Y-107675500D01*
G75*
G02*
X210860500Y-107525500I150000J0D01*
G01*
X211160500Y-107525500D01*
G75*
G02*
X211310500Y-107675500I0J-150000D01*
G01*
X211310500Y-109425500D01*
G75*
G02*
X211160500Y-109575500I-150000J0D01*
G01*
G37*
%TD.AperFunction*%
%TO.P,U1,2*%
%TO.N,/DIG0*%
%TA.AperFunction,SMDPad,CuDef*%
G36*
G01*
X209890500Y-109575500D02*
X209590500Y-109575500D01*
G75*
G02*
X209440500Y-109425500I0J150000D01*
G01*
X209440500Y-107675500D01*
G75*
G02*
X209590500Y-107525500I150000J0D01*
G01*
X209890500Y-107525500D01*
G75*
G02*
X210040500Y-107675500I0J-150000D01*
G01*
X210040500Y-109425500D01*
G75*
G02*
X209890500Y-109575500I-150000J0D01*
G01*
G37*
%TD.AperFunction*%
%TO.P,U1,1*%
%TO.N,/MOSI*%
%TA.AperFunction,SMDPad,CuDef*%
G36*
G01*
X208620500Y-109575500D02*
X208320500Y-109575500D01*
G75*
G02*
X208170500Y-109425500I0J150000D01*
G01*
X208170500Y-107675500D01*
G75*
G02*
X208320500Y-107525500I150000J0D01*
G01*
X208620500Y-107525500D01*
G75*
G02*
X208770500Y-107675500I0J-150000D01*
G01*
X208770500Y-109425500D01*
G75*
G02*
X208620500Y-109575500I-150000J0D01*
G01*
G37*
%TD.AperFunction*%
%TD*%
D25*
%TO.P,RV1,*%
%TO.N,*%
X123825000Y-70290000D03*
X123825000Y-59690000D03*
D26*
%TO.P,RV1,3*%
%TO.N,GND*%
X133825000Y-61490000D03*
%TO.P,RV1,2*%
%TO.N,/TSET*%
X133825000Y-65240000D03*
D27*
%TO.P,RV1,1*%
%TO.N,VDD*%
X133825000Y-68990000D03*
%TD*%
%TO.P,R1,2*%
%TO.N,/ISET*%
%TA.AperFunction,SMDPad,CuDef*%
G36*
G01*
X225684501Y-103000500D02*
X224784499Y-103000500D01*
G75*
G02*
X224534500Y-102750501I0J249999D01*
G01*
X224534500Y-102100499D01*
G75*
G02*
X224784499Y-101850500I249999J0D01*
G01*
X225684501Y-101850500D01*
G75*
G02*
X225934500Y-102100499I0J-249999D01*
G01*
X225934500Y-102750501D01*
G75*
G02*
X225684501Y-103000500I-249999J0D01*
G01*
G37*
%TD.AperFunction*%
%TO.P,R1,1*%
%TO.N,VDD*%
%TA.AperFunction,SMDPad,CuDef*%
G36*
G01*
X225684501Y-105050500D02*
X224784499Y-105050500D01*
G75*
G02*
X224534500Y-104800501I0J249999D01*
G01*
X224534500Y-104150499D01*
G75*
G02*
X224784499Y-103900500I249999J0D01*
G01*
X225684501Y-103900500D01*
G75*
G02*
X225934500Y-104150499I0J-249999D01*
G01*
X225934500Y-104800501D01*
G75*
G02*
X225684501Y-105050500I-249999J0D01*
G01*
G37*
%TD.AperFunction*%
%TD*%
D28*
%TO.P,LED2,15*%
%TO.N,/SEGF*%
X204724000Y-83566000D03*
%TO.P,LED2,14*%
%TO.N,/DIG7_D*%
X207264000Y-83566000D03*
%TO.P,LED2,12*%
%TO.N,/SEGA*%
X212344000Y-83566000D03*
%TO.P,LED2,11*%
%TO.N,/SEGB*%
X214884000Y-83566000D03*
%TO.P,LED2,8*%
%TO.N,/SEGG*%
X222504000Y-83566000D03*
%TO.P,LED2,7*%
%TO.N,/DIG5*%
X222504000Y-93726000D03*
%TO.P,LED2,6*%
%TO.N,/SEGDP*%
X219964000Y-93726000D03*
%TO.P,LED2,5*%
%TO.N,/DIG4*%
X217424000Y-93726000D03*
%TO.P,LED2,4*%
%TO.N,/SEGD*%
X214884000Y-93726000D03*
%TO.P,LED2,3*%
%TO.N,/SEGC*%
X212344000Y-93726000D03*
%TO.P,LED2,2*%
%TO.N,/SEGE*%
X209804000Y-93726000D03*
%TO.P,LED2,1*%
%TO.N,/DIG3*%
X207264000Y-93726000D03*
%TD*%
%TO.P,LED1,15*%
%TO.N,/SEGF*%
X204724000Y-68643500D03*
%TO.P,LED1,14*%
%TO.N,/DIG6_D*%
X207264000Y-68643500D03*
%TO.P,LED1,12*%
%TO.N,/SEGA*%
X212344000Y-68643500D03*
%TO.P,LED1,11*%
%TO.N,/SEGB*%
X214884000Y-68643500D03*
%TO.P,LED1,8*%
%TO.N,/SEGG*%
X222504000Y-68643500D03*
%TO.P,LED1,7*%
%TO.N,/DIG2*%
X222504000Y-78803500D03*
%TO.P,LED1,6*%
%TO.N,/SEGDP*%
X219964000Y-78803500D03*
%TO.P,LED1,5*%
%TO.N,/DIG1*%
X217424000Y-78803500D03*
%TO.P,LED1,4*%
%TO.N,/SEGD*%
X214884000Y-78803500D03*
%TO.P,LED1,3*%
%TO.N,/SEGC*%
X212344000Y-78803500D03*
%TO.P,LED1,2*%
%TO.N,/SEGE*%
X209804000Y-78803500D03*
%TO.P,LED1,1*%
%TO.N,/DIG0*%
X207264000Y-78803500D03*
%TD*%
D14*
%TO.P,J4,8*%
%TO.N,/A7*%
X192786000Y-78549500D03*
%TO.P,J4,7*%
%TO.N,/A6*%
X192786000Y-81089500D03*
%TO.P,J4,6*%
%TO.N,/A3*%
X192786000Y-83629500D03*
%TO.P,J4,5*%
%TO.N,/D4*%
X192786000Y-86169500D03*
%TO.P,J4,4*%
%TO.N,/D3*%
X192786000Y-88709500D03*
%TO.P,J4,3*%
%TO.N,/D2*%
X192786000Y-91249500D03*
%TO.P,J4,2*%
%TO.N,/D1*%
X192786000Y-93789500D03*
D15*
%TO.P,J4,1*%
%TO.N,/D0*%
X192786000Y-96329500D03*
%TD*%
D29*
%TO.P,J2,2*%
%TO.N,/TECL*%
X129460000Y-122174000D03*
D30*
%TO.P,J2,1*%
%TO.N,/TECH*%
X124460000Y-122174000D03*
%TD*%
%TO.P,J1,3*%
%TO.N,N/C*%
%TA.AperFunction,ComponentPad*%
G36*
G01*
X125352000Y-84161000D02*
X125352000Y-82411000D01*
G75*
G02*
X126227000Y-81536000I875000J0D01*
G01*
X127977000Y-81536000D01*
G75*
G02*
X128852000Y-82411000I0J-875000D01*
G01*
X128852000Y-84161000D01*
G75*
G02*
X127977000Y-85036000I-875000J0D01*
G01*
X126227000Y-85036000D01*
G75*
G02*
X125352000Y-84161000I0J875000D01*
G01*
G37*
%TD.AperFunction*%
%TO.P,J1,2*%
%TO.N,GND*%
%TA.AperFunction,ComponentPad*%
G36*
G01*
X122452000Y-79486000D02*
X122452000Y-77486000D01*
G75*
G02*
X123202000Y-76736000I750000J0D01*
G01*
X124702000Y-76736000D01*
G75*
G02*
X125452000Y-77486000I0J-750000D01*
G01*
X125452000Y-79486000D01*
G75*
G02*
X124702000Y-80236000I-750000J0D01*
G01*
X123202000Y-80236000D01*
G75*
G02*
X122452000Y-79486000I0J750000D01*
G01*
G37*
%TD.AperFunction*%
D31*
%TO.P,J1,1*%
%TO.N,VDD*%
X130202000Y-78486000D03*
%TD*%
D19*
%TO.P,C1,2*%
%TO.N,GND*%
X189945000Y-70231000D03*
D27*
%TO.P,C1,1*%
%TO.N,VDD*%
X194945000Y-70231000D03*
%TD*%
D32*
%TO.N,/MISO*%
X206438500Y-99504500D03*
X200555016Y-108544081D03*
%TO.N,/MOSI*%
X207264000Y-108077000D03*
X200881263Y-109506737D03*
%TO.N,GND*%
X218249500Y-110172500D03*
X212217000Y-106807000D03*
X158750000Y-72390000D03*
X143510000Y-81534000D03*
X150114000Y-80010000D03*
X137668000Y-90678000D03*
X175514000Y-115570000D03*
X146939000Y-74422000D03*
%TO.N,VDD*%
X214630000Y-100838000D03*
X191412999Y-102274501D03*
X198070039Y-97077961D03*
X223964500Y-104521000D03*
X146050000Y-70485000D03*
X147955000Y-71755000D03*
X151765000Y-74295000D03*
X155020153Y-76280153D03*
X166370000Y-83185000D03*
X165735000Y-80645000D03*
X160655000Y-75565000D03*
%TO.N,/A7*%
X189357000Y-78740000D03*
X180848000Y-86868000D03*
%TO.N,/A6*%
X186436000Y-84201000D03*
X189865000Y-84455000D03*
%TO.N,/SCL*%
X179832000Y-104140000D03*
%TO.N,/SDA*%
X174498000Y-99568000D03*
X174498000Y-96266000D03*
X174498000Y-89027000D03*
%TO.N,/A3*%
X186182000Y-81978500D03*
%TO.N,/VDRIVE*%
X160528000Y-67564000D03*
X164084000Y-65786000D03*
X186437558Y-80518070D03*
%TO.N,/SEGF*%
X203263500Y-85153500D03*
X223012000Y-85153500D03*
X224282000Y-95948500D03*
X220853000Y-96075500D03*
%TO.N,/SEGA*%
X212579001Y-87185500D03*
X222313500Y-88265000D03*
%TO.N,/SEGB*%
X218630500Y-97599500D03*
X217424000Y-96520000D03*
%TO.N,/DIG2*%
X220689000Y-91186000D03*
X202946000Y-90995500D03*
%TO.N,/SEGDP*%
X211555500Y-96556403D03*
X217741500Y-95377000D03*
%TO.N,/DIG1*%
X217170000Y-88138000D03*
X200977500Y-88201500D03*
%TO.N,/SEGD*%
X210629500Y-95821500D03*
%TO.N,/DIG7_D*%
X202628500Y-89471500D03*
X207454500Y-89471500D03*
%TO.N,/DIG5*%
X201495999Y-93091000D03*
%TO.N,/DIG4*%
X216852500Y-91821000D03*
X204697500Y-92138500D03*
%TO.N,/DIG3*%
X203347470Y-95227960D03*
%TO.N,/ISET*%
X216154000Y-100774500D03*
X223964500Y-102298500D03*
%TO.N,/ALT*%
X182372000Y-103759000D03*
X182372000Y-100838000D03*
X182528402Y-87405402D03*
%TO.N,/RELAY*%
X139446000Y-87630000D03*
X160528000Y-87630000D03*
X182626000Y-78994000D03*
%TO.N,/VSNSL-*%
X163068000Y-79756000D03*
X158496000Y-79502000D03*
%TO.N,/VDR_F*%
X141986000Y-98298000D03*
%TO.N,/2.5V_BUF*%
X150114000Y-77470000D03*
X144907000Y-79756000D03*
%TD*%
D33*
%TO.N,/SCK*%
X201797491Y-108713554D02*
X200589437Y-107505500D01*
X188619999Y-67130497D02*
X185579001Y-64089499D01*
X170924001Y-64089499D02*
X169799000Y-65214500D01*
X201797491Y-110811861D02*
X201797491Y-108713554D01*
X221795510Y-109622258D02*
X217581694Y-113836074D01*
X217581694Y-113836074D02*
X204821704Y-113836074D01*
X200589437Y-107505500D02*
X199763950Y-107505500D01*
X204821704Y-113836074D02*
X201797491Y-110811861D01*
X188619999Y-96361549D02*
X188619999Y-67130497D01*
X199763950Y-107505500D02*
X188619999Y-96361549D01*
X221795510Y-99895490D02*
X221795510Y-109622258D01*
X185579001Y-64089499D02*
X170924001Y-64089499D01*
X222440500Y-99250500D02*
X221795510Y-99895490D01*
%TO.N,/MISO*%
X208470500Y-99250500D02*
X208470500Y-100275500D01*
X206692500Y-99250500D02*
X206438500Y-99504500D01*
X208470500Y-99250500D02*
X206692500Y-99250500D01*
X185039000Y-65214500D02*
X186067592Y-65214500D01*
X186067592Y-65214500D02*
X188169989Y-67316897D01*
X188169989Y-67316897D02*
X188169989Y-72136000D01*
X188169989Y-72136000D02*
X188169989Y-72546099D01*
X188169989Y-72546099D02*
X188169989Y-94468511D01*
X188169989Y-94468511D02*
X188169989Y-94615000D01*
X200166121Y-108544081D02*
X200555016Y-108544081D01*
X188169989Y-96547949D02*
X200166121Y-108544081D01*
X188169989Y-94468511D02*
X188169989Y-96547949D01*
%TO.N,/MOSI*%
X207997000Y-108077000D02*
X208470500Y-108550500D01*
X207264000Y-108077000D02*
X207997000Y-108077000D01*
X187719979Y-70435479D02*
X187719979Y-72322400D01*
X185039000Y-67754500D02*
X187719979Y-70435479D01*
X187719979Y-72322400D02*
X187719979Y-71818500D01*
X187719979Y-72322400D02*
X187719979Y-72359699D01*
X187719979Y-72359699D02*
X187719979Y-94742000D01*
X187719979Y-94742000D02*
X187719979Y-96734349D01*
X187719979Y-96734349D02*
X200686815Y-109701185D01*
%TO.N,GND*%
X218630500Y-109791500D02*
X218249500Y-110172500D01*
X218630500Y-108550500D02*
X218630500Y-109791500D01*
X212280500Y-106870500D02*
X212217000Y-106807000D01*
X212280500Y-108550500D02*
X212280500Y-106870500D01*
X158741000Y-72381000D02*
X158750000Y-72390000D01*
X157480000Y-72381000D02*
X158741000Y-72381000D01*
X142258000Y-81534000D02*
X143510000Y-81534000D01*
X151830000Y-80010000D02*
X150114000Y-80010000D01*
X137548000Y-90798000D02*
X137668000Y-90678000D01*
X136540000Y-90798000D02*
X137548000Y-90798000D01*
X175562500Y-115618500D02*
X175514000Y-115570000D01*
X175562500Y-118976000D02*
X175562500Y-115618500D01*
X146159000Y-75202000D02*
X146939000Y-74422000D01*
X146159000Y-75692000D02*
X146159000Y-75202000D01*
%TO.N,/SS*%
X222245520Y-108716480D02*
X222245519Y-109808659D01*
X222440500Y-108550500D02*
X222411500Y-108550500D01*
X222411500Y-108550500D02*
X222245520Y-108716480D01*
X222440500Y-109613678D02*
X217768094Y-114286084D01*
X222440500Y-108550500D02*
X222440500Y-109613678D01*
X217768094Y-114286084D02*
X204635303Y-114286083D01*
X204635303Y-114286083D02*
X201601220Y-111252000D01*
X185039000Y-70294500D02*
X186942590Y-70294500D01*
X186942590Y-70294500D02*
X187269969Y-70621879D01*
X187269969Y-70621879D02*
X187269969Y-72136000D01*
X187269969Y-72136000D02*
X187269969Y-72173299D01*
X187269969Y-72173299D02*
X187269969Y-94297500D01*
X187269969Y-96920749D02*
X201676000Y-111326780D01*
X187269969Y-94297500D02*
X187269969Y-96920749D01*
%TO.N,VDD*%
X214630000Y-99441000D02*
X214820500Y-99250500D01*
X214630000Y-100838000D02*
X214630000Y-99441000D01*
D34*
X173062500Y-96418000D02*
X173062500Y-108943000D01*
X169799000Y-93154500D02*
X173062500Y-96418000D01*
X173062500Y-96418000D02*
X178919001Y-102274501D01*
X178919001Y-102274501D02*
X191412999Y-102274501D01*
X194945000Y-93952922D02*
X198070039Y-97077961D01*
X194945000Y-70231000D02*
X194945000Y-93952922D01*
D33*
X225189000Y-104521000D02*
X225234500Y-104475500D01*
X223964500Y-104521000D02*
X225189000Y-104521000D01*
X156780000Y-75131000D02*
X157480000Y-74431000D01*
X156780000Y-76200000D02*
X156780000Y-75131000D01*
D35*
X130302010Y-81447948D02*
X130302010Y-85124052D01*
X130202000Y-81347938D02*
X130302010Y-81447948D01*
X130202000Y-78486000D02*
X130202000Y-81347938D01*
D34*
X126495400Y-87870000D02*
X122936000Y-87870000D01*
X129241348Y-85124052D02*
X126495400Y-87870000D01*
X130302010Y-85124052D02*
X129241348Y-85124052D01*
D35*
X126686000Y-87870000D02*
X127735999Y-86820001D01*
X122936000Y-87870000D02*
X126686000Y-87870000D01*
X122936000Y-87870000D02*
X122936000Y-102870000D01*
D33*
X130202000Y-72613000D02*
X130202000Y-78486000D01*
X133825000Y-68990000D02*
X130202000Y-72613000D01*
X173062500Y-118976000D02*
X173062500Y-108943000D01*
D34*
X147955000Y-71755000D02*
X149225000Y-71755000D01*
X149225000Y-71755000D02*
X151765000Y-74295000D01*
X155241740Y-76200000D02*
X155090870Y-76350870D01*
X156780000Y-76200000D02*
X155241740Y-76200000D01*
X169799000Y-93154500D02*
X166370000Y-89725500D01*
X166370000Y-89725500D02*
X166370000Y-83185000D01*
X156780000Y-76200000D02*
X160020000Y-76200000D01*
X160020000Y-76200000D02*
X160655000Y-75565000D01*
D33*
X145258990Y-75003820D02*
X145258990Y-76823990D01*
X148507810Y-71755000D02*
X145258990Y-75003820D01*
X145258990Y-76823990D02*
X146159000Y-77724000D01*
X149225000Y-71755000D02*
X148507810Y-71755000D01*
X136334500Y-78422500D02*
X136525000Y-78613000D01*
X136334500Y-78295500D02*
X136334500Y-78422500D01*
D34*
X136144000Y-78486000D02*
X136334500Y-78295500D01*
X136334500Y-78295500D02*
X144145000Y-70485000D01*
X130392500Y-78295500D02*
X130202000Y-78486000D01*
X136334500Y-78295500D02*
X130392500Y-78295500D01*
X144145000Y-70485000D02*
X146050000Y-70485000D01*
D33*
%TO.N,/A7*%
X193802000Y-77978000D02*
X193311999Y-78468001D01*
X192786000Y-78549500D02*
X189547500Y-78549500D01*
X189547500Y-78549500D02*
X189420500Y-78549500D01*
X189547500Y-78549500D02*
X189357000Y-78740000D01*
X168673999Y-87534499D02*
X168673999Y-89489499D01*
X168673999Y-89489499D02*
X169799000Y-90614500D01*
X169340498Y-86868000D02*
X168673999Y-87534499D01*
X180848000Y-86868000D02*
X169340498Y-86868000D01*
%TO.N,/A6*%
X193802000Y-80518000D02*
X193311999Y-81008001D01*
X180833998Y-88074500D02*
X184707498Y-84201000D01*
X169799000Y-88074500D02*
X180833998Y-88074500D01*
X184707498Y-84201000D02*
X186436000Y-84201000D01*
X192786000Y-81534000D02*
X192786000Y-81089500D01*
X189865000Y-84455000D02*
X192786000Y-81534000D01*
%TO.N,/SCL*%
X180308500Y-104616500D02*
X179832000Y-104140000D01*
X180562500Y-104616500D02*
X180308500Y-104616500D01*
X180562500Y-118976000D02*
X180562500Y-108680500D01*
X180562500Y-108680500D02*
X180562500Y-104616500D01*
X180562500Y-108943000D02*
X180562500Y-108680500D01*
%TO.N,/SDA*%
X178062500Y-103132500D02*
X174498000Y-99568000D01*
X174498000Y-96266000D02*
X174498000Y-89027000D01*
X178062500Y-108703500D02*
X178062500Y-118976000D01*
X178062500Y-108943000D02*
X178062500Y-108703500D01*
X178062500Y-108703500D02*
X178062500Y-103132500D01*
%TO.N,/A3*%
X193802000Y-83058000D02*
X193311999Y-83548001D01*
X171213999Y-81869499D02*
X186072999Y-81869499D01*
X169799000Y-80454500D02*
X171213999Y-81869499D01*
X186072999Y-81869499D02*
X186182000Y-81978500D01*
%TO.N,/TSET*%
X144399000Y-67627500D02*
X139506000Y-67627500D01*
X133825000Y-65240000D02*
X136995000Y-65240000D01*
X136995000Y-65240000D02*
X139444250Y-67689250D01*
X139506000Y-67627500D02*
X139444250Y-67689250D01*
X170924001Y-72294499D02*
X170924001Y-74249499D01*
X170339001Y-71709499D02*
X170924001Y-72294499D01*
X169258999Y-71709499D02*
X170339001Y-71709499D01*
X164177001Y-66627501D02*
X169258999Y-71709499D01*
X145398999Y-66627501D02*
X164177001Y-66627501D01*
X170924001Y-74249499D02*
X169799000Y-75374500D01*
X144399000Y-67627500D02*
X145398999Y-66627501D01*
%TO.N,/VDRIVE*%
X142258000Y-76944000D02*
X142494000Y-76708000D01*
X142258000Y-79502000D02*
X142258000Y-76944000D01*
X142494000Y-75293787D02*
X150223787Y-67564000D01*
X142494000Y-76708000D02*
X142494000Y-75293787D01*
X150223787Y-67564000D02*
X160528000Y-67564000D01*
X185579001Y-79329499D02*
X186436000Y-80186498D01*
X172039499Y-66629499D02*
X184739499Y-79329499D01*
X184739499Y-79329499D02*
X185579001Y-79329499D01*
X164927499Y-66629499D02*
X172039499Y-66629499D01*
X164084000Y-65786000D02*
X164927499Y-66629499D01*
X186436000Y-80516512D02*
X186437558Y-80518070D01*
X186436000Y-80186498D02*
X186436000Y-80516512D01*
X141478000Y-78722000D02*
X142258000Y-79502000D01*
X141478000Y-76708000D02*
X141478000Y-78722000D01*
%TO.N,/SEGF*%
X204724000Y-68643500D02*
X204724000Y-83566000D01*
X204724000Y-83693000D02*
X203263500Y-85153500D01*
X204724000Y-83566000D02*
X204724000Y-83693000D01*
X223012000Y-85153500D02*
X224282000Y-86423500D01*
X224282000Y-86423500D02*
X224282000Y-95948500D01*
X219900500Y-97028000D02*
X219900500Y-99250500D01*
X220853000Y-96075500D02*
X219900500Y-97028000D01*
%TO.N,/DIG6_D*%
X205853989Y-70053511D02*
X207264000Y-68643500D01*
X203972499Y-85738303D02*
X205853989Y-83856813D01*
X203972499Y-92486501D02*
X203972499Y-85738303D01*
X204522480Y-109718390D02*
X204522480Y-93036482D01*
X205853989Y-83856813D02*
X205853989Y-70053511D01*
X205940109Y-111136019D02*
X204522480Y-109718390D01*
X211989981Y-111136019D02*
X205940109Y-111136019D01*
X204522480Y-93036482D02*
X203972499Y-92486501D01*
X213550500Y-109575500D02*
X211989981Y-111136019D01*
X213550500Y-108550500D02*
X213550500Y-109575500D01*
%TO.N,/SEGA*%
X211383999Y-82605999D02*
X212344000Y-83566000D01*
X211383999Y-69603501D02*
X211383999Y-82605999D01*
X212344000Y-68643500D02*
X211383999Y-69603501D01*
X212344000Y-83566000D02*
X212344000Y-86931500D01*
X212579001Y-87166501D02*
X212579001Y-87185500D01*
X212344000Y-86931500D02*
X212579001Y-87166501D01*
X221170500Y-98823732D02*
X221170500Y-99250500D01*
X223464001Y-96530231D02*
X221170500Y-98823732D01*
X223464001Y-89415501D02*
X223464001Y-96530231D01*
X222313500Y-88265000D02*
X223464001Y-89415501D01*
%TO.N,/SEGB*%
X215844001Y-82605999D02*
X214884000Y-83566000D01*
X215844001Y-69603501D02*
X215844001Y-82605999D01*
X214884000Y-68643500D02*
X215844001Y-69603501D01*
X218630500Y-99250500D02*
X218630500Y-97599500D01*
X215844001Y-94940001D02*
X217424000Y-96520000D01*
X215844001Y-84526001D02*
X215844001Y-94940001D01*
X214884000Y-83566000D02*
X215844001Y-84526001D01*
%TO.N,/SEGG*%
X217487500Y-99441000D02*
X217487500Y-98416000D01*
X223464001Y-82605999D02*
X222504000Y-83566000D01*
X223464001Y-69603501D02*
X223464001Y-82605999D01*
X222504000Y-68643500D02*
X223464001Y-69603501D01*
X221543999Y-84526001D02*
X222504000Y-83566000D01*
X221543999Y-93566803D02*
X221543999Y-84526001D01*
X217360500Y-97750302D02*
X221543999Y-93566803D01*
X217360500Y-99250500D02*
X217360500Y-97750302D01*
%TO.N,/DIG2*%
X214820500Y-108977268D02*
X212211739Y-111586029D01*
X214820500Y-108550500D02*
X214820500Y-108977268D01*
X204072470Y-109904790D02*
X204072470Y-109652200D01*
X205753708Y-111586028D02*
X204072470Y-109904790D01*
X212211739Y-111586029D02*
X205753708Y-111586028D01*
X204072470Y-109652200D02*
X204072470Y-107442000D01*
X204072470Y-93222882D02*
X203522489Y-92672901D01*
X204072470Y-107442000D02*
X204072470Y-93222882D01*
X222504000Y-78803500D02*
X220599000Y-80708500D01*
X220599000Y-91096000D02*
X220689000Y-91186000D01*
X220599000Y-80708500D02*
X220599000Y-91096000D01*
X203322011Y-91371511D02*
X203522489Y-91371511D01*
X202946000Y-90995500D02*
X203322011Y-91371511D01*
X203522489Y-92672901D02*
X203522489Y-91371511D01*
%TO.N,/SEGDP*%
X219964000Y-78803500D02*
X219964000Y-93726000D01*
X211010500Y-97101403D02*
X211555500Y-96556403D01*
X211010500Y-99250500D02*
X211010500Y-97101403D01*
X218313000Y-95377000D02*
X219964000Y-93726000D01*
X217741500Y-95377000D02*
X218313000Y-95377000D01*
%TO.N,/DIG1*%
X205008104Y-113386064D02*
X202247500Y-110625460D01*
X217359936Y-113386064D02*
X205008104Y-113386064D01*
X221170500Y-109575500D02*
X217359936Y-113386064D01*
X221170500Y-108550500D02*
X221170500Y-109575500D01*
X202247500Y-110625460D02*
X202247500Y-107759500D01*
X202247500Y-96473812D02*
X200770998Y-94997310D01*
X200770998Y-94997310D02*
X200770998Y-88154002D01*
X202247500Y-107759500D02*
X202247500Y-96473812D01*
X217424000Y-87884000D02*
X217170000Y-88138000D01*
X217424000Y-78803500D02*
X217424000Y-87884000D01*
%TO.N,/SEGD*%
X213923999Y-79763501D02*
X213923999Y-93019999D01*
X214884000Y-78803500D02*
X213923999Y-79763501D01*
X214630000Y-93726000D02*
X214884000Y-93726000D01*
X213923999Y-93019999D02*
X214630000Y-93726000D01*
X209740500Y-99250500D02*
X209740500Y-96710500D01*
X209740500Y-96710500D02*
X210629500Y-95821500D01*
%TO.N,/SEGC*%
X213304001Y-92765999D02*
X212344000Y-93726000D01*
X213304001Y-79763501D02*
X213304001Y-92765999D01*
X212344000Y-78803500D02*
X213304001Y-79763501D01*
X213360000Y-94742000D02*
X213360000Y-94932500D01*
X212344000Y-93726000D02*
X213360000Y-94742000D01*
X213360000Y-99060000D02*
X213360000Y-94932500D01*
%TO.N,/SEGE*%
X209804000Y-78803500D02*
X209804000Y-93726000D01*
X212280500Y-96202500D02*
X209804000Y-93726000D01*
X212280500Y-99250500D02*
X212280500Y-96202500D01*
%TO.N,/DIG0*%
X209740500Y-109575500D02*
X209080000Y-110236000D01*
X209740500Y-108550500D02*
X209740500Y-109575500D01*
X209080000Y-110236000D02*
X206565500Y-110236000D01*
X206565500Y-110236000D02*
X205422500Y-109093000D01*
X205422500Y-107188000D02*
X205422500Y-92138500D01*
X205422500Y-109093000D02*
X205422500Y-107188000D01*
X205422500Y-107188000D02*
X205422500Y-107061000D01*
X206303999Y-91257001D02*
X205422500Y-92138500D01*
X206303999Y-79763501D02*
X206303999Y-91257001D01*
X207264000Y-78803500D02*
X206303999Y-79763501D01*
%TO.N,/DIG7_D*%
X214449954Y-112486046D02*
X205380906Y-112486046D01*
X205380906Y-112486046D02*
X203172450Y-110277590D01*
X217360500Y-109575500D02*
X214449954Y-112486046D01*
X217360500Y-108550500D02*
X217360500Y-109575500D01*
X203172450Y-110277590D02*
X203172450Y-107541450D01*
X202220999Y-95174491D02*
X202220999Y-89879001D01*
X203172450Y-96125942D02*
X202220999Y-95174491D01*
X203172450Y-107541450D02*
X203172450Y-96125942D01*
X202220999Y-89879001D02*
X202628500Y-89471500D01*
X207454500Y-83756500D02*
X207264000Y-83566000D01*
X207454500Y-89471500D02*
X207454500Y-83756500D01*
%TO.N,/DIG5*%
X201770989Y-93059511D02*
X201527488Y-93059511D01*
X201739500Y-93091000D02*
X201770989Y-93059511D01*
X202722440Y-96312342D02*
X201739500Y-95329402D01*
X205194505Y-112936055D02*
X202722440Y-110463990D01*
X202722440Y-110463990D02*
X202722440Y-96312342D01*
X216539945Y-112936055D02*
X205194505Y-112936055D01*
X201527488Y-93059511D02*
X201495999Y-93091000D01*
X219900500Y-108550500D02*
X219900500Y-109575500D01*
X219900500Y-109575500D02*
X216539945Y-112936055D01*
X201739500Y-95329402D02*
X201739500Y-93091000D01*
%TO.N,/DIG4*%
X217424000Y-93726000D02*
X217424000Y-92392500D01*
X217424000Y-92392500D02*
X216852500Y-91821000D01*
X209899990Y-110686010D02*
X206126510Y-110686010D01*
X206126510Y-110686010D02*
X204972490Y-109531990D01*
X211010500Y-109575500D02*
X209899990Y-110686010D01*
X211010500Y-108550500D02*
X211010500Y-109575500D01*
X204972490Y-109531990D02*
X204972490Y-109279400D01*
X204972490Y-107499990D02*
X204972490Y-92704490D01*
X204972490Y-109279400D02*
X204972490Y-107499990D01*
X204972490Y-107499990D02*
X204972490Y-107251500D01*
X204697500Y-92429500D02*
X204972490Y-92704490D01*
X204697500Y-92138500D02*
X204697500Y-92429500D01*
%TO.N,/DIG3*%
X205567307Y-112036037D02*
X203622460Y-110091190D01*
X213629963Y-112036037D02*
X205567307Y-112036037D01*
X216090500Y-109575500D02*
X213629963Y-112036037D01*
X216090500Y-108550500D02*
X216090500Y-109575500D01*
X203622460Y-107654540D02*
X203622460Y-95227960D01*
X203622460Y-110091190D02*
X203622460Y-107654540D01*
X203622460Y-107654540D02*
X203622460Y-107442000D01*
%TO.N,/ISET*%
X216090500Y-100711000D02*
X216154000Y-100774500D01*
X216090500Y-99250500D02*
X216090500Y-100711000D01*
X225107500Y-102298500D02*
X225234500Y-102425500D01*
X223964500Y-102298500D02*
X225107500Y-102298500D01*
%TO.N,/VSNSL*%
X148590000Y-106426000D02*
X154051000Y-106426000D01*
D35*
X156393618Y-108585000D02*
X156845000Y-108585000D01*
X154234618Y-106426000D02*
X156393618Y-108585000D01*
D33*
X149915001Y-106370999D02*
X149860000Y-106426000D01*
D35*
X149860000Y-106426000D02*
X154234618Y-106426000D01*
X148590000Y-106426000D02*
X149860000Y-106426000D01*
D33*
X149915001Y-102673499D02*
X149915001Y-102814999D01*
X149915001Y-102814999D02*
X149915001Y-106370999D01*
X158420009Y-84506009D02*
X156464000Y-82550000D01*
X158420009Y-107009991D02*
X158420009Y-84506009D01*
X156845000Y-108585000D02*
X158420009Y-107009991D01*
X159748000Y-83178018D02*
X158420009Y-84506009D01*
X159748000Y-81788000D02*
X159748000Y-83178018D01*
%TO.N,/ALT*%
X183062500Y-104449500D02*
X182372000Y-103759000D01*
X182372000Y-100838000D02*
X182372000Y-87503000D01*
X182469598Y-87405402D02*
X182528402Y-87405402D01*
X182372000Y-87503000D02*
X182469598Y-87405402D01*
X183062500Y-108640500D02*
X183062500Y-118976000D01*
X183062500Y-108943000D02*
X183062500Y-108640500D01*
X183062500Y-108640500D02*
X183062500Y-104449500D01*
D35*
%TO.N,/VSNSH*%
X125636001Y-107669999D02*
X130436000Y-102870000D01*
X125636001Y-110169999D02*
X125636001Y-107669999D01*
X122936000Y-112870000D02*
X125636001Y-110169999D01*
X153869999Y-100609999D02*
X156845000Y-103585000D01*
X132696001Y-100609999D02*
X153869999Y-100609999D01*
X130436000Y-102870000D02*
X132696001Y-100609999D01*
D33*
X156845000Y-86741000D02*
X152654000Y-82550000D01*
X156845000Y-103585000D02*
X156845000Y-86741000D01*
X152509000Y-82695000D02*
X152654000Y-82550000D01*
X146493010Y-84854010D02*
X150349990Y-84854010D01*
X146168000Y-84529000D02*
X146493010Y-84854010D01*
X150349990Y-84854010D02*
X152654000Y-82550000D01*
X146168000Y-83829000D02*
X146168000Y-84529000D01*
%TO.N,/VSNS_F*%
X159766000Y-77724000D02*
X159766000Y-79756000D01*
X157034000Y-77724000D02*
X156780000Y-77470000D01*
X159766000Y-77724000D02*
X157034000Y-77724000D01*
X163012999Y-74477001D02*
X159766000Y-77724000D01*
X164647001Y-70493714D02*
X164647001Y-73788001D01*
X163958001Y-74477001D02*
X163012999Y-74477001D01*
X163639500Y-69486213D02*
X164647001Y-70493714D01*
X163639500Y-68072000D02*
X163639500Y-69486213D01*
X165600502Y-72834500D02*
X164175501Y-74259501D01*
X169799000Y-72834500D02*
X165600502Y-72834500D01*
X164175501Y-74259501D02*
X163958001Y-74477001D01*
X164647001Y-73788001D02*
X164175501Y-74259501D01*
%TO.N,/RELAY*%
X135240000Y-90273000D02*
X137883000Y-87630000D01*
X135240000Y-90798000D02*
X135240000Y-90273000D01*
X137883000Y-87630000D02*
X139446000Y-87630000D01*
X168828501Y-79329499D02*
X160528000Y-87630000D01*
X182290501Y-79329499D02*
X168828501Y-79329499D01*
X182626000Y-78994000D02*
X182290501Y-79329499D01*
D35*
%TO.N,/TECL*%
X133136001Y-118497999D02*
X129460000Y-122174000D01*
X133136001Y-110570001D02*
X133136001Y-118497999D01*
X130436000Y-107870000D02*
X133136001Y-110570001D01*
D34*
%TO.N,Net-(Q2-Pad3)*%
X135622000Y-87870000D02*
X135890000Y-88138000D01*
X130436000Y-87870000D02*
X135622000Y-87870000D01*
D33*
%TO.N,/VSNSL-*%
X156780000Y-78740000D02*
X157161810Y-78740000D01*
X161816000Y-79756000D02*
X161816000Y-77724000D01*
X161798000Y-79774000D02*
X161816000Y-79756000D01*
X161798000Y-81788000D02*
X161798000Y-79774000D01*
X161816000Y-79756000D02*
X163068000Y-79756000D01*
X157734000Y-78740000D02*
X156780000Y-78740000D01*
X158496000Y-79502000D02*
X157734000Y-78740000D01*
%TO.N,/VDR_F*%
X140208000Y-95504000D02*
X140208000Y-81534000D01*
X140208000Y-81534000D02*
X140208000Y-79502000D01*
X140208000Y-96520000D02*
X141986000Y-98298000D01*
X140208000Y-95504000D02*
X140208000Y-96520000D01*
%TO.N,/2.5V_BUF*%
X151830000Y-77470000D02*
X151830000Y-76200000D01*
X146168000Y-79756000D02*
X146168000Y-81817000D01*
X151830000Y-77470000D02*
X150114000Y-77470000D01*
X146168000Y-79756000D02*
X144907000Y-79756000D01*
%TO.N,/VSNSH+*%
X156054999Y-80735001D02*
X156780000Y-80010000D01*
X148218000Y-83829000D02*
X148218000Y-81817000D01*
X148218000Y-81817000D02*
X148218000Y-79756000D01*
X149197001Y-80735001D02*
X150023999Y-80735001D01*
X150023999Y-80735001D02*
X156054999Y-80735001D01*
X148218000Y-79756000D02*
X149197001Y-80735001D01*
X149765999Y-80735001D02*
X150023999Y-80735001D01*
%TO.N,/2.5V*%
X148209000Y-77724000D02*
X148209000Y-75692000D01*
X149225000Y-78740000D02*
X151830000Y-78740000D01*
X148209000Y-77724000D02*
X149225000Y-78740000D01*
%TD*%
M02*
