M48
; DRILL file {KiCad (5.1.6-0-10_14)} date Saturday, January 23, 2021 at 04:50:40 PM
; FORMAT={-:-/ absolute / inch / decimal}
; #@! TF.CreationDate,2021-01-23T16:50:40-08:00
; #@! TF.GenerationSoftware,Kicad,Pcbnew,(5.1.6-0-10_14)
; #@! TF.FileFunction,Plated,1,2,PTH
FMAT,2
INCH
T1C0.0157
T2C0.0300
T3C0.0394
T4C0.0433
T5C0.0520
T6C0.0551
T7C0.0591
T8C0.0787
T9C0.0866
T10C0.1181
T11C0.1213
%
G90
G05
T1
X5.42Y-3.57
X5.49Y-3.45
X5.59Y-3.87
X5.65Y-3.21
X5.675Y-2.85
X5.71Y-3.14
X5.72Y-3.06
X5.725Y-2.95
X5.75Y-2.775
X5.825Y-2.825
X5.87Y-3.87
X5.91Y-3.1
X5.91Y-3.15
X5.9124Y-4.0471
X5.975Y-2.925
X6.1032Y-3.0032
X6.24Y-3.13
X6.25Y-2.85
X6.32Y-2.66
X6.32Y-3.45
X6.325Y-2.975
X6.42Y-3.14
X6.46Y-2.59
X6.525Y-3.175
X6.55Y-3.275
X6.87Y-3.505
X6.87Y-3.79
X6.87Y-3.92
X6.91Y-4.55
X7.08Y-4.1
X7.12Y-3.42
X7.18Y-3.97
X7.18Y-4.085
X7.1862Y-3.4412
X7.19Y-3.11
X7.33Y-3.2275
X7.34Y-3.315
X7.3401Y-3.17
X7.455Y-3.1
X7.475Y-3.325
X7.5359Y-4.0266
X7.798Y-3.822
X7.8959Y-4.2734
X7.9087Y-4.3113
X7.9125Y-3.4725
X7.9329Y-3.665
X7.9775Y-3.5225
X7.99Y-3.5825
X8.0025Y-3.3525
X8.0058Y-3.7491
X8.059Y-3.6275
X8.1275Y-3.9175
X8.16Y-4.255
X8.1675Y-3.5225
X8.2925Y-3.7725
X8.329Y-3.8014
X8.355Y-4.205
X8.3693Y-3.4325
X8.45Y-3.97
X8.51Y-3.9675
X8.5375Y-3.615
X8.55Y-3.47
X8.56Y-3.8
X8.5725Y-3.755
X8.5925Y-4.3375
X8.6075Y-3.8425
X8.6885Y-3.59
X8.695Y-3.7825
X8.7525Y-3.475
X8.78Y-3.3525
X8.8175Y-4.0275
X8.8175Y-4.115
X8.83Y-3.7775
T2
X8.06Y-3.29
X8.16Y-3.29
X8.16Y-3.69
X8.26Y-3.69
X8.36Y-3.29
X8.36Y-3.69
X8.46Y-3.29
X8.46Y-3.69
X8.56Y-3.69
X8.66Y-3.69
X8.76Y-3.29
X8.76Y-3.69
X8.06Y-2.7025
X8.16Y-2.7025
X8.16Y-3.1025
X8.26Y-3.1025
X8.36Y-2.7025
X8.36Y-3.1025
X8.46Y-2.7025
X8.46Y-3.1025
X8.56Y-3.1025
X8.66Y-3.1025
X8.76Y-2.7025
X8.76Y-3.1025
T3
X6.4425Y-2.68
X5.61Y-3.02
X5.93Y-3.25
X7.59Y-3.0925
X7.59Y-3.1925
X7.59Y-3.2925
X7.59Y-3.3925
X7.59Y-3.4925
X7.59Y-3.5925
X7.59Y-3.6925
X7.59Y-3.7925
X6.175Y-4.0781
X6.175Y-4.275
X6.43Y-2.88
X6.685Y-2.5675
X6.685Y-2.6675
X6.685Y-2.7675
X6.685Y-2.8675
X6.685Y-2.9675
X6.685Y-3.0675
X6.685Y-3.1675
X6.685Y-3.2675
X6.685Y-3.3675
X6.685Y-3.4675
X6.685Y-3.5675
X6.685Y-3.6675
X6.685Y-3.7675
X6.685Y-3.8675
X6.685Y-3.9675
X7.285Y-2.5675
X7.285Y-2.6675
X7.285Y-2.7675
X7.285Y-2.8675
X7.285Y-2.9675
X7.285Y-3.0675
X7.285Y-3.1675
X7.285Y-3.2675
X7.285Y-3.3675
X7.285Y-3.4675
X7.285Y-3.5675
X7.285Y-3.6675
X7.285Y-3.7675
X7.285Y-3.8675
X7.285Y-3.9675
X7.4781Y-2.765
X7.675Y-2.765
X7.775Y-2.375
X7.775Y-2.475
X7.875Y-2.375
X7.875Y-2.475
X6.13Y-3.25
X5.685Y-2.6625
T4
X5.85Y-4.09
X5.85Y-4.19
X5.85Y-4.29
T5
X4.9Y-4.81
X5.0969Y-4.81
T6
X5.2687Y-2.4209
X5.2687Y-2.5685
T7
X5.2687Y-2.7161
X4.84Y-3.4594
X4.84Y-4.05
X4.84Y-4.2469
X4.84Y-4.4437
X5.1353Y-3.4594
X5.1353Y-4.05
X5.1353Y-4.2469
X5.1353Y-4.4437
T10
X6.0Y-3.7
X6.0Y-4.7
T11
X8.879Y-2.5303
X8.879Y-4.4988
X5.35Y-4.9
X5.475Y-2.4
T3
G00X4.88Y-3.0506
M15
G01X4.88Y-3.1294
M16
G05
G00X4.9646Y-3.279
M15
G01X5.0434Y-3.279
M16
G05
G00X5.1261Y-3.0506
M15
G01X5.1261Y-3.1294
M16
G05
T8
G00X4.8947Y-2.7673
M15
G01X4.8553Y-2.7673
M16
G05
T9
G00X4.8907Y-2.35
M15
G01X4.8593Y-2.35
M16
G05
T0
M30
