%TF.GenerationSoftware,KiCad,Pcbnew,(5.1.6-0-10_14)*%
%TF.CreationDate,2021-01-13T12:07:43-08:00*%
%TF.ProjectId,temperatureController,74656d70-6572-4617-9475-7265436f6e74,rev?*%
%TF.SameCoordinates,Original*%
%TF.FileFunction,Copper,L2,Bot*%
%TF.FilePolarity,Positive*%
%FSLAX46Y46*%
G04 Gerber Fmt 4.6, Leading zero omitted, Abs format (unit mm)*
G04 Created by KiCad (PCBNEW (5.1.6-0-10_14)) date 2021-01-13 12:07:43*
%MOMM*%
%LPD*%
G01*
G04 APERTURE LIST*
%TA.AperFunction,ComponentPad*%
%ADD10O,1.600000X1.600000*%
%TD*%
%TA.AperFunction,ComponentPad*%
%ADD11R,1.600000X1.600000*%
%TD*%
%TA.AperFunction,ComponentPad*%
%ADD12O,1.800000X1.800000*%
%TD*%
%TA.AperFunction,ComponentPad*%
%ADD13C,2.000000*%
%TD*%
%TA.AperFunction,ComponentPad*%
%ADD14O,2.000000X1.905000*%
%TD*%
%TA.AperFunction,ComponentPad*%
%ADD15R,2.000000X1.905000*%
%TD*%
%TA.AperFunction,ComponentPad*%
%ADD16C,4.000000*%
%TD*%
%TA.AperFunction,ComponentPad*%
%ADD17O,5.000000X4.000000*%
%TD*%
%TA.AperFunction,ComponentPad*%
%ADD18C,2.500000*%
%TD*%
%TA.AperFunction,ComponentPad*%
%ADD19R,2.000000X2.000000*%
%TD*%
%TA.AperFunction,ComponentPad*%
%ADD20C,1.270000*%
%TD*%
%TA.AperFunction,ComponentPad*%
%ADD21O,1.700000X1.700000*%
%TD*%
%TA.AperFunction,ComponentPad*%
%ADD22R,1.700000X1.700000*%
%TD*%
%TA.AperFunction,ComponentPad*%
%ADD23O,3.960000X1.980000*%
%TD*%
%TA.AperFunction,ComponentPad*%
%ADD24R,3.960000X1.980000*%
%TD*%
%TA.AperFunction,ComponentPad*%
%ADD25R,3.500000X3.500000*%
%TD*%
%TA.AperFunction,ViaPad*%
%ADD26C,0.800000*%
%TD*%
%TA.AperFunction,Conductor*%
%ADD27C,0.250000*%
%TD*%
%TA.AperFunction,Conductor*%
%ADD28C,1.000000*%
%TD*%
%TA.AperFunction,Conductor*%
%ADD29C,0.254000*%
%TD*%
G04 APERTURE END LIST*
D10*
%TO.P,A1,16*%
%TO.N,/SCK*%
X169799000Y-65214500D03*
%TO.P,A1,15*%
%TO.N,/MISO*%
X185039000Y-65214500D03*
%TO.P,A1,30*%
%TO.N,Net-(A1-Pad30)*%
X169799000Y-100774500D03*
%TO.P,A1,14*%
%TO.N,/MOSI*%
X185039000Y-67754500D03*
%TO.P,A1,29*%
%TO.N,GND*%
X169799000Y-98234500D03*
%TO.P,A1,13*%
%TO.N,/SS*%
X185039000Y-70294500D03*
%TO.P,A1,28*%
%TO.N,Net-(A1-Pad28)*%
X169799000Y-95694500D03*
%TO.P,A1,12*%
%TO.N,Net-(A1-Pad12)*%
X185039000Y-72834500D03*
%TO.P,A1,27*%
%TO.N,VDD*%
X169799000Y-93154500D03*
%TO.P,A1,11*%
%TO.N,Net-(A1-Pad11)*%
X185039000Y-75374500D03*
%TO.P,A1,26*%
%TO.N,/A7*%
X169799000Y-90614500D03*
%TO.P,A1,10*%
%TO.N,Net-(A1-Pad10)*%
X185039000Y-77914500D03*
%TO.P,A1,25*%
%TO.N,/A6*%
X169799000Y-88074500D03*
%TO.P,A1,9*%
%TO.N,/ALT*%
X185039000Y-80454500D03*
%TO.P,A1,24*%
%TO.N,/SCL*%
X169799000Y-85534500D03*
%TO.P,A1,8*%
%TO.N,/VDRIVE*%
X185039000Y-82994500D03*
%TO.P,A1,23*%
%TO.N,/SDA*%
X169799000Y-82994500D03*
%TO.P,A1,7*%
%TO.N,/D4*%
X185039000Y-85534500D03*
%TO.P,A1,22*%
%TO.N,/A3*%
X169799000Y-80454500D03*
%TO.P,A1,6*%
%TO.N,/D3*%
X185039000Y-88074500D03*
%TO.P,A1,21*%
%TO.N,/VSNSL_F*%
X169799000Y-77914500D03*
%TO.P,A1,5*%
%TO.N,/D2*%
X185039000Y-90614500D03*
%TO.P,A1,20*%
%TO.N,/TSET*%
X169799000Y-75374500D03*
%TO.P,A1,4*%
%TO.N,GND*%
X185039000Y-93154500D03*
%TO.P,A1,19*%
%TO.N,/VSNSH_F*%
X169799000Y-72834500D03*
%TO.P,A1,3*%
%TO.N,Net-(A1-Pad3)*%
X185039000Y-95694500D03*
%TO.P,A1,18*%
%TO.N,Net-(A1-Pad18)*%
X169799000Y-70294500D03*
%TO.P,A1,2*%
%TO.N,/D0*%
X185039000Y-98234500D03*
%TO.P,A1,17*%
%TO.N,Net-(A1-Pad17)*%
X169799000Y-67754500D03*
D11*
%TO.P,A1,1*%
%TO.N,/D1*%
X185039000Y-100774500D03*
%TD*%
D12*
%TO.P,R2,2*%
%TO.N,/VSNSH*%
X157480000Y-88345000D03*
%TO.P,R2,1*%
%TO.N,/VSNSL*%
X157480000Y-93345000D03*
%TD*%
D13*
%TO.P,TP4,1*%
%TO.N,/VDRIVE*%
X144399000Y-62611000D03*
%TD*%
%TO.P,TP6,1*%
%TO.N,/VSNSH*%
X150241000Y-62484000D03*
%TD*%
%TO.P,TP5,1*%
%TO.N,/VSNSH_F*%
X163639500Y-62611000D03*
%TD*%
%TO.P,TP2,1*%
%TO.N,/VSNSL_F*%
X163957000Y-67691000D03*
%TD*%
%TO.P,TP1,1*%
%TO.N,/VSNSL*%
X149923500Y-67627500D03*
%TD*%
D14*
%TO.P,Q1,3*%
%TO.N,GND*%
X149225000Y-93726000D03*
%TO.P,Q1,2*%
%TO.N,/VSNSL*%
X149225000Y-91186000D03*
D15*
%TO.P,Q1,1*%
%TO.N,Net-(Q1-Pad1)*%
X149225000Y-88646000D03*
%TD*%
D13*
%TO.P,TP3,1*%
%TO.N,/TSET*%
X144399000Y-67627500D03*
%TD*%
D16*
%TO.P,H4,1*%
%TO.N,N/C*%
X225527000Y-114270000D03*
%TD*%
%TO.P,H3,1*%
%TO.N,N/C*%
X127000000Y-62230000D03*
%TD*%
%TO.P,H2,1*%
%TO.N,N/C*%
X225527000Y-64270000D03*
%TD*%
%TO.P,H1,1*%
%TO.N,N/C*%
X124460000Y-113030000D03*
%TD*%
D17*
%TO.P,RV1,*%
%TO.N,*%
X124175500Y-78008000D03*
X124175500Y-67408000D03*
D18*
%TO.P,RV1,3*%
%TO.N,GND*%
X134175500Y-69208000D03*
%TO.P,RV1,2*%
%TO.N,/TSET*%
X134175500Y-72958000D03*
D19*
%TO.P,RV1,1*%
%TO.N,VDD*%
X134175500Y-76708000D03*
%TD*%
D20*
%TO.P,LED2,15*%
%TO.N,/SEGF*%
X204724000Y-83566000D03*
%TO.P,LED2,14*%
%TO.N,/DIG7_D*%
X207264000Y-83566000D03*
%TO.P,LED2,12*%
%TO.N,/SEGA*%
X212344000Y-83566000D03*
%TO.P,LED2,11*%
%TO.N,/SEGB*%
X214884000Y-83566000D03*
%TO.P,LED2,8*%
%TO.N,/SEGG*%
X222504000Y-83566000D03*
%TO.P,LED2,7*%
%TO.N,/DIG5*%
X222504000Y-93726000D03*
%TO.P,LED2,6*%
%TO.N,/SEGDP*%
X219964000Y-93726000D03*
%TO.P,LED2,5*%
%TO.N,/DIG4*%
X217424000Y-93726000D03*
%TO.P,LED2,4*%
%TO.N,/SEGD*%
X214884000Y-93726000D03*
%TO.P,LED2,3*%
%TO.N,/SEGC*%
X212344000Y-93726000D03*
%TO.P,LED2,2*%
%TO.N,/SEGE*%
X209804000Y-93726000D03*
%TO.P,LED2,1*%
%TO.N,/DIG3*%
X207264000Y-93726000D03*
%TD*%
%TO.P,LED1,15*%
%TO.N,/SEGF*%
X204724000Y-68643500D03*
%TO.P,LED1,14*%
%TO.N,/DIG6_D*%
X207264000Y-68643500D03*
%TO.P,LED1,12*%
%TO.N,/SEGA*%
X212344000Y-68643500D03*
%TO.P,LED1,11*%
%TO.N,/SEGB*%
X214884000Y-68643500D03*
%TO.P,LED1,8*%
%TO.N,/SEGG*%
X222504000Y-68643500D03*
%TO.P,LED1,7*%
%TO.N,/DIG2*%
X222504000Y-78803500D03*
%TO.P,LED1,6*%
%TO.N,/SEGDP*%
X219964000Y-78803500D03*
%TO.P,LED1,5*%
%TO.N,/DIG1*%
X217424000Y-78803500D03*
%TO.P,LED1,4*%
%TO.N,/SEGD*%
X214884000Y-78803500D03*
%TO.P,LED1,3*%
%TO.N,/SEGC*%
X212344000Y-78803500D03*
%TO.P,LED1,2*%
%TO.N,/SEGE*%
X209804000Y-78803500D03*
%TO.P,LED1,1*%
%TO.N,/DIG0*%
X207264000Y-78803500D03*
%TD*%
D21*
%TO.P,J4,8*%
%TO.N,/A7*%
X192786000Y-78549500D03*
%TO.P,J4,7*%
%TO.N,/A6*%
X192786000Y-81089500D03*
%TO.P,J4,6*%
%TO.N,/A3*%
X192786000Y-83629500D03*
%TO.P,J4,5*%
%TO.N,/D4*%
X192786000Y-86169500D03*
%TO.P,J4,4*%
%TO.N,/D3*%
X192786000Y-88709500D03*
%TO.P,J4,3*%
%TO.N,/D2*%
X192786000Y-91249500D03*
%TO.P,J4,2*%
%TO.N,/D1*%
X192786000Y-93789500D03*
D22*
%TO.P,J4,1*%
%TO.N,/D0*%
X192786000Y-96329500D03*
%TD*%
D23*
%TO.P,J2,2*%
%TO.N,/VSNSH*%
X123634500Y-103806000D03*
D24*
%TO.P,J2,1*%
%TO.N,VDD*%
X123634500Y-98806000D03*
%TD*%
%TO.P,J1,3*%
%TO.N,N/C*%
%TA.AperFunction,ComponentPad*%
G36*
G01*
X129187000Y-93775500D02*
X129187000Y-92025500D01*
G75*
G02*
X130062000Y-91150500I875000J0D01*
G01*
X131812000Y-91150500D01*
G75*
G02*
X132687000Y-92025500I0J-875000D01*
G01*
X132687000Y-93775500D01*
G75*
G02*
X131812000Y-94650500I-875000J0D01*
G01*
X130062000Y-94650500D01*
G75*
G02*
X129187000Y-93775500I0J875000D01*
G01*
G37*
%TD.AperFunction*%
%TO.P,J1,2*%
%TO.N,GND*%
%TA.AperFunction,ComponentPad*%
G36*
G01*
X126287000Y-89100500D02*
X126287000Y-87100500D01*
G75*
G02*
X127037000Y-86350500I750000J0D01*
G01*
X128537000Y-86350500D01*
G75*
G02*
X129287000Y-87100500I0J-750000D01*
G01*
X129287000Y-89100500D01*
G75*
G02*
X128537000Y-89850500I-750000J0D01*
G01*
X127037000Y-89850500D01*
G75*
G02*
X126287000Y-89100500I0J750000D01*
G01*
G37*
%TD.AperFunction*%
D25*
%TO.P,J1,1*%
%TO.N,VDD*%
X134037000Y-88100500D03*
%TD*%
D13*
%TO.P,C1,2*%
%TO.N,GND*%
X189945000Y-70231000D03*
D19*
%TO.P,C1,1*%
%TO.N,VDD*%
X194945000Y-70231000D03*
%TD*%
D26*
%TO.N,/MISO*%
X206438500Y-99504500D03*
X200555016Y-108544081D03*
%TO.N,/MOSI*%
X207264000Y-108077000D03*
X200881263Y-109506737D03*
%TO.N,GND*%
X218249500Y-110172500D03*
X212217000Y-106807000D03*
X159956500Y-64770000D03*
X159893000Y-69342000D03*
X175514000Y-105664000D03*
%TO.N,VDD*%
X214630000Y-100838000D03*
X191412999Y-102274501D03*
X198070039Y-97077961D03*
X223964500Y-104521000D03*
%TO.N,/A7*%
X189357000Y-78740000D03*
X180848000Y-86868000D03*
%TO.N,/A6*%
X186436000Y-84201000D03*
X189865000Y-84455000D03*
%TO.N,/SCL*%
X179832000Y-104140000D03*
%TO.N,/SDA*%
X174498000Y-99568000D03*
X174498000Y-96266000D03*
X174498000Y-89027000D03*
%TO.N,/A3*%
X186182000Y-81978500D03*
%TO.N,/SEGF*%
X203263500Y-85153500D03*
X223012000Y-85153500D03*
X224282000Y-95948500D03*
X220853000Y-96075500D03*
%TO.N,/SEGA*%
X212579001Y-87185500D03*
X222313500Y-88265000D03*
%TO.N,/SEGB*%
X218630500Y-97599500D03*
X217424000Y-96520000D03*
%TO.N,/DIG2*%
X220689000Y-91186000D03*
X202946000Y-90995500D03*
%TO.N,/SEGDP*%
X211555500Y-96556403D03*
X217741500Y-95377000D03*
%TO.N,/DIG1*%
X217170000Y-88138000D03*
X200977500Y-88201500D03*
%TO.N,/SEGD*%
X210629500Y-95821500D03*
%TO.N,/DIG7_D*%
X202628500Y-89471500D03*
X207454500Y-89471500D03*
%TO.N,/DIG5*%
X201495999Y-93091000D03*
%TO.N,/DIG4*%
X216852500Y-91821000D03*
X204697500Y-92138500D03*
%TO.N,/DIG3*%
X203347470Y-95227960D03*
%TO.N,/ISET*%
X216154000Y-100774500D03*
%TO.N,/VDRIVE*%
X156527500Y-70258990D03*
X157607000Y-72009000D03*
%TO.N,/ISET*%
X223964500Y-102298500D03*
%TO.N,/VSNSL*%
X149225000Y-71755000D03*
%TO.N,/ALT*%
X182372000Y-103759000D03*
X182372000Y-100838000D03*
X182528402Y-87405402D03*
%TO.N,/VSNSH*%
X155765500Y-73723500D03*
%TD*%
D27*
%TO.N,/MISO*%
X206438500Y-102660597D02*
X200555016Y-108544081D01*
X206438500Y-99504500D02*
X206438500Y-102660597D01*
%TO.N,/MOSI*%
X202311000Y-108077000D02*
X200881263Y-109506737D01*
X207264000Y-108077000D02*
X202311000Y-108077000D01*
%TO.N,VDD*%
X214367000Y-101101000D02*
X214630000Y-100838000D01*
X214367000Y-102044500D02*
X214367000Y-101101000D01*
D28*
X209400461Y-97077961D02*
X214367000Y-102044500D01*
X201662461Y-97077961D02*
X209400461Y-97077961D01*
X196609539Y-97077961D02*
X191412999Y-102274501D01*
X198070039Y-97077961D02*
X196609539Y-97077961D01*
X201662461Y-97077961D02*
X198070039Y-97077961D01*
D27*
X214367000Y-102044500D02*
X216843500Y-104521000D01*
X216843500Y-104521000D02*
X223964500Y-104521000D01*
%TO.N,/A7*%
X184688499Y-79139999D02*
X180848000Y-82980498D01*
X188957001Y-79139999D02*
X184688499Y-79139999D01*
X189357000Y-78740000D02*
X188957001Y-79139999D01*
X180848000Y-82980498D02*
X180848000Y-86868000D01*
%TO.N,/A6*%
X186436000Y-84201000D02*
X189801500Y-84201000D01*
X189865000Y-84264500D02*
X189865000Y-84455000D01*
X189801500Y-84201000D02*
X189865000Y-84264500D01*
%TO.N,/SCL*%
X170924001Y-86659501D02*
X169799000Y-85534500D01*
X170924001Y-97067003D02*
X170924001Y-86659501D01*
X177996998Y-104140000D02*
X170924001Y-97067003D01*
X179832000Y-104140000D02*
X177996998Y-104140000D01*
%TO.N,/SDA*%
X174498000Y-87693500D02*
X169799000Y-82994500D01*
X174498000Y-99568000D02*
X174498000Y-96266000D01*
X174498000Y-87693500D02*
X174498000Y-89027000D01*
%TO.N,/A3*%
X187833000Y-83629500D02*
X192786000Y-83629500D01*
X186182000Y-81978500D02*
X187833000Y-83629500D01*
%TO.N,/SEGF*%
X203263500Y-85153500D02*
X223012000Y-85153500D01*
X224282000Y-95948500D02*
X220980000Y-95948500D01*
X220980000Y-95948500D02*
X220853000Y-96075500D01*
%TO.N,/SEGA*%
X212579001Y-87185500D02*
X221234000Y-87185500D01*
X221234000Y-87185500D02*
X222313500Y-88265000D01*
%TO.N,/SEGB*%
X218630500Y-97599500D02*
X217551000Y-96520000D01*
X217551000Y-96520000D02*
X217424000Y-96520000D01*
%TO.N,/DIG2*%
X220289001Y-90786001D02*
X203155499Y-90786001D01*
X220689000Y-91186000D02*
X220289001Y-90786001D01*
X203155499Y-90786001D02*
X202946000Y-90995500D01*
%TO.N,/SEGDP*%
X211555500Y-96556403D02*
X212734903Y-95377000D01*
X212734903Y-95377000D02*
X217741500Y-95377000D01*
%TO.N,/DIG1*%
X201041000Y-88138000D02*
X200977500Y-88201500D01*
X217170000Y-88138000D02*
X201041000Y-88138000D01*
%TO.N,/SEGD*%
X213923999Y-94686001D02*
X214884000Y-93726000D01*
X211764999Y-94686001D02*
X213923999Y-94686001D01*
X210629500Y-95821500D02*
X211764999Y-94686001D01*
%TO.N,/DIG7_D*%
X202628500Y-89471500D02*
X207454500Y-89471500D01*
%TO.N,/DIG5*%
X205143003Y-92765999D02*
X204818002Y-93091000D01*
X221543999Y-92765999D02*
X205143003Y-92765999D01*
X204818002Y-93091000D02*
X201495999Y-93091000D01*
X222504000Y-93726000D02*
X221543999Y-92765999D01*
%TO.N,/DIG4*%
X216852500Y-91821000D02*
X205168500Y-91821000D01*
X204851000Y-92138500D02*
X204697500Y-92138500D01*
X205168500Y-91821000D02*
X204851000Y-92138500D01*
%TO.N,/DIG3*%
X204849430Y-93726000D02*
X203347470Y-95227960D01*
X207264000Y-93726000D02*
X204849430Y-93726000D01*
%TO.N,/ISET*%
X216154000Y-101781500D02*
X216417000Y-102044500D01*
X216154000Y-100774500D02*
X216154000Y-101781500D01*
%TO.N,/D3*%
X193311999Y-88628001D02*
X193802000Y-88138000D01*
X192151000Y-88074500D02*
X192786000Y-88709500D01*
X185039000Y-88074500D02*
X192151000Y-88074500D01*
%TO.N,/D2*%
X185674000Y-91249500D02*
X185039000Y-90614500D01*
X192786000Y-91249500D02*
X185674000Y-91249500D01*
%TO.N,/D0*%
X190659001Y-92614499D02*
X185039000Y-98234500D01*
X193350001Y-92614499D02*
X190659001Y-92614499D01*
X193961001Y-93225499D02*
X193350001Y-92614499D01*
X193961001Y-95154499D02*
X193961001Y-93225499D01*
X192786000Y-96329500D02*
X193961001Y-95154499D01*
%TO.N,/D1*%
X185801000Y-100774500D02*
X185039000Y-100774500D01*
X192786000Y-93789500D02*
X185801000Y-100774500D01*
%TO.N,/VDRIVE*%
X156527500Y-70258990D02*
X156527500Y-70929500D01*
X156527500Y-70929500D02*
X157607000Y-72009000D01*
%TO.N,/ISET*%
X216417000Y-102044500D02*
X223837500Y-102044500D01*
X223964500Y-102171500D02*
X223964500Y-102298500D01*
X223837500Y-102044500D02*
X223964500Y-102171500D01*
%TO.N,/D4*%
X192151000Y-85534500D02*
X192786000Y-86169500D01*
X185039000Y-85534500D02*
X192151000Y-85534500D01*
%TO.N,/VSNSL*%
X149923500Y-71056500D02*
X149923500Y-67627500D01*
X149225000Y-71755000D02*
X149923500Y-71056500D01*
%TO.N,/ALT*%
X185166000Y-80581500D02*
X185039000Y-80454500D01*
X185166000Y-81202498D02*
X185166000Y-80581500D01*
X182372000Y-103759000D02*
X182372000Y-100838000D01*
X182528402Y-87405402D02*
X182528402Y-83840096D01*
X182587249Y-83781249D02*
X185166000Y-81202498D01*
X182528402Y-83840096D02*
X182587249Y-83781249D01*
X182372000Y-83996498D02*
X182587249Y-83781249D01*
%TO.N,/VSNSH*%
X155765500Y-68008500D02*
X150241000Y-62484000D01*
X155765500Y-73723500D02*
X155765500Y-68008500D01*
%TD*%
D29*
%TO.N,GND*%
G36*
X230480001Y-117450000D02*
G01*
X120040000Y-117450000D01*
X120040000Y-112770475D01*
X121825000Y-112770475D01*
X121825000Y-113289525D01*
X121926261Y-113798601D01*
X122124893Y-114278141D01*
X122413262Y-114709715D01*
X122780285Y-115076738D01*
X123211859Y-115365107D01*
X123691399Y-115563739D01*
X124200475Y-115665000D01*
X124719525Y-115665000D01*
X125228601Y-115563739D01*
X125708141Y-115365107D01*
X126139715Y-115076738D01*
X126506738Y-114709715D01*
X126795107Y-114278141D01*
X126905977Y-114010475D01*
X222892000Y-114010475D01*
X222892000Y-114529525D01*
X222993261Y-115038601D01*
X223191893Y-115518141D01*
X223480262Y-115949715D01*
X223847285Y-116316738D01*
X224278859Y-116605107D01*
X224758399Y-116803739D01*
X225267475Y-116905000D01*
X225786525Y-116905000D01*
X226295601Y-116803739D01*
X226775141Y-116605107D01*
X227206715Y-116316738D01*
X227573738Y-115949715D01*
X227862107Y-115518141D01*
X228060739Y-115038601D01*
X228162000Y-114529525D01*
X228162000Y-114010475D01*
X228060739Y-113501399D01*
X227862107Y-113021859D01*
X227573738Y-112590285D01*
X227206715Y-112223262D01*
X226775141Y-111934893D01*
X226295601Y-111736261D01*
X225786525Y-111635000D01*
X225267475Y-111635000D01*
X224758399Y-111736261D01*
X224278859Y-111934893D01*
X223847285Y-112223262D01*
X223480262Y-112590285D01*
X223191893Y-113021859D01*
X222993261Y-113501399D01*
X222892000Y-114010475D01*
X126905977Y-114010475D01*
X126993739Y-113798601D01*
X127095000Y-113289525D01*
X127095000Y-112770475D01*
X126993739Y-112261399D01*
X126795107Y-111781859D01*
X126506738Y-111350285D01*
X126139715Y-110983262D01*
X125708141Y-110694893D01*
X125228601Y-110496261D01*
X124719525Y-110395000D01*
X124200475Y-110395000D01*
X123691399Y-110496261D01*
X123211859Y-110694893D01*
X122780285Y-110983262D01*
X122413262Y-111350285D01*
X122124893Y-111781859D01*
X121926261Y-112261399D01*
X121825000Y-112770475D01*
X120040000Y-112770475D01*
X120040000Y-108442142D01*
X199520016Y-108442142D01*
X199520016Y-108646020D01*
X199559790Y-108845979D01*
X199637811Y-109034337D01*
X199751079Y-109203855D01*
X199863809Y-109316585D01*
X199846263Y-109404798D01*
X199846263Y-109608676D01*
X199886037Y-109808635D01*
X199964058Y-109996993D01*
X200077326Y-110166511D01*
X200221489Y-110310674D01*
X200391007Y-110423942D01*
X200579365Y-110501963D01*
X200779324Y-110541737D01*
X200983202Y-110541737D01*
X201183161Y-110501963D01*
X201371519Y-110423942D01*
X201541037Y-110310674D01*
X201685200Y-110166511D01*
X201798468Y-109996993D01*
X201876489Y-109808635D01*
X201916263Y-109608676D01*
X201916263Y-109546539D01*
X202625803Y-108837000D01*
X206560289Y-108837000D01*
X206604226Y-108880937D01*
X206773744Y-108994205D01*
X206962102Y-109072226D01*
X207162061Y-109112000D01*
X207365939Y-109112000D01*
X207565898Y-109072226D01*
X207754256Y-108994205D01*
X207923774Y-108880937D01*
X208067937Y-108736774D01*
X208181205Y-108567256D01*
X208259226Y-108378898D01*
X208299000Y-108178939D01*
X208299000Y-107975061D01*
X208259226Y-107775102D01*
X208181205Y-107586744D01*
X208067937Y-107417226D01*
X207923774Y-107273063D01*
X207754256Y-107159795D01*
X207565898Y-107081774D01*
X207365939Y-107042000D01*
X207162061Y-107042000D01*
X206962102Y-107081774D01*
X206773744Y-107159795D01*
X206604226Y-107273063D01*
X206560289Y-107317000D01*
X202856898Y-107317000D01*
X206949503Y-103224396D01*
X206978501Y-103200598D01*
X207073474Y-103084873D01*
X207144046Y-102952844D01*
X207187503Y-102809583D01*
X207198500Y-102697930D01*
X207198500Y-102697920D01*
X207202176Y-102660597D01*
X207198500Y-102623274D01*
X207198500Y-100208211D01*
X207242437Y-100164274D01*
X207355705Y-99994756D01*
X207433726Y-99806398D01*
X207473500Y-99606439D01*
X207473500Y-99402561D01*
X207433726Y-99202602D01*
X207355705Y-99014244D01*
X207242437Y-98844726D01*
X207098274Y-98700563D01*
X206928756Y-98587295D01*
X206740398Y-98509274D01*
X206540439Y-98469500D01*
X206336561Y-98469500D01*
X206136602Y-98509274D01*
X205948244Y-98587295D01*
X205778726Y-98700563D01*
X205634563Y-98844726D01*
X205521295Y-99014244D01*
X205443274Y-99202602D01*
X205403500Y-99402561D01*
X205403500Y-99606439D01*
X205443274Y-99806398D01*
X205521295Y-99994756D01*
X205634563Y-100164274D01*
X205678500Y-100208211D01*
X205678501Y-102345794D01*
X200515215Y-107509081D01*
X200453077Y-107509081D01*
X200253118Y-107548855D01*
X200064760Y-107626876D01*
X199895242Y-107740144D01*
X199751079Y-107884307D01*
X199637811Y-108053825D01*
X199559790Y-108242183D01*
X199520016Y-108442142D01*
X120040000Y-108442142D01*
X120040000Y-103806000D01*
X121011638Y-103806000D01*
X121043013Y-104124556D01*
X121135932Y-104430869D01*
X121286825Y-104713170D01*
X121489892Y-104960608D01*
X121737330Y-105163675D01*
X122019631Y-105314568D01*
X122325944Y-105407487D01*
X122564676Y-105431000D01*
X124704324Y-105431000D01*
X124943056Y-105407487D01*
X125249369Y-105314568D01*
X125531670Y-105163675D01*
X125779108Y-104960608D01*
X125982175Y-104713170D01*
X126133068Y-104430869D01*
X126225987Y-104124556D01*
X126257362Y-103806000D01*
X126225987Y-103487444D01*
X126133068Y-103181131D01*
X125982175Y-102898830D01*
X125779108Y-102651392D01*
X125531670Y-102448325D01*
X125249369Y-102297432D01*
X124943056Y-102204513D01*
X124704324Y-102181000D01*
X122564676Y-102181000D01*
X122325944Y-102204513D01*
X122019631Y-102297432D01*
X121737330Y-102448325D01*
X121489892Y-102651392D01*
X121286825Y-102898830D01*
X121135932Y-103181131D01*
X121043013Y-103487444D01*
X121011638Y-103806000D01*
X120040000Y-103806000D01*
X120040000Y-97816000D01*
X121016428Y-97816000D01*
X121016428Y-99796000D01*
X121028688Y-99920482D01*
X121064998Y-100040180D01*
X121123963Y-100150494D01*
X121203315Y-100247185D01*
X121300006Y-100326537D01*
X121410320Y-100385502D01*
X121530018Y-100421812D01*
X121654500Y-100434072D01*
X125614500Y-100434072D01*
X125738982Y-100421812D01*
X125858680Y-100385502D01*
X125968994Y-100326537D01*
X126065685Y-100247185D01*
X126145037Y-100150494D01*
X126204002Y-100040180D01*
X126240312Y-99920482D01*
X126252572Y-99796000D01*
X126252572Y-97816000D01*
X126240312Y-97691518D01*
X126204002Y-97571820D01*
X126145037Y-97461506D01*
X126065685Y-97364815D01*
X125968994Y-97285463D01*
X125858680Y-97226498D01*
X125738982Y-97190188D01*
X125614500Y-97177928D01*
X121654500Y-97177928D01*
X121530018Y-97190188D01*
X121410320Y-97226498D01*
X121300006Y-97285463D01*
X121203315Y-97364815D01*
X121123963Y-97461506D01*
X121064998Y-97571820D01*
X121028688Y-97691518D01*
X121016428Y-97816000D01*
X120040000Y-97816000D01*
X120040000Y-92025500D01*
X128548928Y-92025500D01*
X128548928Y-93775500D01*
X128578001Y-94070686D01*
X128664104Y-94354528D01*
X128803927Y-94616118D01*
X128992097Y-94845403D01*
X129221382Y-95033573D01*
X129482972Y-95173396D01*
X129766814Y-95259499D01*
X130062000Y-95288572D01*
X131812000Y-95288572D01*
X132107186Y-95259499D01*
X132391028Y-95173396D01*
X132652618Y-95033573D01*
X132881903Y-94845403D01*
X133070073Y-94616118D01*
X133209896Y-94354528D01*
X133287416Y-94098980D01*
X147634437Y-94098980D01*
X147705429Y-94317094D01*
X147849031Y-94592923D01*
X148043685Y-94835437D01*
X148281911Y-95035316D01*
X148554554Y-95184879D01*
X148851137Y-95278378D01*
X149098000Y-95151570D01*
X149098000Y-93853000D01*
X149352000Y-93853000D01*
X149352000Y-95151570D01*
X149598863Y-95278378D01*
X149895446Y-95184879D01*
X150168089Y-95035316D01*
X150406315Y-94835437D01*
X150600969Y-94592923D01*
X150744571Y-94317094D01*
X150815563Y-94098980D01*
X150695594Y-93853000D01*
X149352000Y-93853000D01*
X149098000Y-93853000D01*
X147754406Y-93853000D01*
X147634437Y-94098980D01*
X133287416Y-94098980D01*
X133295999Y-94070686D01*
X133325072Y-93775500D01*
X133325072Y-92025500D01*
X133295999Y-91730314D01*
X133209896Y-91446472D01*
X133070671Y-91186000D01*
X147582319Y-91186000D01*
X147612970Y-91497204D01*
X147703745Y-91796449D01*
X147851155Y-92072235D01*
X148049537Y-92313963D01*
X148228899Y-92461163D01*
X148043685Y-92616563D01*
X147849031Y-92859077D01*
X147705429Y-93134906D01*
X147634437Y-93353020D01*
X147754406Y-93599000D01*
X149098000Y-93599000D01*
X149098000Y-93579000D01*
X149352000Y-93579000D01*
X149352000Y-93599000D01*
X150695594Y-93599000D01*
X150815563Y-93353020D01*
X150763746Y-93193816D01*
X155945000Y-93193816D01*
X155945000Y-93496184D01*
X156003989Y-93792743D01*
X156119701Y-94072095D01*
X156287688Y-94323505D01*
X156501495Y-94537312D01*
X156752905Y-94705299D01*
X157032257Y-94821011D01*
X157328816Y-94880000D01*
X157631184Y-94880000D01*
X157927743Y-94821011D01*
X158207095Y-94705299D01*
X158458505Y-94537312D01*
X158672312Y-94323505D01*
X158840299Y-94072095D01*
X158956011Y-93792743D01*
X159015000Y-93496184D01*
X159015000Y-93193816D01*
X158956011Y-92897257D01*
X158840299Y-92617905D01*
X158672312Y-92366495D01*
X158458505Y-92152688D01*
X158207095Y-91984701D01*
X157927743Y-91868989D01*
X157631184Y-91810000D01*
X157328816Y-91810000D01*
X157032257Y-91868989D01*
X156752905Y-91984701D01*
X156501495Y-92152688D01*
X156287688Y-92366495D01*
X156119701Y-92617905D01*
X156003989Y-92897257D01*
X155945000Y-93193816D01*
X150763746Y-93193816D01*
X150744571Y-93134906D01*
X150600969Y-92859077D01*
X150406315Y-92616563D01*
X150221101Y-92461163D01*
X150400463Y-92313963D01*
X150598845Y-92072235D01*
X150746255Y-91796449D01*
X150837030Y-91497204D01*
X150867681Y-91186000D01*
X150837030Y-90874796D01*
X150746255Y-90575551D01*
X150598845Y-90299765D01*
X150495554Y-90173905D01*
X150579494Y-90129037D01*
X150676185Y-90049685D01*
X150755537Y-89952994D01*
X150814502Y-89842680D01*
X150850812Y-89722982D01*
X150863072Y-89598500D01*
X150863072Y-88193816D01*
X155945000Y-88193816D01*
X155945000Y-88496184D01*
X156003989Y-88792743D01*
X156119701Y-89072095D01*
X156287688Y-89323505D01*
X156501495Y-89537312D01*
X156752905Y-89705299D01*
X157032257Y-89821011D01*
X157328816Y-89880000D01*
X157631184Y-89880000D01*
X157927743Y-89821011D01*
X158207095Y-89705299D01*
X158458505Y-89537312D01*
X158672312Y-89323505D01*
X158840299Y-89072095D01*
X158956011Y-88792743D01*
X159015000Y-88496184D01*
X159015000Y-88193816D01*
X158956011Y-87897257D01*
X158840299Y-87617905D01*
X158672312Y-87366495D01*
X158458505Y-87152688D01*
X158207095Y-86984701D01*
X157927743Y-86868989D01*
X157631184Y-86810000D01*
X157328816Y-86810000D01*
X157032257Y-86868989D01*
X156752905Y-86984701D01*
X156501495Y-87152688D01*
X156287688Y-87366495D01*
X156119701Y-87617905D01*
X156003989Y-87897257D01*
X155945000Y-88193816D01*
X150863072Y-88193816D01*
X150863072Y-87693500D01*
X150850812Y-87569018D01*
X150814502Y-87449320D01*
X150755537Y-87339006D01*
X150676185Y-87242315D01*
X150579494Y-87162963D01*
X150469180Y-87103998D01*
X150349482Y-87067688D01*
X150225000Y-87055428D01*
X148225000Y-87055428D01*
X148100518Y-87067688D01*
X147980820Y-87103998D01*
X147870506Y-87162963D01*
X147773815Y-87242315D01*
X147694463Y-87339006D01*
X147635498Y-87449320D01*
X147599188Y-87569018D01*
X147586928Y-87693500D01*
X147586928Y-89598500D01*
X147599188Y-89722982D01*
X147635498Y-89842680D01*
X147694463Y-89952994D01*
X147773815Y-90049685D01*
X147870506Y-90129037D01*
X147954446Y-90173905D01*
X147851155Y-90299765D01*
X147703745Y-90575551D01*
X147612970Y-90874796D01*
X147582319Y-91186000D01*
X133070671Y-91186000D01*
X133070073Y-91184882D01*
X132881903Y-90955597D01*
X132652618Y-90767427D01*
X132391028Y-90627604D01*
X132107186Y-90541501D01*
X131812000Y-90512428D01*
X130062000Y-90512428D01*
X129766814Y-90541501D01*
X129482972Y-90627604D01*
X129221382Y-90767427D01*
X128992097Y-90955597D01*
X128803927Y-91184882D01*
X128664104Y-91446472D01*
X128578001Y-91730314D01*
X128548928Y-92025500D01*
X120040000Y-92025500D01*
X120040000Y-89850500D01*
X125648928Y-89850500D01*
X125661188Y-89974982D01*
X125697498Y-90094680D01*
X125756463Y-90204994D01*
X125835815Y-90301685D01*
X125932506Y-90381037D01*
X126042820Y-90440002D01*
X126162518Y-90476312D01*
X126287000Y-90488572D01*
X127501250Y-90485500D01*
X127660000Y-90326750D01*
X127660000Y-88227500D01*
X127914000Y-88227500D01*
X127914000Y-90326750D01*
X128072750Y-90485500D01*
X129287000Y-90488572D01*
X129411482Y-90476312D01*
X129531180Y-90440002D01*
X129641494Y-90381037D01*
X129738185Y-90301685D01*
X129817537Y-90204994D01*
X129876502Y-90094680D01*
X129912812Y-89974982D01*
X129925072Y-89850500D01*
X129922000Y-88386250D01*
X129763250Y-88227500D01*
X127914000Y-88227500D01*
X127660000Y-88227500D01*
X125810750Y-88227500D01*
X125652000Y-88386250D01*
X125648928Y-89850500D01*
X120040000Y-89850500D01*
X120040000Y-86350500D01*
X125648928Y-86350500D01*
X125652000Y-87814750D01*
X125810750Y-87973500D01*
X127660000Y-87973500D01*
X127660000Y-85874250D01*
X127914000Y-85874250D01*
X127914000Y-87973500D01*
X129763250Y-87973500D01*
X129922000Y-87814750D01*
X129925072Y-86350500D01*
X131648928Y-86350500D01*
X131648928Y-89850500D01*
X131661188Y-89974982D01*
X131697498Y-90094680D01*
X131756463Y-90204994D01*
X131835815Y-90301685D01*
X131932506Y-90381037D01*
X132042820Y-90440002D01*
X132162518Y-90476312D01*
X132287000Y-90488572D01*
X135787000Y-90488572D01*
X135911482Y-90476312D01*
X136031180Y-90440002D01*
X136141494Y-90381037D01*
X136238185Y-90301685D01*
X136317537Y-90204994D01*
X136376502Y-90094680D01*
X136412812Y-89974982D01*
X136425072Y-89850500D01*
X136425072Y-86350500D01*
X136412812Y-86226018D01*
X136376502Y-86106320D01*
X136317537Y-85996006D01*
X136238185Y-85899315D01*
X136141494Y-85819963D01*
X136031180Y-85760998D01*
X135911482Y-85724688D01*
X135787000Y-85712428D01*
X132287000Y-85712428D01*
X132162518Y-85724688D01*
X132042820Y-85760998D01*
X131932506Y-85819963D01*
X131835815Y-85899315D01*
X131756463Y-85996006D01*
X131697498Y-86106320D01*
X131661188Y-86226018D01*
X131648928Y-86350500D01*
X129925072Y-86350500D01*
X129912812Y-86226018D01*
X129876502Y-86106320D01*
X129817537Y-85996006D01*
X129738185Y-85899315D01*
X129641494Y-85819963D01*
X129531180Y-85760998D01*
X129411482Y-85724688D01*
X129287000Y-85712428D01*
X128072750Y-85715500D01*
X127914000Y-85874250D01*
X127660000Y-85874250D01*
X127501250Y-85715500D01*
X126287000Y-85712428D01*
X126162518Y-85724688D01*
X126042820Y-85760998D01*
X125932506Y-85819963D01*
X125835815Y-85899315D01*
X125756463Y-85996006D01*
X125697498Y-86106320D01*
X125661188Y-86226018D01*
X125648928Y-86350500D01*
X120040000Y-86350500D01*
X120040000Y-78008000D01*
X121027751Y-78008000D01*
X121078627Y-78524550D01*
X121229299Y-79021250D01*
X121473977Y-79479011D01*
X121803259Y-79880241D01*
X122204489Y-80209523D01*
X122662250Y-80454201D01*
X123158950Y-80604873D01*
X123546058Y-80643000D01*
X124804942Y-80643000D01*
X125192050Y-80604873D01*
X125688750Y-80454201D01*
X126146511Y-80209523D01*
X126547741Y-79880241D01*
X126877023Y-79479011D01*
X127121701Y-79021250D01*
X127272373Y-78524550D01*
X127323249Y-78008000D01*
X127272373Y-77491450D01*
X127121701Y-76994750D01*
X126877023Y-76536989D01*
X126547741Y-76135759D01*
X126146511Y-75806477D01*
X125962274Y-75708000D01*
X132537428Y-75708000D01*
X132537428Y-77708000D01*
X132549688Y-77832482D01*
X132585998Y-77952180D01*
X132644963Y-78062494D01*
X132724315Y-78159185D01*
X132821006Y-78238537D01*
X132931320Y-78297502D01*
X133051018Y-78333812D01*
X133175500Y-78346072D01*
X135175500Y-78346072D01*
X135299982Y-78333812D01*
X135419680Y-78297502D01*
X135529994Y-78238537D01*
X135626685Y-78159185D01*
X135706037Y-78062494D01*
X135765002Y-77952180D01*
X135801312Y-77832482D01*
X135813572Y-77708000D01*
X135813572Y-75708000D01*
X135801312Y-75583518D01*
X135765002Y-75463820D01*
X135706037Y-75353506D01*
X135626685Y-75256815D01*
X135529994Y-75177463D01*
X135419680Y-75118498D01*
X135299982Y-75082188D01*
X135175500Y-75069928D01*
X133175500Y-75069928D01*
X133051018Y-75082188D01*
X132931320Y-75118498D01*
X132821006Y-75177463D01*
X132724315Y-75256815D01*
X132644963Y-75353506D01*
X132585998Y-75463820D01*
X132549688Y-75583518D01*
X132537428Y-75708000D01*
X125962274Y-75708000D01*
X125688750Y-75561799D01*
X125192050Y-75411127D01*
X124804942Y-75373000D01*
X123546058Y-75373000D01*
X123158950Y-75411127D01*
X122662250Y-75561799D01*
X122204489Y-75806477D01*
X121803259Y-76135759D01*
X121473977Y-76536989D01*
X121229299Y-76994750D01*
X121078627Y-77491450D01*
X121027751Y-78008000D01*
X120040000Y-78008000D01*
X120040000Y-72772344D01*
X132290500Y-72772344D01*
X132290500Y-73143656D01*
X132362939Y-73507834D01*
X132505034Y-73850882D01*
X132711325Y-74159618D01*
X132973882Y-74422175D01*
X133282618Y-74628466D01*
X133625666Y-74770561D01*
X133989844Y-74843000D01*
X134361156Y-74843000D01*
X134725334Y-74770561D01*
X135068382Y-74628466D01*
X135377118Y-74422175D01*
X135639675Y-74159618D01*
X135845966Y-73850882D01*
X135988061Y-73507834D01*
X136060500Y-73143656D01*
X136060500Y-72772344D01*
X135988061Y-72408166D01*
X135845966Y-72065118D01*
X135639675Y-71756382D01*
X135536354Y-71653061D01*
X148190000Y-71653061D01*
X148190000Y-71856939D01*
X148229774Y-72056898D01*
X148307795Y-72245256D01*
X148421063Y-72414774D01*
X148565226Y-72558937D01*
X148734744Y-72672205D01*
X148923102Y-72750226D01*
X149123061Y-72790000D01*
X149326939Y-72790000D01*
X149526898Y-72750226D01*
X149715256Y-72672205D01*
X149884774Y-72558937D01*
X150028937Y-72414774D01*
X150142205Y-72245256D01*
X150220226Y-72056898D01*
X150260000Y-71856939D01*
X150260000Y-71794802D01*
X150434504Y-71620298D01*
X150463501Y-71596501D01*
X150558474Y-71480776D01*
X150629046Y-71348747D01*
X150672503Y-71205486D01*
X150683500Y-71093833D01*
X150683500Y-71093824D01*
X150687176Y-71056501D01*
X150683500Y-71019178D01*
X150683500Y-69082409D01*
X150697963Y-69076418D01*
X150965752Y-68897487D01*
X151193487Y-68669752D01*
X151372418Y-68401963D01*
X151495668Y-68104412D01*
X151558500Y-67788533D01*
X151558500Y-67466467D01*
X151495668Y-67150588D01*
X151372418Y-66853037D01*
X151193487Y-66585248D01*
X150965752Y-66357513D01*
X150697963Y-66178582D01*
X150400412Y-66055332D01*
X150084533Y-65992500D01*
X149762467Y-65992500D01*
X149446588Y-66055332D01*
X149149037Y-66178582D01*
X148881248Y-66357513D01*
X148653513Y-66585248D01*
X148474582Y-66853037D01*
X148351332Y-67150588D01*
X148288500Y-67466467D01*
X148288500Y-67788533D01*
X148351332Y-68104412D01*
X148474582Y-68401963D01*
X148653513Y-68669752D01*
X148881248Y-68897487D01*
X149149037Y-69076418D01*
X149163501Y-69082409D01*
X149163500Y-70720000D01*
X149123061Y-70720000D01*
X148923102Y-70759774D01*
X148734744Y-70837795D01*
X148565226Y-70951063D01*
X148421063Y-71095226D01*
X148307795Y-71264744D01*
X148229774Y-71453102D01*
X148190000Y-71653061D01*
X135536354Y-71653061D01*
X135377118Y-71493825D01*
X135068382Y-71287534D01*
X134725334Y-71145439D01*
X134396622Y-71080055D01*
X134596575Y-71054725D01*
X134948762Y-70937094D01*
X135183586Y-70811577D01*
X135309500Y-70521605D01*
X134175500Y-69387605D01*
X133041500Y-70521605D01*
X133167414Y-70811577D01*
X133499626Y-70977433D01*
X133857812Y-71075290D01*
X133946806Y-71081561D01*
X133625666Y-71145439D01*
X133282618Y-71287534D01*
X132973882Y-71493825D01*
X132711325Y-71756382D01*
X132505034Y-72065118D01*
X132362939Y-72408166D01*
X132290500Y-72772344D01*
X120040000Y-72772344D01*
X120040000Y-67408000D01*
X121027751Y-67408000D01*
X121078627Y-67924550D01*
X121229299Y-68421250D01*
X121473977Y-68879011D01*
X121803259Y-69280241D01*
X122204489Y-69609523D01*
X122662250Y-69854201D01*
X123158950Y-70004873D01*
X123546058Y-70043000D01*
X124804942Y-70043000D01*
X125192050Y-70004873D01*
X125688750Y-69854201D01*
X126146511Y-69609523D01*
X126547741Y-69280241D01*
X126563773Y-69260706D01*
X132282111Y-69260706D01*
X132328775Y-69629075D01*
X132446406Y-69981262D01*
X132571923Y-70216086D01*
X132861895Y-70342000D01*
X133995895Y-69208000D01*
X134355105Y-69208000D01*
X135489105Y-70342000D01*
X135779077Y-70216086D01*
X135944933Y-69883874D01*
X136042790Y-69525688D01*
X136068889Y-69155294D01*
X136022225Y-68786925D01*
X135904594Y-68434738D01*
X135779077Y-68199914D01*
X135489105Y-68074000D01*
X134355105Y-69208000D01*
X133995895Y-69208000D01*
X132861895Y-68074000D01*
X132571923Y-68199914D01*
X132406067Y-68532126D01*
X132308210Y-68890312D01*
X132282111Y-69260706D01*
X126563773Y-69260706D01*
X126877023Y-68879011D01*
X127121701Y-68421250D01*
X127272373Y-67924550D01*
X127275343Y-67894395D01*
X133041500Y-67894395D01*
X134175500Y-69028395D01*
X135309500Y-67894395D01*
X135183586Y-67604423D01*
X134907259Y-67466467D01*
X142764000Y-67466467D01*
X142764000Y-67788533D01*
X142826832Y-68104412D01*
X142950082Y-68401963D01*
X143129013Y-68669752D01*
X143356748Y-68897487D01*
X143624537Y-69076418D01*
X143922088Y-69199668D01*
X144237967Y-69262500D01*
X144560033Y-69262500D01*
X144875912Y-69199668D01*
X145173463Y-69076418D01*
X145441252Y-68897487D01*
X145668987Y-68669752D01*
X145847918Y-68401963D01*
X145971168Y-68104412D01*
X146034000Y-67788533D01*
X146034000Y-67466467D01*
X145971168Y-67150588D01*
X145847918Y-66853037D01*
X145668987Y-66585248D01*
X145441252Y-66357513D01*
X145173463Y-66178582D01*
X144875912Y-66055332D01*
X144560033Y-65992500D01*
X144237967Y-65992500D01*
X143922088Y-66055332D01*
X143624537Y-66178582D01*
X143356748Y-66357513D01*
X143129013Y-66585248D01*
X142950082Y-66853037D01*
X142826832Y-67150588D01*
X142764000Y-67466467D01*
X134907259Y-67466467D01*
X134851374Y-67438567D01*
X134493188Y-67340710D01*
X134122794Y-67314611D01*
X133754425Y-67361275D01*
X133402238Y-67478906D01*
X133167414Y-67604423D01*
X133041500Y-67894395D01*
X127275343Y-67894395D01*
X127323249Y-67408000D01*
X127272373Y-66891450D01*
X127121701Y-66394750D01*
X126877023Y-65936989D01*
X126547741Y-65535759D01*
X126146511Y-65206477D01*
X125688750Y-64961799D01*
X125192050Y-64811127D01*
X124804942Y-64773000D01*
X123546058Y-64773000D01*
X123158950Y-64811127D01*
X122662250Y-64961799D01*
X122204489Y-65206477D01*
X121803259Y-65535759D01*
X121473977Y-65936989D01*
X121229299Y-66394750D01*
X121078627Y-66891450D01*
X121027751Y-67408000D01*
X120040000Y-67408000D01*
X120040000Y-61970475D01*
X124365000Y-61970475D01*
X124365000Y-62489525D01*
X124466261Y-62998601D01*
X124664893Y-63478141D01*
X124953262Y-63909715D01*
X125320285Y-64276738D01*
X125751859Y-64565107D01*
X126231399Y-64763739D01*
X126740475Y-64865000D01*
X127259525Y-64865000D01*
X127768601Y-64763739D01*
X128248141Y-64565107D01*
X128679715Y-64276738D01*
X129046738Y-63909715D01*
X129335107Y-63478141D01*
X129533739Y-62998601D01*
X129635000Y-62489525D01*
X129635000Y-62449967D01*
X142764000Y-62449967D01*
X142764000Y-62772033D01*
X142826832Y-63087912D01*
X142950082Y-63385463D01*
X143129013Y-63653252D01*
X143356748Y-63880987D01*
X143624537Y-64059918D01*
X143922088Y-64183168D01*
X144237967Y-64246000D01*
X144560033Y-64246000D01*
X144875912Y-64183168D01*
X145173463Y-64059918D01*
X145441252Y-63880987D01*
X145668987Y-63653252D01*
X145847918Y-63385463D01*
X145971168Y-63087912D01*
X146034000Y-62772033D01*
X146034000Y-62449967D01*
X146008739Y-62322967D01*
X148606000Y-62322967D01*
X148606000Y-62645033D01*
X148668832Y-62960912D01*
X148792082Y-63258463D01*
X148971013Y-63526252D01*
X149198748Y-63753987D01*
X149466537Y-63932918D01*
X149764088Y-64056168D01*
X150079967Y-64119000D01*
X150402033Y-64119000D01*
X150717912Y-64056168D01*
X150732376Y-64050177D01*
X155005501Y-68323303D01*
X155005500Y-73019789D01*
X154961563Y-73063726D01*
X154848295Y-73233244D01*
X154770274Y-73421602D01*
X154730500Y-73621561D01*
X154730500Y-73825439D01*
X154770274Y-74025398D01*
X154848295Y-74213756D01*
X154961563Y-74383274D01*
X155105726Y-74527437D01*
X155275244Y-74640705D01*
X155463602Y-74718726D01*
X155663561Y-74758500D01*
X155867439Y-74758500D01*
X156067398Y-74718726D01*
X156255756Y-74640705D01*
X156425274Y-74527437D01*
X156569437Y-74383274D01*
X156682705Y-74213756D01*
X156760726Y-74025398D01*
X156800500Y-73825439D01*
X156800500Y-73621561D01*
X156760726Y-73421602D01*
X156682705Y-73233244D01*
X156569437Y-73063726D01*
X156525500Y-73019789D01*
X156525500Y-72002301D01*
X156572000Y-72048802D01*
X156572000Y-72110939D01*
X156611774Y-72310898D01*
X156689795Y-72499256D01*
X156803063Y-72668774D01*
X156947226Y-72812937D01*
X157116744Y-72926205D01*
X157305102Y-73004226D01*
X157505061Y-73044000D01*
X157708939Y-73044000D01*
X157908898Y-73004226D01*
X158097256Y-72926205D01*
X158266774Y-72812937D01*
X158410937Y-72668774D01*
X158524205Y-72499256D01*
X158602226Y-72310898D01*
X158642000Y-72110939D01*
X158642000Y-71907061D01*
X158602226Y-71707102D01*
X158524205Y-71518744D01*
X158410937Y-71349226D01*
X158266774Y-71205063D01*
X158097256Y-71091795D01*
X157908898Y-71013774D01*
X157708939Y-70974000D01*
X157646802Y-70974000D01*
X157435630Y-70762828D01*
X157444705Y-70749246D01*
X157522726Y-70560888D01*
X157562500Y-70360929D01*
X157562500Y-70157051D01*
X157522726Y-69957092D01*
X157444705Y-69768734D01*
X157331437Y-69599216D01*
X157187274Y-69455053D01*
X157017756Y-69341785D01*
X156829398Y-69263764D01*
X156629439Y-69223990D01*
X156525500Y-69223990D01*
X156525500Y-68045823D01*
X156529176Y-68008500D01*
X156525500Y-67971177D01*
X156525500Y-67971167D01*
X156514503Y-67859514D01*
X156471046Y-67716253D01*
X156400474Y-67584224D01*
X156355947Y-67529967D01*
X162322000Y-67529967D01*
X162322000Y-67852033D01*
X162384832Y-68167912D01*
X162508082Y-68465463D01*
X162687013Y-68733252D01*
X162914748Y-68960987D01*
X163182537Y-69139918D01*
X163480088Y-69263168D01*
X163795967Y-69326000D01*
X164118033Y-69326000D01*
X164433912Y-69263168D01*
X164731463Y-69139918D01*
X164999252Y-68960987D01*
X165226987Y-68733252D01*
X165405918Y-68465463D01*
X165529168Y-68167912D01*
X165592000Y-67852033D01*
X165592000Y-67529967D01*
X165529168Y-67214088D01*
X165405918Y-66916537D01*
X165226987Y-66648748D01*
X164999252Y-66421013D01*
X164731463Y-66242082D01*
X164433912Y-66118832D01*
X164118033Y-66056000D01*
X163795967Y-66056000D01*
X163480088Y-66118832D01*
X163182537Y-66242082D01*
X162914748Y-66421013D01*
X162687013Y-66648748D01*
X162508082Y-66916537D01*
X162384832Y-67214088D01*
X162322000Y-67529967D01*
X156355947Y-67529967D01*
X156305501Y-67468499D01*
X156276503Y-67444701D01*
X153904967Y-65073165D01*
X168364000Y-65073165D01*
X168364000Y-65355835D01*
X168419147Y-65633074D01*
X168527320Y-65894227D01*
X168684363Y-66129259D01*
X168884241Y-66329137D01*
X169116759Y-66484500D01*
X168884241Y-66639863D01*
X168684363Y-66839741D01*
X168527320Y-67074773D01*
X168419147Y-67335926D01*
X168364000Y-67613165D01*
X168364000Y-67895835D01*
X168419147Y-68173074D01*
X168527320Y-68434227D01*
X168684363Y-68669259D01*
X168884241Y-68869137D01*
X169116759Y-69024500D01*
X168884241Y-69179863D01*
X168684363Y-69379741D01*
X168527320Y-69614773D01*
X168419147Y-69875926D01*
X168364000Y-70153165D01*
X168364000Y-70435835D01*
X168419147Y-70713074D01*
X168527320Y-70974227D01*
X168684363Y-71209259D01*
X168884241Y-71409137D01*
X169116759Y-71564500D01*
X168884241Y-71719863D01*
X168684363Y-71919741D01*
X168527320Y-72154773D01*
X168419147Y-72415926D01*
X168364000Y-72693165D01*
X168364000Y-72975835D01*
X168419147Y-73253074D01*
X168527320Y-73514227D01*
X168684363Y-73749259D01*
X168884241Y-73949137D01*
X169116759Y-74104500D01*
X168884241Y-74259863D01*
X168684363Y-74459741D01*
X168527320Y-74694773D01*
X168419147Y-74955926D01*
X168364000Y-75233165D01*
X168364000Y-75515835D01*
X168419147Y-75793074D01*
X168527320Y-76054227D01*
X168684363Y-76289259D01*
X168884241Y-76489137D01*
X169116759Y-76644500D01*
X168884241Y-76799863D01*
X168684363Y-76999741D01*
X168527320Y-77234773D01*
X168419147Y-77495926D01*
X168364000Y-77773165D01*
X168364000Y-78055835D01*
X168419147Y-78333074D01*
X168527320Y-78594227D01*
X168684363Y-78829259D01*
X168884241Y-79029137D01*
X169116759Y-79184500D01*
X168884241Y-79339863D01*
X168684363Y-79539741D01*
X168527320Y-79774773D01*
X168419147Y-80035926D01*
X168364000Y-80313165D01*
X168364000Y-80595835D01*
X168419147Y-80873074D01*
X168527320Y-81134227D01*
X168684363Y-81369259D01*
X168884241Y-81569137D01*
X169116759Y-81724500D01*
X168884241Y-81879863D01*
X168684363Y-82079741D01*
X168527320Y-82314773D01*
X168419147Y-82575926D01*
X168364000Y-82853165D01*
X168364000Y-83135835D01*
X168419147Y-83413074D01*
X168527320Y-83674227D01*
X168684363Y-83909259D01*
X168884241Y-84109137D01*
X169116759Y-84264500D01*
X168884241Y-84419863D01*
X168684363Y-84619741D01*
X168527320Y-84854773D01*
X168419147Y-85115926D01*
X168364000Y-85393165D01*
X168364000Y-85675835D01*
X168419147Y-85953074D01*
X168527320Y-86214227D01*
X168684363Y-86449259D01*
X168884241Y-86649137D01*
X169116759Y-86804500D01*
X168884241Y-86959863D01*
X168684363Y-87159741D01*
X168527320Y-87394773D01*
X168419147Y-87655926D01*
X168364000Y-87933165D01*
X168364000Y-88215835D01*
X168419147Y-88493074D01*
X168527320Y-88754227D01*
X168684363Y-88989259D01*
X168884241Y-89189137D01*
X169116759Y-89344500D01*
X168884241Y-89499863D01*
X168684363Y-89699741D01*
X168527320Y-89934773D01*
X168419147Y-90195926D01*
X168364000Y-90473165D01*
X168364000Y-90755835D01*
X168419147Y-91033074D01*
X168527320Y-91294227D01*
X168684363Y-91529259D01*
X168884241Y-91729137D01*
X169116759Y-91884500D01*
X168884241Y-92039863D01*
X168684363Y-92239741D01*
X168527320Y-92474773D01*
X168419147Y-92735926D01*
X168364000Y-93013165D01*
X168364000Y-93295835D01*
X168419147Y-93573074D01*
X168527320Y-93834227D01*
X168684363Y-94069259D01*
X168884241Y-94269137D01*
X169116759Y-94424500D01*
X168884241Y-94579863D01*
X168684363Y-94779741D01*
X168527320Y-95014773D01*
X168419147Y-95275926D01*
X168364000Y-95553165D01*
X168364000Y-95835835D01*
X168419147Y-96113074D01*
X168527320Y-96374227D01*
X168684363Y-96609259D01*
X168884241Y-96809137D01*
X169119273Y-96966180D01*
X169129865Y-96970567D01*
X168943869Y-97082115D01*
X168735481Y-97271086D01*
X168567963Y-97497080D01*
X168447754Y-97751413D01*
X168407096Y-97885461D01*
X168529085Y-98107500D01*
X169672000Y-98107500D01*
X169672000Y-98087500D01*
X169926000Y-98087500D01*
X169926000Y-98107500D01*
X169946000Y-98107500D01*
X169946000Y-98361500D01*
X169926000Y-98361500D01*
X169926000Y-98381500D01*
X169672000Y-98381500D01*
X169672000Y-98361500D01*
X168529085Y-98361500D01*
X168407096Y-98583539D01*
X168447754Y-98717587D01*
X168567963Y-98971920D01*
X168735481Y-99197914D01*
X168943869Y-99386885D01*
X169129865Y-99498433D01*
X169119273Y-99502820D01*
X168884241Y-99659863D01*
X168684363Y-99859741D01*
X168527320Y-100094773D01*
X168419147Y-100355926D01*
X168364000Y-100633165D01*
X168364000Y-100915835D01*
X168419147Y-101193074D01*
X168527320Y-101454227D01*
X168684363Y-101689259D01*
X168884241Y-101889137D01*
X169119273Y-102046180D01*
X169380426Y-102154353D01*
X169657665Y-102209500D01*
X169940335Y-102209500D01*
X170217574Y-102154353D01*
X170478727Y-102046180D01*
X170713759Y-101889137D01*
X170913637Y-101689259D01*
X171070680Y-101454227D01*
X171178853Y-101193074D01*
X171234000Y-100915835D01*
X171234000Y-100633165D01*
X171178853Y-100355926D01*
X171070680Y-100094773D01*
X170913637Y-99859741D01*
X170713759Y-99659863D01*
X170478727Y-99502820D01*
X170468135Y-99498433D01*
X170654131Y-99386885D01*
X170862519Y-99197914D01*
X171030037Y-98971920D01*
X171150246Y-98717587D01*
X171190904Y-98583539D01*
X171068916Y-98361502D01*
X171143699Y-98361502D01*
X177433199Y-104651003D01*
X177456997Y-104680001D01*
X177572722Y-104774974D01*
X177704751Y-104845546D01*
X177848012Y-104889003D01*
X177959665Y-104900000D01*
X177959674Y-104900000D01*
X177996997Y-104903676D01*
X178034320Y-104900000D01*
X179128289Y-104900000D01*
X179172226Y-104943937D01*
X179341744Y-105057205D01*
X179530102Y-105135226D01*
X179730061Y-105175000D01*
X179933939Y-105175000D01*
X180133898Y-105135226D01*
X180322256Y-105057205D01*
X180491774Y-104943937D01*
X180635937Y-104799774D01*
X180749205Y-104630256D01*
X180827226Y-104441898D01*
X180867000Y-104241939D01*
X180867000Y-104038061D01*
X180827226Y-103838102D01*
X180749205Y-103649744D01*
X180635937Y-103480226D01*
X180491774Y-103336063D01*
X180322256Y-103222795D01*
X180133898Y-103144774D01*
X179933939Y-103105000D01*
X179730061Y-103105000D01*
X179530102Y-103144774D01*
X179341744Y-103222795D01*
X179172226Y-103336063D01*
X179128289Y-103380000D01*
X178311800Y-103380000D01*
X175667861Y-100736061D01*
X181337000Y-100736061D01*
X181337000Y-100939939D01*
X181376774Y-101139898D01*
X181454795Y-101328256D01*
X181568063Y-101497774D01*
X181612001Y-101541712D01*
X181612000Y-103055289D01*
X181568063Y-103099226D01*
X181454795Y-103268744D01*
X181376774Y-103457102D01*
X181337000Y-103657061D01*
X181337000Y-103860939D01*
X181376774Y-104060898D01*
X181454795Y-104249256D01*
X181568063Y-104418774D01*
X181712226Y-104562937D01*
X181881744Y-104676205D01*
X182070102Y-104754226D01*
X182270061Y-104794000D01*
X182473939Y-104794000D01*
X182673898Y-104754226D01*
X182862256Y-104676205D01*
X183031774Y-104562937D01*
X183175937Y-104418774D01*
X183289205Y-104249256D01*
X183367226Y-104060898D01*
X183407000Y-103860939D01*
X183407000Y-103657061D01*
X183367226Y-103457102D01*
X183289205Y-103268744D01*
X183175937Y-103099226D01*
X183132000Y-103055289D01*
X183132000Y-102274501D01*
X190272508Y-102274501D01*
X190294422Y-102496999D01*
X190359323Y-102710947D01*
X190464716Y-102908123D01*
X190606551Y-103080949D01*
X190779377Y-103222784D01*
X190976553Y-103328177D01*
X191190501Y-103393078D01*
X191412999Y-103414992D01*
X191635497Y-103393078D01*
X191849445Y-103328177D01*
X192046621Y-103222784D01*
X192176142Y-103116489D01*
X197079671Y-98212961D01*
X208930330Y-98212961D01*
X213603856Y-102886488D01*
X213733377Y-102992784D01*
X213930553Y-103098176D01*
X214144501Y-103163077D01*
X214367000Y-103184991D01*
X214426800Y-103179101D01*
X216279701Y-105032003D01*
X216303499Y-105061001D01*
X216332497Y-105084799D01*
X216419223Y-105155974D01*
X216551253Y-105226546D01*
X216694514Y-105270003D01*
X216806167Y-105281000D01*
X216806177Y-105281000D01*
X216843500Y-105284676D01*
X216880823Y-105281000D01*
X223260789Y-105281000D01*
X223304726Y-105324937D01*
X223474244Y-105438205D01*
X223662602Y-105516226D01*
X223862561Y-105556000D01*
X224066439Y-105556000D01*
X224266398Y-105516226D01*
X224454756Y-105438205D01*
X224624274Y-105324937D01*
X224768437Y-105180774D01*
X224881705Y-105011256D01*
X224959726Y-104822898D01*
X224999500Y-104622939D01*
X224999500Y-104419061D01*
X224959726Y-104219102D01*
X224881705Y-104030744D01*
X224768437Y-103861226D01*
X224624274Y-103717063D01*
X224454756Y-103603795D01*
X224266398Y-103525774D01*
X224066439Y-103486000D01*
X223862561Y-103486000D01*
X223662602Y-103525774D01*
X223474244Y-103603795D01*
X223304726Y-103717063D01*
X223260789Y-103761000D01*
X217158302Y-103761000D01*
X216157186Y-102759884D01*
X216268014Y-102793503D01*
X216379667Y-102804500D01*
X216379676Y-102804500D01*
X216416999Y-102808176D01*
X216454322Y-102804500D01*
X223057815Y-102804500D01*
X223160563Y-102958274D01*
X223304726Y-103102437D01*
X223474244Y-103215705D01*
X223662602Y-103293726D01*
X223862561Y-103333500D01*
X224066439Y-103333500D01*
X224266398Y-103293726D01*
X224454756Y-103215705D01*
X224624274Y-103102437D01*
X224768437Y-102958274D01*
X224881705Y-102788756D01*
X224959726Y-102600398D01*
X224999500Y-102400439D01*
X224999500Y-102196561D01*
X224959726Y-101996602D01*
X224881705Y-101808244D01*
X224768437Y-101638726D01*
X224624274Y-101494563D01*
X224454756Y-101381295D01*
X224266398Y-101303274D01*
X224066439Y-101263500D01*
X223862561Y-101263500D01*
X223756986Y-101284500D01*
X217058013Y-101284500D01*
X217071205Y-101264756D01*
X217149226Y-101076398D01*
X217189000Y-100876439D01*
X217189000Y-100672561D01*
X217149226Y-100472602D01*
X217071205Y-100284244D01*
X216957937Y-100114726D01*
X216813774Y-99970563D01*
X216644256Y-99857295D01*
X216455898Y-99779274D01*
X216255939Y-99739500D01*
X216052061Y-99739500D01*
X215852102Y-99779274D01*
X215663744Y-99857295D01*
X215494226Y-99970563D01*
X215360250Y-100104539D01*
X215289774Y-100034063D01*
X215120256Y-99920795D01*
X214931898Y-99842774D01*
X214731939Y-99803000D01*
X214528061Y-99803000D01*
X214328102Y-99842774D01*
X214139744Y-99920795D01*
X213970226Y-100034063D01*
X213965960Y-100038329D01*
X211519034Y-97591403D01*
X211657439Y-97591403D01*
X211857398Y-97551629D01*
X212045756Y-97473608D01*
X212215274Y-97360340D01*
X212359437Y-97216177D01*
X212472705Y-97046659D01*
X212550726Y-96858301D01*
X212590500Y-96658342D01*
X212590500Y-96596204D01*
X213049705Y-96137000D01*
X216462368Y-96137000D01*
X216428774Y-96218102D01*
X216389000Y-96418061D01*
X216389000Y-96621939D01*
X216428774Y-96821898D01*
X216506795Y-97010256D01*
X216620063Y-97179774D01*
X216764226Y-97323937D01*
X216933744Y-97437205D01*
X217122102Y-97515226D01*
X217322061Y-97555000D01*
X217511199Y-97555000D01*
X217595500Y-97639302D01*
X217595500Y-97701439D01*
X217635274Y-97901398D01*
X217713295Y-98089756D01*
X217826563Y-98259274D01*
X217970726Y-98403437D01*
X218140244Y-98516705D01*
X218328602Y-98594726D01*
X218528561Y-98634500D01*
X218732439Y-98634500D01*
X218932398Y-98594726D01*
X219120756Y-98516705D01*
X219290274Y-98403437D01*
X219434437Y-98259274D01*
X219547705Y-98089756D01*
X219625726Y-97901398D01*
X219665500Y-97701439D01*
X219665500Y-97497561D01*
X219625726Y-97297602D01*
X219547705Y-97109244D01*
X219434437Y-96939726D01*
X219290274Y-96795563D01*
X219120756Y-96682295D01*
X218932398Y-96604274D01*
X218732439Y-96564500D01*
X218670302Y-96564500D01*
X218442895Y-96337093D01*
X218419226Y-96218102D01*
X218403083Y-96179128D01*
X218545437Y-96036774D01*
X218587674Y-95973561D01*
X219818000Y-95973561D01*
X219818000Y-96177439D01*
X219857774Y-96377398D01*
X219935795Y-96565756D01*
X220049063Y-96735274D01*
X220193226Y-96879437D01*
X220362744Y-96992705D01*
X220551102Y-97070726D01*
X220751061Y-97110500D01*
X220954939Y-97110500D01*
X221154898Y-97070726D01*
X221343256Y-96992705D01*
X221512774Y-96879437D01*
X221656937Y-96735274D01*
X221674827Y-96708500D01*
X223578289Y-96708500D01*
X223622226Y-96752437D01*
X223791744Y-96865705D01*
X223980102Y-96943726D01*
X224180061Y-96983500D01*
X224383939Y-96983500D01*
X224583898Y-96943726D01*
X224772256Y-96865705D01*
X224941774Y-96752437D01*
X225085937Y-96608274D01*
X225199205Y-96438756D01*
X225277226Y-96250398D01*
X225317000Y-96050439D01*
X225317000Y-95846561D01*
X225277226Y-95646602D01*
X225199205Y-95458244D01*
X225085937Y-95288726D01*
X224941774Y-95144563D01*
X224772256Y-95031295D01*
X224583898Y-94953274D01*
X224383939Y-94913500D01*
X224180061Y-94913500D01*
X223980102Y-94953274D01*
X223791744Y-95031295D01*
X223622226Y-95144563D01*
X223578289Y-95188500D01*
X221388461Y-95188500D01*
X221343256Y-95158295D01*
X221154898Y-95080274D01*
X220954939Y-95040500D01*
X220751061Y-95040500D01*
X220551102Y-95080274D01*
X220362744Y-95158295D01*
X220193226Y-95271563D01*
X220049063Y-95415726D01*
X219935795Y-95585244D01*
X219857774Y-95773602D01*
X219818000Y-95973561D01*
X218587674Y-95973561D01*
X218658705Y-95867256D01*
X218736726Y-95678898D01*
X218776500Y-95478939D01*
X218776500Y-95275061D01*
X218736726Y-95075102D01*
X218658705Y-94886744D01*
X218545437Y-94717226D01*
X218401274Y-94573063D01*
X218384318Y-94561733D01*
X218410473Y-94535578D01*
X218549459Y-94327571D01*
X218645195Y-94096445D01*
X218694000Y-93851084D01*
X218742805Y-94096445D01*
X218838541Y-94327571D01*
X218977527Y-94535578D01*
X219154422Y-94712473D01*
X219362429Y-94851459D01*
X219593555Y-94947195D01*
X219838916Y-94996000D01*
X220089084Y-94996000D01*
X220334445Y-94947195D01*
X220565571Y-94851459D01*
X220773578Y-94712473D01*
X220950473Y-94535578D01*
X221089459Y-94327571D01*
X221185195Y-94096445D01*
X221234000Y-93851084D01*
X221282805Y-94096445D01*
X221378541Y-94327571D01*
X221517527Y-94535578D01*
X221694422Y-94712473D01*
X221902429Y-94851459D01*
X222133555Y-94947195D01*
X222378916Y-94996000D01*
X222629084Y-94996000D01*
X222874445Y-94947195D01*
X223105571Y-94851459D01*
X223313578Y-94712473D01*
X223490473Y-94535578D01*
X223629459Y-94327571D01*
X223725195Y-94096445D01*
X223774000Y-93851084D01*
X223774000Y-93600916D01*
X223725195Y-93355555D01*
X223629459Y-93124429D01*
X223490473Y-92916422D01*
X223313578Y-92739527D01*
X223105571Y-92600541D01*
X222874445Y-92504805D01*
X222629084Y-92456000D01*
X222378916Y-92456000D01*
X222320434Y-92467633D01*
X222107802Y-92255001D01*
X222084000Y-92225998D01*
X221968275Y-92131025D01*
X221836246Y-92060453D01*
X221692985Y-92016996D01*
X221581332Y-92005999D01*
X221581321Y-92005999D01*
X221543999Y-92002323D01*
X221506677Y-92005999D01*
X221324735Y-92005999D01*
X221348774Y-91989937D01*
X221492937Y-91845774D01*
X221606205Y-91676256D01*
X221684226Y-91487898D01*
X221724000Y-91287939D01*
X221724000Y-91084061D01*
X221684226Y-90884102D01*
X221606205Y-90695744D01*
X221492937Y-90526226D01*
X221348774Y-90382063D01*
X221179256Y-90268795D01*
X220990898Y-90190774D01*
X220790939Y-90151000D01*
X220713226Y-90151000D01*
X220581248Y-90080455D01*
X220437987Y-90036998D01*
X220326334Y-90026001D01*
X220326323Y-90026001D01*
X220289001Y-90022325D01*
X220251679Y-90026001D01*
X208328778Y-90026001D01*
X208371705Y-89961756D01*
X208449726Y-89773398D01*
X208489500Y-89573439D01*
X208489500Y-89369561D01*
X208449726Y-89169602D01*
X208371705Y-88981244D01*
X208316083Y-88898000D01*
X216466289Y-88898000D01*
X216510226Y-88941937D01*
X216679744Y-89055205D01*
X216868102Y-89133226D01*
X217068061Y-89173000D01*
X217271939Y-89173000D01*
X217471898Y-89133226D01*
X217660256Y-89055205D01*
X217829774Y-88941937D01*
X217973937Y-88797774D01*
X218087205Y-88628256D01*
X218165226Y-88439898D01*
X218205000Y-88239939D01*
X218205000Y-88036061D01*
X218186986Y-87945500D01*
X220919199Y-87945500D01*
X221278500Y-88304802D01*
X221278500Y-88366939D01*
X221318274Y-88566898D01*
X221396295Y-88755256D01*
X221509563Y-88924774D01*
X221653726Y-89068937D01*
X221823244Y-89182205D01*
X222011602Y-89260226D01*
X222211561Y-89300000D01*
X222415439Y-89300000D01*
X222615398Y-89260226D01*
X222803756Y-89182205D01*
X222973274Y-89068937D01*
X223117437Y-88924774D01*
X223230705Y-88755256D01*
X223308726Y-88566898D01*
X223348500Y-88366939D01*
X223348500Y-88163061D01*
X223308726Y-87963102D01*
X223230705Y-87774744D01*
X223117437Y-87605226D01*
X222973274Y-87461063D01*
X222803756Y-87347795D01*
X222615398Y-87269774D01*
X222415439Y-87230000D01*
X222353302Y-87230000D01*
X221797804Y-86674502D01*
X221774001Y-86645499D01*
X221658276Y-86550526D01*
X221526247Y-86479954D01*
X221382986Y-86436497D01*
X221271333Y-86425500D01*
X221271322Y-86425500D01*
X221234000Y-86421824D01*
X221196678Y-86425500D01*
X213282712Y-86425500D01*
X213238775Y-86381563D01*
X213069257Y-86268295D01*
X212880899Y-86190274D01*
X212680940Y-86150500D01*
X212477062Y-86150500D01*
X212277103Y-86190274D01*
X212088745Y-86268295D01*
X211919227Y-86381563D01*
X211775064Y-86525726D01*
X211661796Y-86695244D01*
X211583775Y-86883602D01*
X211544001Y-87083561D01*
X211544001Y-87287439D01*
X211562015Y-87378000D01*
X201607996Y-87378000D01*
X201467756Y-87284295D01*
X201279398Y-87206274D01*
X201079439Y-87166500D01*
X200875561Y-87166500D01*
X200675602Y-87206274D01*
X200487244Y-87284295D01*
X200317726Y-87397563D01*
X200173563Y-87541726D01*
X200060295Y-87711244D01*
X199982274Y-87899602D01*
X199942500Y-88099561D01*
X199942500Y-88303439D01*
X199982274Y-88503398D01*
X200060295Y-88691756D01*
X200173563Y-88861274D01*
X200317726Y-89005437D01*
X200487244Y-89118705D01*
X200675602Y-89196726D01*
X200875561Y-89236500D01*
X201079439Y-89236500D01*
X201279398Y-89196726D01*
X201467756Y-89118705D01*
X201637274Y-89005437D01*
X201744711Y-88898000D01*
X201766917Y-88898000D01*
X201711295Y-88981244D01*
X201633274Y-89169602D01*
X201593500Y-89369561D01*
X201593500Y-89573439D01*
X201633274Y-89773398D01*
X201711295Y-89961756D01*
X201824563Y-90131274D01*
X201968726Y-90275437D01*
X202116411Y-90374117D01*
X202028795Y-90505244D01*
X201950774Y-90693602D01*
X201911000Y-90893561D01*
X201911000Y-91097439D01*
X201950774Y-91297398D01*
X202028795Y-91485756D01*
X202142063Y-91655274D01*
X202286226Y-91799437D01*
X202455744Y-91912705D01*
X202644102Y-91990726D01*
X202844061Y-92030500D01*
X203047939Y-92030500D01*
X203247898Y-91990726D01*
X203436256Y-91912705D01*
X203605774Y-91799437D01*
X203749937Y-91655274D01*
X203822951Y-91546001D01*
X203848611Y-91546001D01*
X203780295Y-91648244D01*
X203702274Y-91836602D01*
X203662500Y-92036561D01*
X203662500Y-92240439D01*
X203680514Y-92331000D01*
X202199710Y-92331000D01*
X202155773Y-92287063D01*
X201986255Y-92173795D01*
X201797897Y-92095774D01*
X201597938Y-92056000D01*
X201394060Y-92056000D01*
X201194101Y-92095774D01*
X201005743Y-92173795D01*
X200836225Y-92287063D01*
X200692062Y-92431226D01*
X200578794Y-92600744D01*
X200500773Y-92789102D01*
X200460999Y-92989061D01*
X200460999Y-93192939D01*
X200500773Y-93392898D01*
X200578794Y-93581256D01*
X200692062Y-93750774D01*
X200836225Y-93894937D01*
X201005743Y-94008205D01*
X201194101Y-94086226D01*
X201394060Y-94126000D01*
X201597938Y-94126000D01*
X201797897Y-94086226D01*
X201986255Y-94008205D01*
X202155773Y-93894937D01*
X202199710Y-93851000D01*
X203649628Y-93851000D01*
X203307669Y-94192960D01*
X203245531Y-94192960D01*
X203045572Y-94232734D01*
X202857214Y-94310755D01*
X202687696Y-94424023D01*
X202543533Y-94568186D01*
X202430265Y-94737704D01*
X202352244Y-94926062D01*
X202312470Y-95126021D01*
X202312470Y-95329899D01*
X202352244Y-95529858D01*
X202430265Y-95718216D01*
X202543533Y-95887734D01*
X202598760Y-95942961D01*
X196665280Y-95942961D01*
X196609538Y-95937471D01*
X196553796Y-95942961D01*
X196553787Y-95942961D01*
X196387040Y-95959384D01*
X196173092Y-96024285D01*
X195975916Y-96129677D01*
X195803090Y-96271512D01*
X195767548Y-96314820D01*
X190571011Y-101511358D01*
X190464716Y-101640879D01*
X190359323Y-101838055D01*
X190294422Y-102052003D01*
X190272508Y-102274501D01*
X183132000Y-102274501D01*
X183132000Y-101541711D01*
X183175937Y-101497774D01*
X183289205Y-101328256D01*
X183367226Y-101139898D01*
X183407000Y-100939939D01*
X183407000Y-100736061D01*
X183367226Y-100536102D01*
X183289205Y-100347744D01*
X183175937Y-100178226D01*
X183031774Y-100034063D01*
X182862256Y-99920795D01*
X182673898Y-99842774D01*
X182473939Y-99803000D01*
X182270061Y-99803000D01*
X182070102Y-99842774D01*
X181881744Y-99920795D01*
X181712226Y-100034063D01*
X181568063Y-100178226D01*
X181454795Y-100347744D01*
X181376774Y-100536102D01*
X181337000Y-100736061D01*
X175667861Y-100736061D01*
X175230755Y-100298956D01*
X175301937Y-100227774D01*
X175415205Y-100058256D01*
X175493226Y-99869898D01*
X175533000Y-99669939D01*
X175533000Y-99466061D01*
X175493226Y-99266102D01*
X175415205Y-99077744D01*
X175301937Y-98908226D01*
X175258000Y-98864289D01*
X175258000Y-96969711D01*
X175301937Y-96925774D01*
X175415205Y-96756256D01*
X175493226Y-96567898D01*
X175533000Y-96367939D01*
X175533000Y-96164061D01*
X175493226Y-95964102D01*
X175415205Y-95775744D01*
X175301937Y-95606226D01*
X175157774Y-95462063D01*
X174988256Y-95348795D01*
X174799898Y-95270774D01*
X174599939Y-95231000D01*
X174396061Y-95231000D01*
X174196102Y-95270774D01*
X174007744Y-95348795D01*
X173838226Y-95462063D01*
X173694063Y-95606226D01*
X173580795Y-95775744D01*
X173502774Y-95964102D01*
X173463000Y-96164061D01*
X173463000Y-96367939D01*
X173502774Y-96567898D01*
X173580795Y-96756256D01*
X173694063Y-96925774D01*
X173738001Y-96969712D01*
X173738000Y-98806201D01*
X171684001Y-96752202D01*
X171684001Y-86696826D01*
X171687677Y-86659501D01*
X171684001Y-86622176D01*
X171684001Y-86622168D01*
X171673004Y-86510515D01*
X171629547Y-86367254D01*
X171558975Y-86235225D01*
X171464002Y-86119500D01*
X171435004Y-86095702D01*
X171197688Y-85858386D01*
X171234000Y-85675835D01*
X171234000Y-85504301D01*
X173738000Y-88008302D01*
X173738000Y-88323289D01*
X173694063Y-88367226D01*
X173580795Y-88536744D01*
X173502774Y-88725102D01*
X173463000Y-88925061D01*
X173463000Y-89128939D01*
X173502774Y-89328898D01*
X173580795Y-89517256D01*
X173694063Y-89686774D01*
X173838226Y-89830937D01*
X174007744Y-89944205D01*
X174196102Y-90022226D01*
X174396061Y-90062000D01*
X174599939Y-90062000D01*
X174799898Y-90022226D01*
X174988256Y-89944205D01*
X175157774Y-89830937D01*
X175301937Y-89686774D01*
X175415205Y-89517256D01*
X175493226Y-89328898D01*
X175533000Y-89128939D01*
X175533000Y-88925061D01*
X175493226Y-88725102D01*
X175415205Y-88536744D01*
X175301937Y-88367226D01*
X175258000Y-88323289D01*
X175258000Y-87730833D01*
X175261677Y-87693500D01*
X175247003Y-87544514D01*
X175203546Y-87401253D01*
X175132974Y-87269224D01*
X175075755Y-87199502D01*
X175038001Y-87153499D01*
X175009004Y-87129702D01*
X174645363Y-86766061D01*
X179813000Y-86766061D01*
X179813000Y-86969939D01*
X179852774Y-87169898D01*
X179930795Y-87358256D01*
X180044063Y-87527774D01*
X180188226Y-87671937D01*
X180357744Y-87785205D01*
X180546102Y-87863226D01*
X180746061Y-87903000D01*
X180949939Y-87903000D01*
X181149898Y-87863226D01*
X181338256Y-87785205D01*
X181507774Y-87671937D01*
X181523095Y-87656616D01*
X181533176Y-87707300D01*
X181611197Y-87895658D01*
X181724465Y-88065176D01*
X181868628Y-88209339D01*
X182038146Y-88322607D01*
X182226504Y-88400628D01*
X182426463Y-88440402D01*
X182630341Y-88440402D01*
X182830300Y-88400628D01*
X183018658Y-88322607D01*
X183188176Y-88209339D01*
X183332339Y-88065176D01*
X183445607Y-87895658D01*
X183523628Y-87707300D01*
X183563402Y-87507341D01*
X183563402Y-87303463D01*
X183523628Y-87103504D01*
X183445607Y-86915146D01*
X183332339Y-86745628D01*
X183288402Y-86701691D01*
X183288402Y-84154897D01*
X183768022Y-83675277D01*
X183924363Y-83909259D01*
X184124241Y-84109137D01*
X184356759Y-84264500D01*
X184124241Y-84419863D01*
X183924363Y-84619741D01*
X183767320Y-84854773D01*
X183659147Y-85115926D01*
X183604000Y-85393165D01*
X183604000Y-85675835D01*
X183659147Y-85953074D01*
X183767320Y-86214227D01*
X183924363Y-86449259D01*
X184124241Y-86649137D01*
X184356759Y-86804500D01*
X184124241Y-86959863D01*
X183924363Y-87159741D01*
X183767320Y-87394773D01*
X183659147Y-87655926D01*
X183604000Y-87933165D01*
X183604000Y-88215835D01*
X183659147Y-88493074D01*
X183767320Y-88754227D01*
X183924363Y-88989259D01*
X184124241Y-89189137D01*
X184356759Y-89344500D01*
X184124241Y-89499863D01*
X183924363Y-89699741D01*
X183767320Y-89934773D01*
X183659147Y-90195926D01*
X183604000Y-90473165D01*
X183604000Y-90755835D01*
X183659147Y-91033074D01*
X183767320Y-91294227D01*
X183924363Y-91529259D01*
X184124241Y-91729137D01*
X184359273Y-91886180D01*
X184369865Y-91890567D01*
X184183869Y-92002115D01*
X183975481Y-92191086D01*
X183807963Y-92417080D01*
X183687754Y-92671413D01*
X183647096Y-92805461D01*
X183769085Y-93027500D01*
X184912000Y-93027500D01*
X184912000Y-93007500D01*
X185166000Y-93007500D01*
X185166000Y-93027500D01*
X186308915Y-93027500D01*
X186430904Y-92805461D01*
X186390246Y-92671413D01*
X186270037Y-92417080D01*
X186102519Y-92191086D01*
X185902275Y-92009500D01*
X190198200Y-92009500D01*
X190119000Y-92074498D01*
X190095202Y-92103496D01*
X186474000Y-95724699D01*
X186474000Y-95553165D01*
X186418853Y-95275926D01*
X186310680Y-95014773D01*
X186153637Y-94779741D01*
X185953759Y-94579863D01*
X185718727Y-94422820D01*
X185708135Y-94418433D01*
X185894131Y-94306885D01*
X186102519Y-94117914D01*
X186270037Y-93891920D01*
X186390246Y-93637587D01*
X186430904Y-93503539D01*
X186308915Y-93281500D01*
X185166000Y-93281500D01*
X185166000Y-93301500D01*
X184912000Y-93301500D01*
X184912000Y-93281500D01*
X183769085Y-93281500D01*
X183647096Y-93503539D01*
X183687754Y-93637587D01*
X183807963Y-93891920D01*
X183975481Y-94117914D01*
X184183869Y-94306885D01*
X184369865Y-94418433D01*
X184359273Y-94422820D01*
X184124241Y-94579863D01*
X183924363Y-94779741D01*
X183767320Y-95014773D01*
X183659147Y-95275926D01*
X183604000Y-95553165D01*
X183604000Y-95835835D01*
X183659147Y-96113074D01*
X183767320Y-96374227D01*
X183924363Y-96609259D01*
X184124241Y-96809137D01*
X184356759Y-96964500D01*
X184124241Y-97119863D01*
X183924363Y-97319741D01*
X183767320Y-97554773D01*
X183659147Y-97815926D01*
X183604000Y-98093165D01*
X183604000Y-98375835D01*
X183659147Y-98653074D01*
X183767320Y-98914227D01*
X183924363Y-99149259D01*
X184122961Y-99347857D01*
X184114518Y-99348688D01*
X183994820Y-99384998D01*
X183884506Y-99443963D01*
X183787815Y-99523315D01*
X183708463Y-99620006D01*
X183649498Y-99730320D01*
X183613188Y-99850018D01*
X183600928Y-99974500D01*
X183600928Y-101574500D01*
X183613188Y-101698982D01*
X183649498Y-101818680D01*
X183708463Y-101928994D01*
X183787815Y-102025685D01*
X183884506Y-102105037D01*
X183994820Y-102164002D01*
X184114518Y-102200312D01*
X184239000Y-102212572D01*
X185839000Y-102212572D01*
X185963482Y-102200312D01*
X186083180Y-102164002D01*
X186193494Y-102105037D01*
X186290185Y-102025685D01*
X186369537Y-101928994D01*
X186428502Y-101818680D01*
X186464812Y-101698982D01*
X186477072Y-101574500D01*
X186477072Y-101173229D01*
X191297928Y-96352374D01*
X191297928Y-97179500D01*
X191310188Y-97303982D01*
X191346498Y-97423680D01*
X191405463Y-97533994D01*
X191484815Y-97630685D01*
X191581506Y-97710037D01*
X191691820Y-97769002D01*
X191811518Y-97805312D01*
X191936000Y-97817572D01*
X193636000Y-97817572D01*
X193760482Y-97805312D01*
X193880180Y-97769002D01*
X193990494Y-97710037D01*
X194087185Y-97630685D01*
X194166537Y-97533994D01*
X194225502Y-97423680D01*
X194261812Y-97303982D01*
X194274072Y-97179500D01*
X194274072Y-95916230D01*
X194472005Y-95718297D01*
X194501002Y-95694500D01*
X194595975Y-95578775D01*
X194666547Y-95446746D01*
X194710004Y-95303485D01*
X194721001Y-95191832D01*
X194721001Y-95191823D01*
X194724677Y-95154500D01*
X194721001Y-95117177D01*
X194721001Y-93262821D01*
X194724677Y-93225498D01*
X194721001Y-93188175D01*
X194721001Y-93188166D01*
X194710004Y-93076513D01*
X194666547Y-92933252D01*
X194595975Y-92801223D01*
X194573202Y-92773474D01*
X194524800Y-92714495D01*
X194524796Y-92714491D01*
X194501002Y-92685498D01*
X194472009Y-92661704D01*
X193966296Y-92155992D01*
X194101990Y-91952911D01*
X194213932Y-91682658D01*
X194271000Y-91395760D01*
X194271000Y-91103240D01*
X194213932Y-90816342D01*
X194101990Y-90546089D01*
X193939475Y-90302868D01*
X193732632Y-90096025D01*
X193558240Y-89979500D01*
X193732632Y-89862975D01*
X193939475Y-89656132D01*
X194101990Y-89412911D01*
X194213932Y-89142658D01*
X194271000Y-88855760D01*
X194271000Y-88743801D01*
X194365799Y-88649002D01*
X194436974Y-88562277D01*
X194507546Y-88430247D01*
X194551002Y-88286987D01*
X194565676Y-88138001D01*
X194551002Y-87989015D01*
X194507546Y-87845754D01*
X194436974Y-87713724D01*
X194342001Y-87597999D01*
X194226276Y-87503026D01*
X194094246Y-87432454D01*
X193950985Y-87388998D01*
X193801999Y-87374324D01*
X193653013Y-87388998D01*
X193617865Y-87399660D01*
X193732632Y-87322975D01*
X193939475Y-87116132D01*
X194101990Y-86872911D01*
X194213932Y-86602658D01*
X194271000Y-86315760D01*
X194271000Y-86023240D01*
X194213932Y-85736342D01*
X194101990Y-85466089D01*
X193939475Y-85222868D01*
X193768168Y-85051561D01*
X202228500Y-85051561D01*
X202228500Y-85255439D01*
X202268274Y-85455398D01*
X202346295Y-85643756D01*
X202459563Y-85813274D01*
X202603726Y-85957437D01*
X202773244Y-86070705D01*
X202961602Y-86148726D01*
X203161561Y-86188500D01*
X203365439Y-86188500D01*
X203565398Y-86148726D01*
X203753756Y-86070705D01*
X203923274Y-85957437D01*
X203967211Y-85913500D01*
X222308289Y-85913500D01*
X222352226Y-85957437D01*
X222521744Y-86070705D01*
X222710102Y-86148726D01*
X222910061Y-86188500D01*
X223113939Y-86188500D01*
X223313898Y-86148726D01*
X223502256Y-86070705D01*
X223671774Y-85957437D01*
X223815937Y-85813274D01*
X223929205Y-85643756D01*
X224007226Y-85455398D01*
X224047000Y-85255439D01*
X224047000Y-85051561D01*
X224007226Y-84851602D01*
X223929205Y-84663244D01*
X223815937Y-84493726D01*
X223671774Y-84349563D01*
X223558450Y-84273843D01*
X223629459Y-84167571D01*
X223725195Y-83936445D01*
X223774000Y-83691084D01*
X223774000Y-83440916D01*
X223725195Y-83195555D01*
X223629459Y-82964429D01*
X223490473Y-82756422D01*
X223313578Y-82579527D01*
X223105571Y-82440541D01*
X222874445Y-82344805D01*
X222629084Y-82296000D01*
X222378916Y-82296000D01*
X222133555Y-82344805D01*
X221902429Y-82440541D01*
X221694422Y-82579527D01*
X221517527Y-82756422D01*
X221378541Y-82964429D01*
X221282805Y-83195555D01*
X221234000Y-83440916D01*
X221234000Y-83691084D01*
X221282805Y-83936445D01*
X221378541Y-84167571D01*
X221517527Y-84375578D01*
X221535449Y-84393500D01*
X215852551Y-84393500D01*
X215870473Y-84375578D01*
X216009459Y-84167571D01*
X216105195Y-83936445D01*
X216154000Y-83691084D01*
X216154000Y-83440916D01*
X216105195Y-83195555D01*
X216009459Y-82964429D01*
X215870473Y-82756422D01*
X215693578Y-82579527D01*
X215485571Y-82440541D01*
X215254445Y-82344805D01*
X215009084Y-82296000D01*
X214758916Y-82296000D01*
X214513555Y-82344805D01*
X214282429Y-82440541D01*
X214074422Y-82579527D01*
X213897527Y-82756422D01*
X213758541Y-82964429D01*
X213662805Y-83195555D01*
X213614000Y-83440916D01*
X213565195Y-83195555D01*
X213469459Y-82964429D01*
X213330473Y-82756422D01*
X213153578Y-82579527D01*
X212945571Y-82440541D01*
X212714445Y-82344805D01*
X212469084Y-82296000D01*
X212218916Y-82296000D01*
X211973555Y-82344805D01*
X211742429Y-82440541D01*
X211534422Y-82579527D01*
X211357527Y-82756422D01*
X211218541Y-82964429D01*
X211122805Y-83195555D01*
X211074000Y-83440916D01*
X211074000Y-83691084D01*
X211122805Y-83936445D01*
X211218541Y-84167571D01*
X211357527Y-84375578D01*
X211375449Y-84393500D01*
X208232551Y-84393500D01*
X208250473Y-84375578D01*
X208389459Y-84167571D01*
X208485195Y-83936445D01*
X208534000Y-83691084D01*
X208534000Y-83440916D01*
X208485195Y-83195555D01*
X208389459Y-82964429D01*
X208250473Y-82756422D01*
X208073578Y-82579527D01*
X207865571Y-82440541D01*
X207634445Y-82344805D01*
X207389084Y-82296000D01*
X207138916Y-82296000D01*
X206893555Y-82344805D01*
X206662429Y-82440541D01*
X206454422Y-82579527D01*
X206277527Y-82756422D01*
X206138541Y-82964429D01*
X206042805Y-83195555D01*
X205994000Y-83440916D01*
X205945195Y-83195555D01*
X205849459Y-82964429D01*
X205710473Y-82756422D01*
X205533578Y-82579527D01*
X205325571Y-82440541D01*
X205094445Y-82344805D01*
X204849084Y-82296000D01*
X204598916Y-82296000D01*
X204353555Y-82344805D01*
X204122429Y-82440541D01*
X203914422Y-82579527D01*
X203737527Y-82756422D01*
X203598541Y-82964429D01*
X203502805Y-83195555D01*
X203454000Y-83440916D01*
X203454000Y-83691084D01*
X203502805Y-83936445D01*
X203598541Y-84167571D01*
X203602635Y-84173698D01*
X203565398Y-84158274D01*
X203365439Y-84118500D01*
X203161561Y-84118500D01*
X202961602Y-84158274D01*
X202773244Y-84236295D01*
X202603726Y-84349563D01*
X202459563Y-84493726D01*
X202346295Y-84663244D01*
X202268274Y-84851602D01*
X202228500Y-85051561D01*
X193768168Y-85051561D01*
X193732632Y-85016025D01*
X193558240Y-84899500D01*
X193732632Y-84782975D01*
X193939475Y-84576132D01*
X194101990Y-84332911D01*
X194213932Y-84062658D01*
X194271000Y-83775760D01*
X194271000Y-83483240D01*
X194213932Y-83196342D01*
X194101990Y-82926089D01*
X193939475Y-82682868D01*
X193732632Y-82476025D01*
X193558240Y-82359500D01*
X193732632Y-82242975D01*
X193939475Y-82036132D01*
X194101990Y-81792911D01*
X194213932Y-81522658D01*
X194271000Y-81235760D01*
X194271000Y-80943240D01*
X194213932Y-80656342D01*
X194101990Y-80386089D01*
X193939475Y-80142868D01*
X193732632Y-79936025D01*
X193558240Y-79819500D01*
X193732632Y-79702975D01*
X193939475Y-79496132D01*
X194101990Y-79252911D01*
X194213932Y-78982658D01*
X194271000Y-78695760D01*
X194271000Y-78678416D01*
X205994000Y-78678416D01*
X205994000Y-78928584D01*
X206042805Y-79173945D01*
X206138541Y-79405071D01*
X206277527Y-79613078D01*
X206454422Y-79789973D01*
X206662429Y-79928959D01*
X206893555Y-80024695D01*
X207138916Y-80073500D01*
X207389084Y-80073500D01*
X207634445Y-80024695D01*
X207865571Y-79928959D01*
X208073578Y-79789973D01*
X208250473Y-79613078D01*
X208389459Y-79405071D01*
X208485195Y-79173945D01*
X208534000Y-78928584D01*
X208582805Y-79173945D01*
X208678541Y-79405071D01*
X208817527Y-79613078D01*
X208994422Y-79789973D01*
X209202429Y-79928959D01*
X209433555Y-80024695D01*
X209678916Y-80073500D01*
X209929084Y-80073500D01*
X210174445Y-80024695D01*
X210405571Y-79928959D01*
X210613578Y-79789973D01*
X210790473Y-79613078D01*
X210929459Y-79405071D01*
X211025195Y-79173945D01*
X211074000Y-78928584D01*
X211122805Y-79173945D01*
X211218541Y-79405071D01*
X211357527Y-79613078D01*
X211534422Y-79789973D01*
X211742429Y-79928959D01*
X211973555Y-80024695D01*
X212218916Y-80073500D01*
X212469084Y-80073500D01*
X212714445Y-80024695D01*
X212945571Y-79928959D01*
X213153578Y-79789973D01*
X213330473Y-79613078D01*
X213469459Y-79405071D01*
X213565195Y-79173945D01*
X213614000Y-78928584D01*
X213662805Y-79173945D01*
X213758541Y-79405071D01*
X213897527Y-79613078D01*
X214074422Y-79789973D01*
X214282429Y-79928959D01*
X214513555Y-80024695D01*
X214758916Y-80073500D01*
X215009084Y-80073500D01*
X215254445Y-80024695D01*
X215485571Y-79928959D01*
X215693578Y-79789973D01*
X215870473Y-79613078D01*
X216009459Y-79405071D01*
X216105195Y-79173945D01*
X216154000Y-78928584D01*
X216202805Y-79173945D01*
X216298541Y-79405071D01*
X216437527Y-79613078D01*
X216614422Y-79789973D01*
X216822429Y-79928959D01*
X217053555Y-80024695D01*
X217298916Y-80073500D01*
X217549084Y-80073500D01*
X217794445Y-80024695D01*
X218025571Y-79928959D01*
X218233578Y-79789973D01*
X218410473Y-79613078D01*
X218549459Y-79405071D01*
X218645195Y-79173945D01*
X218694000Y-78928584D01*
X218742805Y-79173945D01*
X218838541Y-79405071D01*
X218977527Y-79613078D01*
X219154422Y-79789973D01*
X219362429Y-79928959D01*
X219593555Y-80024695D01*
X219838916Y-80073500D01*
X220089084Y-80073500D01*
X220334445Y-80024695D01*
X220565571Y-79928959D01*
X220773578Y-79789973D01*
X220950473Y-79613078D01*
X221089459Y-79405071D01*
X221185195Y-79173945D01*
X221234000Y-78928584D01*
X221282805Y-79173945D01*
X221378541Y-79405071D01*
X221517527Y-79613078D01*
X221694422Y-79789973D01*
X221902429Y-79928959D01*
X222133555Y-80024695D01*
X222378916Y-80073500D01*
X222629084Y-80073500D01*
X222874445Y-80024695D01*
X223105571Y-79928959D01*
X223313578Y-79789973D01*
X223490473Y-79613078D01*
X223629459Y-79405071D01*
X223725195Y-79173945D01*
X223774000Y-78928584D01*
X223774000Y-78678416D01*
X223725195Y-78433055D01*
X223629459Y-78201929D01*
X223490473Y-77993922D01*
X223313578Y-77817027D01*
X223105571Y-77678041D01*
X222874445Y-77582305D01*
X222629084Y-77533500D01*
X222378916Y-77533500D01*
X222133555Y-77582305D01*
X221902429Y-77678041D01*
X221694422Y-77817027D01*
X221517527Y-77993922D01*
X221378541Y-78201929D01*
X221282805Y-78433055D01*
X221234000Y-78678416D01*
X221185195Y-78433055D01*
X221089459Y-78201929D01*
X220950473Y-77993922D01*
X220773578Y-77817027D01*
X220565571Y-77678041D01*
X220334445Y-77582305D01*
X220089084Y-77533500D01*
X219838916Y-77533500D01*
X219593555Y-77582305D01*
X219362429Y-77678041D01*
X219154422Y-77817027D01*
X218977527Y-77993922D01*
X218838541Y-78201929D01*
X218742805Y-78433055D01*
X218694000Y-78678416D01*
X218645195Y-78433055D01*
X218549459Y-78201929D01*
X218410473Y-77993922D01*
X218233578Y-77817027D01*
X218025571Y-77678041D01*
X217794445Y-77582305D01*
X217549084Y-77533500D01*
X217298916Y-77533500D01*
X217053555Y-77582305D01*
X216822429Y-77678041D01*
X216614422Y-77817027D01*
X216437527Y-77993922D01*
X216298541Y-78201929D01*
X216202805Y-78433055D01*
X216154000Y-78678416D01*
X216105195Y-78433055D01*
X216009459Y-78201929D01*
X215870473Y-77993922D01*
X215693578Y-77817027D01*
X215485571Y-77678041D01*
X215254445Y-77582305D01*
X215009084Y-77533500D01*
X214758916Y-77533500D01*
X214513555Y-77582305D01*
X214282429Y-77678041D01*
X214074422Y-77817027D01*
X213897527Y-77993922D01*
X213758541Y-78201929D01*
X213662805Y-78433055D01*
X213614000Y-78678416D01*
X213565195Y-78433055D01*
X213469459Y-78201929D01*
X213330473Y-77993922D01*
X213153578Y-77817027D01*
X212945571Y-77678041D01*
X212714445Y-77582305D01*
X212469084Y-77533500D01*
X212218916Y-77533500D01*
X211973555Y-77582305D01*
X211742429Y-77678041D01*
X211534422Y-77817027D01*
X211357527Y-77993922D01*
X211218541Y-78201929D01*
X211122805Y-78433055D01*
X211074000Y-78678416D01*
X211025195Y-78433055D01*
X210929459Y-78201929D01*
X210790473Y-77993922D01*
X210613578Y-77817027D01*
X210405571Y-77678041D01*
X210174445Y-77582305D01*
X209929084Y-77533500D01*
X209678916Y-77533500D01*
X209433555Y-77582305D01*
X209202429Y-77678041D01*
X208994422Y-77817027D01*
X208817527Y-77993922D01*
X208678541Y-78201929D01*
X208582805Y-78433055D01*
X208534000Y-78678416D01*
X208485195Y-78433055D01*
X208389459Y-78201929D01*
X208250473Y-77993922D01*
X208073578Y-77817027D01*
X207865571Y-77678041D01*
X207634445Y-77582305D01*
X207389084Y-77533500D01*
X207138916Y-77533500D01*
X206893555Y-77582305D01*
X206662429Y-77678041D01*
X206454422Y-77817027D01*
X206277527Y-77993922D01*
X206138541Y-78201929D01*
X206042805Y-78433055D01*
X205994000Y-78678416D01*
X194271000Y-78678416D01*
X194271000Y-78403240D01*
X194213932Y-78116342D01*
X194101990Y-77846089D01*
X193939475Y-77602868D01*
X193732632Y-77396025D01*
X193489411Y-77233510D01*
X193219158Y-77121568D01*
X192932260Y-77064500D01*
X192639740Y-77064500D01*
X192352842Y-77121568D01*
X192082589Y-77233510D01*
X191839368Y-77396025D01*
X191632525Y-77602868D01*
X191470010Y-77846089D01*
X191358068Y-78116342D01*
X191301000Y-78403240D01*
X191301000Y-78695760D01*
X191358068Y-78982658D01*
X191470010Y-79252911D01*
X191632525Y-79496132D01*
X191839368Y-79702975D01*
X192013760Y-79819500D01*
X191839368Y-79936025D01*
X191632525Y-80142868D01*
X191470010Y-80386089D01*
X191358068Y-80656342D01*
X191301000Y-80943240D01*
X191301000Y-81235760D01*
X191358068Y-81522658D01*
X191470010Y-81792911D01*
X191632525Y-82036132D01*
X191839368Y-82242975D01*
X192013760Y-82359500D01*
X191839368Y-82476025D01*
X191632525Y-82682868D01*
X191507822Y-82869500D01*
X188147802Y-82869500D01*
X187217000Y-81938699D01*
X187217000Y-81876561D01*
X187177226Y-81676602D01*
X187099205Y-81488244D01*
X186985937Y-81318726D01*
X186841774Y-81174563D01*
X186672256Y-81061295D01*
X186483898Y-80983274D01*
X186381633Y-80962932D01*
X186418853Y-80873074D01*
X186474000Y-80595835D01*
X186474000Y-80313165D01*
X186418853Y-80035926D01*
X186362550Y-79899999D01*
X188919679Y-79899999D01*
X188957001Y-79903675D01*
X188994323Y-79899999D01*
X188994334Y-79899999D01*
X189105987Y-79889002D01*
X189249248Y-79845545D01*
X189381226Y-79775000D01*
X189458939Y-79775000D01*
X189658898Y-79735226D01*
X189847256Y-79657205D01*
X190016774Y-79543937D01*
X190160937Y-79399774D01*
X190274205Y-79230256D01*
X190352226Y-79041898D01*
X190392000Y-78841939D01*
X190392000Y-78638061D01*
X190352226Y-78438102D01*
X190274205Y-78249744D01*
X190160937Y-78080226D01*
X190016774Y-77936063D01*
X189847256Y-77822795D01*
X189658898Y-77744774D01*
X189458939Y-77705000D01*
X189255061Y-77705000D01*
X189055102Y-77744774D01*
X188866744Y-77822795D01*
X188697226Y-77936063D01*
X188553063Y-78080226D01*
X188439795Y-78249744D01*
X188385841Y-78379999D01*
X186399416Y-78379999D01*
X186418853Y-78333074D01*
X186474000Y-78055835D01*
X186474000Y-77773165D01*
X186418853Y-77495926D01*
X186310680Y-77234773D01*
X186153637Y-76999741D01*
X185953759Y-76799863D01*
X185721241Y-76644500D01*
X185953759Y-76489137D01*
X186153637Y-76289259D01*
X186310680Y-76054227D01*
X186418853Y-75793074D01*
X186474000Y-75515835D01*
X186474000Y-75233165D01*
X186418853Y-74955926D01*
X186310680Y-74694773D01*
X186153637Y-74459741D01*
X185953759Y-74259863D01*
X185721241Y-74104500D01*
X185953759Y-73949137D01*
X186153637Y-73749259D01*
X186310680Y-73514227D01*
X186418853Y-73253074D01*
X186474000Y-72975835D01*
X186474000Y-72693165D01*
X186418853Y-72415926D01*
X186310680Y-72154773D01*
X186153637Y-71919741D01*
X185953759Y-71719863D01*
X185721241Y-71564500D01*
X185953759Y-71409137D01*
X185996483Y-71366413D01*
X188989192Y-71366413D01*
X189084956Y-71630814D01*
X189374571Y-71771704D01*
X189686108Y-71853384D01*
X190007595Y-71872718D01*
X190326675Y-71828961D01*
X190631088Y-71723795D01*
X190805044Y-71630814D01*
X190900808Y-71366413D01*
X189945000Y-70410605D01*
X188989192Y-71366413D01*
X185996483Y-71366413D01*
X186153637Y-71209259D01*
X186310680Y-70974227D01*
X186418853Y-70713074D01*
X186474000Y-70435835D01*
X186474000Y-70293595D01*
X188303282Y-70293595D01*
X188347039Y-70612675D01*
X188452205Y-70917088D01*
X188545186Y-71091044D01*
X188809587Y-71186808D01*
X189765395Y-70231000D01*
X190124605Y-70231000D01*
X191080413Y-71186808D01*
X191344814Y-71091044D01*
X191485704Y-70801429D01*
X191567384Y-70489892D01*
X191586718Y-70168405D01*
X191542961Y-69849325D01*
X191437795Y-69544912D01*
X191344814Y-69370956D01*
X191080413Y-69275192D01*
X190124605Y-70231000D01*
X189765395Y-70231000D01*
X188809587Y-69275192D01*
X188545186Y-69370956D01*
X188404296Y-69660571D01*
X188322616Y-69972108D01*
X188303282Y-70293595D01*
X186474000Y-70293595D01*
X186474000Y-70153165D01*
X186418853Y-69875926D01*
X186310680Y-69614773D01*
X186153637Y-69379741D01*
X185953759Y-69179863D01*
X185827631Y-69095587D01*
X188989192Y-69095587D01*
X189945000Y-70051395D01*
X190765395Y-69231000D01*
X193306928Y-69231000D01*
X193306928Y-71231000D01*
X193319188Y-71355482D01*
X193355498Y-71475180D01*
X193414463Y-71585494D01*
X193493815Y-71682185D01*
X193590506Y-71761537D01*
X193700820Y-71820502D01*
X193820518Y-71856812D01*
X193945000Y-71869072D01*
X195945000Y-71869072D01*
X196069482Y-71856812D01*
X196189180Y-71820502D01*
X196299494Y-71761537D01*
X196396185Y-71682185D01*
X196475537Y-71585494D01*
X196534502Y-71475180D01*
X196570812Y-71355482D01*
X196583072Y-71231000D01*
X196583072Y-69231000D01*
X196570812Y-69106518D01*
X196534502Y-68986820D01*
X196475537Y-68876506D01*
X196396185Y-68779815D01*
X196299494Y-68700463D01*
X196189180Y-68641498D01*
X196069482Y-68605188D01*
X195945000Y-68592928D01*
X193945000Y-68592928D01*
X193820518Y-68605188D01*
X193700820Y-68641498D01*
X193590506Y-68700463D01*
X193493815Y-68779815D01*
X193414463Y-68876506D01*
X193355498Y-68986820D01*
X193319188Y-69106518D01*
X193306928Y-69231000D01*
X190765395Y-69231000D01*
X190900808Y-69095587D01*
X190805044Y-68831186D01*
X190515429Y-68690296D01*
X190203892Y-68608616D01*
X189882405Y-68589282D01*
X189563325Y-68633039D01*
X189258912Y-68738205D01*
X189084956Y-68831186D01*
X188989192Y-69095587D01*
X185827631Y-69095587D01*
X185721241Y-69024500D01*
X185953759Y-68869137D01*
X186153637Y-68669259D01*
X186254426Y-68518416D01*
X203454000Y-68518416D01*
X203454000Y-68768584D01*
X203502805Y-69013945D01*
X203598541Y-69245071D01*
X203737527Y-69453078D01*
X203914422Y-69629973D01*
X204122429Y-69768959D01*
X204353555Y-69864695D01*
X204598916Y-69913500D01*
X204849084Y-69913500D01*
X205094445Y-69864695D01*
X205325571Y-69768959D01*
X205533578Y-69629973D01*
X205710473Y-69453078D01*
X205849459Y-69245071D01*
X205945195Y-69013945D01*
X205994000Y-68768584D01*
X206042805Y-69013945D01*
X206138541Y-69245071D01*
X206277527Y-69453078D01*
X206454422Y-69629973D01*
X206662429Y-69768959D01*
X206893555Y-69864695D01*
X207138916Y-69913500D01*
X207389084Y-69913500D01*
X207634445Y-69864695D01*
X207865571Y-69768959D01*
X208073578Y-69629973D01*
X208250473Y-69453078D01*
X208389459Y-69245071D01*
X208485195Y-69013945D01*
X208534000Y-68768584D01*
X208534000Y-68518416D01*
X211074000Y-68518416D01*
X211074000Y-68768584D01*
X211122805Y-69013945D01*
X211218541Y-69245071D01*
X211357527Y-69453078D01*
X211534422Y-69629973D01*
X211742429Y-69768959D01*
X211973555Y-69864695D01*
X212218916Y-69913500D01*
X212469084Y-69913500D01*
X212714445Y-69864695D01*
X212945571Y-69768959D01*
X213153578Y-69629973D01*
X213330473Y-69453078D01*
X213469459Y-69245071D01*
X213565195Y-69013945D01*
X213614000Y-68768584D01*
X213662805Y-69013945D01*
X213758541Y-69245071D01*
X213897527Y-69453078D01*
X214074422Y-69629973D01*
X214282429Y-69768959D01*
X214513555Y-69864695D01*
X214758916Y-69913500D01*
X215009084Y-69913500D01*
X215254445Y-69864695D01*
X215485571Y-69768959D01*
X215693578Y-69629973D01*
X215870473Y-69453078D01*
X216009459Y-69245071D01*
X216105195Y-69013945D01*
X216154000Y-68768584D01*
X216154000Y-68518416D01*
X221234000Y-68518416D01*
X221234000Y-68768584D01*
X221282805Y-69013945D01*
X221378541Y-69245071D01*
X221517527Y-69453078D01*
X221694422Y-69629973D01*
X221902429Y-69768959D01*
X222133555Y-69864695D01*
X222378916Y-69913500D01*
X222629084Y-69913500D01*
X222874445Y-69864695D01*
X223105571Y-69768959D01*
X223313578Y-69629973D01*
X223490473Y-69453078D01*
X223629459Y-69245071D01*
X223725195Y-69013945D01*
X223774000Y-68768584D01*
X223774000Y-68518416D01*
X223725195Y-68273055D01*
X223629459Y-68041929D01*
X223490473Y-67833922D01*
X223313578Y-67657027D01*
X223105571Y-67518041D01*
X222874445Y-67422305D01*
X222629084Y-67373500D01*
X222378916Y-67373500D01*
X222133555Y-67422305D01*
X221902429Y-67518041D01*
X221694422Y-67657027D01*
X221517527Y-67833922D01*
X221378541Y-68041929D01*
X221282805Y-68273055D01*
X221234000Y-68518416D01*
X216154000Y-68518416D01*
X216105195Y-68273055D01*
X216009459Y-68041929D01*
X215870473Y-67833922D01*
X215693578Y-67657027D01*
X215485571Y-67518041D01*
X215254445Y-67422305D01*
X215009084Y-67373500D01*
X214758916Y-67373500D01*
X214513555Y-67422305D01*
X214282429Y-67518041D01*
X214074422Y-67657027D01*
X213897527Y-67833922D01*
X213758541Y-68041929D01*
X213662805Y-68273055D01*
X213614000Y-68518416D01*
X213565195Y-68273055D01*
X213469459Y-68041929D01*
X213330473Y-67833922D01*
X213153578Y-67657027D01*
X212945571Y-67518041D01*
X212714445Y-67422305D01*
X212469084Y-67373500D01*
X212218916Y-67373500D01*
X211973555Y-67422305D01*
X211742429Y-67518041D01*
X211534422Y-67657027D01*
X211357527Y-67833922D01*
X211218541Y-68041929D01*
X211122805Y-68273055D01*
X211074000Y-68518416D01*
X208534000Y-68518416D01*
X208485195Y-68273055D01*
X208389459Y-68041929D01*
X208250473Y-67833922D01*
X208073578Y-67657027D01*
X207865571Y-67518041D01*
X207634445Y-67422305D01*
X207389084Y-67373500D01*
X207138916Y-67373500D01*
X206893555Y-67422305D01*
X206662429Y-67518041D01*
X206454422Y-67657027D01*
X206277527Y-67833922D01*
X206138541Y-68041929D01*
X206042805Y-68273055D01*
X205994000Y-68518416D01*
X205945195Y-68273055D01*
X205849459Y-68041929D01*
X205710473Y-67833922D01*
X205533578Y-67657027D01*
X205325571Y-67518041D01*
X205094445Y-67422305D01*
X204849084Y-67373500D01*
X204598916Y-67373500D01*
X204353555Y-67422305D01*
X204122429Y-67518041D01*
X203914422Y-67657027D01*
X203737527Y-67833922D01*
X203598541Y-68041929D01*
X203502805Y-68273055D01*
X203454000Y-68518416D01*
X186254426Y-68518416D01*
X186310680Y-68434227D01*
X186418853Y-68173074D01*
X186474000Y-67895835D01*
X186474000Y-67613165D01*
X186418853Y-67335926D01*
X186310680Y-67074773D01*
X186153637Y-66839741D01*
X185953759Y-66639863D01*
X185721241Y-66484500D01*
X185953759Y-66329137D01*
X186153637Y-66129259D01*
X186310680Y-65894227D01*
X186418853Y-65633074D01*
X186474000Y-65355835D01*
X186474000Y-65073165D01*
X186418853Y-64795926D01*
X186310680Y-64534773D01*
X186153637Y-64299741D01*
X185953759Y-64099863D01*
X185819981Y-64010475D01*
X222892000Y-64010475D01*
X222892000Y-64529525D01*
X222993261Y-65038601D01*
X223191893Y-65518141D01*
X223480262Y-65949715D01*
X223847285Y-66316738D01*
X224278859Y-66605107D01*
X224758399Y-66803739D01*
X225267475Y-66905000D01*
X225786525Y-66905000D01*
X226295601Y-66803739D01*
X226775141Y-66605107D01*
X227206715Y-66316738D01*
X227573738Y-65949715D01*
X227862107Y-65518141D01*
X228060739Y-65038601D01*
X228162000Y-64529525D01*
X228162000Y-64010475D01*
X228060739Y-63501399D01*
X227862107Y-63021859D01*
X227573738Y-62590285D01*
X227206715Y-62223262D01*
X226775141Y-61934893D01*
X226295601Y-61736261D01*
X225786525Y-61635000D01*
X225267475Y-61635000D01*
X224758399Y-61736261D01*
X224278859Y-61934893D01*
X223847285Y-62223262D01*
X223480262Y-62590285D01*
X223191893Y-63021859D01*
X222993261Y-63501399D01*
X222892000Y-64010475D01*
X185819981Y-64010475D01*
X185718727Y-63942820D01*
X185457574Y-63834647D01*
X185180335Y-63779500D01*
X184897665Y-63779500D01*
X184620426Y-63834647D01*
X184359273Y-63942820D01*
X184124241Y-64099863D01*
X183924363Y-64299741D01*
X183767320Y-64534773D01*
X183659147Y-64795926D01*
X183604000Y-65073165D01*
X183604000Y-65355835D01*
X183659147Y-65633074D01*
X183767320Y-65894227D01*
X183924363Y-66129259D01*
X184124241Y-66329137D01*
X184356759Y-66484500D01*
X184124241Y-66639863D01*
X183924363Y-66839741D01*
X183767320Y-67074773D01*
X183659147Y-67335926D01*
X183604000Y-67613165D01*
X183604000Y-67895835D01*
X183659147Y-68173074D01*
X183767320Y-68434227D01*
X183924363Y-68669259D01*
X184124241Y-68869137D01*
X184356759Y-69024500D01*
X184124241Y-69179863D01*
X183924363Y-69379741D01*
X183767320Y-69614773D01*
X183659147Y-69875926D01*
X183604000Y-70153165D01*
X183604000Y-70435835D01*
X183659147Y-70713074D01*
X183767320Y-70974227D01*
X183924363Y-71209259D01*
X184124241Y-71409137D01*
X184356759Y-71564500D01*
X184124241Y-71719863D01*
X183924363Y-71919741D01*
X183767320Y-72154773D01*
X183659147Y-72415926D01*
X183604000Y-72693165D01*
X183604000Y-72975835D01*
X183659147Y-73253074D01*
X183767320Y-73514227D01*
X183924363Y-73749259D01*
X184124241Y-73949137D01*
X184356759Y-74104500D01*
X184124241Y-74259863D01*
X183924363Y-74459741D01*
X183767320Y-74694773D01*
X183659147Y-74955926D01*
X183604000Y-75233165D01*
X183604000Y-75515835D01*
X183659147Y-75793074D01*
X183767320Y-76054227D01*
X183924363Y-76289259D01*
X184124241Y-76489137D01*
X184356759Y-76644500D01*
X184124241Y-76799863D01*
X183924363Y-76999741D01*
X183767320Y-77234773D01*
X183659147Y-77495926D01*
X183604000Y-77773165D01*
X183604000Y-78055835D01*
X183659147Y-78333074D01*
X183767320Y-78594227D01*
X183924363Y-78829259D01*
X183924400Y-78829296D01*
X180337003Y-82416694D01*
X180307999Y-82440497D01*
X180267782Y-82489502D01*
X180213026Y-82556222D01*
X180169168Y-82638274D01*
X180142454Y-82688252D01*
X180098997Y-82831513D01*
X180088000Y-82943166D01*
X180088000Y-82943176D01*
X180084324Y-82980498D01*
X180088000Y-83017821D01*
X180088001Y-86164288D01*
X180044063Y-86208226D01*
X179930795Y-86377744D01*
X179852774Y-86566102D01*
X179813000Y-86766061D01*
X174645363Y-86766061D01*
X171197688Y-83318387D01*
X171234000Y-83135835D01*
X171234000Y-82853165D01*
X171178853Y-82575926D01*
X171070680Y-82314773D01*
X170913637Y-82079741D01*
X170713759Y-81879863D01*
X170481241Y-81724500D01*
X170713759Y-81569137D01*
X170913637Y-81369259D01*
X171070680Y-81134227D01*
X171178853Y-80873074D01*
X171234000Y-80595835D01*
X171234000Y-80313165D01*
X171178853Y-80035926D01*
X171070680Y-79774773D01*
X170913637Y-79539741D01*
X170713759Y-79339863D01*
X170481241Y-79184500D01*
X170713759Y-79029137D01*
X170913637Y-78829259D01*
X171070680Y-78594227D01*
X171178853Y-78333074D01*
X171234000Y-78055835D01*
X171234000Y-77773165D01*
X171178853Y-77495926D01*
X171070680Y-77234773D01*
X170913637Y-76999741D01*
X170713759Y-76799863D01*
X170481241Y-76644500D01*
X170713759Y-76489137D01*
X170913637Y-76289259D01*
X171070680Y-76054227D01*
X171178853Y-75793074D01*
X171234000Y-75515835D01*
X171234000Y-75233165D01*
X171178853Y-74955926D01*
X171070680Y-74694773D01*
X170913637Y-74459741D01*
X170713759Y-74259863D01*
X170481241Y-74104500D01*
X170713759Y-73949137D01*
X170913637Y-73749259D01*
X171070680Y-73514227D01*
X171178853Y-73253074D01*
X171234000Y-72975835D01*
X171234000Y-72693165D01*
X171178853Y-72415926D01*
X171070680Y-72154773D01*
X170913637Y-71919741D01*
X170713759Y-71719863D01*
X170481241Y-71564500D01*
X170713759Y-71409137D01*
X170913637Y-71209259D01*
X171070680Y-70974227D01*
X171178853Y-70713074D01*
X171234000Y-70435835D01*
X171234000Y-70153165D01*
X171178853Y-69875926D01*
X171070680Y-69614773D01*
X170913637Y-69379741D01*
X170713759Y-69179863D01*
X170481241Y-69024500D01*
X170713759Y-68869137D01*
X170913637Y-68669259D01*
X171070680Y-68434227D01*
X171178853Y-68173074D01*
X171234000Y-67895835D01*
X171234000Y-67613165D01*
X171178853Y-67335926D01*
X171070680Y-67074773D01*
X170913637Y-66839741D01*
X170713759Y-66639863D01*
X170481241Y-66484500D01*
X170713759Y-66329137D01*
X170913637Y-66129259D01*
X171070680Y-65894227D01*
X171178853Y-65633074D01*
X171234000Y-65355835D01*
X171234000Y-65073165D01*
X171178853Y-64795926D01*
X171070680Y-64534773D01*
X170913637Y-64299741D01*
X170713759Y-64099863D01*
X170478727Y-63942820D01*
X170217574Y-63834647D01*
X169940335Y-63779500D01*
X169657665Y-63779500D01*
X169380426Y-63834647D01*
X169119273Y-63942820D01*
X168884241Y-64099863D01*
X168684363Y-64299741D01*
X168527320Y-64534773D01*
X168419147Y-64795926D01*
X168364000Y-65073165D01*
X153904967Y-65073165D01*
X151807177Y-62975376D01*
X151813168Y-62960912D01*
X151876000Y-62645033D01*
X151876000Y-62449967D01*
X162004500Y-62449967D01*
X162004500Y-62772033D01*
X162067332Y-63087912D01*
X162190582Y-63385463D01*
X162369513Y-63653252D01*
X162597248Y-63880987D01*
X162865037Y-64059918D01*
X163162588Y-64183168D01*
X163478467Y-64246000D01*
X163800533Y-64246000D01*
X164116412Y-64183168D01*
X164413963Y-64059918D01*
X164681752Y-63880987D01*
X164909487Y-63653252D01*
X165088418Y-63385463D01*
X165211668Y-63087912D01*
X165274500Y-62772033D01*
X165274500Y-62449967D01*
X165211668Y-62134088D01*
X165088418Y-61836537D01*
X164909487Y-61568748D01*
X164681752Y-61341013D01*
X164413963Y-61162082D01*
X164116412Y-61038832D01*
X163800533Y-60976000D01*
X163478467Y-60976000D01*
X163162588Y-61038832D01*
X162865037Y-61162082D01*
X162597248Y-61341013D01*
X162369513Y-61568748D01*
X162190582Y-61836537D01*
X162067332Y-62134088D01*
X162004500Y-62449967D01*
X151876000Y-62449967D01*
X151876000Y-62322967D01*
X151813168Y-62007088D01*
X151689918Y-61709537D01*
X151510987Y-61441748D01*
X151283252Y-61214013D01*
X151015463Y-61035082D01*
X150717912Y-60911832D01*
X150402033Y-60849000D01*
X150079967Y-60849000D01*
X149764088Y-60911832D01*
X149466537Y-61035082D01*
X149198748Y-61214013D01*
X148971013Y-61441748D01*
X148792082Y-61709537D01*
X148668832Y-62007088D01*
X148606000Y-62322967D01*
X146008739Y-62322967D01*
X145971168Y-62134088D01*
X145847918Y-61836537D01*
X145668987Y-61568748D01*
X145441252Y-61341013D01*
X145173463Y-61162082D01*
X144875912Y-61038832D01*
X144560033Y-60976000D01*
X144237967Y-60976000D01*
X143922088Y-61038832D01*
X143624537Y-61162082D01*
X143356748Y-61341013D01*
X143129013Y-61568748D01*
X142950082Y-61836537D01*
X142826832Y-62134088D01*
X142764000Y-62449967D01*
X129635000Y-62449967D01*
X129635000Y-61970475D01*
X129533739Y-61461399D01*
X129335107Y-60981859D01*
X129046738Y-60550285D01*
X128679715Y-60183262D01*
X128248141Y-59894893D01*
X127768601Y-59696261D01*
X127259525Y-59595000D01*
X126740475Y-59595000D01*
X126231399Y-59696261D01*
X125751859Y-59894893D01*
X125320285Y-60183262D01*
X124953262Y-60550285D01*
X124664893Y-60981859D01*
X124466261Y-61461399D01*
X124365000Y-61970475D01*
X120040000Y-61970475D01*
X120040000Y-57810000D01*
X230480000Y-57810000D01*
X230480001Y-117450000D01*
G37*
X230480001Y-117450000D02*
X120040000Y-117450000D01*
X120040000Y-112770475D01*
X121825000Y-112770475D01*
X121825000Y-113289525D01*
X121926261Y-113798601D01*
X122124893Y-114278141D01*
X122413262Y-114709715D01*
X122780285Y-115076738D01*
X123211859Y-115365107D01*
X123691399Y-115563739D01*
X124200475Y-115665000D01*
X124719525Y-115665000D01*
X125228601Y-115563739D01*
X125708141Y-115365107D01*
X126139715Y-115076738D01*
X126506738Y-114709715D01*
X126795107Y-114278141D01*
X126905977Y-114010475D01*
X222892000Y-114010475D01*
X222892000Y-114529525D01*
X222993261Y-115038601D01*
X223191893Y-115518141D01*
X223480262Y-115949715D01*
X223847285Y-116316738D01*
X224278859Y-116605107D01*
X224758399Y-116803739D01*
X225267475Y-116905000D01*
X225786525Y-116905000D01*
X226295601Y-116803739D01*
X226775141Y-116605107D01*
X227206715Y-116316738D01*
X227573738Y-115949715D01*
X227862107Y-115518141D01*
X228060739Y-115038601D01*
X228162000Y-114529525D01*
X228162000Y-114010475D01*
X228060739Y-113501399D01*
X227862107Y-113021859D01*
X227573738Y-112590285D01*
X227206715Y-112223262D01*
X226775141Y-111934893D01*
X226295601Y-111736261D01*
X225786525Y-111635000D01*
X225267475Y-111635000D01*
X224758399Y-111736261D01*
X224278859Y-111934893D01*
X223847285Y-112223262D01*
X223480262Y-112590285D01*
X223191893Y-113021859D01*
X222993261Y-113501399D01*
X222892000Y-114010475D01*
X126905977Y-114010475D01*
X126993739Y-113798601D01*
X127095000Y-113289525D01*
X127095000Y-112770475D01*
X126993739Y-112261399D01*
X126795107Y-111781859D01*
X126506738Y-111350285D01*
X126139715Y-110983262D01*
X125708141Y-110694893D01*
X125228601Y-110496261D01*
X124719525Y-110395000D01*
X124200475Y-110395000D01*
X123691399Y-110496261D01*
X123211859Y-110694893D01*
X122780285Y-110983262D01*
X122413262Y-111350285D01*
X122124893Y-111781859D01*
X121926261Y-112261399D01*
X121825000Y-112770475D01*
X120040000Y-112770475D01*
X120040000Y-108442142D01*
X199520016Y-108442142D01*
X199520016Y-108646020D01*
X199559790Y-108845979D01*
X199637811Y-109034337D01*
X199751079Y-109203855D01*
X199863809Y-109316585D01*
X199846263Y-109404798D01*
X199846263Y-109608676D01*
X199886037Y-109808635D01*
X199964058Y-109996993D01*
X200077326Y-110166511D01*
X200221489Y-110310674D01*
X200391007Y-110423942D01*
X200579365Y-110501963D01*
X200779324Y-110541737D01*
X200983202Y-110541737D01*
X201183161Y-110501963D01*
X201371519Y-110423942D01*
X201541037Y-110310674D01*
X201685200Y-110166511D01*
X201798468Y-109996993D01*
X201876489Y-109808635D01*
X201916263Y-109608676D01*
X201916263Y-109546539D01*
X202625803Y-108837000D01*
X206560289Y-108837000D01*
X206604226Y-108880937D01*
X206773744Y-108994205D01*
X206962102Y-109072226D01*
X207162061Y-109112000D01*
X207365939Y-109112000D01*
X207565898Y-109072226D01*
X207754256Y-108994205D01*
X207923774Y-108880937D01*
X208067937Y-108736774D01*
X208181205Y-108567256D01*
X208259226Y-108378898D01*
X208299000Y-108178939D01*
X208299000Y-107975061D01*
X208259226Y-107775102D01*
X208181205Y-107586744D01*
X208067937Y-107417226D01*
X207923774Y-107273063D01*
X207754256Y-107159795D01*
X207565898Y-107081774D01*
X207365939Y-107042000D01*
X207162061Y-107042000D01*
X206962102Y-107081774D01*
X206773744Y-107159795D01*
X206604226Y-107273063D01*
X206560289Y-107317000D01*
X202856898Y-107317000D01*
X206949503Y-103224396D01*
X206978501Y-103200598D01*
X207073474Y-103084873D01*
X207144046Y-102952844D01*
X207187503Y-102809583D01*
X207198500Y-102697930D01*
X207198500Y-102697920D01*
X207202176Y-102660597D01*
X207198500Y-102623274D01*
X207198500Y-100208211D01*
X207242437Y-100164274D01*
X207355705Y-99994756D01*
X207433726Y-99806398D01*
X207473500Y-99606439D01*
X207473500Y-99402561D01*
X207433726Y-99202602D01*
X207355705Y-99014244D01*
X207242437Y-98844726D01*
X207098274Y-98700563D01*
X206928756Y-98587295D01*
X206740398Y-98509274D01*
X206540439Y-98469500D01*
X206336561Y-98469500D01*
X206136602Y-98509274D01*
X205948244Y-98587295D01*
X205778726Y-98700563D01*
X205634563Y-98844726D01*
X205521295Y-99014244D01*
X205443274Y-99202602D01*
X205403500Y-99402561D01*
X205403500Y-99606439D01*
X205443274Y-99806398D01*
X205521295Y-99994756D01*
X205634563Y-100164274D01*
X205678500Y-100208211D01*
X205678501Y-102345794D01*
X200515215Y-107509081D01*
X200453077Y-107509081D01*
X200253118Y-107548855D01*
X200064760Y-107626876D01*
X199895242Y-107740144D01*
X199751079Y-107884307D01*
X199637811Y-108053825D01*
X199559790Y-108242183D01*
X199520016Y-108442142D01*
X120040000Y-108442142D01*
X120040000Y-103806000D01*
X121011638Y-103806000D01*
X121043013Y-104124556D01*
X121135932Y-104430869D01*
X121286825Y-104713170D01*
X121489892Y-104960608D01*
X121737330Y-105163675D01*
X122019631Y-105314568D01*
X122325944Y-105407487D01*
X122564676Y-105431000D01*
X124704324Y-105431000D01*
X124943056Y-105407487D01*
X125249369Y-105314568D01*
X125531670Y-105163675D01*
X125779108Y-104960608D01*
X125982175Y-104713170D01*
X126133068Y-104430869D01*
X126225987Y-104124556D01*
X126257362Y-103806000D01*
X126225987Y-103487444D01*
X126133068Y-103181131D01*
X125982175Y-102898830D01*
X125779108Y-102651392D01*
X125531670Y-102448325D01*
X125249369Y-102297432D01*
X124943056Y-102204513D01*
X124704324Y-102181000D01*
X122564676Y-102181000D01*
X122325944Y-102204513D01*
X122019631Y-102297432D01*
X121737330Y-102448325D01*
X121489892Y-102651392D01*
X121286825Y-102898830D01*
X121135932Y-103181131D01*
X121043013Y-103487444D01*
X121011638Y-103806000D01*
X120040000Y-103806000D01*
X120040000Y-97816000D01*
X121016428Y-97816000D01*
X121016428Y-99796000D01*
X121028688Y-99920482D01*
X121064998Y-100040180D01*
X121123963Y-100150494D01*
X121203315Y-100247185D01*
X121300006Y-100326537D01*
X121410320Y-100385502D01*
X121530018Y-100421812D01*
X121654500Y-100434072D01*
X125614500Y-100434072D01*
X125738982Y-100421812D01*
X125858680Y-100385502D01*
X125968994Y-100326537D01*
X126065685Y-100247185D01*
X126145037Y-100150494D01*
X126204002Y-100040180D01*
X126240312Y-99920482D01*
X126252572Y-99796000D01*
X126252572Y-97816000D01*
X126240312Y-97691518D01*
X126204002Y-97571820D01*
X126145037Y-97461506D01*
X126065685Y-97364815D01*
X125968994Y-97285463D01*
X125858680Y-97226498D01*
X125738982Y-97190188D01*
X125614500Y-97177928D01*
X121654500Y-97177928D01*
X121530018Y-97190188D01*
X121410320Y-97226498D01*
X121300006Y-97285463D01*
X121203315Y-97364815D01*
X121123963Y-97461506D01*
X121064998Y-97571820D01*
X121028688Y-97691518D01*
X121016428Y-97816000D01*
X120040000Y-97816000D01*
X120040000Y-92025500D01*
X128548928Y-92025500D01*
X128548928Y-93775500D01*
X128578001Y-94070686D01*
X128664104Y-94354528D01*
X128803927Y-94616118D01*
X128992097Y-94845403D01*
X129221382Y-95033573D01*
X129482972Y-95173396D01*
X129766814Y-95259499D01*
X130062000Y-95288572D01*
X131812000Y-95288572D01*
X132107186Y-95259499D01*
X132391028Y-95173396D01*
X132652618Y-95033573D01*
X132881903Y-94845403D01*
X133070073Y-94616118D01*
X133209896Y-94354528D01*
X133287416Y-94098980D01*
X147634437Y-94098980D01*
X147705429Y-94317094D01*
X147849031Y-94592923D01*
X148043685Y-94835437D01*
X148281911Y-95035316D01*
X148554554Y-95184879D01*
X148851137Y-95278378D01*
X149098000Y-95151570D01*
X149098000Y-93853000D01*
X149352000Y-93853000D01*
X149352000Y-95151570D01*
X149598863Y-95278378D01*
X149895446Y-95184879D01*
X150168089Y-95035316D01*
X150406315Y-94835437D01*
X150600969Y-94592923D01*
X150744571Y-94317094D01*
X150815563Y-94098980D01*
X150695594Y-93853000D01*
X149352000Y-93853000D01*
X149098000Y-93853000D01*
X147754406Y-93853000D01*
X147634437Y-94098980D01*
X133287416Y-94098980D01*
X133295999Y-94070686D01*
X133325072Y-93775500D01*
X133325072Y-92025500D01*
X133295999Y-91730314D01*
X133209896Y-91446472D01*
X133070671Y-91186000D01*
X147582319Y-91186000D01*
X147612970Y-91497204D01*
X147703745Y-91796449D01*
X147851155Y-92072235D01*
X148049537Y-92313963D01*
X148228899Y-92461163D01*
X148043685Y-92616563D01*
X147849031Y-92859077D01*
X147705429Y-93134906D01*
X147634437Y-93353020D01*
X147754406Y-93599000D01*
X149098000Y-93599000D01*
X149098000Y-93579000D01*
X149352000Y-93579000D01*
X149352000Y-93599000D01*
X150695594Y-93599000D01*
X150815563Y-93353020D01*
X150763746Y-93193816D01*
X155945000Y-93193816D01*
X155945000Y-93496184D01*
X156003989Y-93792743D01*
X156119701Y-94072095D01*
X156287688Y-94323505D01*
X156501495Y-94537312D01*
X156752905Y-94705299D01*
X157032257Y-94821011D01*
X157328816Y-94880000D01*
X157631184Y-94880000D01*
X157927743Y-94821011D01*
X158207095Y-94705299D01*
X158458505Y-94537312D01*
X158672312Y-94323505D01*
X158840299Y-94072095D01*
X158956011Y-93792743D01*
X159015000Y-93496184D01*
X159015000Y-93193816D01*
X158956011Y-92897257D01*
X158840299Y-92617905D01*
X158672312Y-92366495D01*
X158458505Y-92152688D01*
X158207095Y-91984701D01*
X157927743Y-91868989D01*
X157631184Y-91810000D01*
X157328816Y-91810000D01*
X157032257Y-91868989D01*
X156752905Y-91984701D01*
X156501495Y-92152688D01*
X156287688Y-92366495D01*
X156119701Y-92617905D01*
X156003989Y-92897257D01*
X155945000Y-93193816D01*
X150763746Y-93193816D01*
X150744571Y-93134906D01*
X150600969Y-92859077D01*
X150406315Y-92616563D01*
X150221101Y-92461163D01*
X150400463Y-92313963D01*
X150598845Y-92072235D01*
X150746255Y-91796449D01*
X150837030Y-91497204D01*
X150867681Y-91186000D01*
X150837030Y-90874796D01*
X150746255Y-90575551D01*
X150598845Y-90299765D01*
X150495554Y-90173905D01*
X150579494Y-90129037D01*
X150676185Y-90049685D01*
X150755537Y-89952994D01*
X150814502Y-89842680D01*
X150850812Y-89722982D01*
X150863072Y-89598500D01*
X150863072Y-88193816D01*
X155945000Y-88193816D01*
X155945000Y-88496184D01*
X156003989Y-88792743D01*
X156119701Y-89072095D01*
X156287688Y-89323505D01*
X156501495Y-89537312D01*
X156752905Y-89705299D01*
X157032257Y-89821011D01*
X157328816Y-89880000D01*
X157631184Y-89880000D01*
X157927743Y-89821011D01*
X158207095Y-89705299D01*
X158458505Y-89537312D01*
X158672312Y-89323505D01*
X158840299Y-89072095D01*
X158956011Y-88792743D01*
X159015000Y-88496184D01*
X159015000Y-88193816D01*
X158956011Y-87897257D01*
X158840299Y-87617905D01*
X158672312Y-87366495D01*
X158458505Y-87152688D01*
X158207095Y-86984701D01*
X157927743Y-86868989D01*
X157631184Y-86810000D01*
X157328816Y-86810000D01*
X157032257Y-86868989D01*
X156752905Y-86984701D01*
X156501495Y-87152688D01*
X156287688Y-87366495D01*
X156119701Y-87617905D01*
X156003989Y-87897257D01*
X155945000Y-88193816D01*
X150863072Y-88193816D01*
X150863072Y-87693500D01*
X150850812Y-87569018D01*
X150814502Y-87449320D01*
X150755537Y-87339006D01*
X150676185Y-87242315D01*
X150579494Y-87162963D01*
X150469180Y-87103998D01*
X150349482Y-87067688D01*
X150225000Y-87055428D01*
X148225000Y-87055428D01*
X148100518Y-87067688D01*
X147980820Y-87103998D01*
X147870506Y-87162963D01*
X147773815Y-87242315D01*
X147694463Y-87339006D01*
X147635498Y-87449320D01*
X147599188Y-87569018D01*
X147586928Y-87693500D01*
X147586928Y-89598500D01*
X147599188Y-89722982D01*
X147635498Y-89842680D01*
X147694463Y-89952994D01*
X147773815Y-90049685D01*
X147870506Y-90129037D01*
X147954446Y-90173905D01*
X147851155Y-90299765D01*
X147703745Y-90575551D01*
X147612970Y-90874796D01*
X147582319Y-91186000D01*
X133070671Y-91186000D01*
X133070073Y-91184882D01*
X132881903Y-90955597D01*
X132652618Y-90767427D01*
X132391028Y-90627604D01*
X132107186Y-90541501D01*
X131812000Y-90512428D01*
X130062000Y-90512428D01*
X129766814Y-90541501D01*
X129482972Y-90627604D01*
X129221382Y-90767427D01*
X128992097Y-90955597D01*
X128803927Y-91184882D01*
X128664104Y-91446472D01*
X128578001Y-91730314D01*
X128548928Y-92025500D01*
X120040000Y-92025500D01*
X120040000Y-89850500D01*
X125648928Y-89850500D01*
X125661188Y-89974982D01*
X125697498Y-90094680D01*
X125756463Y-90204994D01*
X125835815Y-90301685D01*
X125932506Y-90381037D01*
X126042820Y-90440002D01*
X126162518Y-90476312D01*
X126287000Y-90488572D01*
X127501250Y-90485500D01*
X127660000Y-90326750D01*
X127660000Y-88227500D01*
X127914000Y-88227500D01*
X127914000Y-90326750D01*
X128072750Y-90485500D01*
X129287000Y-90488572D01*
X129411482Y-90476312D01*
X129531180Y-90440002D01*
X129641494Y-90381037D01*
X129738185Y-90301685D01*
X129817537Y-90204994D01*
X129876502Y-90094680D01*
X129912812Y-89974982D01*
X129925072Y-89850500D01*
X129922000Y-88386250D01*
X129763250Y-88227500D01*
X127914000Y-88227500D01*
X127660000Y-88227500D01*
X125810750Y-88227500D01*
X125652000Y-88386250D01*
X125648928Y-89850500D01*
X120040000Y-89850500D01*
X120040000Y-86350500D01*
X125648928Y-86350500D01*
X125652000Y-87814750D01*
X125810750Y-87973500D01*
X127660000Y-87973500D01*
X127660000Y-85874250D01*
X127914000Y-85874250D01*
X127914000Y-87973500D01*
X129763250Y-87973500D01*
X129922000Y-87814750D01*
X129925072Y-86350500D01*
X131648928Y-86350500D01*
X131648928Y-89850500D01*
X131661188Y-89974982D01*
X131697498Y-90094680D01*
X131756463Y-90204994D01*
X131835815Y-90301685D01*
X131932506Y-90381037D01*
X132042820Y-90440002D01*
X132162518Y-90476312D01*
X132287000Y-90488572D01*
X135787000Y-90488572D01*
X135911482Y-90476312D01*
X136031180Y-90440002D01*
X136141494Y-90381037D01*
X136238185Y-90301685D01*
X136317537Y-90204994D01*
X136376502Y-90094680D01*
X136412812Y-89974982D01*
X136425072Y-89850500D01*
X136425072Y-86350500D01*
X136412812Y-86226018D01*
X136376502Y-86106320D01*
X136317537Y-85996006D01*
X136238185Y-85899315D01*
X136141494Y-85819963D01*
X136031180Y-85760998D01*
X135911482Y-85724688D01*
X135787000Y-85712428D01*
X132287000Y-85712428D01*
X132162518Y-85724688D01*
X132042820Y-85760998D01*
X131932506Y-85819963D01*
X131835815Y-85899315D01*
X131756463Y-85996006D01*
X131697498Y-86106320D01*
X131661188Y-86226018D01*
X131648928Y-86350500D01*
X129925072Y-86350500D01*
X129912812Y-86226018D01*
X129876502Y-86106320D01*
X129817537Y-85996006D01*
X129738185Y-85899315D01*
X129641494Y-85819963D01*
X129531180Y-85760998D01*
X129411482Y-85724688D01*
X129287000Y-85712428D01*
X128072750Y-85715500D01*
X127914000Y-85874250D01*
X127660000Y-85874250D01*
X127501250Y-85715500D01*
X126287000Y-85712428D01*
X126162518Y-85724688D01*
X126042820Y-85760998D01*
X125932506Y-85819963D01*
X125835815Y-85899315D01*
X125756463Y-85996006D01*
X125697498Y-86106320D01*
X125661188Y-86226018D01*
X125648928Y-86350500D01*
X120040000Y-86350500D01*
X120040000Y-78008000D01*
X121027751Y-78008000D01*
X121078627Y-78524550D01*
X121229299Y-79021250D01*
X121473977Y-79479011D01*
X121803259Y-79880241D01*
X122204489Y-80209523D01*
X122662250Y-80454201D01*
X123158950Y-80604873D01*
X123546058Y-80643000D01*
X124804942Y-80643000D01*
X125192050Y-80604873D01*
X125688750Y-80454201D01*
X126146511Y-80209523D01*
X126547741Y-79880241D01*
X126877023Y-79479011D01*
X127121701Y-79021250D01*
X127272373Y-78524550D01*
X127323249Y-78008000D01*
X127272373Y-77491450D01*
X127121701Y-76994750D01*
X126877023Y-76536989D01*
X126547741Y-76135759D01*
X126146511Y-75806477D01*
X125962274Y-75708000D01*
X132537428Y-75708000D01*
X132537428Y-77708000D01*
X132549688Y-77832482D01*
X132585998Y-77952180D01*
X132644963Y-78062494D01*
X132724315Y-78159185D01*
X132821006Y-78238537D01*
X132931320Y-78297502D01*
X133051018Y-78333812D01*
X133175500Y-78346072D01*
X135175500Y-78346072D01*
X135299982Y-78333812D01*
X135419680Y-78297502D01*
X135529994Y-78238537D01*
X135626685Y-78159185D01*
X135706037Y-78062494D01*
X135765002Y-77952180D01*
X135801312Y-77832482D01*
X135813572Y-77708000D01*
X135813572Y-75708000D01*
X135801312Y-75583518D01*
X135765002Y-75463820D01*
X135706037Y-75353506D01*
X135626685Y-75256815D01*
X135529994Y-75177463D01*
X135419680Y-75118498D01*
X135299982Y-75082188D01*
X135175500Y-75069928D01*
X133175500Y-75069928D01*
X133051018Y-75082188D01*
X132931320Y-75118498D01*
X132821006Y-75177463D01*
X132724315Y-75256815D01*
X132644963Y-75353506D01*
X132585998Y-75463820D01*
X132549688Y-75583518D01*
X132537428Y-75708000D01*
X125962274Y-75708000D01*
X125688750Y-75561799D01*
X125192050Y-75411127D01*
X124804942Y-75373000D01*
X123546058Y-75373000D01*
X123158950Y-75411127D01*
X122662250Y-75561799D01*
X122204489Y-75806477D01*
X121803259Y-76135759D01*
X121473977Y-76536989D01*
X121229299Y-76994750D01*
X121078627Y-77491450D01*
X121027751Y-78008000D01*
X120040000Y-78008000D01*
X120040000Y-72772344D01*
X132290500Y-72772344D01*
X132290500Y-73143656D01*
X132362939Y-73507834D01*
X132505034Y-73850882D01*
X132711325Y-74159618D01*
X132973882Y-74422175D01*
X133282618Y-74628466D01*
X133625666Y-74770561D01*
X133989844Y-74843000D01*
X134361156Y-74843000D01*
X134725334Y-74770561D01*
X135068382Y-74628466D01*
X135377118Y-74422175D01*
X135639675Y-74159618D01*
X135845966Y-73850882D01*
X135988061Y-73507834D01*
X136060500Y-73143656D01*
X136060500Y-72772344D01*
X135988061Y-72408166D01*
X135845966Y-72065118D01*
X135639675Y-71756382D01*
X135536354Y-71653061D01*
X148190000Y-71653061D01*
X148190000Y-71856939D01*
X148229774Y-72056898D01*
X148307795Y-72245256D01*
X148421063Y-72414774D01*
X148565226Y-72558937D01*
X148734744Y-72672205D01*
X148923102Y-72750226D01*
X149123061Y-72790000D01*
X149326939Y-72790000D01*
X149526898Y-72750226D01*
X149715256Y-72672205D01*
X149884774Y-72558937D01*
X150028937Y-72414774D01*
X150142205Y-72245256D01*
X150220226Y-72056898D01*
X150260000Y-71856939D01*
X150260000Y-71794802D01*
X150434504Y-71620298D01*
X150463501Y-71596501D01*
X150558474Y-71480776D01*
X150629046Y-71348747D01*
X150672503Y-71205486D01*
X150683500Y-71093833D01*
X150683500Y-71093824D01*
X150687176Y-71056501D01*
X150683500Y-71019178D01*
X150683500Y-69082409D01*
X150697963Y-69076418D01*
X150965752Y-68897487D01*
X151193487Y-68669752D01*
X151372418Y-68401963D01*
X151495668Y-68104412D01*
X151558500Y-67788533D01*
X151558500Y-67466467D01*
X151495668Y-67150588D01*
X151372418Y-66853037D01*
X151193487Y-66585248D01*
X150965752Y-66357513D01*
X150697963Y-66178582D01*
X150400412Y-66055332D01*
X150084533Y-65992500D01*
X149762467Y-65992500D01*
X149446588Y-66055332D01*
X149149037Y-66178582D01*
X148881248Y-66357513D01*
X148653513Y-66585248D01*
X148474582Y-66853037D01*
X148351332Y-67150588D01*
X148288500Y-67466467D01*
X148288500Y-67788533D01*
X148351332Y-68104412D01*
X148474582Y-68401963D01*
X148653513Y-68669752D01*
X148881248Y-68897487D01*
X149149037Y-69076418D01*
X149163501Y-69082409D01*
X149163500Y-70720000D01*
X149123061Y-70720000D01*
X148923102Y-70759774D01*
X148734744Y-70837795D01*
X148565226Y-70951063D01*
X148421063Y-71095226D01*
X148307795Y-71264744D01*
X148229774Y-71453102D01*
X148190000Y-71653061D01*
X135536354Y-71653061D01*
X135377118Y-71493825D01*
X135068382Y-71287534D01*
X134725334Y-71145439D01*
X134396622Y-71080055D01*
X134596575Y-71054725D01*
X134948762Y-70937094D01*
X135183586Y-70811577D01*
X135309500Y-70521605D01*
X134175500Y-69387605D01*
X133041500Y-70521605D01*
X133167414Y-70811577D01*
X133499626Y-70977433D01*
X133857812Y-71075290D01*
X133946806Y-71081561D01*
X133625666Y-71145439D01*
X133282618Y-71287534D01*
X132973882Y-71493825D01*
X132711325Y-71756382D01*
X132505034Y-72065118D01*
X132362939Y-72408166D01*
X132290500Y-72772344D01*
X120040000Y-72772344D01*
X120040000Y-67408000D01*
X121027751Y-67408000D01*
X121078627Y-67924550D01*
X121229299Y-68421250D01*
X121473977Y-68879011D01*
X121803259Y-69280241D01*
X122204489Y-69609523D01*
X122662250Y-69854201D01*
X123158950Y-70004873D01*
X123546058Y-70043000D01*
X124804942Y-70043000D01*
X125192050Y-70004873D01*
X125688750Y-69854201D01*
X126146511Y-69609523D01*
X126547741Y-69280241D01*
X126563773Y-69260706D01*
X132282111Y-69260706D01*
X132328775Y-69629075D01*
X132446406Y-69981262D01*
X132571923Y-70216086D01*
X132861895Y-70342000D01*
X133995895Y-69208000D01*
X134355105Y-69208000D01*
X135489105Y-70342000D01*
X135779077Y-70216086D01*
X135944933Y-69883874D01*
X136042790Y-69525688D01*
X136068889Y-69155294D01*
X136022225Y-68786925D01*
X135904594Y-68434738D01*
X135779077Y-68199914D01*
X135489105Y-68074000D01*
X134355105Y-69208000D01*
X133995895Y-69208000D01*
X132861895Y-68074000D01*
X132571923Y-68199914D01*
X132406067Y-68532126D01*
X132308210Y-68890312D01*
X132282111Y-69260706D01*
X126563773Y-69260706D01*
X126877023Y-68879011D01*
X127121701Y-68421250D01*
X127272373Y-67924550D01*
X127275343Y-67894395D01*
X133041500Y-67894395D01*
X134175500Y-69028395D01*
X135309500Y-67894395D01*
X135183586Y-67604423D01*
X134907259Y-67466467D01*
X142764000Y-67466467D01*
X142764000Y-67788533D01*
X142826832Y-68104412D01*
X142950082Y-68401963D01*
X143129013Y-68669752D01*
X143356748Y-68897487D01*
X143624537Y-69076418D01*
X143922088Y-69199668D01*
X144237967Y-69262500D01*
X144560033Y-69262500D01*
X144875912Y-69199668D01*
X145173463Y-69076418D01*
X145441252Y-68897487D01*
X145668987Y-68669752D01*
X145847918Y-68401963D01*
X145971168Y-68104412D01*
X146034000Y-67788533D01*
X146034000Y-67466467D01*
X145971168Y-67150588D01*
X145847918Y-66853037D01*
X145668987Y-66585248D01*
X145441252Y-66357513D01*
X145173463Y-66178582D01*
X144875912Y-66055332D01*
X144560033Y-65992500D01*
X144237967Y-65992500D01*
X143922088Y-66055332D01*
X143624537Y-66178582D01*
X143356748Y-66357513D01*
X143129013Y-66585248D01*
X142950082Y-66853037D01*
X142826832Y-67150588D01*
X142764000Y-67466467D01*
X134907259Y-67466467D01*
X134851374Y-67438567D01*
X134493188Y-67340710D01*
X134122794Y-67314611D01*
X133754425Y-67361275D01*
X133402238Y-67478906D01*
X133167414Y-67604423D01*
X133041500Y-67894395D01*
X127275343Y-67894395D01*
X127323249Y-67408000D01*
X127272373Y-66891450D01*
X127121701Y-66394750D01*
X126877023Y-65936989D01*
X126547741Y-65535759D01*
X126146511Y-65206477D01*
X125688750Y-64961799D01*
X125192050Y-64811127D01*
X124804942Y-64773000D01*
X123546058Y-64773000D01*
X123158950Y-64811127D01*
X122662250Y-64961799D01*
X122204489Y-65206477D01*
X121803259Y-65535759D01*
X121473977Y-65936989D01*
X121229299Y-66394750D01*
X121078627Y-66891450D01*
X121027751Y-67408000D01*
X120040000Y-67408000D01*
X120040000Y-61970475D01*
X124365000Y-61970475D01*
X124365000Y-62489525D01*
X124466261Y-62998601D01*
X124664893Y-63478141D01*
X124953262Y-63909715D01*
X125320285Y-64276738D01*
X125751859Y-64565107D01*
X126231399Y-64763739D01*
X126740475Y-64865000D01*
X127259525Y-64865000D01*
X127768601Y-64763739D01*
X128248141Y-64565107D01*
X128679715Y-64276738D01*
X129046738Y-63909715D01*
X129335107Y-63478141D01*
X129533739Y-62998601D01*
X129635000Y-62489525D01*
X129635000Y-62449967D01*
X142764000Y-62449967D01*
X142764000Y-62772033D01*
X142826832Y-63087912D01*
X142950082Y-63385463D01*
X143129013Y-63653252D01*
X143356748Y-63880987D01*
X143624537Y-64059918D01*
X143922088Y-64183168D01*
X144237967Y-64246000D01*
X144560033Y-64246000D01*
X144875912Y-64183168D01*
X145173463Y-64059918D01*
X145441252Y-63880987D01*
X145668987Y-63653252D01*
X145847918Y-63385463D01*
X145971168Y-63087912D01*
X146034000Y-62772033D01*
X146034000Y-62449967D01*
X146008739Y-62322967D01*
X148606000Y-62322967D01*
X148606000Y-62645033D01*
X148668832Y-62960912D01*
X148792082Y-63258463D01*
X148971013Y-63526252D01*
X149198748Y-63753987D01*
X149466537Y-63932918D01*
X149764088Y-64056168D01*
X150079967Y-64119000D01*
X150402033Y-64119000D01*
X150717912Y-64056168D01*
X150732376Y-64050177D01*
X155005501Y-68323303D01*
X155005500Y-73019789D01*
X154961563Y-73063726D01*
X154848295Y-73233244D01*
X154770274Y-73421602D01*
X154730500Y-73621561D01*
X154730500Y-73825439D01*
X154770274Y-74025398D01*
X154848295Y-74213756D01*
X154961563Y-74383274D01*
X155105726Y-74527437D01*
X155275244Y-74640705D01*
X155463602Y-74718726D01*
X155663561Y-74758500D01*
X155867439Y-74758500D01*
X156067398Y-74718726D01*
X156255756Y-74640705D01*
X156425274Y-74527437D01*
X156569437Y-74383274D01*
X156682705Y-74213756D01*
X156760726Y-74025398D01*
X156800500Y-73825439D01*
X156800500Y-73621561D01*
X156760726Y-73421602D01*
X156682705Y-73233244D01*
X156569437Y-73063726D01*
X156525500Y-73019789D01*
X156525500Y-72002301D01*
X156572000Y-72048802D01*
X156572000Y-72110939D01*
X156611774Y-72310898D01*
X156689795Y-72499256D01*
X156803063Y-72668774D01*
X156947226Y-72812937D01*
X157116744Y-72926205D01*
X157305102Y-73004226D01*
X157505061Y-73044000D01*
X157708939Y-73044000D01*
X157908898Y-73004226D01*
X158097256Y-72926205D01*
X158266774Y-72812937D01*
X158410937Y-72668774D01*
X158524205Y-72499256D01*
X158602226Y-72310898D01*
X158642000Y-72110939D01*
X158642000Y-71907061D01*
X158602226Y-71707102D01*
X158524205Y-71518744D01*
X158410937Y-71349226D01*
X158266774Y-71205063D01*
X158097256Y-71091795D01*
X157908898Y-71013774D01*
X157708939Y-70974000D01*
X157646802Y-70974000D01*
X157435630Y-70762828D01*
X157444705Y-70749246D01*
X157522726Y-70560888D01*
X157562500Y-70360929D01*
X157562500Y-70157051D01*
X157522726Y-69957092D01*
X157444705Y-69768734D01*
X157331437Y-69599216D01*
X157187274Y-69455053D01*
X157017756Y-69341785D01*
X156829398Y-69263764D01*
X156629439Y-69223990D01*
X156525500Y-69223990D01*
X156525500Y-68045823D01*
X156529176Y-68008500D01*
X156525500Y-67971177D01*
X156525500Y-67971167D01*
X156514503Y-67859514D01*
X156471046Y-67716253D01*
X156400474Y-67584224D01*
X156355947Y-67529967D01*
X162322000Y-67529967D01*
X162322000Y-67852033D01*
X162384832Y-68167912D01*
X162508082Y-68465463D01*
X162687013Y-68733252D01*
X162914748Y-68960987D01*
X163182537Y-69139918D01*
X163480088Y-69263168D01*
X163795967Y-69326000D01*
X164118033Y-69326000D01*
X164433912Y-69263168D01*
X164731463Y-69139918D01*
X164999252Y-68960987D01*
X165226987Y-68733252D01*
X165405918Y-68465463D01*
X165529168Y-68167912D01*
X165592000Y-67852033D01*
X165592000Y-67529967D01*
X165529168Y-67214088D01*
X165405918Y-66916537D01*
X165226987Y-66648748D01*
X164999252Y-66421013D01*
X164731463Y-66242082D01*
X164433912Y-66118832D01*
X164118033Y-66056000D01*
X163795967Y-66056000D01*
X163480088Y-66118832D01*
X163182537Y-66242082D01*
X162914748Y-66421013D01*
X162687013Y-66648748D01*
X162508082Y-66916537D01*
X162384832Y-67214088D01*
X162322000Y-67529967D01*
X156355947Y-67529967D01*
X156305501Y-67468499D01*
X156276503Y-67444701D01*
X153904967Y-65073165D01*
X168364000Y-65073165D01*
X168364000Y-65355835D01*
X168419147Y-65633074D01*
X168527320Y-65894227D01*
X168684363Y-66129259D01*
X168884241Y-66329137D01*
X169116759Y-66484500D01*
X168884241Y-66639863D01*
X168684363Y-66839741D01*
X168527320Y-67074773D01*
X168419147Y-67335926D01*
X168364000Y-67613165D01*
X168364000Y-67895835D01*
X168419147Y-68173074D01*
X168527320Y-68434227D01*
X168684363Y-68669259D01*
X168884241Y-68869137D01*
X169116759Y-69024500D01*
X168884241Y-69179863D01*
X168684363Y-69379741D01*
X168527320Y-69614773D01*
X168419147Y-69875926D01*
X168364000Y-70153165D01*
X168364000Y-70435835D01*
X168419147Y-70713074D01*
X168527320Y-70974227D01*
X168684363Y-71209259D01*
X168884241Y-71409137D01*
X169116759Y-71564500D01*
X168884241Y-71719863D01*
X168684363Y-71919741D01*
X168527320Y-72154773D01*
X168419147Y-72415926D01*
X168364000Y-72693165D01*
X168364000Y-72975835D01*
X168419147Y-73253074D01*
X168527320Y-73514227D01*
X168684363Y-73749259D01*
X168884241Y-73949137D01*
X169116759Y-74104500D01*
X168884241Y-74259863D01*
X168684363Y-74459741D01*
X168527320Y-74694773D01*
X168419147Y-74955926D01*
X168364000Y-75233165D01*
X168364000Y-75515835D01*
X168419147Y-75793074D01*
X168527320Y-76054227D01*
X168684363Y-76289259D01*
X168884241Y-76489137D01*
X169116759Y-76644500D01*
X168884241Y-76799863D01*
X168684363Y-76999741D01*
X168527320Y-77234773D01*
X168419147Y-77495926D01*
X168364000Y-77773165D01*
X168364000Y-78055835D01*
X168419147Y-78333074D01*
X168527320Y-78594227D01*
X168684363Y-78829259D01*
X168884241Y-79029137D01*
X169116759Y-79184500D01*
X168884241Y-79339863D01*
X168684363Y-79539741D01*
X168527320Y-79774773D01*
X168419147Y-80035926D01*
X168364000Y-80313165D01*
X168364000Y-80595835D01*
X168419147Y-80873074D01*
X168527320Y-81134227D01*
X168684363Y-81369259D01*
X168884241Y-81569137D01*
X169116759Y-81724500D01*
X168884241Y-81879863D01*
X168684363Y-82079741D01*
X168527320Y-82314773D01*
X168419147Y-82575926D01*
X168364000Y-82853165D01*
X168364000Y-83135835D01*
X168419147Y-83413074D01*
X168527320Y-83674227D01*
X168684363Y-83909259D01*
X168884241Y-84109137D01*
X169116759Y-84264500D01*
X168884241Y-84419863D01*
X168684363Y-84619741D01*
X168527320Y-84854773D01*
X168419147Y-85115926D01*
X168364000Y-85393165D01*
X168364000Y-85675835D01*
X168419147Y-85953074D01*
X168527320Y-86214227D01*
X168684363Y-86449259D01*
X168884241Y-86649137D01*
X169116759Y-86804500D01*
X168884241Y-86959863D01*
X168684363Y-87159741D01*
X168527320Y-87394773D01*
X168419147Y-87655926D01*
X168364000Y-87933165D01*
X168364000Y-88215835D01*
X168419147Y-88493074D01*
X168527320Y-88754227D01*
X168684363Y-88989259D01*
X168884241Y-89189137D01*
X169116759Y-89344500D01*
X168884241Y-89499863D01*
X168684363Y-89699741D01*
X168527320Y-89934773D01*
X168419147Y-90195926D01*
X168364000Y-90473165D01*
X168364000Y-90755835D01*
X168419147Y-91033074D01*
X168527320Y-91294227D01*
X168684363Y-91529259D01*
X168884241Y-91729137D01*
X169116759Y-91884500D01*
X168884241Y-92039863D01*
X168684363Y-92239741D01*
X168527320Y-92474773D01*
X168419147Y-92735926D01*
X168364000Y-93013165D01*
X168364000Y-93295835D01*
X168419147Y-93573074D01*
X168527320Y-93834227D01*
X168684363Y-94069259D01*
X168884241Y-94269137D01*
X169116759Y-94424500D01*
X168884241Y-94579863D01*
X168684363Y-94779741D01*
X168527320Y-95014773D01*
X168419147Y-95275926D01*
X168364000Y-95553165D01*
X168364000Y-95835835D01*
X168419147Y-96113074D01*
X168527320Y-96374227D01*
X168684363Y-96609259D01*
X168884241Y-96809137D01*
X169119273Y-96966180D01*
X169129865Y-96970567D01*
X168943869Y-97082115D01*
X168735481Y-97271086D01*
X168567963Y-97497080D01*
X168447754Y-97751413D01*
X168407096Y-97885461D01*
X168529085Y-98107500D01*
X169672000Y-98107500D01*
X169672000Y-98087500D01*
X169926000Y-98087500D01*
X169926000Y-98107500D01*
X169946000Y-98107500D01*
X169946000Y-98361500D01*
X169926000Y-98361500D01*
X169926000Y-98381500D01*
X169672000Y-98381500D01*
X169672000Y-98361500D01*
X168529085Y-98361500D01*
X168407096Y-98583539D01*
X168447754Y-98717587D01*
X168567963Y-98971920D01*
X168735481Y-99197914D01*
X168943869Y-99386885D01*
X169129865Y-99498433D01*
X169119273Y-99502820D01*
X168884241Y-99659863D01*
X168684363Y-99859741D01*
X168527320Y-100094773D01*
X168419147Y-100355926D01*
X168364000Y-100633165D01*
X168364000Y-100915835D01*
X168419147Y-101193074D01*
X168527320Y-101454227D01*
X168684363Y-101689259D01*
X168884241Y-101889137D01*
X169119273Y-102046180D01*
X169380426Y-102154353D01*
X169657665Y-102209500D01*
X169940335Y-102209500D01*
X170217574Y-102154353D01*
X170478727Y-102046180D01*
X170713759Y-101889137D01*
X170913637Y-101689259D01*
X171070680Y-101454227D01*
X171178853Y-101193074D01*
X171234000Y-100915835D01*
X171234000Y-100633165D01*
X171178853Y-100355926D01*
X171070680Y-100094773D01*
X170913637Y-99859741D01*
X170713759Y-99659863D01*
X170478727Y-99502820D01*
X170468135Y-99498433D01*
X170654131Y-99386885D01*
X170862519Y-99197914D01*
X171030037Y-98971920D01*
X171150246Y-98717587D01*
X171190904Y-98583539D01*
X171068916Y-98361502D01*
X171143699Y-98361502D01*
X177433199Y-104651003D01*
X177456997Y-104680001D01*
X177572722Y-104774974D01*
X177704751Y-104845546D01*
X177848012Y-104889003D01*
X177959665Y-104900000D01*
X177959674Y-104900000D01*
X177996997Y-104903676D01*
X178034320Y-104900000D01*
X179128289Y-104900000D01*
X179172226Y-104943937D01*
X179341744Y-105057205D01*
X179530102Y-105135226D01*
X179730061Y-105175000D01*
X179933939Y-105175000D01*
X180133898Y-105135226D01*
X180322256Y-105057205D01*
X180491774Y-104943937D01*
X180635937Y-104799774D01*
X180749205Y-104630256D01*
X180827226Y-104441898D01*
X180867000Y-104241939D01*
X180867000Y-104038061D01*
X180827226Y-103838102D01*
X180749205Y-103649744D01*
X180635937Y-103480226D01*
X180491774Y-103336063D01*
X180322256Y-103222795D01*
X180133898Y-103144774D01*
X179933939Y-103105000D01*
X179730061Y-103105000D01*
X179530102Y-103144774D01*
X179341744Y-103222795D01*
X179172226Y-103336063D01*
X179128289Y-103380000D01*
X178311800Y-103380000D01*
X175667861Y-100736061D01*
X181337000Y-100736061D01*
X181337000Y-100939939D01*
X181376774Y-101139898D01*
X181454795Y-101328256D01*
X181568063Y-101497774D01*
X181612001Y-101541712D01*
X181612000Y-103055289D01*
X181568063Y-103099226D01*
X181454795Y-103268744D01*
X181376774Y-103457102D01*
X181337000Y-103657061D01*
X181337000Y-103860939D01*
X181376774Y-104060898D01*
X181454795Y-104249256D01*
X181568063Y-104418774D01*
X181712226Y-104562937D01*
X181881744Y-104676205D01*
X182070102Y-104754226D01*
X182270061Y-104794000D01*
X182473939Y-104794000D01*
X182673898Y-104754226D01*
X182862256Y-104676205D01*
X183031774Y-104562937D01*
X183175937Y-104418774D01*
X183289205Y-104249256D01*
X183367226Y-104060898D01*
X183407000Y-103860939D01*
X183407000Y-103657061D01*
X183367226Y-103457102D01*
X183289205Y-103268744D01*
X183175937Y-103099226D01*
X183132000Y-103055289D01*
X183132000Y-102274501D01*
X190272508Y-102274501D01*
X190294422Y-102496999D01*
X190359323Y-102710947D01*
X190464716Y-102908123D01*
X190606551Y-103080949D01*
X190779377Y-103222784D01*
X190976553Y-103328177D01*
X191190501Y-103393078D01*
X191412999Y-103414992D01*
X191635497Y-103393078D01*
X191849445Y-103328177D01*
X192046621Y-103222784D01*
X192176142Y-103116489D01*
X197079671Y-98212961D01*
X208930330Y-98212961D01*
X213603856Y-102886488D01*
X213733377Y-102992784D01*
X213930553Y-103098176D01*
X214144501Y-103163077D01*
X214367000Y-103184991D01*
X214426800Y-103179101D01*
X216279701Y-105032003D01*
X216303499Y-105061001D01*
X216332497Y-105084799D01*
X216419223Y-105155974D01*
X216551253Y-105226546D01*
X216694514Y-105270003D01*
X216806167Y-105281000D01*
X216806177Y-105281000D01*
X216843500Y-105284676D01*
X216880823Y-105281000D01*
X223260789Y-105281000D01*
X223304726Y-105324937D01*
X223474244Y-105438205D01*
X223662602Y-105516226D01*
X223862561Y-105556000D01*
X224066439Y-105556000D01*
X224266398Y-105516226D01*
X224454756Y-105438205D01*
X224624274Y-105324937D01*
X224768437Y-105180774D01*
X224881705Y-105011256D01*
X224959726Y-104822898D01*
X224999500Y-104622939D01*
X224999500Y-104419061D01*
X224959726Y-104219102D01*
X224881705Y-104030744D01*
X224768437Y-103861226D01*
X224624274Y-103717063D01*
X224454756Y-103603795D01*
X224266398Y-103525774D01*
X224066439Y-103486000D01*
X223862561Y-103486000D01*
X223662602Y-103525774D01*
X223474244Y-103603795D01*
X223304726Y-103717063D01*
X223260789Y-103761000D01*
X217158302Y-103761000D01*
X216157186Y-102759884D01*
X216268014Y-102793503D01*
X216379667Y-102804500D01*
X216379676Y-102804500D01*
X216416999Y-102808176D01*
X216454322Y-102804500D01*
X223057815Y-102804500D01*
X223160563Y-102958274D01*
X223304726Y-103102437D01*
X223474244Y-103215705D01*
X223662602Y-103293726D01*
X223862561Y-103333500D01*
X224066439Y-103333500D01*
X224266398Y-103293726D01*
X224454756Y-103215705D01*
X224624274Y-103102437D01*
X224768437Y-102958274D01*
X224881705Y-102788756D01*
X224959726Y-102600398D01*
X224999500Y-102400439D01*
X224999500Y-102196561D01*
X224959726Y-101996602D01*
X224881705Y-101808244D01*
X224768437Y-101638726D01*
X224624274Y-101494563D01*
X224454756Y-101381295D01*
X224266398Y-101303274D01*
X224066439Y-101263500D01*
X223862561Y-101263500D01*
X223756986Y-101284500D01*
X217058013Y-101284500D01*
X217071205Y-101264756D01*
X217149226Y-101076398D01*
X217189000Y-100876439D01*
X217189000Y-100672561D01*
X217149226Y-100472602D01*
X217071205Y-100284244D01*
X216957937Y-100114726D01*
X216813774Y-99970563D01*
X216644256Y-99857295D01*
X216455898Y-99779274D01*
X216255939Y-99739500D01*
X216052061Y-99739500D01*
X215852102Y-99779274D01*
X215663744Y-99857295D01*
X215494226Y-99970563D01*
X215360250Y-100104539D01*
X215289774Y-100034063D01*
X215120256Y-99920795D01*
X214931898Y-99842774D01*
X214731939Y-99803000D01*
X214528061Y-99803000D01*
X214328102Y-99842774D01*
X214139744Y-99920795D01*
X213970226Y-100034063D01*
X213965960Y-100038329D01*
X211519034Y-97591403D01*
X211657439Y-97591403D01*
X211857398Y-97551629D01*
X212045756Y-97473608D01*
X212215274Y-97360340D01*
X212359437Y-97216177D01*
X212472705Y-97046659D01*
X212550726Y-96858301D01*
X212590500Y-96658342D01*
X212590500Y-96596204D01*
X213049705Y-96137000D01*
X216462368Y-96137000D01*
X216428774Y-96218102D01*
X216389000Y-96418061D01*
X216389000Y-96621939D01*
X216428774Y-96821898D01*
X216506795Y-97010256D01*
X216620063Y-97179774D01*
X216764226Y-97323937D01*
X216933744Y-97437205D01*
X217122102Y-97515226D01*
X217322061Y-97555000D01*
X217511199Y-97555000D01*
X217595500Y-97639302D01*
X217595500Y-97701439D01*
X217635274Y-97901398D01*
X217713295Y-98089756D01*
X217826563Y-98259274D01*
X217970726Y-98403437D01*
X218140244Y-98516705D01*
X218328602Y-98594726D01*
X218528561Y-98634500D01*
X218732439Y-98634500D01*
X218932398Y-98594726D01*
X219120756Y-98516705D01*
X219290274Y-98403437D01*
X219434437Y-98259274D01*
X219547705Y-98089756D01*
X219625726Y-97901398D01*
X219665500Y-97701439D01*
X219665500Y-97497561D01*
X219625726Y-97297602D01*
X219547705Y-97109244D01*
X219434437Y-96939726D01*
X219290274Y-96795563D01*
X219120756Y-96682295D01*
X218932398Y-96604274D01*
X218732439Y-96564500D01*
X218670302Y-96564500D01*
X218442895Y-96337093D01*
X218419226Y-96218102D01*
X218403083Y-96179128D01*
X218545437Y-96036774D01*
X218587674Y-95973561D01*
X219818000Y-95973561D01*
X219818000Y-96177439D01*
X219857774Y-96377398D01*
X219935795Y-96565756D01*
X220049063Y-96735274D01*
X220193226Y-96879437D01*
X220362744Y-96992705D01*
X220551102Y-97070726D01*
X220751061Y-97110500D01*
X220954939Y-97110500D01*
X221154898Y-97070726D01*
X221343256Y-96992705D01*
X221512774Y-96879437D01*
X221656937Y-96735274D01*
X221674827Y-96708500D01*
X223578289Y-96708500D01*
X223622226Y-96752437D01*
X223791744Y-96865705D01*
X223980102Y-96943726D01*
X224180061Y-96983500D01*
X224383939Y-96983500D01*
X224583898Y-96943726D01*
X224772256Y-96865705D01*
X224941774Y-96752437D01*
X225085937Y-96608274D01*
X225199205Y-96438756D01*
X225277226Y-96250398D01*
X225317000Y-96050439D01*
X225317000Y-95846561D01*
X225277226Y-95646602D01*
X225199205Y-95458244D01*
X225085937Y-95288726D01*
X224941774Y-95144563D01*
X224772256Y-95031295D01*
X224583898Y-94953274D01*
X224383939Y-94913500D01*
X224180061Y-94913500D01*
X223980102Y-94953274D01*
X223791744Y-95031295D01*
X223622226Y-95144563D01*
X223578289Y-95188500D01*
X221388461Y-95188500D01*
X221343256Y-95158295D01*
X221154898Y-95080274D01*
X220954939Y-95040500D01*
X220751061Y-95040500D01*
X220551102Y-95080274D01*
X220362744Y-95158295D01*
X220193226Y-95271563D01*
X220049063Y-95415726D01*
X219935795Y-95585244D01*
X219857774Y-95773602D01*
X219818000Y-95973561D01*
X218587674Y-95973561D01*
X218658705Y-95867256D01*
X218736726Y-95678898D01*
X218776500Y-95478939D01*
X218776500Y-95275061D01*
X218736726Y-95075102D01*
X218658705Y-94886744D01*
X218545437Y-94717226D01*
X218401274Y-94573063D01*
X218384318Y-94561733D01*
X218410473Y-94535578D01*
X218549459Y-94327571D01*
X218645195Y-94096445D01*
X218694000Y-93851084D01*
X218742805Y-94096445D01*
X218838541Y-94327571D01*
X218977527Y-94535578D01*
X219154422Y-94712473D01*
X219362429Y-94851459D01*
X219593555Y-94947195D01*
X219838916Y-94996000D01*
X220089084Y-94996000D01*
X220334445Y-94947195D01*
X220565571Y-94851459D01*
X220773578Y-94712473D01*
X220950473Y-94535578D01*
X221089459Y-94327571D01*
X221185195Y-94096445D01*
X221234000Y-93851084D01*
X221282805Y-94096445D01*
X221378541Y-94327571D01*
X221517527Y-94535578D01*
X221694422Y-94712473D01*
X221902429Y-94851459D01*
X222133555Y-94947195D01*
X222378916Y-94996000D01*
X222629084Y-94996000D01*
X222874445Y-94947195D01*
X223105571Y-94851459D01*
X223313578Y-94712473D01*
X223490473Y-94535578D01*
X223629459Y-94327571D01*
X223725195Y-94096445D01*
X223774000Y-93851084D01*
X223774000Y-93600916D01*
X223725195Y-93355555D01*
X223629459Y-93124429D01*
X223490473Y-92916422D01*
X223313578Y-92739527D01*
X223105571Y-92600541D01*
X222874445Y-92504805D01*
X222629084Y-92456000D01*
X222378916Y-92456000D01*
X222320434Y-92467633D01*
X222107802Y-92255001D01*
X222084000Y-92225998D01*
X221968275Y-92131025D01*
X221836246Y-92060453D01*
X221692985Y-92016996D01*
X221581332Y-92005999D01*
X221581321Y-92005999D01*
X221543999Y-92002323D01*
X221506677Y-92005999D01*
X221324735Y-92005999D01*
X221348774Y-91989937D01*
X221492937Y-91845774D01*
X221606205Y-91676256D01*
X221684226Y-91487898D01*
X221724000Y-91287939D01*
X221724000Y-91084061D01*
X221684226Y-90884102D01*
X221606205Y-90695744D01*
X221492937Y-90526226D01*
X221348774Y-90382063D01*
X221179256Y-90268795D01*
X220990898Y-90190774D01*
X220790939Y-90151000D01*
X220713226Y-90151000D01*
X220581248Y-90080455D01*
X220437987Y-90036998D01*
X220326334Y-90026001D01*
X220326323Y-90026001D01*
X220289001Y-90022325D01*
X220251679Y-90026001D01*
X208328778Y-90026001D01*
X208371705Y-89961756D01*
X208449726Y-89773398D01*
X208489500Y-89573439D01*
X208489500Y-89369561D01*
X208449726Y-89169602D01*
X208371705Y-88981244D01*
X208316083Y-88898000D01*
X216466289Y-88898000D01*
X216510226Y-88941937D01*
X216679744Y-89055205D01*
X216868102Y-89133226D01*
X217068061Y-89173000D01*
X217271939Y-89173000D01*
X217471898Y-89133226D01*
X217660256Y-89055205D01*
X217829774Y-88941937D01*
X217973937Y-88797774D01*
X218087205Y-88628256D01*
X218165226Y-88439898D01*
X218205000Y-88239939D01*
X218205000Y-88036061D01*
X218186986Y-87945500D01*
X220919199Y-87945500D01*
X221278500Y-88304802D01*
X221278500Y-88366939D01*
X221318274Y-88566898D01*
X221396295Y-88755256D01*
X221509563Y-88924774D01*
X221653726Y-89068937D01*
X221823244Y-89182205D01*
X222011602Y-89260226D01*
X222211561Y-89300000D01*
X222415439Y-89300000D01*
X222615398Y-89260226D01*
X222803756Y-89182205D01*
X222973274Y-89068937D01*
X223117437Y-88924774D01*
X223230705Y-88755256D01*
X223308726Y-88566898D01*
X223348500Y-88366939D01*
X223348500Y-88163061D01*
X223308726Y-87963102D01*
X223230705Y-87774744D01*
X223117437Y-87605226D01*
X222973274Y-87461063D01*
X222803756Y-87347795D01*
X222615398Y-87269774D01*
X222415439Y-87230000D01*
X222353302Y-87230000D01*
X221797804Y-86674502D01*
X221774001Y-86645499D01*
X221658276Y-86550526D01*
X221526247Y-86479954D01*
X221382986Y-86436497D01*
X221271333Y-86425500D01*
X221271322Y-86425500D01*
X221234000Y-86421824D01*
X221196678Y-86425500D01*
X213282712Y-86425500D01*
X213238775Y-86381563D01*
X213069257Y-86268295D01*
X212880899Y-86190274D01*
X212680940Y-86150500D01*
X212477062Y-86150500D01*
X212277103Y-86190274D01*
X212088745Y-86268295D01*
X211919227Y-86381563D01*
X211775064Y-86525726D01*
X211661796Y-86695244D01*
X211583775Y-86883602D01*
X211544001Y-87083561D01*
X211544001Y-87287439D01*
X211562015Y-87378000D01*
X201607996Y-87378000D01*
X201467756Y-87284295D01*
X201279398Y-87206274D01*
X201079439Y-87166500D01*
X200875561Y-87166500D01*
X200675602Y-87206274D01*
X200487244Y-87284295D01*
X200317726Y-87397563D01*
X200173563Y-87541726D01*
X200060295Y-87711244D01*
X199982274Y-87899602D01*
X199942500Y-88099561D01*
X199942500Y-88303439D01*
X199982274Y-88503398D01*
X200060295Y-88691756D01*
X200173563Y-88861274D01*
X200317726Y-89005437D01*
X200487244Y-89118705D01*
X200675602Y-89196726D01*
X200875561Y-89236500D01*
X201079439Y-89236500D01*
X201279398Y-89196726D01*
X201467756Y-89118705D01*
X201637274Y-89005437D01*
X201744711Y-88898000D01*
X201766917Y-88898000D01*
X201711295Y-88981244D01*
X201633274Y-89169602D01*
X201593500Y-89369561D01*
X201593500Y-89573439D01*
X201633274Y-89773398D01*
X201711295Y-89961756D01*
X201824563Y-90131274D01*
X201968726Y-90275437D01*
X202116411Y-90374117D01*
X202028795Y-90505244D01*
X201950774Y-90693602D01*
X201911000Y-90893561D01*
X201911000Y-91097439D01*
X201950774Y-91297398D01*
X202028795Y-91485756D01*
X202142063Y-91655274D01*
X202286226Y-91799437D01*
X202455744Y-91912705D01*
X202644102Y-91990726D01*
X202844061Y-92030500D01*
X203047939Y-92030500D01*
X203247898Y-91990726D01*
X203436256Y-91912705D01*
X203605774Y-91799437D01*
X203749937Y-91655274D01*
X203822951Y-91546001D01*
X203848611Y-91546001D01*
X203780295Y-91648244D01*
X203702274Y-91836602D01*
X203662500Y-92036561D01*
X203662500Y-92240439D01*
X203680514Y-92331000D01*
X202199710Y-92331000D01*
X202155773Y-92287063D01*
X201986255Y-92173795D01*
X201797897Y-92095774D01*
X201597938Y-92056000D01*
X201394060Y-92056000D01*
X201194101Y-92095774D01*
X201005743Y-92173795D01*
X200836225Y-92287063D01*
X200692062Y-92431226D01*
X200578794Y-92600744D01*
X200500773Y-92789102D01*
X200460999Y-92989061D01*
X200460999Y-93192939D01*
X200500773Y-93392898D01*
X200578794Y-93581256D01*
X200692062Y-93750774D01*
X200836225Y-93894937D01*
X201005743Y-94008205D01*
X201194101Y-94086226D01*
X201394060Y-94126000D01*
X201597938Y-94126000D01*
X201797897Y-94086226D01*
X201986255Y-94008205D01*
X202155773Y-93894937D01*
X202199710Y-93851000D01*
X203649628Y-93851000D01*
X203307669Y-94192960D01*
X203245531Y-94192960D01*
X203045572Y-94232734D01*
X202857214Y-94310755D01*
X202687696Y-94424023D01*
X202543533Y-94568186D01*
X202430265Y-94737704D01*
X202352244Y-94926062D01*
X202312470Y-95126021D01*
X202312470Y-95329899D01*
X202352244Y-95529858D01*
X202430265Y-95718216D01*
X202543533Y-95887734D01*
X202598760Y-95942961D01*
X196665280Y-95942961D01*
X196609538Y-95937471D01*
X196553796Y-95942961D01*
X196553787Y-95942961D01*
X196387040Y-95959384D01*
X196173092Y-96024285D01*
X195975916Y-96129677D01*
X195803090Y-96271512D01*
X195767548Y-96314820D01*
X190571011Y-101511358D01*
X190464716Y-101640879D01*
X190359323Y-101838055D01*
X190294422Y-102052003D01*
X190272508Y-102274501D01*
X183132000Y-102274501D01*
X183132000Y-101541711D01*
X183175937Y-101497774D01*
X183289205Y-101328256D01*
X183367226Y-101139898D01*
X183407000Y-100939939D01*
X183407000Y-100736061D01*
X183367226Y-100536102D01*
X183289205Y-100347744D01*
X183175937Y-100178226D01*
X183031774Y-100034063D01*
X182862256Y-99920795D01*
X182673898Y-99842774D01*
X182473939Y-99803000D01*
X182270061Y-99803000D01*
X182070102Y-99842774D01*
X181881744Y-99920795D01*
X181712226Y-100034063D01*
X181568063Y-100178226D01*
X181454795Y-100347744D01*
X181376774Y-100536102D01*
X181337000Y-100736061D01*
X175667861Y-100736061D01*
X175230755Y-100298956D01*
X175301937Y-100227774D01*
X175415205Y-100058256D01*
X175493226Y-99869898D01*
X175533000Y-99669939D01*
X175533000Y-99466061D01*
X175493226Y-99266102D01*
X175415205Y-99077744D01*
X175301937Y-98908226D01*
X175258000Y-98864289D01*
X175258000Y-96969711D01*
X175301937Y-96925774D01*
X175415205Y-96756256D01*
X175493226Y-96567898D01*
X175533000Y-96367939D01*
X175533000Y-96164061D01*
X175493226Y-95964102D01*
X175415205Y-95775744D01*
X175301937Y-95606226D01*
X175157774Y-95462063D01*
X174988256Y-95348795D01*
X174799898Y-95270774D01*
X174599939Y-95231000D01*
X174396061Y-95231000D01*
X174196102Y-95270774D01*
X174007744Y-95348795D01*
X173838226Y-95462063D01*
X173694063Y-95606226D01*
X173580795Y-95775744D01*
X173502774Y-95964102D01*
X173463000Y-96164061D01*
X173463000Y-96367939D01*
X173502774Y-96567898D01*
X173580795Y-96756256D01*
X173694063Y-96925774D01*
X173738001Y-96969712D01*
X173738000Y-98806201D01*
X171684001Y-96752202D01*
X171684001Y-86696826D01*
X171687677Y-86659501D01*
X171684001Y-86622176D01*
X171684001Y-86622168D01*
X171673004Y-86510515D01*
X171629547Y-86367254D01*
X171558975Y-86235225D01*
X171464002Y-86119500D01*
X171435004Y-86095702D01*
X171197688Y-85858386D01*
X171234000Y-85675835D01*
X171234000Y-85504301D01*
X173738000Y-88008302D01*
X173738000Y-88323289D01*
X173694063Y-88367226D01*
X173580795Y-88536744D01*
X173502774Y-88725102D01*
X173463000Y-88925061D01*
X173463000Y-89128939D01*
X173502774Y-89328898D01*
X173580795Y-89517256D01*
X173694063Y-89686774D01*
X173838226Y-89830937D01*
X174007744Y-89944205D01*
X174196102Y-90022226D01*
X174396061Y-90062000D01*
X174599939Y-90062000D01*
X174799898Y-90022226D01*
X174988256Y-89944205D01*
X175157774Y-89830937D01*
X175301937Y-89686774D01*
X175415205Y-89517256D01*
X175493226Y-89328898D01*
X175533000Y-89128939D01*
X175533000Y-88925061D01*
X175493226Y-88725102D01*
X175415205Y-88536744D01*
X175301937Y-88367226D01*
X175258000Y-88323289D01*
X175258000Y-87730833D01*
X175261677Y-87693500D01*
X175247003Y-87544514D01*
X175203546Y-87401253D01*
X175132974Y-87269224D01*
X175075755Y-87199502D01*
X175038001Y-87153499D01*
X175009004Y-87129702D01*
X174645363Y-86766061D01*
X179813000Y-86766061D01*
X179813000Y-86969939D01*
X179852774Y-87169898D01*
X179930795Y-87358256D01*
X180044063Y-87527774D01*
X180188226Y-87671937D01*
X180357744Y-87785205D01*
X180546102Y-87863226D01*
X180746061Y-87903000D01*
X180949939Y-87903000D01*
X181149898Y-87863226D01*
X181338256Y-87785205D01*
X181507774Y-87671937D01*
X181523095Y-87656616D01*
X181533176Y-87707300D01*
X181611197Y-87895658D01*
X181724465Y-88065176D01*
X181868628Y-88209339D01*
X182038146Y-88322607D01*
X182226504Y-88400628D01*
X182426463Y-88440402D01*
X182630341Y-88440402D01*
X182830300Y-88400628D01*
X183018658Y-88322607D01*
X183188176Y-88209339D01*
X183332339Y-88065176D01*
X183445607Y-87895658D01*
X183523628Y-87707300D01*
X183563402Y-87507341D01*
X183563402Y-87303463D01*
X183523628Y-87103504D01*
X183445607Y-86915146D01*
X183332339Y-86745628D01*
X183288402Y-86701691D01*
X183288402Y-84154897D01*
X183768022Y-83675277D01*
X183924363Y-83909259D01*
X184124241Y-84109137D01*
X184356759Y-84264500D01*
X184124241Y-84419863D01*
X183924363Y-84619741D01*
X183767320Y-84854773D01*
X183659147Y-85115926D01*
X183604000Y-85393165D01*
X183604000Y-85675835D01*
X183659147Y-85953074D01*
X183767320Y-86214227D01*
X183924363Y-86449259D01*
X184124241Y-86649137D01*
X184356759Y-86804500D01*
X184124241Y-86959863D01*
X183924363Y-87159741D01*
X183767320Y-87394773D01*
X183659147Y-87655926D01*
X183604000Y-87933165D01*
X183604000Y-88215835D01*
X183659147Y-88493074D01*
X183767320Y-88754227D01*
X183924363Y-88989259D01*
X184124241Y-89189137D01*
X184356759Y-89344500D01*
X184124241Y-89499863D01*
X183924363Y-89699741D01*
X183767320Y-89934773D01*
X183659147Y-90195926D01*
X183604000Y-90473165D01*
X183604000Y-90755835D01*
X183659147Y-91033074D01*
X183767320Y-91294227D01*
X183924363Y-91529259D01*
X184124241Y-91729137D01*
X184359273Y-91886180D01*
X184369865Y-91890567D01*
X184183869Y-92002115D01*
X183975481Y-92191086D01*
X183807963Y-92417080D01*
X183687754Y-92671413D01*
X183647096Y-92805461D01*
X183769085Y-93027500D01*
X184912000Y-93027500D01*
X184912000Y-93007500D01*
X185166000Y-93007500D01*
X185166000Y-93027500D01*
X186308915Y-93027500D01*
X186430904Y-92805461D01*
X186390246Y-92671413D01*
X186270037Y-92417080D01*
X186102519Y-92191086D01*
X185902275Y-92009500D01*
X190198200Y-92009500D01*
X190119000Y-92074498D01*
X190095202Y-92103496D01*
X186474000Y-95724699D01*
X186474000Y-95553165D01*
X186418853Y-95275926D01*
X186310680Y-95014773D01*
X186153637Y-94779741D01*
X185953759Y-94579863D01*
X185718727Y-94422820D01*
X185708135Y-94418433D01*
X185894131Y-94306885D01*
X186102519Y-94117914D01*
X186270037Y-93891920D01*
X186390246Y-93637587D01*
X186430904Y-93503539D01*
X186308915Y-93281500D01*
X185166000Y-93281500D01*
X185166000Y-93301500D01*
X184912000Y-93301500D01*
X184912000Y-93281500D01*
X183769085Y-93281500D01*
X183647096Y-93503539D01*
X183687754Y-93637587D01*
X183807963Y-93891920D01*
X183975481Y-94117914D01*
X184183869Y-94306885D01*
X184369865Y-94418433D01*
X184359273Y-94422820D01*
X184124241Y-94579863D01*
X183924363Y-94779741D01*
X183767320Y-95014773D01*
X183659147Y-95275926D01*
X183604000Y-95553165D01*
X183604000Y-95835835D01*
X183659147Y-96113074D01*
X183767320Y-96374227D01*
X183924363Y-96609259D01*
X184124241Y-96809137D01*
X184356759Y-96964500D01*
X184124241Y-97119863D01*
X183924363Y-97319741D01*
X183767320Y-97554773D01*
X183659147Y-97815926D01*
X183604000Y-98093165D01*
X183604000Y-98375835D01*
X183659147Y-98653074D01*
X183767320Y-98914227D01*
X183924363Y-99149259D01*
X184122961Y-99347857D01*
X184114518Y-99348688D01*
X183994820Y-99384998D01*
X183884506Y-99443963D01*
X183787815Y-99523315D01*
X183708463Y-99620006D01*
X183649498Y-99730320D01*
X183613188Y-99850018D01*
X183600928Y-99974500D01*
X183600928Y-101574500D01*
X183613188Y-101698982D01*
X183649498Y-101818680D01*
X183708463Y-101928994D01*
X183787815Y-102025685D01*
X183884506Y-102105037D01*
X183994820Y-102164002D01*
X184114518Y-102200312D01*
X184239000Y-102212572D01*
X185839000Y-102212572D01*
X185963482Y-102200312D01*
X186083180Y-102164002D01*
X186193494Y-102105037D01*
X186290185Y-102025685D01*
X186369537Y-101928994D01*
X186428502Y-101818680D01*
X186464812Y-101698982D01*
X186477072Y-101574500D01*
X186477072Y-101173229D01*
X191297928Y-96352374D01*
X191297928Y-97179500D01*
X191310188Y-97303982D01*
X191346498Y-97423680D01*
X191405463Y-97533994D01*
X191484815Y-97630685D01*
X191581506Y-97710037D01*
X191691820Y-97769002D01*
X191811518Y-97805312D01*
X191936000Y-97817572D01*
X193636000Y-97817572D01*
X193760482Y-97805312D01*
X193880180Y-97769002D01*
X193990494Y-97710037D01*
X194087185Y-97630685D01*
X194166537Y-97533994D01*
X194225502Y-97423680D01*
X194261812Y-97303982D01*
X194274072Y-97179500D01*
X194274072Y-95916230D01*
X194472005Y-95718297D01*
X194501002Y-95694500D01*
X194595975Y-95578775D01*
X194666547Y-95446746D01*
X194710004Y-95303485D01*
X194721001Y-95191832D01*
X194721001Y-95191823D01*
X194724677Y-95154500D01*
X194721001Y-95117177D01*
X194721001Y-93262821D01*
X194724677Y-93225498D01*
X194721001Y-93188175D01*
X194721001Y-93188166D01*
X194710004Y-93076513D01*
X194666547Y-92933252D01*
X194595975Y-92801223D01*
X194573202Y-92773474D01*
X194524800Y-92714495D01*
X194524796Y-92714491D01*
X194501002Y-92685498D01*
X194472009Y-92661704D01*
X193966296Y-92155992D01*
X194101990Y-91952911D01*
X194213932Y-91682658D01*
X194271000Y-91395760D01*
X194271000Y-91103240D01*
X194213932Y-90816342D01*
X194101990Y-90546089D01*
X193939475Y-90302868D01*
X193732632Y-90096025D01*
X193558240Y-89979500D01*
X193732632Y-89862975D01*
X193939475Y-89656132D01*
X194101990Y-89412911D01*
X194213932Y-89142658D01*
X194271000Y-88855760D01*
X194271000Y-88743801D01*
X194365799Y-88649002D01*
X194436974Y-88562277D01*
X194507546Y-88430247D01*
X194551002Y-88286987D01*
X194565676Y-88138001D01*
X194551002Y-87989015D01*
X194507546Y-87845754D01*
X194436974Y-87713724D01*
X194342001Y-87597999D01*
X194226276Y-87503026D01*
X194094246Y-87432454D01*
X193950985Y-87388998D01*
X193801999Y-87374324D01*
X193653013Y-87388998D01*
X193617865Y-87399660D01*
X193732632Y-87322975D01*
X193939475Y-87116132D01*
X194101990Y-86872911D01*
X194213932Y-86602658D01*
X194271000Y-86315760D01*
X194271000Y-86023240D01*
X194213932Y-85736342D01*
X194101990Y-85466089D01*
X193939475Y-85222868D01*
X193768168Y-85051561D01*
X202228500Y-85051561D01*
X202228500Y-85255439D01*
X202268274Y-85455398D01*
X202346295Y-85643756D01*
X202459563Y-85813274D01*
X202603726Y-85957437D01*
X202773244Y-86070705D01*
X202961602Y-86148726D01*
X203161561Y-86188500D01*
X203365439Y-86188500D01*
X203565398Y-86148726D01*
X203753756Y-86070705D01*
X203923274Y-85957437D01*
X203967211Y-85913500D01*
X222308289Y-85913500D01*
X222352226Y-85957437D01*
X222521744Y-86070705D01*
X222710102Y-86148726D01*
X222910061Y-86188500D01*
X223113939Y-86188500D01*
X223313898Y-86148726D01*
X223502256Y-86070705D01*
X223671774Y-85957437D01*
X223815937Y-85813274D01*
X223929205Y-85643756D01*
X224007226Y-85455398D01*
X224047000Y-85255439D01*
X224047000Y-85051561D01*
X224007226Y-84851602D01*
X223929205Y-84663244D01*
X223815937Y-84493726D01*
X223671774Y-84349563D01*
X223558450Y-84273843D01*
X223629459Y-84167571D01*
X223725195Y-83936445D01*
X223774000Y-83691084D01*
X223774000Y-83440916D01*
X223725195Y-83195555D01*
X223629459Y-82964429D01*
X223490473Y-82756422D01*
X223313578Y-82579527D01*
X223105571Y-82440541D01*
X222874445Y-82344805D01*
X222629084Y-82296000D01*
X222378916Y-82296000D01*
X222133555Y-82344805D01*
X221902429Y-82440541D01*
X221694422Y-82579527D01*
X221517527Y-82756422D01*
X221378541Y-82964429D01*
X221282805Y-83195555D01*
X221234000Y-83440916D01*
X221234000Y-83691084D01*
X221282805Y-83936445D01*
X221378541Y-84167571D01*
X221517527Y-84375578D01*
X221535449Y-84393500D01*
X215852551Y-84393500D01*
X215870473Y-84375578D01*
X216009459Y-84167571D01*
X216105195Y-83936445D01*
X216154000Y-83691084D01*
X216154000Y-83440916D01*
X216105195Y-83195555D01*
X216009459Y-82964429D01*
X215870473Y-82756422D01*
X215693578Y-82579527D01*
X215485571Y-82440541D01*
X215254445Y-82344805D01*
X215009084Y-82296000D01*
X214758916Y-82296000D01*
X214513555Y-82344805D01*
X214282429Y-82440541D01*
X214074422Y-82579527D01*
X213897527Y-82756422D01*
X213758541Y-82964429D01*
X213662805Y-83195555D01*
X213614000Y-83440916D01*
X213565195Y-83195555D01*
X213469459Y-82964429D01*
X213330473Y-82756422D01*
X213153578Y-82579527D01*
X212945571Y-82440541D01*
X212714445Y-82344805D01*
X212469084Y-82296000D01*
X212218916Y-82296000D01*
X211973555Y-82344805D01*
X211742429Y-82440541D01*
X211534422Y-82579527D01*
X211357527Y-82756422D01*
X211218541Y-82964429D01*
X211122805Y-83195555D01*
X211074000Y-83440916D01*
X211074000Y-83691084D01*
X211122805Y-83936445D01*
X211218541Y-84167571D01*
X211357527Y-84375578D01*
X211375449Y-84393500D01*
X208232551Y-84393500D01*
X208250473Y-84375578D01*
X208389459Y-84167571D01*
X208485195Y-83936445D01*
X208534000Y-83691084D01*
X208534000Y-83440916D01*
X208485195Y-83195555D01*
X208389459Y-82964429D01*
X208250473Y-82756422D01*
X208073578Y-82579527D01*
X207865571Y-82440541D01*
X207634445Y-82344805D01*
X207389084Y-82296000D01*
X207138916Y-82296000D01*
X206893555Y-82344805D01*
X206662429Y-82440541D01*
X206454422Y-82579527D01*
X206277527Y-82756422D01*
X206138541Y-82964429D01*
X206042805Y-83195555D01*
X205994000Y-83440916D01*
X205945195Y-83195555D01*
X205849459Y-82964429D01*
X205710473Y-82756422D01*
X205533578Y-82579527D01*
X205325571Y-82440541D01*
X205094445Y-82344805D01*
X204849084Y-82296000D01*
X204598916Y-82296000D01*
X204353555Y-82344805D01*
X204122429Y-82440541D01*
X203914422Y-82579527D01*
X203737527Y-82756422D01*
X203598541Y-82964429D01*
X203502805Y-83195555D01*
X203454000Y-83440916D01*
X203454000Y-83691084D01*
X203502805Y-83936445D01*
X203598541Y-84167571D01*
X203602635Y-84173698D01*
X203565398Y-84158274D01*
X203365439Y-84118500D01*
X203161561Y-84118500D01*
X202961602Y-84158274D01*
X202773244Y-84236295D01*
X202603726Y-84349563D01*
X202459563Y-84493726D01*
X202346295Y-84663244D01*
X202268274Y-84851602D01*
X202228500Y-85051561D01*
X193768168Y-85051561D01*
X193732632Y-85016025D01*
X193558240Y-84899500D01*
X193732632Y-84782975D01*
X193939475Y-84576132D01*
X194101990Y-84332911D01*
X194213932Y-84062658D01*
X194271000Y-83775760D01*
X194271000Y-83483240D01*
X194213932Y-83196342D01*
X194101990Y-82926089D01*
X193939475Y-82682868D01*
X193732632Y-82476025D01*
X193558240Y-82359500D01*
X193732632Y-82242975D01*
X193939475Y-82036132D01*
X194101990Y-81792911D01*
X194213932Y-81522658D01*
X194271000Y-81235760D01*
X194271000Y-80943240D01*
X194213932Y-80656342D01*
X194101990Y-80386089D01*
X193939475Y-80142868D01*
X193732632Y-79936025D01*
X193558240Y-79819500D01*
X193732632Y-79702975D01*
X193939475Y-79496132D01*
X194101990Y-79252911D01*
X194213932Y-78982658D01*
X194271000Y-78695760D01*
X194271000Y-78678416D01*
X205994000Y-78678416D01*
X205994000Y-78928584D01*
X206042805Y-79173945D01*
X206138541Y-79405071D01*
X206277527Y-79613078D01*
X206454422Y-79789973D01*
X206662429Y-79928959D01*
X206893555Y-80024695D01*
X207138916Y-80073500D01*
X207389084Y-80073500D01*
X207634445Y-80024695D01*
X207865571Y-79928959D01*
X208073578Y-79789973D01*
X208250473Y-79613078D01*
X208389459Y-79405071D01*
X208485195Y-79173945D01*
X208534000Y-78928584D01*
X208582805Y-79173945D01*
X208678541Y-79405071D01*
X208817527Y-79613078D01*
X208994422Y-79789973D01*
X209202429Y-79928959D01*
X209433555Y-80024695D01*
X209678916Y-80073500D01*
X209929084Y-80073500D01*
X210174445Y-80024695D01*
X210405571Y-79928959D01*
X210613578Y-79789973D01*
X210790473Y-79613078D01*
X210929459Y-79405071D01*
X211025195Y-79173945D01*
X211074000Y-78928584D01*
X211122805Y-79173945D01*
X211218541Y-79405071D01*
X211357527Y-79613078D01*
X211534422Y-79789973D01*
X211742429Y-79928959D01*
X211973555Y-80024695D01*
X212218916Y-80073500D01*
X212469084Y-80073500D01*
X212714445Y-80024695D01*
X212945571Y-79928959D01*
X213153578Y-79789973D01*
X213330473Y-79613078D01*
X213469459Y-79405071D01*
X213565195Y-79173945D01*
X213614000Y-78928584D01*
X213662805Y-79173945D01*
X213758541Y-79405071D01*
X213897527Y-79613078D01*
X214074422Y-79789973D01*
X214282429Y-79928959D01*
X214513555Y-80024695D01*
X214758916Y-80073500D01*
X215009084Y-80073500D01*
X215254445Y-80024695D01*
X215485571Y-79928959D01*
X215693578Y-79789973D01*
X215870473Y-79613078D01*
X216009459Y-79405071D01*
X216105195Y-79173945D01*
X216154000Y-78928584D01*
X216202805Y-79173945D01*
X216298541Y-79405071D01*
X216437527Y-79613078D01*
X216614422Y-79789973D01*
X216822429Y-79928959D01*
X217053555Y-80024695D01*
X217298916Y-80073500D01*
X217549084Y-80073500D01*
X217794445Y-80024695D01*
X218025571Y-79928959D01*
X218233578Y-79789973D01*
X218410473Y-79613078D01*
X218549459Y-79405071D01*
X218645195Y-79173945D01*
X218694000Y-78928584D01*
X218742805Y-79173945D01*
X218838541Y-79405071D01*
X218977527Y-79613078D01*
X219154422Y-79789973D01*
X219362429Y-79928959D01*
X219593555Y-80024695D01*
X219838916Y-80073500D01*
X220089084Y-80073500D01*
X220334445Y-80024695D01*
X220565571Y-79928959D01*
X220773578Y-79789973D01*
X220950473Y-79613078D01*
X221089459Y-79405071D01*
X221185195Y-79173945D01*
X221234000Y-78928584D01*
X221282805Y-79173945D01*
X221378541Y-79405071D01*
X221517527Y-79613078D01*
X221694422Y-79789973D01*
X221902429Y-79928959D01*
X222133555Y-80024695D01*
X222378916Y-80073500D01*
X222629084Y-80073500D01*
X222874445Y-80024695D01*
X223105571Y-79928959D01*
X223313578Y-79789973D01*
X223490473Y-79613078D01*
X223629459Y-79405071D01*
X223725195Y-79173945D01*
X223774000Y-78928584D01*
X223774000Y-78678416D01*
X223725195Y-78433055D01*
X223629459Y-78201929D01*
X223490473Y-77993922D01*
X223313578Y-77817027D01*
X223105571Y-77678041D01*
X222874445Y-77582305D01*
X222629084Y-77533500D01*
X222378916Y-77533500D01*
X222133555Y-77582305D01*
X221902429Y-77678041D01*
X221694422Y-77817027D01*
X221517527Y-77993922D01*
X221378541Y-78201929D01*
X221282805Y-78433055D01*
X221234000Y-78678416D01*
X221185195Y-78433055D01*
X221089459Y-78201929D01*
X220950473Y-77993922D01*
X220773578Y-77817027D01*
X220565571Y-77678041D01*
X220334445Y-77582305D01*
X220089084Y-77533500D01*
X219838916Y-77533500D01*
X219593555Y-77582305D01*
X219362429Y-77678041D01*
X219154422Y-77817027D01*
X218977527Y-77993922D01*
X218838541Y-78201929D01*
X218742805Y-78433055D01*
X218694000Y-78678416D01*
X218645195Y-78433055D01*
X218549459Y-78201929D01*
X218410473Y-77993922D01*
X218233578Y-77817027D01*
X218025571Y-77678041D01*
X217794445Y-77582305D01*
X217549084Y-77533500D01*
X217298916Y-77533500D01*
X217053555Y-77582305D01*
X216822429Y-77678041D01*
X216614422Y-77817027D01*
X216437527Y-77993922D01*
X216298541Y-78201929D01*
X216202805Y-78433055D01*
X216154000Y-78678416D01*
X216105195Y-78433055D01*
X216009459Y-78201929D01*
X215870473Y-77993922D01*
X215693578Y-77817027D01*
X215485571Y-77678041D01*
X215254445Y-77582305D01*
X215009084Y-77533500D01*
X214758916Y-77533500D01*
X214513555Y-77582305D01*
X214282429Y-77678041D01*
X214074422Y-77817027D01*
X213897527Y-77993922D01*
X213758541Y-78201929D01*
X213662805Y-78433055D01*
X213614000Y-78678416D01*
X213565195Y-78433055D01*
X213469459Y-78201929D01*
X213330473Y-77993922D01*
X213153578Y-77817027D01*
X212945571Y-77678041D01*
X212714445Y-77582305D01*
X212469084Y-77533500D01*
X212218916Y-77533500D01*
X211973555Y-77582305D01*
X211742429Y-77678041D01*
X211534422Y-77817027D01*
X211357527Y-77993922D01*
X211218541Y-78201929D01*
X211122805Y-78433055D01*
X211074000Y-78678416D01*
X211025195Y-78433055D01*
X210929459Y-78201929D01*
X210790473Y-77993922D01*
X210613578Y-77817027D01*
X210405571Y-77678041D01*
X210174445Y-77582305D01*
X209929084Y-77533500D01*
X209678916Y-77533500D01*
X209433555Y-77582305D01*
X209202429Y-77678041D01*
X208994422Y-77817027D01*
X208817527Y-77993922D01*
X208678541Y-78201929D01*
X208582805Y-78433055D01*
X208534000Y-78678416D01*
X208485195Y-78433055D01*
X208389459Y-78201929D01*
X208250473Y-77993922D01*
X208073578Y-77817027D01*
X207865571Y-77678041D01*
X207634445Y-77582305D01*
X207389084Y-77533500D01*
X207138916Y-77533500D01*
X206893555Y-77582305D01*
X206662429Y-77678041D01*
X206454422Y-77817027D01*
X206277527Y-77993922D01*
X206138541Y-78201929D01*
X206042805Y-78433055D01*
X205994000Y-78678416D01*
X194271000Y-78678416D01*
X194271000Y-78403240D01*
X194213932Y-78116342D01*
X194101990Y-77846089D01*
X193939475Y-77602868D01*
X193732632Y-77396025D01*
X193489411Y-77233510D01*
X193219158Y-77121568D01*
X192932260Y-77064500D01*
X192639740Y-77064500D01*
X192352842Y-77121568D01*
X192082589Y-77233510D01*
X191839368Y-77396025D01*
X191632525Y-77602868D01*
X191470010Y-77846089D01*
X191358068Y-78116342D01*
X191301000Y-78403240D01*
X191301000Y-78695760D01*
X191358068Y-78982658D01*
X191470010Y-79252911D01*
X191632525Y-79496132D01*
X191839368Y-79702975D01*
X192013760Y-79819500D01*
X191839368Y-79936025D01*
X191632525Y-80142868D01*
X191470010Y-80386089D01*
X191358068Y-80656342D01*
X191301000Y-80943240D01*
X191301000Y-81235760D01*
X191358068Y-81522658D01*
X191470010Y-81792911D01*
X191632525Y-82036132D01*
X191839368Y-82242975D01*
X192013760Y-82359500D01*
X191839368Y-82476025D01*
X191632525Y-82682868D01*
X191507822Y-82869500D01*
X188147802Y-82869500D01*
X187217000Y-81938699D01*
X187217000Y-81876561D01*
X187177226Y-81676602D01*
X187099205Y-81488244D01*
X186985937Y-81318726D01*
X186841774Y-81174563D01*
X186672256Y-81061295D01*
X186483898Y-80983274D01*
X186381633Y-80962932D01*
X186418853Y-80873074D01*
X186474000Y-80595835D01*
X186474000Y-80313165D01*
X186418853Y-80035926D01*
X186362550Y-79899999D01*
X188919679Y-79899999D01*
X188957001Y-79903675D01*
X188994323Y-79899999D01*
X188994334Y-79899999D01*
X189105987Y-79889002D01*
X189249248Y-79845545D01*
X189381226Y-79775000D01*
X189458939Y-79775000D01*
X189658898Y-79735226D01*
X189847256Y-79657205D01*
X190016774Y-79543937D01*
X190160937Y-79399774D01*
X190274205Y-79230256D01*
X190352226Y-79041898D01*
X190392000Y-78841939D01*
X190392000Y-78638061D01*
X190352226Y-78438102D01*
X190274205Y-78249744D01*
X190160937Y-78080226D01*
X190016774Y-77936063D01*
X189847256Y-77822795D01*
X189658898Y-77744774D01*
X189458939Y-77705000D01*
X189255061Y-77705000D01*
X189055102Y-77744774D01*
X188866744Y-77822795D01*
X188697226Y-77936063D01*
X188553063Y-78080226D01*
X188439795Y-78249744D01*
X188385841Y-78379999D01*
X186399416Y-78379999D01*
X186418853Y-78333074D01*
X186474000Y-78055835D01*
X186474000Y-77773165D01*
X186418853Y-77495926D01*
X186310680Y-77234773D01*
X186153637Y-76999741D01*
X185953759Y-76799863D01*
X185721241Y-76644500D01*
X185953759Y-76489137D01*
X186153637Y-76289259D01*
X186310680Y-76054227D01*
X186418853Y-75793074D01*
X186474000Y-75515835D01*
X186474000Y-75233165D01*
X186418853Y-74955926D01*
X186310680Y-74694773D01*
X186153637Y-74459741D01*
X185953759Y-74259863D01*
X185721241Y-74104500D01*
X185953759Y-73949137D01*
X186153637Y-73749259D01*
X186310680Y-73514227D01*
X186418853Y-73253074D01*
X186474000Y-72975835D01*
X186474000Y-72693165D01*
X186418853Y-72415926D01*
X186310680Y-72154773D01*
X186153637Y-71919741D01*
X185953759Y-71719863D01*
X185721241Y-71564500D01*
X185953759Y-71409137D01*
X185996483Y-71366413D01*
X188989192Y-71366413D01*
X189084956Y-71630814D01*
X189374571Y-71771704D01*
X189686108Y-71853384D01*
X190007595Y-71872718D01*
X190326675Y-71828961D01*
X190631088Y-71723795D01*
X190805044Y-71630814D01*
X190900808Y-71366413D01*
X189945000Y-70410605D01*
X188989192Y-71366413D01*
X185996483Y-71366413D01*
X186153637Y-71209259D01*
X186310680Y-70974227D01*
X186418853Y-70713074D01*
X186474000Y-70435835D01*
X186474000Y-70293595D01*
X188303282Y-70293595D01*
X188347039Y-70612675D01*
X188452205Y-70917088D01*
X188545186Y-71091044D01*
X188809587Y-71186808D01*
X189765395Y-70231000D01*
X190124605Y-70231000D01*
X191080413Y-71186808D01*
X191344814Y-71091044D01*
X191485704Y-70801429D01*
X191567384Y-70489892D01*
X191586718Y-70168405D01*
X191542961Y-69849325D01*
X191437795Y-69544912D01*
X191344814Y-69370956D01*
X191080413Y-69275192D01*
X190124605Y-70231000D01*
X189765395Y-70231000D01*
X188809587Y-69275192D01*
X188545186Y-69370956D01*
X188404296Y-69660571D01*
X188322616Y-69972108D01*
X188303282Y-70293595D01*
X186474000Y-70293595D01*
X186474000Y-70153165D01*
X186418853Y-69875926D01*
X186310680Y-69614773D01*
X186153637Y-69379741D01*
X185953759Y-69179863D01*
X185827631Y-69095587D01*
X188989192Y-69095587D01*
X189945000Y-70051395D01*
X190765395Y-69231000D01*
X193306928Y-69231000D01*
X193306928Y-71231000D01*
X193319188Y-71355482D01*
X193355498Y-71475180D01*
X193414463Y-71585494D01*
X193493815Y-71682185D01*
X193590506Y-71761537D01*
X193700820Y-71820502D01*
X193820518Y-71856812D01*
X193945000Y-71869072D01*
X195945000Y-71869072D01*
X196069482Y-71856812D01*
X196189180Y-71820502D01*
X196299494Y-71761537D01*
X196396185Y-71682185D01*
X196475537Y-71585494D01*
X196534502Y-71475180D01*
X196570812Y-71355482D01*
X196583072Y-71231000D01*
X196583072Y-69231000D01*
X196570812Y-69106518D01*
X196534502Y-68986820D01*
X196475537Y-68876506D01*
X196396185Y-68779815D01*
X196299494Y-68700463D01*
X196189180Y-68641498D01*
X196069482Y-68605188D01*
X195945000Y-68592928D01*
X193945000Y-68592928D01*
X193820518Y-68605188D01*
X193700820Y-68641498D01*
X193590506Y-68700463D01*
X193493815Y-68779815D01*
X193414463Y-68876506D01*
X193355498Y-68986820D01*
X193319188Y-69106518D01*
X193306928Y-69231000D01*
X190765395Y-69231000D01*
X190900808Y-69095587D01*
X190805044Y-68831186D01*
X190515429Y-68690296D01*
X190203892Y-68608616D01*
X189882405Y-68589282D01*
X189563325Y-68633039D01*
X189258912Y-68738205D01*
X189084956Y-68831186D01*
X188989192Y-69095587D01*
X185827631Y-69095587D01*
X185721241Y-69024500D01*
X185953759Y-68869137D01*
X186153637Y-68669259D01*
X186254426Y-68518416D01*
X203454000Y-68518416D01*
X203454000Y-68768584D01*
X203502805Y-69013945D01*
X203598541Y-69245071D01*
X203737527Y-69453078D01*
X203914422Y-69629973D01*
X204122429Y-69768959D01*
X204353555Y-69864695D01*
X204598916Y-69913500D01*
X204849084Y-69913500D01*
X205094445Y-69864695D01*
X205325571Y-69768959D01*
X205533578Y-69629973D01*
X205710473Y-69453078D01*
X205849459Y-69245071D01*
X205945195Y-69013945D01*
X205994000Y-68768584D01*
X206042805Y-69013945D01*
X206138541Y-69245071D01*
X206277527Y-69453078D01*
X206454422Y-69629973D01*
X206662429Y-69768959D01*
X206893555Y-69864695D01*
X207138916Y-69913500D01*
X207389084Y-69913500D01*
X207634445Y-69864695D01*
X207865571Y-69768959D01*
X208073578Y-69629973D01*
X208250473Y-69453078D01*
X208389459Y-69245071D01*
X208485195Y-69013945D01*
X208534000Y-68768584D01*
X208534000Y-68518416D01*
X211074000Y-68518416D01*
X211074000Y-68768584D01*
X211122805Y-69013945D01*
X211218541Y-69245071D01*
X211357527Y-69453078D01*
X211534422Y-69629973D01*
X211742429Y-69768959D01*
X211973555Y-69864695D01*
X212218916Y-69913500D01*
X212469084Y-69913500D01*
X212714445Y-69864695D01*
X212945571Y-69768959D01*
X213153578Y-69629973D01*
X213330473Y-69453078D01*
X213469459Y-69245071D01*
X213565195Y-69013945D01*
X213614000Y-68768584D01*
X213662805Y-69013945D01*
X213758541Y-69245071D01*
X213897527Y-69453078D01*
X214074422Y-69629973D01*
X214282429Y-69768959D01*
X214513555Y-69864695D01*
X214758916Y-69913500D01*
X215009084Y-69913500D01*
X215254445Y-69864695D01*
X215485571Y-69768959D01*
X215693578Y-69629973D01*
X215870473Y-69453078D01*
X216009459Y-69245071D01*
X216105195Y-69013945D01*
X216154000Y-68768584D01*
X216154000Y-68518416D01*
X221234000Y-68518416D01*
X221234000Y-68768584D01*
X221282805Y-69013945D01*
X221378541Y-69245071D01*
X221517527Y-69453078D01*
X221694422Y-69629973D01*
X221902429Y-69768959D01*
X222133555Y-69864695D01*
X222378916Y-69913500D01*
X222629084Y-69913500D01*
X222874445Y-69864695D01*
X223105571Y-69768959D01*
X223313578Y-69629973D01*
X223490473Y-69453078D01*
X223629459Y-69245071D01*
X223725195Y-69013945D01*
X223774000Y-68768584D01*
X223774000Y-68518416D01*
X223725195Y-68273055D01*
X223629459Y-68041929D01*
X223490473Y-67833922D01*
X223313578Y-67657027D01*
X223105571Y-67518041D01*
X222874445Y-67422305D01*
X222629084Y-67373500D01*
X222378916Y-67373500D01*
X222133555Y-67422305D01*
X221902429Y-67518041D01*
X221694422Y-67657027D01*
X221517527Y-67833922D01*
X221378541Y-68041929D01*
X221282805Y-68273055D01*
X221234000Y-68518416D01*
X216154000Y-68518416D01*
X216105195Y-68273055D01*
X216009459Y-68041929D01*
X215870473Y-67833922D01*
X215693578Y-67657027D01*
X215485571Y-67518041D01*
X215254445Y-67422305D01*
X215009084Y-67373500D01*
X214758916Y-67373500D01*
X214513555Y-67422305D01*
X214282429Y-67518041D01*
X214074422Y-67657027D01*
X213897527Y-67833922D01*
X213758541Y-68041929D01*
X213662805Y-68273055D01*
X213614000Y-68518416D01*
X213565195Y-68273055D01*
X213469459Y-68041929D01*
X213330473Y-67833922D01*
X213153578Y-67657027D01*
X212945571Y-67518041D01*
X212714445Y-67422305D01*
X212469084Y-67373500D01*
X212218916Y-67373500D01*
X211973555Y-67422305D01*
X211742429Y-67518041D01*
X211534422Y-67657027D01*
X211357527Y-67833922D01*
X211218541Y-68041929D01*
X211122805Y-68273055D01*
X211074000Y-68518416D01*
X208534000Y-68518416D01*
X208485195Y-68273055D01*
X208389459Y-68041929D01*
X208250473Y-67833922D01*
X208073578Y-67657027D01*
X207865571Y-67518041D01*
X207634445Y-67422305D01*
X207389084Y-67373500D01*
X207138916Y-67373500D01*
X206893555Y-67422305D01*
X206662429Y-67518041D01*
X206454422Y-67657027D01*
X206277527Y-67833922D01*
X206138541Y-68041929D01*
X206042805Y-68273055D01*
X205994000Y-68518416D01*
X205945195Y-68273055D01*
X205849459Y-68041929D01*
X205710473Y-67833922D01*
X205533578Y-67657027D01*
X205325571Y-67518041D01*
X205094445Y-67422305D01*
X204849084Y-67373500D01*
X204598916Y-67373500D01*
X204353555Y-67422305D01*
X204122429Y-67518041D01*
X203914422Y-67657027D01*
X203737527Y-67833922D01*
X203598541Y-68041929D01*
X203502805Y-68273055D01*
X203454000Y-68518416D01*
X186254426Y-68518416D01*
X186310680Y-68434227D01*
X186418853Y-68173074D01*
X186474000Y-67895835D01*
X186474000Y-67613165D01*
X186418853Y-67335926D01*
X186310680Y-67074773D01*
X186153637Y-66839741D01*
X185953759Y-66639863D01*
X185721241Y-66484500D01*
X185953759Y-66329137D01*
X186153637Y-66129259D01*
X186310680Y-65894227D01*
X186418853Y-65633074D01*
X186474000Y-65355835D01*
X186474000Y-65073165D01*
X186418853Y-64795926D01*
X186310680Y-64534773D01*
X186153637Y-64299741D01*
X185953759Y-64099863D01*
X185819981Y-64010475D01*
X222892000Y-64010475D01*
X222892000Y-64529525D01*
X222993261Y-65038601D01*
X223191893Y-65518141D01*
X223480262Y-65949715D01*
X223847285Y-66316738D01*
X224278859Y-66605107D01*
X224758399Y-66803739D01*
X225267475Y-66905000D01*
X225786525Y-66905000D01*
X226295601Y-66803739D01*
X226775141Y-66605107D01*
X227206715Y-66316738D01*
X227573738Y-65949715D01*
X227862107Y-65518141D01*
X228060739Y-65038601D01*
X228162000Y-64529525D01*
X228162000Y-64010475D01*
X228060739Y-63501399D01*
X227862107Y-63021859D01*
X227573738Y-62590285D01*
X227206715Y-62223262D01*
X226775141Y-61934893D01*
X226295601Y-61736261D01*
X225786525Y-61635000D01*
X225267475Y-61635000D01*
X224758399Y-61736261D01*
X224278859Y-61934893D01*
X223847285Y-62223262D01*
X223480262Y-62590285D01*
X223191893Y-63021859D01*
X222993261Y-63501399D01*
X222892000Y-64010475D01*
X185819981Y-64010475D01*
X185718727Y-63942820D01*
X185457574Y-63834647D01*
X185180335Y-63779500D01*
X184897665Y-63779500D01*
X184620426Y-63834647D01*
X184359273Y-63942820D01*
X184124241Y-64099863D01*
X183924363Y-64299741D01*
X183767320Y-64534773D01*
X183659147Y-64795926D01*
X183604000Y-65073165D01*
X183604000Y-65355835D01*
X183659147Y-65633074D01*
X183767320Y-65894227D01*
X183924363Y-66129259D01*
X184124241Y-66329137D01*
X184356759Y-66484500D01*
X184124241Y-66639863D01*
X183924363Y-66839741D01*
X183767320Y-67074773D01*
X183659147Y-67335926D01*
X183604000Y-67613165D01*
X183604000Y-67895835D01*
X183659147Y-68173074D01*
X183767320Y-68434227D01*
X183924363Y-68669259D01*
X184124241Y-68869137D01*
X184356759Y-69024500D01*
X184124241Y-69179863D01*
X183924363Y-69379741D01*
X183767320Y-69614773D01*
X183659147Y-69875926D01*
X183604000Y-70153165D01*
X183604000Y-70435835D01*
X183659147Y-70713074D01*
X183767320Y-70974227D01*
X183924363Y-71209259D01*
X184124241Y-71409137D01*
X184356759Y-71564500D01*
X184124241Y-71719863D01*
X183924363Y-71919741D01*
X183767320Y-72154773D01*
X183659147Y-72415926D01*
X183604000Y-72693165D01*
X183604000Y-72975835D01*
X183659147Y-73253074D01*
X183767320Y-73514227D01*
X183924363Y-73749259D01*
X184124241Y-73949137D01*
X184356759Y-74104500D01*
X184124241Y-74259863D01*
X183924363Y-74459741D01*
X183767320Y-74694773D01*
X183659147Y-74955926D01*
X183604000Y-75233165D01*
X183604000Y-75515835D01*
X183659147Y-75793074D01*
X183767320Y-76054227D01*
X183924363Y-76289259D01*
X184124241Y-76489137D01*
X184356759Y-76644500D01*
X184124241Y-76799863D01*
X183924363Y-76999741D01*
X183767320Y-77234773D01*
X183659147Y-77495926D01*
X183604000Y-77773165D01*
X183604000Y-78055835D01*
X183659147Y-78333074D01*
X183767320Y-78594227D01*
X183924363Y-78829259D01*
X183924400Y-78829296D01*
X180337003Y-82416694D01*
X180307999Y-82440497D01*
X180267782Y-82489502D01*
X180213026Y-82556222D01*
X180169168Y-82638274D01*
X180142454Y-82688252D01*
X180098997Y-82831513D01*
X180088000Y-82943166D01*
X180088000Y-82943176D01*
X180084324Y-82980498D01*
X180088000Y-83017821D01*
X180088001Y-86164288D01*
X180044063Y-86208226D01*
X179930795Y-86377744D01*
X179852774Y-86566102D01*
X179813000Y-86766061D01*
X174645363Y-86766061D01*
X171197688Y-83318387D01*
X171234000Y-83135835D01*
X171234000Y-82853165D01*
X171178853Y-82575926D01*
X171070680Y-82314773D01*
X170913637Y-82079741D01*
X170713759Y-81879863D01*
X170481241Y-81724500D01*
X170713759Y-81569137D01*
X170913637Y-81369259D01*
X171070680Y-81134227D01*
X171178853Y-80873074D01*
X171234000Y-80595835D01*
X171234000Y-80313165D01*
X171178853Y-80035926D01*
X171070680Y-79774773D01*
X170913637Y-79539741D01*
X170713759Y-79339863D01*
X170481241Y-79184500D01*
X170713759Y-79029137D01*
X170913637Y-78829259D01*
X171070680Y-78594227D01*
X171178853Y-78333074D01*
X171234000Y-78055835D01*
X171234000Y-77773165D01*
X171178853Y-77495926D01*
X171070680Y-77234773D01*
X170913637Y-76999741D01*
X170713759Y-76799863D01*
X170481241Y-76644500D01*
X170713759Y-76489137D01*
X170913637Y-76289259D01*
X171070680Y-76054227D01*
X171178853Y-75793074D01*
X171234000Y-75515835D01*
X171234000Y-75233165D01*
X171178853Y-74955926D01*
X171070680Y-74694773D01*
X170913637Y-74459741D01*
X170713759Y-74259863D01*
X170481241Y-74104500D01*
X170713759Y-73949137D01*
X170913637Y-73749259D01*
X171070680Y-73514227D01*
X171178853Y-73253074D01*
X171234000Y-72975835D01*
X171234000Y-72693165D01*
X171178853Y-72415926D01*
X171070680Y-72154773D01*
X170913637Y-71919741D01*
X170713759Y-71719863D01*
X170481241Y-71564500D01*
X170713759Y-71409137D01*
X170913637Y-71209259D01*
X171070680Y-70974227D01*
X171178853Y-70713074D01*
X171234000Y-70435835D01*
X171234000Y-70153165D01*
X171178853Y-69875926D01*
X171070680Y-69614773D01*
X170913637Y-69379741D01*
X170713759Y-69179863D01*
X170481241Y-69024500D01*
X170713759Y-68869137D01*
X170913637Y-68669259D01*
X171070680Y-68434227D01*
X171178853Y-68173074D01*
X171234000Y-67895835D01*
X171234000Y-67613165D01*
X171178853Y-67335926D01*
X171070680Y-67074773D01*
X170913637Y-66839741D01*
X170713759Y-66639863D01*
X170481241Y-66484500D01*
X170713759Y-66329137D01*
X170913637Y-66129259D01*
X171070680Y-65894227D01*
X171178853Y-65633074D01*
X171234000Y-65355835D01*
X171234000Y-65073165D01*
X171178853Y-64795926D01*
X171070680Y-64534773D01*
X170913637Y-64299741D01*
X170713759Y-64099863D01*
X170478727Y-63942820D01*
X170217574Y-63834647D01*
X169940335Y-63779500D01*
X169657665Y-63779500D01*
X169380426Y-63834647D01*
X169119273Y-63942820D01*
X168884241Y-64099863D01*
X168684363Y-64299741D01*
X168527320Y-64534773D01*
X168419147Y-64795926D01*
X168364000Y-65073165D01*
X153904967Y-65073165D01*
X151807177Y-62975376D01*
X151813168Y-62960912D01*
X151876000Y-62645033D01*
X151876000Y-62449967D01*
X162004500Y-62449967D01*
X162004500Y-62772033D01*
X162067332Y-63087912D01*
X162190582Y-63385463D01*
X162369513Y-63653252D01*
X162597248Y-63880987D01*
X162865037Y-64059918D01*
X163162588Y-64183168D01*
X163478467Y-64246000D01*
X163800533Y-64246000D01*
X164116412Y-64183168D01*
X164413963Y-64059918D01*
X164681752Y-63880987D01*
X164909487Y-63653252D01*
X165088418Y-63385463D01*
X165211668Y-63087912D01*
X165274500Y-62772033D01*
X165274500Y-62449967D01*
X165211668Y-62134088D01*
X165088418Y-61836537D01*
X164909487Y-61568748D01*
X164681752Y-61341013D01*
X164413963Y-61162082D01*
X164116412Y-61038832D01*
X163800533Y-60976000D01*
X163478467Y-60976000D01*
X163162588Y-61038832D01*
X162865037Y-61162082D01*
X162597248Y-61341013D01*
X162369513Y-61568748D01*
X162190582Y-61836537D01*
X162067332Y-62134088D01*
X162004500Y-62449967D01*
X151876000Y-62449967D01*
X151876000Y-62322967D01*
X151813168Y-62007088D01*
X151689918Y-61709537D01*
X151510987Y-61441748D01*
X151283252Y-61214013D01*
X151015463Y-61035082D01*
X150717912Y-60911832D01*
X150402033Y-60849000D01*
X150079967Y-60849000D01*
X149764088Y-60911832D01*
X149466537Y-61035082D01*
X149198748Y-61214013D01*
X148971013Y-61441748D01*
X148792082Y-61709537D01*
X148668832Y-62007088D01*
X148606000Y-62322967D01*
X146008739Y-62322967D01*
X145971168Y-62134088D01*
X145847918Y-61836537D01*
X145668987Y-61568748D01*
X145441252Y-61341013D01*
X145173463Y-61162082D01*
X144875912Y-61038832D01*
X144560033Y-60976000D01*
X144237967Y-60976000D01*
X143922088Y-61038832D01*
X143624537Y-61162082D01*
X143356748Y-61341013D01*
X143129013Y-61568748D01*
X142950082Y-61836537D01*
X142826832Y-62134088D01*
X142764000Y-62449967D01*
X129635000Y-62449967D01*
X129635000Y-61970475D01*
X129533739Y-61461399D01*
X129335107Y-60981859D01*
X129046738Y-60550285D01*
X128679715Y-60183262D01*
X128248141Y-59894893D01*
X127768601Y-59696261D01*
X127259525Y-59595000D01*
X126740475Y-59595000D01*
X126231399Y-59696261D01*
X125751859Y-59894893D01*
X125320285Y-60183262D01*
X124953262Y-60550285D01*
X124664893Y-60981859D01*
X124466261Y-61461399D01*
X124365000Y-61970475D01*
X120040000Y-61970475D01*
X120040000Y-57810000D01*
X230480000Y-57810000D01*
X230480001Y-117450000D01*
%TD*%
M02*
