%TF.GenerationSoftware,KiCad,Pcbnew,(5.1.6-0-10_14)*%
%TF.CreationDate,2021-01-04T17:29:47-08:00*%
%TF.ProjectId,temperatureController,74656d70-6572-4617-9475-7265436f6e74,rev?*%
%TF.SameCoordinates,Original*%
%TF.FileFunction,Legend,Top*%
%TF.FilePolarity,Positive*%
%FSLAX46Y46*%
G04 Gerber Fmt 4.6, Leading zero omitted, Abs format (unit mm)*
G04 Created by KiCad (PCBNEW (5.1.6-0-10_14)) date 2021-01-04 17:29:47*
%MOMM*%
%LPD*%
G01*
G04 APERTURE LIST*
%ADD10C,0.150000*%
%ADD11C,0.700000*%
%ADD12C,0.600000*%
%ADD13C,0.120000*%
%ADD14C,0.152400*%
G04 APERTURE END LIST*
D10*
X181681523Y-68667380D02*
X181491047Y-68667380D01*
X181395809Y-68715000D01*
X181348190Y-68762619D01*
X181252952Y-68905476D01*
X181205333Y-69095952D01*
X181205333Y-69476904D01*
X181252952Y-69572142D01*
X181300571Y-69619761D01*
X181395809Y-69667380D01*
X181586285Y-69667380D01*
X181681523Y-69619761D01*
X181729142Y-69572142D01*
X181776761Y-69476904D01*
X181776761Y-69238809D01*
X181729142Y-69143571D01*
X181681523Y-69095952D01*
X181586285Y-69048333D01*
X181395809Y-69048333D01*
X181300571Y-69095952D01*
X181252952Y-69143571D01*
X181205333Y-69238809D01*
X181967238Y-69762619D02*
X182729142Y-69762619D01*
X182967238Y-69667380D02*
X182967238Y-68667380D01*
X183205333Y-68667380D01*
X183348190Y-68715000D01*
X183443428Y-68810238D01*
X183491047Y-68905476D01*
X183538666Y-69095952D01*
X183538666Y-69238809D01*
X183491047Y-69429285D01*
X183443428Y-69524523D01*
X183348190Y-69619761D01*
X183205333Y-69667380D01*
X182967238Y-69667380D01*
X192182714Y-76271380D02*
X191611285Y-76271380D01*
X191897000Y-76271380D02*
X191897000Y-75271380D01*
X191801761Y-75414238D01*
X191706523Y-75509476D01*
X191611285Y-75557095D01*
X181943380Y-75398380D02*
X182038619Y-75398380D01*
X182133857Y-75446000D01*
X182181476Y-75493619D01*
X182229095Y-75588857D01*
X182276714Y-75779333D01*
X182276714Y-76017428D01*
X182229095Y-76207904D01*
X182181476Y-76303142D01*
X182133857Y-76350761D01*
X182038619Y-76398380D01*
X181943380Y-76398380D01*
X181848142Y-76350761D01*
X181800523Y-76303142D01*
X181752904Y-76207904D01*
X181705285Y-76017428D01*
X181705285Y-75779333D01*
X181752904Y-75588857D01*
X181800523Y-75493619D01*
X181848142Y-75446000D01*
X181943380Y-75398380D01*
X196691285Y-75493619D02*
X196738904Y-75446000D01*
X196834142Y-75398380D01*
X197072238Y-75398380D01*
X197167476Y-75446000D01*
X197215095Y-75493619D01*
X197262714Y-75588857D01*
X197262714Y-75684095D01*
X197215095Y-75826952D01*
X196643666Y-76398380D01*
X197262714Y-76398380D01*
X179339857Y-83748571D02*
X179006523Y-83748571D01*
X179006523Y-84272380D02*
X179006523Y-83272380D01*
X179482714Y-83272380D01*
X181665714Y-83272380D02*
X182332380Y-83272380D01*
X181903809Y-84272380D01*
X182475238Y-84367619D02*
X183237142Y-84367619D01*
X183475238Y-84272380D02*
X183475238Y-83272380D01*
X183713333Y-83272380D01*
X183856190Y-83320000D01*
X183951428Y-83415238D01*
X183999047Y-83510476D01*
X184046666Y-83700952D01*
X184046666Y-83843809D01*
X183999047Y-84034285D01*
X183951428Y-84129523D01*
X183856190Y-84224761D01*
X183713333Y-84272380D01*
X183475238Y-84272380D01*
X185562904Y-83478666D02*
X186039095Y-83478666D01*
X185467666Y-83764380D02*
X185801000Y-82764380D01*
X186134333Y-83764380D01*
X190571428Y-83367571D02*
X190714285Y-83415190D01*
X190761904Y-83462809D01*
X190809523Y-83558047D01*
X190809523Y-83700904D01*
X190761904Y-83796142D01*
X190714285Y-83843761D01*
X190619047Y-83891380D01*
X190238095Y-83891380D01*
X190238095Y-82891380D01*
X190571428Y-82891380D01*
X190666666Y-82939000D01*
X190714285Y-82986619D01*
X190761904Y-83081857D01*
X190761904Y-83177095D01*
X190714285Y-83272333D01*
X190666666Y-83319952D01*
X190571428Y-83367571D01*
X190238095Y-83367571D01*
X195714904Y-82812000D02*
X195619666Y-82764380D01*
X195476809Y-82764380D01*
X195333952Y-82812000D01*
X195238714Y-82907238D01*
X195191095Y-83002476D01*
X195143476Y-83192952D01*
X195143476Y-83335809D01*
X195191095Y-83526285D01*
X195238714Y-83621523D01*
X195333952Y-83716761D01*
X195476809Y-83764380D01*
X195572047Y-83764380D01*
X195714904Y-83716761D01*
X195762523Y-83669142D01*
X195762523Y-83335809D01*
X195572047Y-83335809D01*
X197215095Y-90384380D02*
X196738904Y-90384380D01*
X196691285Y-90860571D01*
X196738904Y-90812952D01*
X196834142Y-90765333D01*
X197072238Y-90765333D01*
X197167476Y-90812952D01*
X197215095Y-90860571D01*
X197262714Y-90955809D01*
X197262714Y-91193904D01*
X197215095Y-91289142D01*
X197167476Y-91336761D01*
X197072238Y-91384380D01*
X196834142Y-91384380D01*
X196738904Y-91336761D01*
X196691285Y-91289142D01*
X193675095Y-91384380D02*
X193675095Y-90384380D01*
X193913190Y-90384380D01*
X194056047Y-90432000D01*
X194151285Y-90527238D01*
X194198904Y-90622476D01*
X194246523Y-90812952D01*
X194246523Y-90955809D01*
X194198904Y-91146285D01*
X194151285Y-91241523D01*
X194056047Y-91336761D01*
X193913190Y-91384380D01*
X193675095Y-91384380D01*
X194675095Y-91384380D02*
X194675095Y-90384380D01*
X195056047Y-90384380D01*
X195151285Y-90432000D01*
X195198904Y-90479619D01*
X195246523Y-90574857D01*
X195246523Y-90717714D01*
X195198904Y-90812952D01*
X195151285Y-90860571D01*
X195056047Y-90908190D01*
X194675095Y-90908190D01*
X192341476Y-90590714D02*
X192341476Y-91257380D01*
X192103380Y-90209761D02*
X191865285Y-90924047D01*
X192484333Y-90924047D01*
X189222095Y-91257380D02*
X189222095Y-90257380D01*
X189460190Y-90257380D01*
X189603047Y-90305000D01*
X189698285Y-90400238D01*
X189745904Y-90495476D01*
X189793523Y-90685952D01*
X189793523Y-90828809D01*
X189745904Y-91019285D01*
X189698285Y-91114523D01*
X189603047Y-91209761D01*
X189460190Y-91257380D01*
X189222095Y-91257380D01*
X186999523Y-91162142D02*
X186951904Y-91209761D01*
X186809047Y-91257380D01*
X186713809Y-91257380D01*
X186570952Y-91209761D01*
X186475714Y-91114523D01*
X186428095Y-91019285D01*
X186380476Y-90828809D01*
X186380476Y-90685952D01*
X186428095Y-90495476D01*
X186475714Y-90400238D01*
X186570952Y-90305000D01*
X186713809Y-90257380D01*
X186809047Y-90257380D01*
X186951904Y-90305000D01*
X186999523Y-90352619D01*
X184062714Y-90606571D02*
X184396047Y-90606571D01*
X184538904Y-91130380D02*
X184062714Y-91130380D01*
X184062714Y-90130380D01*
X184538904Y-90130380D01*
X180871904Y-91257380D02*
X180871904Y-90257380D01*
X181110000Y-90257380D01*
X181252857Y-90305000D01*
X181348095Y-90400238D01*
X181395714Y-90495476D01*
X181443333Y-90685952D01*
X181443333Y-90828809D01*
X181395714Y-91019285D01*
X181348095Y-91114523D01*
X181252857Y-91209761D01*
X181110000Y-91257380D01*
X180871904Y-91257380D01*
X181776666Y-90257380D02*
X182395714Y-90257380D01*
X182062380Y-90638333D01*
X182205238Y-90638333D01*
X182300476Y-90685952D01*
X182348095Y-90733571D01*
X182395714Y-90828809D01*
X182395714Y-91066904D01*
X182348095Y-91162142D01*
X182300476Y-91209761D01*
X182205238Y-91257380D01*
X181919523Y-91257380D01*
X181824285Y-91209761D01*
X181776666Y-91162142D01*
X163631714Y-102639761D02*
X163774571Y-102687380D01*
X164012666Y-102687380D01*
X164107904Y-102639761D01*
X164155523Y-102592142D01*
X164203142Y-102496904D01*
X164203142Y-102401666D01*
X164155523Y-102306428D01*
X164107904Y-102258809D01*
X164012666Y-102211190D01*
X163822190Y-102163571D01*
X163726952Y-102115952D01*
X163679333Y-102068333D01*
X163631714Y-101973095D01*
X163631714Y-101877857D01*
X163679333Y-101782619D01*
X163726952Y-101735000D01*
X163822190Y-101687380D01*
X164060285Y-101687380D01*
X164203142Y-101735000D01*
X165203142Y-102592142D02*
X165155523Y-102639761D01*
X165012666Y-102687380D01*
X164917428Y-102687380D01*
X164774571Y-102639761D01*
X164679333Y-102544523D01*
X164631714Y-102449285D01*
X164584095Y-102258809D01*
X164584095Y-102115952D01*
X164631714Y-101925476D01*
X164679333Y-101830238D01*
X164774571Y-101735000D01*
X164917428Y-101687380D01*
X165012666Y-101687380D01*
X165155523Y-101735000D01*
X165203142Y-101782619D01*
X165584095Y-102401666D02*
X166060285Y-102401666D01*
X165488857Y-102687380D02*
X165822190Y-101687380D01*
X166155523Y-102687380D01*
X172164523Y-102639761D02*
X172307380Y-102687380D01*
X172545476Y-102687380D01*
X172640714Y-102639761D01*
X172688333Y-102592142D01*
X172735952Y-102496904D01*
X172735952Y-102401666D01*
X172688333Y-102306428D01*
X172640714Y-102258809D01*
X172545476Y-102211190D01*
X172355000Y-102163571D01*
X172259761Y-102115952D01*
X172212142Y-102068333D01*
X172164523Y-101973095D01*
X172164523Y-101877857D01*
X172212142Y-101782619D01*
X172259761Y-101735000D01*
X172355000Y-101687380D01*
X172593095Y-101687380D01*
X172735952Y-101735000D01*
X173735952Y-102592142D02*
X173688333Y-102639761D01*
X173545476Y-102687380D01*
X173450238Y-102687380D01*
X173307380Y-102639761D01*
X173212142Y-102544523D01*
X173164523Y-102449285D01*
X173116904Y-102258809D01*
X173116904Y-102115952D01*
X173164523Y-101925476D01*
X173212142Y-101830238D01*
X173307380Y-101735000D01*
X173450238Y-101687380D01*
X173545476Y-101687380D01*
X173688333Y-101735000D01*
X173735952Y-101782619D01*
X174640714Y-102687380D02*
X174164523Y-102687380D01*
X174164523Y-101687380D01*
X170100714Y-94654666D02*
X170576904Y-94654666D01*
X170005476Y-94940380D02*
X170338809Y-93940380D01*
X170672142Y-94940380D01*
X170910238Y-93940380D02*
X171576904Y-93940380D01*
X171148333Y-94940380D01*
X170100714Y-91987666D02*
X170576904Y-91987666D01*
X170005476Y-92273380D02*
X170338809Y-91273380D01*
X170672142Y-92273380D01*
X171434047Y-91273380D02*
X171243571Y-91273380D01*
X171148333Y-91321000D01*
X171100714Y-91368619D01*
X171005476Y-91511476D01*
X170957857Y-91701952D01*
X170957857Y-92082904D01*
X171005476Y-92178142D01*
X171053095Y-92225761D01*
X171148333Y-92273380D01*
X171338809Y-92273380D01*
X171434047Y-92225761D01*
X171481666Y-92178142D01*
X171529285Y-92082904D01*
X171529285Y-91844809D01*
X171481666Y-91749571D01*
X171434047Y-91701952D01*
X171338809Y-91654333D01*
X171148333Y-91654333D01*
X171053095Y-91701952D01*
X171005476Y-91749571D01*
X170957857Y-91844809D01*
X170100714Y-89447666D02*
X170576904Y-89447666D01*
X170005476Y-89733380D02*
X170338809Y-88733380D01*
X170672142Y-89733380D01*
X170910238Y-88733380D02*
X171529285Y-88733380D01*
X171195952Y-89114333D01*
X171338809Y-89114333D01*
X171434047Y-89161952D01*
X171481666Y-89209571D01*
X171529285Y-89304809D01*
X171529285Y-89542904D01*
X171481666Y-89638142D01*
X171434047Y-89685761D01*
X171338809Y-89733380D01*
X171053095Y-89733380D01*
X170957857Y-89685761D01*
X170910238Y-89638142D01*
X170227714Y-86907666D02*
X170703904Y-86907666D01*
X170132476Y-87193380D02*
X170465809Y-86193380D01*
X170799142Y-87193380D01*
X171084857Y-86288619D02*
X171132476Y-86241000D01*
X171227714Y-86193380D01*
X171465809Y-86193380D01*
X171561047Y-86241000D01*
X171608666Y-86288619D01*
X171656285Y-86383857D01*
X171656285Y-86479095D01*
X171608666Y-86621952D01*
X171037238Y-87193380D01*
X171656285Y-87193380D01*
X170203904Y-84780380D02*
X170203904Y-83780380D01*
X170442000Y-83780380D01*
X170584857Y-83828000D01*
X170680095Y-83923238D01*
X170727714Y-84018476D01*
X170775333Y-84208952D01*
X170775333Y-84351809D01*
X170727714Y-84542285D01*
X170680095Y-84637523D01*
X170584857Y-84732761D01*
X170442000Y-84780380D01*
X170203904Y-84780380D01*
X171108666Y-83780380D02*
X171727714Y-83780380D01*
X171394380Y-84161333D01*
X171537238Y-84161333D01*
X171632476Y-84208952D01*
X171680095Y-84256571D01*
X171727714Y-84351809D01*
X171727714Y-84589904D01*
X171680095Y-84685142D01*
X171632476Y-84732761D01*
X171537238Y-84780380D01*
X171251523Y-84780380D01*
X171156285Y-84732761D01*
X171108666Y-84685142D01*
X170203904Y-82240380D02*
X170203904Y-81240380D01*
X170442000Y-81240380D01*
X170584857Y-81288000D01*
X170680095Y-81383238D01*
X170727714Y-81478476D01*
X170775333Y-81668952D01*
X170775333Y-81811809D01*
X170727714Y-82002285D01*
X170680095Y-82097523D01*
X170584857Y-82192761D01*
X170442000Y-82240380D01*
X170203904Y-82240380D01*
X171156285Y-81335619D02*
X171203904Y-81288000D01*
X171299142Y-81240380D01*
X171537238Y-81240380D01*
X171632476Y-81288000D01*
X171680095Y-81335619D01*
X171727714Y-81430857D01*
X171727714Y-81526095D01*
X171680095Y-81668952D01*
X171108666Y-82240380D01*
X171727714Y-82240380D01*
X170203904Y-79573380D02*
X170203904Y-78573380D01*
X170442000Y-78573380D01*
X170584857Y-78621000D01*
X170680095Y-78716238D01*
X170727714Y-78811476D01*
X170775333Y-79001952D01*
X170775333Y-79144809D01*
X170727714Y-79335285D01*
X170680095Y-79430523D01*
X170584857Y-79525761D01*
X170442000Y-79573380D01*
X170203904Y-79573380D01*
X171727714Y-79573380D02*
X171156285Y-79573380D01*
X171442000Y-79573380D02*
X171442000Y-78573380D01*
X171346761Y-78716238D01*
X171251523Y-78811476D01*
X171156285Y-78859095D01*
X170203904Y-77287380D02*
X170203904Y-76287380D01*
X170442000Y-76287380D01*
X170584857Y-76335000D01*
X170680095Y-76430238D01*
X170727714Y-76525476D01*
X170775333Y-76715952D01*
X170775333Y-76858809D01*
X170727714Y-77049285D01*
X170680095Y-77144523D01*
X170584857Y-77239761D01*
X170442000Y-77287380D01*
X170203904Y-77287380D01*
X171394380Y-76287380D02*
X171489619Y-76287380D01*
X171584857Y-76335000D01*
X171632476Y-76382619D01*
X171680095Y-76477857D01*
X171727714Y-76668333D01*
X171727714Y-76906428D01*
X171680095Y-77096904D01*
X171632476Y-77192142D01*
X171584857Y-77239761D01*
X171489619Y-77287380D01*
X171394380Y-77287380D01*
X171299142Y-77239761D01*
X171251523Y-77192142D01*
X171203904Y-77096904D01*
X171156285Y-76906428D01*
X171156285Y-76668333D01*
X171203904Y-76477857D01*
X171251523Y-76382619D01*
X171299142Y-76335000D01*
X171394380Y-76287380D01*
D11*
X163672380Y-103941904D02*
X166529523Y-103941904D01*
X165100952Y-108941904D02*
X165100952Y-103941904D01*
X168196190Y-106322857D02*
X169862857Y-106322857D01*
X170577142Y-108941904D02*
X168196190Y-108941904D01*
X168196190Y-103941904D01*
X170577142Y-103941904D01*
X172720000Y-108941904D02*
X172720000Y-103941904D01*
X174386666Y-107513333D01*
X176053333Y-103941904D01*
X176053333Y-108941904D01*
X178434285Y-108941904D02*
X178434285Y-103941904D01*
X180339047Y-103941904D01*
X180815238Y-104180000D01*
X181053333Y-104418095D01*
X181291428Y-104894285D01*
X181291428Y-105608571D01*
X181053333Y-106084761D01*
X180815238Y-106322857D01*
X180339047Y-106560952D01*
X178434285Y-106560952D01*
D12*
X164561095Y-100361523D02*
X164561095Y-96361523D01*
X165894428Y-99218666D01*
X167227761Y-96361523D01*
X167227761Y-100361523D01*
X169132523Y-98266285D02*
X170465857Y-98266285D01*
X171037285Y-100361523D02*
X169132523Y-100361523D01*
X169132523Y-96361523D01*
X171037285Y-96361523D01*
X172561095Y-99218666D02*
X174465857Y-99218666D01*
X172180142Y-100361523D02*
X173513476Y-96361523D01*
X174846809Y-100361523D01*
X175989666Y-100171047D02*
X176561095Y-100361523D01*
X177513476Y-100361523D01*
X177894428Y-100171047D01*
X178084904Y-99980571D01*
X178275380Y-99599619D01*
X178275380Y-99218666D01*
X178084904Y-98837714D01*
X177894428Y-98647238D01*
X177513476Y-98456761D01*
X176751571Y-98266285D01*
X176370619Y-98075809D01*
X176180142Y-97885333D01*
X175989666Y-97504380D01*
X175989666Y-97123428D01*
X176180142Y-96742476D01*
X176370619Y-96552000D01*
X176751571Y-96361523D01*
X177703952Y-96361523D01*
X178275380Y-96552000D01*
D10*
X121324619Y-107323190D02*
X121324619Y-107894619D01*
X120324619Y-107608904D02*
X121324619Y-107608904D01*
X120848428Y-108227952D02*
X120848428Y-108561285D01*
X120324619Y-108704142D02*
X120324619Y-108227952D01*
X121324619Y-108227952D01*
X121324619Y-108704142D01*
X120419857Y-109704142D02*
X120372238Y-109656523D01*
X120324619Y-109513666D01*
X120324619Y-109418428D01*
X120372238Y-109275571D01*
X120467476Y-109180333D01*
X120562714Y-109132714D01*
X120753190Y-109085095D01*
X120896047Y-109085095D01*
X121086523Y-109132714D01*
X121181761Y-109180333D01*
X121277000Y-109275571D01*
X121324619Y-109418428D01*
X121324619Y-109513666D01*
X121277000Y-109656523D01*
X121229380Y-109704142D01*
X120229380Y-109894619D02*
X120229380Y-110656523D01*
X120324619Y-111370809D02*
X120324619Y-110894619D01*
X121324619Y-110894619D01*
X123166119Y-93218166D02*
X122166119Y-93551500D01*
X123166119Y-93884833D01*
X122166119Y-94218166D02*
X123166119Y-94218166D01*
X123166119Y-94456261D01*
X123118500Y-94599119D01*
X123023261Y-94694357D01*
X122928023Y-94741976D01*
X122737547Y-94789595D01*
X122594690Y-94789595D01*
X122404214Y-94741976D01*
X122308976Y-94694357D01*
X122213738Y-94599119D01*
X122166119Y-94456261D01*
X122166119Y-94218166D01*
X122166119Y-95218166D02*
X123166119Y-95218166D01*
X123166119Y-95456261D01*
X123118500Y-95599119D01*
X123023261Y-95694357D01*
X122928023Y-95741976D01*
X122737547Y-95789595D01*
X122594690Y-95789595D01*
X122404214Y-95741976D01*
X122308976Y-95694357D01*
X122213738Y-95599119D01*
X122166119Y-95456261D01*
X122166119Y-95218166D01*
X153615285Y-114451380D02*
X154186714Y-114451380D01*
X153901000Y-115451380D02*
X153901000Y-114451380D01*
X154901000Y-115403761D02*
X154805761Y-115451380D01*
X154615285Y-115451380D01*
X154520047Y-115403761D01*
X154472428Y-115308523D01*
X154472428Y-114927571D01*
X154520047Y-114832333D01*
X154615285Y-114784714D01*
X154805761Y-114784714D01*
X154901000Y-114832333D01*
X154948619Y-114927571D01*
X154948619Y-115022809D01*
X154472428Y-115118047D01*
X155377190Y-115451380D02*
X155377190Y-114784714D01*
X155377190Y-114879952D02*
X155424809Y-114832333D01*
X155520047Y-114784714D01*
X155662904Y-114784714D01*
X155758142Y-114832333D01*
X155805761Y-114927571D01*
X155805761Y-115451380D01*
X155805761Y-114927571D02*
X155853380Y-114832333D01*
X155948619Y-114784714D01*
X156091476Y-114784714D01*
X156186714Y-114832333D01*
X156234333Y-114927571D01*
X156234333Y-115451380D01*
X156710523Y-114784714D02*
X156710523Y-115784714D01*
X156710523Y-114832333D02*
X156805761Y-114784714D01*
X156996238Y-114784714D01*
X157091476Y-114832333D01*
X157139095Y-114879952D01*
X157186714Y-114975190D01*
X157186714Y-115260904D01*
X157139095Y-115356142D01*
X157091476Y-115403761D01*
X156996238Y-115451380D01*
X156805761Y-115451380D01*
X156710523Y-115403761D01*
X158186714Y-115356142D02*
X158139095Y-115403761D01*
X157996238Y-115451380D01*
X157901000Y-115451380D01*
X157758142Y-115403761D01*
X157662904Y-115308523D01*
X157615285Y-115213285D01*
X157567666Y-115022809D01*
X157567666Y-114879952D01*
X157615285Y-114689476D01*
X157662904Y-114594238D01*
X157758142Y-114499000D01*
X157901000Y-114451380D01*
X157996238Y-114451380D01*
X158139095Y-114499000D01*
X158186714Y-114546619D01*
X158758142Y-115451380D02*
X158662904Y-115403761D01*
X158615285Y-115356142D01*
X158567666Y-115260904D01*
X158567666Y-114975190D01*
X158615285Y-114879952D01*
X158662904Y-114832333D01*
X158758142Y-114784714D01*
X158901000Y-114784714D01*
X158996238Y-114832333D01*
X159043857Y-114879952D01*
X159091476Y-114975190D01*
X159091476Y-115260904D01*
X159043857Y-115356142D01*
X158996238Y-115403761D01*
X158901000Y-115451380D01*
X158758142Y-115451380D01*
X159520047Y-114784714D02*
X159520047Y-115451380D01*
X159520047Y-114879952D02*
X159567666Y-114832333D01*
X159662904Y-114784714D01*
X159805761Y-114784714D01*
X159901000Y-114832333D01*
X159948619Y-114927571D01*
X159948619Y-115451380D01*
X160281952Y-114784714D02*
X160662904Y-114784714D01*
X160424809Y-114451380D02*
X160424809Y-115308523D01*
X160472428Y-115403761D01*
X160567666Y-115451380D01*
X160662904Y-115451380D01*
X160996238Y-115451380D02*
X160996238Y-114784714D01*
X160996238Y-114975190D02*
X161043857Y-114879952D01*
X161091476Y-114832333D01*
X161186714Y-114784714D01*
X161281952Y-114784714D01*
X161758142Y-115451380D02*
X161662904Y-115403761D01*
X161615285Y-115356142D01*
X161567666Y-115260904D01*
X161567666Y-114975190D01*
X161615285Y-114879952D01*
X161662904Y-114832333D01*
X161758142Y-114784714D01*
X161901000Y-114784714D01*
X161996238Y-114832333D01*
X162043857Y-114879952D01*
X162091476Y-114975190D01*
X162091476Y-115260904D01*
X162043857Y-115356142D01*
X161996238Y-115403761D01*
X161901000Y-115451380D01*
X161758142Y-115451380D01*
X162662904Y-115451380D02*
X162567666Y-115403761D01*
X162520047Y-115308523D01*
X162520047Y-114451380D01*
X163186714Y-115451380D02*
X163091476Y-115403761D01*
X163043857Y-115308523D01*
X163043857Y-114451380D01*
X163948619Y-115403761D02*
X163853380Y-115451380D01*
X163662904Y-115451380D01*
X163567666Y-115403761D01*
X163520047Y-115308523D01*
X163520047Y-114927571D01*
X163567666Y-114832333D01*
X163662904Y-114784714D01*
X163853380Y-114784714D01*
X163948619Y-114832333D01*
X163996238Y-114927571D01*
X163996238Y-115022809D01*
X163520047Y-115118047D01*
X164424809Y-115451380D02*
X164424809Y-114784714D01*
X164424809Y-114975190D02*
X164472428Y-114879952D01*
X164520047Y-114832333D01*
X164615285Y-114784714D01*
X164710523Y-114784714D01*
X165710523Y-114784714D02*
X165948619Y-115451380D01*
X166186714Y-114784714D01*
X167091476Y-115451380D02*
X166520047Y-115451380D01*
X166805761Y-115451380D02*
X166805761Y-114451380D01*
X166710523Y-114594238D01*
X166615285Y-114689476D01*
X166520047Y-114737095D01*
X149543857Y-116101380D02*
X149543857Y-116815666D01*
X149496238Y-116958523D01*
X149401000Y-117053761D01*
X149258142Y-117101380D01*
X149162904Y-117101380D01*
X150162904Y-117101380D02*
X150067666Y-117053761D01*
X150020047Y-117006142D01*
X149972428Y-116910904D01*
X149972428Y-116625190D01*
X150020047Y-116529952D01*
X150067666Y-116482333D01*
X150162904Y-116434714D01*
X150305761Y-116434714D01*
X150401000Y-116482333D01*
X150448619Y-116529952D01*
X150496238Y-116625190D01*
X150496238Y-116910904D01*
X150448619Y-117006142D01*
X150401000Y-117053761D01*
X150305761Y-117101380D01*
X150162904Y-117101380D01*
X150924809Y-117101380D02*
X150924809Y-116434714D01*
X150924809Y-116625190D02*
X150972428Y-116529952D01*
X151020047Y-116482333D01*
X151115285Y-116434714D01*
X151210523Y-116434714D01*
X151972428Y-117101380D02*
X151972428Y-116101380D01*
X151972428Y-117053761D02*
X151877190Y-117101380D01*
X151686714Y-117101380D01*
X151591476Y-117053761D01*
X151543857Y-117006142D01*
X151496238Y-116910904D01*
X151496238Y-116625190D01*
X151543857Y-116529952D01*
X151591476Y-116482333D01*
X151686714Y-116434714D01*
X151877190Y-116434714D01*
X151972428Y-116482333D01*
X152877190Y-117101380D02*
X152877190Y-116577571D01*
X152829571Y-116482333D01*
X152734333Y-116434714D01*
X152543857Y-116434714D01*
X152448619Y-116482333D01*
X152877190Y-117053761D02*
X152781952Y-117101380D01*
X152543857Y-117101380D01*
X152448619Y-117053761D01*
X152401000Y-116958523D01*
X152401000Y-116863285D01*
X152448619Y-116768047D01*
X152543857Y-116720428D01*
X152781952Y-116720428D01*
X152877190Y-116672809D01*
X153353380Y-116434714D02*
X153353380Y-117101380D01*
X153353380Y-116529952D02*
X153401000Y-116482333D01*
X153496238Y-116434714D01*
X153639095Y-116434714D01*
X153734333Y-116482333D01*
X153781952Y-116577571D01*
X153781952Y-117101380D01*
X155020047Y-116577571D02*
X155353380Y-116577571D01*
X155496238Y-117101380D02*
X155020047Y-117101380D01*
X155020047Y-116101380D01*
X155496238Y-116101380D01*
X156353380Y-117101380D02*
X156353380Y-116101380D01*
X156353380Y-117053761D02*
X156258142Y-117101380D01*
X156067666Y-117101380D01*
X155972428Y-117053761D01*
X155924809Y-117006142D01*
X155877190Y-116910904D01*
X155877190Y-116625190D01*
X155924809Y-116529952D01*
X155972428Y-116482333D01*
X156067666Y-116434714D01*
X156258142Y-116434714D01*
X156353380Y-116482333D01*
X156829571Y-117101380D02*
X156829571Y-116434714D01*
X156829571Y-116529952D02*
X156877190Y-116482333D01*
X156972428Y-116434714D01*
X157115285Y-116434714D01*
X157210523Y-116482333D01*
X157258142Y-116577571D01*
X157258142Y-117101380D01*
X157258142Y-116577571D02*
X157305761Y-116482333D01*
X157401000Y-116434714D01*
X157543857Y-116434714D01*
X157639095Y-116482333D01*
X157686714Y-116577571D01*
X157686714Y-117101380D01*
X158591476Y-116434714D02*
X158591476Y-117101380D01*
X158162904Y-116434714D02*
X158162904Y-116958523D01*
X158210523Y-117053761D01*
X158305761Y-117101380D01*
X158448619Y-117101380D01*
X158543857Y-117053761D01*
X158591476Y-117006142D01*
X159067666Y-116434714D02*
X159067666Y-117101380D01*
X159067666Y-116529952D02*
X159115285Y-116482333D01*
X159210523Y-116434714D01*
X159353380Y-116434714D01*
X159448619Y-116482333D01*
X159496238Y-116577571D01*
X159496238Y-117101380D01*
X160401000Y-117101380D02*
X160401000Y-116101380D01*
X160401000Y-117053761D02*
X160305761Y-117101380D01*
X160115285Y-117101380D01*
X160020047Y-117053761D01*
X159972428Y-117006142D01*
X159924809Y-116910904D01*
X159924809Y-116625190D01*
X159972428Y-116529952D01*
X160020047Y-116482333D01*
X160115285Y-116434714D01*
X160305761Y-116434714D01*
X160401000Y-116482333D01*
X160829571Y-117053761D02*
X160924809Y-117101380D01*
X161115285Y-117101380D01*
X161210523Y-117053761D01*
X161258142Y-116958523D01*
X161258142Y-116910904D01*
X161210523Y-116815666D01*
X161115285Y-116768047D01*
X160972428Y-116768047D01*
X160877190Y-116720428D01*
X160829571Y-116625190D01*
X160829571Y-116577571D01*
X160877190Y-116482333D01*
X160972428Y-116434714D01*
X161115285Y-116434714D01*
X161210523Y-116482333D01*
X161734333Y-117053761D02*
X161734333Y-117101380D01*
X161686714Y-117196619D01*
X161639095Y-117244238D01*
X162924809Y-116101380D02*
X162924809Y-116910904D01*
X162972428Y-117006142D01*
X163020047Y-117053761D01*
X163115285Y-117101380D01*
X163305761Y-117101380D01*
X163401000Y-117053761D01*
X163448619Y-117006142D01*
X163496238Y-116910904D01*
X163496238Y-116101380D01*
X164543857Y-117006142D02*
X164496238Y-117053761D01*
X164353380Y-117101380D01*
X164258142Y-117101380D01*
X164115285Y-117053761D01*
X164020047Y-116958523D01*
X163972428Y-116863285D01*
X163924809Y-116672809D01*
X163924809Y-116529952D01*
X163972428Y-116339476D01*
X164020047Y-116244238D01*
X164115285Y-116149000D01*
X164258142Y-116101380D01*
X164353380Y-116101380D01*
X164496238Y-116149000D01*
X164543857Y-116196619D01*
X166067666Y-116577571D02*
X166210523Y-116625190D01*
X166258142Y-116672809D01*
X166305761Y-116768047D01*
X166305761Y-116910904D01*
X166258142Y-117006142D01*
X166210523Y-117053761D01*
X166115285Y-117101380D01*
X165734333Y-117101380D01*
X165734333Y-116101380D01*
X166067666Y-116101380D01*
X166162904Y-116149000D01*
X166210523Y-116196619D01*
X166258142Y-116291857D01*
X166258142Y-116387095D01*
X166210523Y-116482333D01*
X166162904Y-116529952D01*
X166067666Y-116577571D01*
X165734333Y-116577571D01*
X167115285Y-117053761D02*
X167020047Y-117101380D01*
X166829571Y-117101380D01*
X166734333Y-117053761D01*
X166686714Y-116958523D01*
X166686714Y-116577571D01*
X166734333Y-116482333D01*
X166829571Y-116434714D01*
X167020047Y-116434714D01*
X167115285Y-116482333D01*
X167162904Y-116577571D01*
X167162904Y-116672809D01*
X166686714Y-116768047D01*
X167591476Y-117101380D02*
X167591476Y-116434714D01*
X167591476Y-116625190D02*
X167639095Y-116529952D01*
X167686714Y-116482333D01*
X167781952Y-116434714D01*
X167877190Y-116434714D01*
X168210523Y-117101380D02*
X168210523Y-116101380D01*
X168305761Y-116720428D02*
X168591476Y-117101380D01*
X168591476Y-116434714D02*
X168210523Y-116815666D01*
X169401000Y-117053761D02*
X169305761Y-117101380D01*
X169115285Y-117101380D01*
X169020047Y-117053761D01*
X168972428Y-116958523D01*
X168972428Y-116577571D01*
X169020047Y-116482333D01*
X169115285Y-116434714D01*
X169305761Y-116434714D01*
X169401000Y-116482333D01*
X169448619Y-116577571D01*
X169448619Y-116672809D01*
X168972428Y-116768047D01*
X170020047Y-117101380D02*
X169924809Y-117053761D01*
X169877190Y-116958523D01*
X169877190Y-116101380D01*
X170781952Y-117053761D02*
X170686714Y-117101380D01*
X170496238Y-117101380D01*
X170401000Y-117053761D01*
X170353380Y-116958523D01*
X170353380Y-116577571D01*
X170401000Y-116482333D01*
X170496238Y-116434714D01*
X170686714Y-116434714D01*
X170781952Y-116482333D01*
X170829571Y-116577571D01*
X170829571Y-116672809D01*
X170353380Y-116768047D01*
X171162904Y-116434714D02*
X171401000Y-117101380D01*
X171639095Y-116434714D02*
X171401000Y-117101380D01*
X171305761Y-117339476D01*
X171258142Y-117387095D01*
X171162904Y-117434714D01*
D11*
X162046190Y-64253809D02*
X162760476Y-64491904D01*
X163950952Y-64491904D01*
X164427142Y-64253809D01*
X164665238Y-64015714D01*
X164903333Y-63539523D01*
X164903333Y-63063333D01*
X164665238Y-62587142D01*
X164427142Y-62349047D01*
X163950952Y-62110952D01*
X162998571Y-61872857D01*
X162522380Y-61634761D01*
X162284285Y-61396666D01*
X162046190Y-60920476D01*
X162046190Y-60444285D01*
X162284285Y-59968095D01*
X162522380Y-59730000D01*
X162998571Y-59491904D01*
X164189047Y-59491904D01*
X164903333Y-59730000D01*
X167046190Y-61872857D02*
X168712857Y-61872857D01*
X169427142Y-64491904D02*
X167046190Y-64491904D01*
X167046190Y-59491904D01*
X169427142Y-59491904D01*
X170855714Y-59491904D02*
X173712857Y-59491904D01*
X172284285Y-64491904D02*
X172284285Y-59491904D01*
X178474761Y-59491904D02*
X181331904Y-59491904D01*
X179903333Y-64491904D02*
X179903333Y-59491904D01*
X182998571Y-61872857D02*
X184665238Y-61872857D01*
X185379523Y-64491904D02*
X182998571Y-64491904D01*
X182998571Y-59491904D01*
X185379523Y-59491904D01*
X187522380Y-64491904D02*
X187522380Y-59491904D01*
X189189047Y-63063333D01*
X190855714Y-59491904D01*
X190855714Y-64491904D01*
X193236666Y-64491904D02*
X193236666Y-59491904D01*
X195141428Y-59491904D01*
X195617619Y-59730000D01*
X195855714Y-59968095D01*
X196093809Y-60444285D01*
X196093809Y-61158571D01*
X195855714Y-61634761D01*
X195617619Y-61872857D01*
X195141428Y-62110952D01*
X193236666Y-62110952D01*
D13*
%TO.C,R2*%
X139748000Y-108063000D02*
X138239000Y-108063000D01*
X139748000Y-104363000D02*
X138239000Y-104363000D01*
X138239000Y-101092000D02*
X138239000Y-111333000D01*
X139748000Y-111333000D02*
X135107000Y-111333000D01*
X139748000Y-101092000D02*
X135107000Y-101092000D01*
X135107000Y-110678000D02*
X135107000Y-111333000D01*
X135128000Y-105592000D02*
X135128000Y-106877000D01*
X135107000Y-101092000D02*
X135107000Y-101763000D01*
X139748000Y-101092000D02*
X139748000Y-111333000D01*
D10*
%TO.C,TP4*%
X144783000Y-114744500D02*
G75*
G03*
X144783000Y-114744500I-1400000J0D01*
G01*
%TO.C,TP3*%
X140592000Y-67691000D02*
G75*
G03*
X140592000Y-67691000I-1400000J0D01*
G01*
%TO.C,TP2*%
X129543000Y-109093000D02*
G75*
G03*
X129543000Y-109093000I-1400000J0D01*
G01*
%TO.C,TP1*%
X140973000Y-113411000D02*
G75*
G03*
X140973000Y-113411000I-1400000J0D01*
G01*
D13*
%TO.C,A1*%
X147891500Y-74803000D02*
X147891500Y-72263000D01*
X147891500Y-72263000D02*
X145221500Y-72263000D01*
X145221500Y-74803000D02*
X145221500Y-113033000D01*
X145221500Y-69593000D02*
X145221500Y-72263000D01*
X160591500Y-72263000D02*
X163261500Y-72263000D01*
X160591500Y-72263000D02*
X160591500Y-110363000D01*
X160591500Y-110363000D02*
X163261500Y-110363000D01*
X147891500Y-74803000D02*
X145221500Y-74803000D01*
X147891500Y-74803000D02*
X147891500Y-110363000D01*
X147891500Y-110363000D02*
X145221500Y-110363000D01*
X145221500Y-113033000D02*
X163261500Y-113033000D01*
X163261500Y-113033000D02*
X163261500Y-69593000D01*
X163261500Y-69593000D02*
X145221500Y-69593000D01*
%TO.C,U1*%
X197738500Y-102630500D02*
X197738500Y-98770500D01*
X197738500Y-98770500D02*
X197473500Y-98770500D01*
X197738500Y-102630500D02*
X197738500Y-106490500D01*
X197738500Y-106490500D02*
X197473500Y-106490500D01*
X182118500Y-102630500D02*
X182118500Y-98770500D01*
X182118500Y-98770500D02*
X182383500Y-98770500D01*
X182118500Y-102630500D02*
X182118500Y-106490500D01*
X182118500Y-106490500D02*
X182383500Y-106490500D01*
X182383500Y-106490500D02*
X182383500Y-108305500D01*
%TO.C,RV1*%
X121983500Y-67984000D02*
X121983500Y-77724000D01*
X133295500Y-68322000D02*
X133295500Y-69812000D01*
X133295500Y-78072000D02*
X128575500Y-78072000D01*
X133295500Y-68322000D02*
X128575500Y-68322000D01*
X133295500Y-76882000D02*
X133295500Y-78062000D01*
X133295500Y-73982000D02*
X133295500Y-74512000D01*
X133295500Y-71532000D02*
X133295500Y-72362000D01*
%TO.C,R3*%
X129973000Y-115967252D02*
X129973000Y-115444748D01*
X131393000Y-115967252D02*
X131393000Y-115444748D01*
%TO.C,Q1*%
X137028000Y-113302000D02*
X136098000Y-113302000D01*
X133868000Y-113302000D02*
X134798000Y-113302000D01*
X133868000Y-113302000D02*
X133868000Y-115462000D01*
X137028000Y-113302000D02*
X137028000Y-114762000D01*
D14*
%TO.C,LED2*%
X203225400Y-93903800D02*
X203225400Y-80848200D01*
X203225400Y-80848200D02*
X172948600Y-80848200D01*
X172948600Y-80848200D02*
X172948600Y-93903800D01*
X172948600Y-93903800D02*
X203225400Y-93903800D01*
%TO.C,LED1*%
X203225400Y-78981300D02*
X203225400Y-65925700D01*
X203225400Y-65925700D02*
X172948600Y-65925700D01*
X172948600Y-65925700D02*
X172948600Y-78981300D01*
X172948600Y-78981300D02*
X203225400Y-78981300D01*
D13*
%TO.C,J4*%
X166945000Y-95818000D02*
X169605000Y-95818000D01*
X166945000Y-77978000D02*
X166945000Y-95818000D01*
X169605000Y-77978000D02*
X169605000Y-95818000D01*
X166945000Y-77978000D02*
X169605000Y-77978000D01*
X166945000Y-76708000D02*
X166945000Y-75378000D01*
X166945000Y-75378000D02*
X168275000Y-75378000D01*
%TO.C,J3*%
X171827500Y-103247500D02*
X171827500Y-100587500D01*
X169227500Y-103247500D02*
X171827500Y-103247500D01*
X169227500Y-100587500D02*
X171827500Y-100587500D01*
X169227500Y-103247500D02*
X169227500Y-100587500D01*
X167957500Y-103247500D02*
X166627500Y-103247500D01*
X166627500Y-103247500D02*
X166627500Y-101917500D01*
%TO.C,J2*%
X129934500Y-96156000D02*
X117334500Y-96156000D01*
X117334500Y-96156000D02*
X117334500Y-106506000D01*
X117334500Y-106506000D02*
X118284500Y-106506000D01*
X118284500Y-106506000D02*
X118034500Y-107006000D01*
X118034500Y-107006000D02*
X119934500Y-107006000D01*
X119934500Y-107006000D02*
X119984500Y-107006000D01*
X119984500Y-107006000D02*
X119734500Y-106506000D01*
X119734500Y-106506000D02*
X125134500Y-106506000D01*
X125134500Y-106506000D02*
X124834500Y-107006000D01*
X124834500Y-107006000D02*
X129934500Y-107006000D01*
X129934500Y-107006000D02*
X129934500Y-96156000D01*
%TO.C,J1*%
X134937000Y-83500500D02*
X134937000Y-86100500D01*
X120237000Y-83500500D02*
X134937000Y-83500500D01*
X134937000Y-92700500D02*
X133037000Y-92700500D01*
X134937000Y-90000500D02*
X134937000Y-92700500D01*
X120237000Y-92700500D02*
X120237000Y-83500500D01*
X129037000Y-92700500D02*
X120237000Y-92700500D01*
X134087000Y-83300500D02*
X135137000Y-83300500D01*
X135137000Y-84350500D02*
X135137000Y-83300500D01*
%TO.C,C2*%
X129170500Y-115444748D02*
X129170500Y-115967252D01*
X127750500Y-115444748D02*
X127750500Y-115967252D01*
%TO.C,C1*%
X155845500Y-61468000D02*
G75*
G03*
X155845500Y-61468000I-5120000J0D01*
G01*
X150725500Y-66548000D02*
X150725500Y-56388000D01*
X150685500Y-66548000D02*
X150685500Y-56388000D01*
X150645500Y-66548000D02*
X150645500Y-56388000D01*
X150605500Y-66547000D02*
X150605500Y-56389000D01*
X150565500Y-66546000D02*
X150565500Y-56390000D01*
X150525500Y-66545000D02*
X150525500Y-56391000D01*
X150485500Y-66543000D02*
X150485500Y-56393000D01*
X150445500Y-66541000D02*
X150445500Y-56395000D01*
X150405500Y-66538000D02*
X150405500Y-56398000D01*
X150365500Y-66536000D02*
X150365500Y-56400000D01*
X150325500Y-66533000D02*
X150325500Y-56403000D01*
X150285500Y-66530000D02*
X150285500Y-56406000D01*
X150245500Y-66526000D02*
X150245500Y-56410000D01*
X150205500Y-66522000D02*
X150205500Y-56414000D01*
X150165500Y-66518000D02*
X150165500Y-56418000D01*
X150125500Y-66513000D02*
X150125500Y-56423000D01*
X150085500Y-66508000D02*
X150085500Y-56428000D01*
X150045500Y-66503000D02*
X150045500Y-56433000D01*
X150004500Y-66498000D02*
X150004500Y-56438000D01*
X149964500Y-66492000D02*
X149964500Y-56444000D01*
X149924500Y-66486000D02*
X149924500Y-56450000D01*
X149884500Y-66479000D02*
X149884500Y-56457000D01*
X149844500Y-66472000D02*
X149844500Y-56464000D01*
X149804500Y-66465000D02*
X149804500Y-56471000D01*
X149764500Y-66458000D02*
X149764500Y-56478000D01*
X149724500Y-66450000D02*
X149724500Y-56486000D01*
X149684500Y-66442000D02*
X149684500Y-56494000D01*
X149644500Y-66433000D02*
X149644500Y-56503000D01*
X149604500Y-66424000D02*
X149604500Y-56512000D01*
X149564500Y-66415000D02*
X149564500Y-56521000D01*
X149524500Y-66406000D02*
X149524500Y-56530000D01*
X149484500Y-66396000D02*
X149484500Y-56540000D01*
X149444500Y-66386000D02*
X149444500Y-62709000D01*
X149444500Y-60227000D02*
X149444500Y-56550000D01*
X149404500Y-66375000D02*
X149404500Y-62709000D01*
X149404500Y-60227000D02*
X149404500Y-56561000D01*
X149364500Y-66365000D02*
X149364500Y-62709000D01*
X149364500Y-60227000D02*
X149364500Y-56571000D01*
X149324500Y-66353000D02*
X149324500Y-62709000D01*
X149324500Y-60227000D02*
X149324500Y-56583000D01*
X149284500Y-66342000D02*
X149284500Y-62709000D01*
X149284500Y-60227000D02*
X149284500Y-56594000D01*
X149244500Y-66330000D02*
X149244500Y-62709000D01*
X149244500Y-60227000D02*
X149244500Y-56606000D01*
X149204500Y-66318000D02*
X149204500Y-62709000D01*
X149204500Y-60227000D02*
X149204500Y-56618000D01*
X149164500Y-66305000D02*
X149164500Y-62709000D01*
X149164500Y-60227000D02*
X149164500Y-56631000D01*
X149124500Y-66292000D02*
X149124500Y-62709000D01*
X149124500Y-60227000D02*
X149124500Y-56644000D01*
X149084500Y-66279000D02*
X149084500Y-62709000D01*
X149084500Y-60227000D02*
X149084500Y-56657000D01*
X149044500Y-66265000D02*
X149044500Y-62709000D01*
X149044500Y-60227000D02*
X149044500Y-56671000D01*
X149004500Y-66251000D02*
X149004500Y-62709000D01*
X149004500Y-60227000D02*
X149004500Y-56685000D01*
X148964500Y-66236000D02*
X148964500Y-62709000D01*
X148964500Y-60227000D02*
X148964500Y-56700000D01*
X148924500Y-66222000D02*
X148924500Y-62709000D01*
X148924500Y-60227000D02*
X148924500Y-56714000D01*
X148884500Y-66206000D02*
X148884500Y-62709000D01*
X148884500Y-60227000D02*
X148884500Y-56730000D01*
X148844500Y-66191000D02*
X148844500Y-62709000D01*
X148844500Y-60227000D02*
X148844500Y-56745000D01*
X148804500Y-66175000D02*
X148804500Y-62709000D01*
X148804500Y-60227000D02*
X148804500Y-56761000D01*
X148764500Y-66158000D02*
X148764500Y-62709000D01*
X148764500Y-60227000D02*
X148764500Y-56778000D01*
X148724500Y-66142000D02*
X148724500Y-62709000D01*
X148724500Y-60227000D02*
X148724500Y-56794000D01*
X148684500Y-66125000D02*
X148684500Y-62709000D01*
X148684500Y-60227000D02*
X148684500Y-56811000D01*
X148644500Y-66107000D02*
X148644500Y-62709000D01*
X148644500Y-60227000D02*
X148644500Y-56829000D01*
X148604500Y-66089000D02*
X148604500Y-62709000D01*
X148604500Y-60227000D02*
X148604500Y-56847000D01*
X148564500Y-66071000D02*
X148564500Y-62709000D01*
X148564500Y-60227000D02*
X148564500Y-56865000D01*
X148524500Y-66052000D02*
X148524500Y-62709000D01*
X148524500Y-60227000D02*
X148524500Y-56884000D01*
X148484500Y-66032000D02*
X148484500Y-62709000D01*
X148484500Y-60227000D02*
X148484500Y-56904000D01*
X148444500Y-66013000D02*
X148444500Y-62709000D01*
X148444500Y-60227000D02*
X148444500Y-56923000D01*
X148404500Y-65993000D02*
X148404500Y-62709000D01*
X148404500Y-60227000D02*
X148404500Y-56943000D01*
X148364500Y-65972000D02*
X148364500Y-62709000D01*
X148364500Y-60227000D02*
X148364500Y-56964000D01*
X148324500Y-65951000D02*
X148324500Y-62709000D01*
X148324500Y-60227000D02*
X148324500Y-56985000D01*
X148284500Y-65930000D02*
X148284500Y-62709000D01*
X148284500Y-60227000D02*
X148284500Y-57006000D01*
X148244500Y-65908000D02*
X148244500Y-62709000D01*
X148244500Y-60227000D02*
X148244500Y-57028000D01*
X148204500Y-65885000D02*
X148204500Y-62709000D01*
X148204500Y-60227000D02*
X148204500Y-57051000D01*
X148164500Y-65863000D02*
X148164500Y-62709000D01*
X148164500Y-60227000D02*
X148164500Y-57073000D01*
X148124500Y-65839000D02*
X148124500Y-62709000D01*
X148124500Y-60227000D02*
X148124500Y-57097000D01*
X148084500Y-65815000D02*
X148084500Y-62709000D01*
X148084500Y-60227000D02*
X148084500Y-57121000D01*
X148044500Y-65791000D02*
X148044500Y-62709000D01*
X148044500Y-60227000D02*
X148044500Y-57145000D01*
X148004500Y-65766000D02*
X148004500Y-62709000D01*
X148004500Y-60227000D02*
X148004500Y-57170000D01*
X147964500Y-65741000D02*
X147964500Y-62709000D01*
X147964500Y-60227000D02*
X147964500Y-57195000D01*
X147924500Y-65715000D02*
X147924500Y-62709000D01*
X147924500Y-60227000D02*
X147924500Y-57221000D01*
X147884500Y-65689000D02*
X147884500Y-62709000D01*
X147884500Y-60227000D02*
X147884500Y-57247000D01*
X147844500Y-65662000D02*
X147844500Y-62709000D01*
X147844500Y-60227000D02*
X147844500Y-57274000D01*
X147804500Y-65634000D02*
X147804500Y-62709000D01*
X147804500Y-60227000D02*
X147804500Y-57302000D01*
X147764500Y-65606000D02*
X147764500Y-62709000D01*
X147764500Y-60227000D02*
X147764500Y-57330000D01*
X147724500Y-65578000D02*
X147724500Y-62709000D01*
X147724500Y-60227000D02*
X147724500Y-57358000D01*
X147684500Y-65548000D02*
X147684500Y-62709000D01*
X147684500Y-60227000D02*
X147684500Y-57388000D01*
X147644500Y-65518000D02*
X147644500Y-62709000D01*
X147644500Y-60227000D02*
X147644500Y-57418000D01*
X147604500Y-65488000D02*
X147604500Y-62709000D01*
X147604500Y-60227000D02*
X147604500Y-57448000D01*
X147564500Y-65457000D02*
X147564500Y-62709000D01*
X147564500Y-60227000D02*
X147564500Y-57479000D01*
X147524500Y-65425000D02*
X147524500Y-62709000D01*
X147524500Y-60227000D02*
X147524500Y-57511000D01*
X147484500Y-65393000D02*
X147484500Y-62709000D01*
X147484500Y-60227000D02*
X147484500Y-57543000D01*
X147444500Y-65360000D02*
X147444500Y-62709000D01*
X147444500Y-60227000D02*
X147444500Y-57576000D01*
X147404500Y-65326000D02*
X147404500Y-62709000D01*
X147404500Y-60227000D02*
X147404500Y-57610000D01*
X147364500Y-65292000D02*
X147364500Y-62709000D01*
X147364500Y-60227000D02*
X147364500Y-57644000D01*
X147324500Y-65257000D02*
X147324500Y-62709000D01*
X147324500Y-60227000D02*
X147324500Y-57679000D01*
X147284500Y-65221000D02*
X147284500Y-62709000D01*
X147284500Y-60227000D02*
X147284500Y-57715000D01*
X147244500Y-65184000D02*
X147244500Y-62709000D01*
X147244500Y-60227000D02*
X147244500Y-57752000D01*
X147204500Y-65147000D02*
X147204500Y-62709000D01*
X147204500Y-60227000D02*
X147204500Y-57789000D01*
X147164500Y-65108000D02*
X147164500Y-62709000D01*
X147164500Y-60227000D02*
X147164500Y-57828000D01*
X147124500Y-65069000D02*
X147124500Y-62709000D01*
X147124500Y-60227000D02*
X147124500Y-57867000D01*
X147084500Y-65029000D02*
X147084500Y-62709000D01*
X147084500Y-60227000D02*
X147084500Y-57907000D01*
X147044500Y-64988000D02*
X147044500Y-62709000D01*
X147044500Y-60227000D02*
X147044500Y-57948000D01*
X147004500Y-64946000D02*
X147004500Y-62709000D01*
X147004500Y-60227000D02*
X147004500Y-57990000D01*
X146964500Y-64904000D02*
X146964500Y-58032000D01*
X146924500Y-64860000D02*
X146924500Y-58076000D01*
X146884500Y-64815000D02*
X146884500Y-58121000D01*
X146844500Y-64769000D02*
X146844500Y-58167000D01*
X146804500Y-64722000D02*
X146804500Y-58214000D01*
X146764500Y-64674000D02*
X146764500Y-58262000D01*
X146724500Y-64624000D02*
X146724500Y-58312000D01*
X146684500Y-64574000D02*
X146684500Y-58362000D01*
X146644500Y-64522000D02*
X146644500Y-58414000D01*
X146604500Y-64468000D02*
X146604500Y-58468000D01*
X146564500Y-64413000D02*
X146564500Y-58523000D01*
X146524500Y-64357000D02*
X146524500Y-58579000D01*
X146484500Y-64298000D02*
X146484500Y-58638000D01*
X146444500Y-64238000D02*
X146444500Y-58698000D01*
X146404500Y-64177000D02*
X146404500Y-58759000D01*
X146364500Y-64113000D02*
X146364500Y-58823000D01*
X146324500Y-64047000D02*
X146324500Y-58889000D01*
X146284500Y-63978000D02*
X146284500Y-58958000D01*
X146244500Y-63907000D02*
X146244500Y-59029000D01*
X146204500Y-63833000D02*
X146204500Y-59103000D01*
X146164500Y-63757000D02*
X146164500Y-59179000D01*
X146124500Y-63677000D02*
X146124500Y-59259000D01*
X146084500Y-63593000D02*
X146084500Y-59343000D01*
X146044500Y-63505000D02*
X146044500Y-59431000D01*
X146004500Y-63412000D02*
X146004500Y-59524000D01*
X145964500Y-63314000D02*
X145964500Y-59622000D01*
X145924500Y-63210000D02*
X145924500Y-59726000D01*
X145884500Y-63098000D02*
X145884500Y-59838000D01*
X145844500Y-62978000D02*
X145844500Y-59958000D01*
X145804500Y-62846000D02*
X145804500Y-60090000D01*
X145764500Y-62698000D02*
X145764500Y-60238000D01*
X145724500Y-62530000D02*
X145724500Y-60406000D01*
X145684500Y-62330000D02*
X145684500Y-60606000D01*
X145644500Y-62067000D02*
X145644500Y-60869000D01*
X156205146Y-64343000D02*
X155205146Y-64343000D01*
X155705146Y-64843000D02*
X155705146Y-63843000D01*
%TO.C,R2*%
D10*
X141200380Y-106379666D02*
X140724190Y-106713000D01*
X141200380Y-106951095D02*
X140200380Y-106951095D01*
X140200380Y-106570142D01*
X140248000Y-106474904D01*
X140295619Y-106427285D01*
X140390857Y-106379666D01*
X140533714Y-106379666D01*
X140628952Y-106427285D01*
X140676571Y-106474904D01*
X140724190Y-106570142D01*
X140724190Y-106951095D01*
X140295619Y-105998714D02*
X140248000Y-105951095D01*
X140200380Y-105855857D01*
X140200380Y-105617761D01*
X140248000Y-105522523D01*
X140295619Y-105474904D01*
X140390857Y-105427285D01*
X140486095Y-105427285D01*
X140628952Y-105474904D01*
X141200380Y-106046333D01*
X141200380Y-105427285D01*
%TO.C,TP4*%
X141406809Y-116696880D02*
X141740142Y-117696880D01*
X142073476Y-116696880D01*
X142406809Y-117696880D02*
X142406809Y-116696880D01*
X142787761Y-116696880D01*
X142883000Y-116744500D01*
X142930619Y-116792119D01*
X142978238Y-116887357D01*
X142978238Y-117030214D01*
X142930619Y-117125452D01*
X142883000Y-117173071D01*
X142787761Y-117220690D01*
X142406809Y-117220690D01*
X143311571Y-116696880D02*
X143549666Y-117696880D01*
X143740142Y-116982595D01*
X143930619Y-117696880D01*
X144168714Y-116696880D01*
X144549666Y-117696880D02*
X144549666Y-116696880D01*
X144883000Y-117411166D01*
X145216333Y-116696880D01*
X145216333Y-117696880D01*
%TO.C,TP3*%
X137469761Y-64603380D02*
X138041190Y-64603380D01*
X137755476Y-65603380D02*
X137755476Y-64603380D01*
X138326904Y-65555761D02*
X138469761Y-65603380D01*
X138707857Y-65603380D01*
X138803095Y-65555761D01*
X138850714Y-65508142D01*
X138898333Y-65412904D01*
X138898333Y-65317666D01*
X138850714Y-65222428D01*
X138803095Y-65174809D01*
X138707857Y-65127190D01*
X138517380Y-65079571D01*
X138422142Y-65031952D01*
X138374523Y-64984333D01*
X138326904Y-64889095D01*
X138326904Y-64793857D01*
X138374523Y-64698619D01*
X138422142Y-64651000D01*
X138517380Y-64603380D01*
X138755476Y-64603380D01*
X138898333Y-64651000D01*
X139326904Y-65079571D02*
X139660238Y-65079571D01*
X139803095Y-65603380D02*
X139326904Y-65603380D01*
X139326904Y-64603380D01*
X139803095Y-64603380D01*
X140088809Y-64603380D02*
X140660238Y-64603380D01*
X140374523Y-65603380D02*
X140374523Y-64603380D01*
%TO.C,TP2*%
X121118619Y-108862880D02*
X121451952Y-109862880D01*
X121785285Y-108862880D01*
X122118619Y-109862880D02*
X122118619Y-108862880D01*
X122356714Y-108862880D01*
X122499571Y-108910500D01*
X122594809Y-109005738D01*
X122642428Y-109100976D01*
X122690047Y-109291452D01*
X122690047Y-109434309D01*
X122642428Y-109624785D01*
X122594809Y-109720023D01*
X122499571Y-109815261D01*
X122356714Y-109862880D01*
X122118619Y-109862880D01*
X123690047Y-109862880D02*
X123356714Y-109386690D01*
X123118619Y-109862880D02*
X123118619Y-108862880D01*
X123499571Y-108862880D01*
X123594809Y-108910500D01*
X123642428Y-108958119D01*
X123690047Y-109053357D01*
X123690047Y-109196214D01*
X123642428Y-109291452D01*
X123594809Y-109339071D01*
X123499571Y-109386690D01*
X123118619Y-109386690D01*
X124118619Y-109862880D02*
X124118619Y-108862880D01*
X124451952Y-108862880D02*
X124785285Y-109862880D01*
X125118619Y-108862880D01*
X125451952Y-109339071D02*
X125785285Y-109339071D01*
X125928142Y-109862880D02*
X125451952Y-109862880D01*
X125451952Y-108862880D01*
X125928142Y-108862880D01*
%TO.C,TP1*%
X137739714Y-115276380D02*
X138073047Y-116276380D01*
X138406380Y-115276380D01*
X138692095Y-116228761D02*
X138834952Y-116276380D01*
X139073047Y-116276380D01*
X139168285Y-116228761D01*
X139215904Y-116181142D01*
X139263523Y-116085904D01*
X139263523Y-115990666D01*
X139215904Y-115895428D01*
X139168285Y-115847809D01*
X139073047Y-115800190D01*
X138882571Y-115752571D01*
X138787333Y-115704952D01*
X138739714Y-115657333D01*
X138692095Y-115562095D01*
X138692095Y-115466857D01*
X138739714Y-115371619D01*
X138787333Y-115324000D01*
X138882571Y-115276380D01*
X139120666Y-115276380D01*
X139263523Y-115324000D01*
X139692095Y-116276380D02*
X139692095Y-115276380D01*
X140263523Y-116276380D01*
X140263523Y-115276380D01*
X140692095Y-116228761D02*
X140834952Y-116276380D01*
X141073047Y-116276380D01*
X141168285Y-116228761D01*
X141215904Y-116181142D01*
X141263523Y-116085904D01*
X141263523Y-115990666D01*
X141215904Y-115895428D01*
X141168285Y-115847809D01*
X141073047Y-115800190D01*
X140882571Y-115752571D01*
X140787333Y-115704952D01*
X140739714Y-115657333D01*
X140692095Y-115562095D01*
X140692095Y-115466857D01*
X140739714Y-115371619D01*
X140787333Y-115324000D01*
X140882571Y-115276380D01*
X141120666Y-115276380D01*
X141263523Y-115324000D01*
X142168285Y-116276380D02*
X141692095Y-116276380D01*
X141692095Y-115276380D01*
%TO.C,A1*%
X153527214Y-68619666D02*
X154003404Y-68619666D01*
X153431976Y-68905380D02*
X153765309Y-67905380D01*
X154098642Y-68905380D01*
X154955785Y-68905380D02*
X154384357Y-68905380D01*
X154670071Y-68905380D02*
X154670071Y-67905380D01*
X154574833Y-68048238D01*
X154479595Y-68143476D01*
X154384357Y-68191095D01*
%TO.C,H4*%
X199238095Y-113952380D02*
X199238095Y-112952380D01*
X199238095Y-113428571D02*
X199809523Y-113428571D01*
X199809523Y-113952380D02*
X199809523Y-112952380D01*
X200714285Y-113285714D02*
X200714285Y-113952380D01*
X200476190Y-112904761D02*
X200238095Y-113619047D01*
X200857142Y-113619047D01*
%TO.C,H3*%
X126238095Y-63182380D02*
X126238095Y-62182380D01*
X126238095Y-62658571D02*
X126809523Y-62658571D01*
X126809523Y-63182380D02*
X126809523Y-62182380D01*
X127190476Y-62182380D02*
X127809523Y-62182380D01*
X127476190Y-62563333D01*
X127619047Y-62563333D01*
X127714285Y-62610952D01*
X127761904Y-62658571D01*
X127809523Y-62753809D01*
X127809523Y-62991904D01*
X127761904Y-63087142D01*
X127714285Y-63134761D01*
X127619047Y-63182380D01*
X127333333Y-63182380D01*
X127238095Y-63134761D01*
X127190476Y-63087142D01*
%TO.C,H2*%
X199238095Y-63952380D02*
X199238095Y-62952380D01*
X199238095Y-63428571D02*
X199809523Y-63428571D01*
X199809523Y-63952380D02*
X199809523Y-62952380D01*
X200238095Y-63047619D02*
X200285714Y-63000000D01*
X200380952Y-62952380D01*
X200619047Y-62952380D01*
X200714285Y-63000000D01*
X200761904Y-63047619D01*
X200809523Y-63142857D01*
X200809523Y-63238095D01*
X200761904Y-63380952D01*
X200190476Y-63952380D01*
X200809523Y-63952380D01*
%TO.C,H1*%
X123698095Y-113982380D02*
X123698095Y-112982380D01*
X123698095Y-113458571D02*
X124269523Y-113458571D01*
X124269523Y-113982380D02*
X124269523Y-112982380D01*
X125269523Y-113982380D02*
X124698095Y-113982380D01*
X124983809Y-113982380D02*
X124983809Y-112982380D01*
X124888571Y-113125238D01*
X124793333Y-113220476D01*
X124698095Y-113268095D01*
%TO.C,U1*%
X180730880Y-103392404D02*
X181540404Y-103392404D01*
X181635642Y-103344785D01*
X181683261Y-103297166D01*
X181730880Y-103201928D01*
X181730880Y-103011452D01*
X181683261Y-102916214D01*
X181635642Y-102868595D01*
X181540404Y-102820976D01*
X180730880Y-102820976D01*
X181730880Y-101820976D02*
X181730880Y-102392404D01*
X181730880Y-102106690D02*
X180730880Y-102106690D01*
X180873738Y-102201928D01*
X180968976Y-102297166D01*
X181016595Y-102392404D01*
%TO.C,RV1*%
X126870261Y-81800380D02*
X126536928Y-81324190D01*
X126298833Y-81800380D02*
X126298833Y-80800380D01*
X126679785Y-80800380D01*
X126775023Y-80848000D01*
X126822642Y-80895619D01*
X126870261Y-80990857D01*
X126870261Y-81133714D01*
X126822642Y-81228952D01*
X126775023Y-81276571D01*
X126679785Y-81324190D01*
X126298833Y-81324190D01*
X127155976Y-80800380D02*
X127489309Y-81800380D01*
X127822642Y-80800380D01*
X128679785Y-81800380D02*
X128108357Y-81800380D01*
X128394071Y-81800380D02*
X128394071Y-80800380D01*
X128298833Y-80943238D01*
X128203595Y-81038476D01*
X128108357Y-81086095D01*
%TO.C,R3*%
X132786380Y-115990666D02*
X132310190Y-116324000D01*
X132786380Y-116562095D02*
X131786380Y-116562095D01*
X131786380Y-116181142D01*
X131834000Y-116085904D01*
X131881619Y-116038285D01*
X131976857Y-115990666D01*
X132119714Y-115990666D01*
X132214952Y-116038285D01*
X132262571Y-116085904D01*
X132310190Y-116181142D01*
X132310190Y-116562095D01*
X131786380Y-115657333D02*
X131786380Y-115038285D01*
X132167333Y-115371619D01*
X132167333Y-115228761D01*
X132214952Y-115133523D01*
X132262571Y-115085904D01*
X132357809Y-115038285D01*
X132595904Y-115038285D01*
X132691142Y-115085904D01*
X132738761Y-115133523D01*
X132786380Y-115228761D01*
X132786380Y-115514476D01*
X132738761Y-115609714D01*
X132691142Y-115657333D01*
%TO.C,Q1*%
X133495619Y-114157238D02*
X133448000Y-114252476D01*
X133352761Y-114347714D01*
X133209904Y-114490571D01*
X133162285Y-114585809D01*
X133162285Y-114681047D01*
X133400380Y-114633428D02*
X133352761Y-114728666D01*
X133257523Y-114823904D01*
X133067047Y-114871523D01*
X132733714Y-114871523D01*
X132543238Y-114823904D01*
X132448000Y-114728666D01*
X132400380Y-114633428D01*
X132400380Y-114442952D01*
X132448000Y-114347714D01*
X132543238Y-114252476D01*
X132733714Y-114204857D01*
X133067047Y-114204857D01*
X133257523Y-114252476D01*
X133352761Y-114347714D01*
X133400380Y-114442952D01*
X133400380Y-114633428D01*
X133400380Y-113252476D02*
X133400380Y-113823904D01*
X133400380Y-113538190D02*
X132400380Y-113538190D01*
X132543238Y-113633428D01*
X132638476Y-113728666D01*
X132686095Y-113823904D01*
%TO.C,LED2*%
X188539380Y-88495047D02*
X188539380Y-88971238D01*
X187539380Y-88971238D01*
X188015571Y-88161714D02*
X188015571Y-87828380D01*
X188539380Y-87685523D02*
X188539380Y-88161714D01*
X187539380Y-88161714D01*
X187539380Y-87685523D01*
X188539380Y-87256952D02*
X187539380Y-87256952D01*
X187539380Y-87018857D01*
X187587000Y-86876000D01*
X187682238Y-86780761D01*
X187777476Y-86733142D01*
X187967952Y-86685523D01*
X188110809Y-86685523D01*
X188301285Y-86733142D01*
X188396523Y-86780761D01*
X188491761Y-86876000D01*
X188539380Y-87018857D01*
X188539380Y-87256952D01*
X187634619Y-86304571D02*
X187587000Y-86256952D01*
X187539380Y-86161714D01*
X187539380Y-85923619D01*
X187587000Y-85828380D01*
X187634619Y-85780761D01*
X187729857Y-85733142D01*
X187825095Y-85733142D01*
X187967952Y-85780761D01*
X188539380Y-86352190D01*
X188539380Y-85733142D01*
X188539380Y-91352190D02*
X188539380Y-91828380D01*
X187539380Y-91828380D01*
X187539380Y-91161714D02*
X187539380Y-90590285D01*
X188539380Y-90876000D02*
X187539380Y-90876000D01*
X188444142Y-89685523D02*
X188491761Y-89733142D01*
X188539380Y-89876000D01*
X188539380Y-89971238D01*
X188491761Y-90114095D01*
X188396523Y-90209333D01*
X188301285Y-90256952D01*
X188110809Y-90304571D01*
X187967952Y-90304571D01*
X187777476Y-90256952D01*
X187682238Y-90209333D01*
X187587000Y-90114095D01*
X187539380Y-89971238D01*
X187539380Y-89876000D01*
X187587000Y-89733142D01*
X187634619Y-89685523D01*
X188158428Y-89256952D02*
X188158428Y-88495047D01*
X187872714Y-87590285D02*
X188539380Y-87590285D01*
X187491761Y-87828380D02*
X188206047Y-88066476D01*
X188206047Y-87447428D01*
X187539380Y-87161714D02*
X187539380Y-86495047D01*
X188539380Y-86923619D01*
X187634619Y-86161714D02*
X187587000Y-86114095D01*
X187539380Y-86018857D01*
X187539380Y-85780761D01*
X187587000Y-85685523D01*
X187634619Y-85637904D01*
X187729857Y-85590285D01*
X187825095Y-85590285D01*
X187967952Y-85637904D01*
X188539380Y-86209333D01*
X188539380Y-85590285D01*
X187872714Y-84733142D02*
X188539380Y-84733142D01*
X187491761Y-84971238D02*
X188206047Y-85209333D01*
X188206047Y-84590285D01*
X187539380Y-83923619D02*
X188253666Y-83923619D01*
X188396523Y-83971238D01*
X188491761Y-84066476D01*
X188539380Y-84209333D01*
X188539380Y-84304571D01*
X188539380Y-82876000D02*
X188063190Y-83209333D01*
X188539380Y-83447428D02*
X187539380Y-83447428D01*
X187539380Y-83066476D01*
X187587000Y-82971238D01*
X187634619Y-82923619D01*
X187729857Y-82876000D01*
X187872714Y-82876000D01*
X187967952Y-82923619D01*
X188015571Y-82971238D01*
X188063190Y-83066476D01*
X188063190Y-83447428D01*
X164713246Y-92456000D02*
X164951342Y-92456000D01*
X164856104Y-92694095D02*
X164951342Y-92456000D01*
X164856104Y-92217904D01*
X165141818Y-92598857D02*
X164951342Y-92456000D01*
X165141818Y-92313142D01*
X164713246Y-92456000D02*
X164951342Y-92456000D01*
X164856104Y-92694095D02*
X164951342Y-92456000D01*
X164856104Y-92217904D01*
X165141818Y-92598857D02*
X164951342Y-92456000D01*
X165141818Y-92313142D01*
%TO.C,LED1*%
X188539380Y-73572547D02*
X188539380Y-74048738D01*
X187539380Y-74048738D01*
X188015571Y-73239214D02*
X188015571Y-72905880D01*
X188539380Y-72763023D02*
X188539380Y-73239214D01*
X187539380Y-73239214D01*
X187539380Y-72763023D01*
X188539380Y-72334452D02*
X187539380Y-72334452D01*
X187539380Y-72096357D01*
X187587000Y-71953500D01*
X187682238Y-71858261D01*
X187777476Y-71810642D01*
X187967952Y-71763023D01*
X188110809Y-71763023D01*
X188301285Y-71810642D01*
X188396523Y-71858261D01*
X188491761Y-71953500D01*
X188539380Y-72096357D01*
X188539380Y-72334452D01*
X188539380Y-70810642D02*
X188539380Y-71382071D01*
X188539380Y-71096357D02*
X187539380Y-71096357D01*
X187682238Y-71191595D01*
X187777476Y-71286833D01*
X187825095Y-71382071D01*
X188539380Y-76429690D02*
X188539380Y-76905880D01*
X187539380Y-76905880D01*
X187539380Y-76239214D02*
X187539380Y-75667785D01*
X188539380Y-75953500D02*
X187539380Y-75953500D01*
X188444142Y-74763023D02*
X188491761Y-74810642D01*
X188539380Y-74953500D01*
X188539380Y-75048738D01*
X188491761Y-75191595D01*
X188396523Y-75286833D01*
X188301285Y-75334452D01*
X188110809Y-75382071D01*
X187967952Y-75382071D01*
X187777476Y-75334452D01*
X187682238Y-75286833D01*
X187587000Y-75191595D01*
X187539380Y-75048738D01*
X187539380Y-74953500D01*
X187587000Y-74810642D01*
X187634619Y-74763023D01*
X188158428Y-74334452D02*
X188158428Y-73572547D01*
X187872714Y-72667785D02*
X188539380Y-72667785D01*
X187491761Y-72905880D02*
X188206047Y-73143976D01*
X188206047Y-72524928D01*
X187539380Y-72239214D02*
X187539380Y-71572547D01*
X188539380Y-72001119D01*
X187634619Y-71239214D02*
X187587000Y-71191595D01*
X187539380Y-71096357D01*
X187539380Y-70858261D01*
X187587000Y-70763023D01*
X187634619Y-70715404D01*
X187729857Y-70667785D01*
X187825095Y-70667785D01*
X187967952Y-70715404D01*
X188539380Y-71286833D01*
X188539380Y-70667785D01*
X187872714Y-69810642D02*
X188539380Y-69810642D01*
X187491761Y-70048738D02*
X188206047Y-70286833D01*
X188206047Y-69667785D01*
X187539380Y-69001119D02*
X188253666Y-69001119D01*
X188396523Y-69048738D01*
X188491761Y-69143976D01*
X188539380Y-69286833D01*
X188539380Y-69382071D01*
X188539380Y-67953500D02*
X188063190Y-68286833D01*
X188539380Y-68524928D02*
X187539380Y-68524928D01*
X187539380Y-68143976D01*
X187587000Y-68048738D01*
X187634619Y-68001119D01*
X187729857Y-67953500D01*
X187872714Y-67953500D01*
X187967952Y-68001119D01*
X188015571Y-68048738D01*
X188063190Y-68143976D01*
X188063190Y-68524928D01*
X164713246Y-77533500D02*
X164951342Y-77533500D01*
X164856104Y-77771595D02*
X164951342Y-77533500D01*
X164856104Y-77295404D01*
X165141818Y-77676357D02*
X164951342Y-77533500D01*
X165141818Y-77390642D01*
X164713246Y-77533500D02*
X164951342Y-77533500D01*
X164856104Y-77771595D02*
X164951342Y-77533500D01*
X164856104Y-77295404D01*
X165141818Y-77676357D02*
X164951342Y-77533500D01*
X165141818Y-77390642D01*
%TO.C,J4*%
X167941666Y-73830380D02*
X167941666Y-74544666D01*
X167894047Y-74687523D01*
X167798809Y-74782761D01*
X167655952Y-74830380D01*
X167560714Y-74830380D01*
X168846428Y-74163714D02*
X168846428Y-74830380D01*
X168608333Y-73782761D02*
X168370238Y-74497047D01*
X168989285Y-74497047D01*
%TO.C,J3*%
X166584380Y-105489333D02*
X167298666Y-105489333D01*
X167441523Y-105536952D01*
X167536761Y-105632190D01*
X167584380Y-105775047D01*
X167584380Y-105870285D01*
X166584380Y-105108380D02*
X166584380Y-104489333D01*
X166965333Y-104822666D01*
X166965333Y-104679809D01*
X167012952Y-104584571D01*
X167060571Y-104536952D01*
X167155809Y-104489333D01*
X167393904Y-104489333D01*
X167489142Y-104536952D01*
X167536761Y-104584571D01*
X167584380Y-104679809D01*
X167584380Y-104965523D01*
X167536761Y-105060761D01*
X167489142Y-105108380D01*
%TO.C,J2*%
X130076880Y-97219333D02*
X130791166Y-97219333D01*
X130934023Y-97266952D01*
X131029261Y-97362190D01*
X131076880Y-97505047D01*
X131076880Y-97600285D01*
X130172119Y-96790761D02*
X130124500Y-96743142D01*
X130076880Y-96647904D01*
X130076880Y-96409809D01*
X130124500Y-96314571D01*
X130172119Y-96266952D01*
X130267357Y-96219333D01*
X130362595Y-96219333D01*
X130505452Y-96266952D01*
X131076880Y-96838380D01*
X131076880Y-96219333D01*
%TO.C,J1*%
X125253666Y-93302880D02*
X125253666Y-94017166D01*
X125206047Y-94160023D01*
X125110809Y-94255261D01*
X124967952Y-94302880D01*
X124872714Y-94302880D01*
X126253666Y-94302880D02*
X125682238Y-94302880D01*
X125967952Y-94302880D02*
X125967952Y-93302880D01*
X125872714Y-93445738D01*
X125777476Y-93540976D01*
X125682238Y-93588595D01*
%TO.C,C2*%
X126976142Y-115482666D02*
X127023761Y-115530285D01*
X127071380Y-115673142D01*
X127071380Y-115768380D01*
X127023761Y-115911238D01*
X126928523Y-116006476D01*
X126833285Y-116054095D01*
X126642809Y-116101714D01*
X126499952Y-116101714D01*
X126309476Y-116054095D01*
X126214238Y-116006476D01*
X126119000Y-115911238D01*
X126071380Y-115768380D01*
X126071380Y-115673142D01*
X126119000Y-115530285D01*
X126166619Y-115482666D01*
X126166619Y-115101714D02*
X126119000Y-115054095D01*
X126071380Y-114958857D01*
X126071380Y-114720761D01*
X126119000Y-114625523D01*
X126166619Y-114577904D01*
X126261857Y-114530285D01*
X126357095Y-114530285D01*
X126499952Y-114577904D01*
X127071380Y-115149333D01*
X127071380Y-114530285D01*
%TO.C,C1*%
X150558833Y-68075142D02*
X150511214Y-68122761D01*
X150368357Y-68170380D01*
X150273119Y-68170380D01*
X150130261Y-68122761D01*
X150035023Y-68027523D01*
X149987404Y-67932285D01*
X149939785Y-67741809D01*
X149939785Y-67598952D01*
X149987404Y-67408476D01*
X150035023Y-67313238D01*
X150130261Y-67218000D01*
X150273119Y-67170380D01*
X150368357Y-67170380D01*
X150511214Y-67218000D01*
X150558833Y-67265619D01*
X151511214Y-68170380D02*
X150939785Y-68170380D01*
X151225500Y-68170380D02*
X151225500Y-67170380D01*
X151130261Y-67313238D01*
X151035023Y-67408476D01*
X150939785Y-67456095D01*
%TD*%
M02*
