%TF.GenerationSoftware,KiCad,Pcbnew,(5.1.6-0-10_14)*%
%TF.CreationDate,2021-01-04T17:29:47-08:00*%
%TF.ProjectId,temperatureController,74656d70-6572-4617-9475-7265436f6e74,rev?*%
%TF.SameCoordinates,Original*%
%TF.FileFunction,Paste,Top*%
%TF.FilePolarity,Positive*%
%FSLAX46Y46*%
G04 Gerber Fmt 4.6, Leading zero omitted, Abs format (unit mm)*
G04 Created by KiCad (PCBNEW (5.1.6-0-10_14)) date 2021-01-04 17:29:47*
%MOMM*%
%LPD*%
G01*
G04 APERTURE LIST*
%ADD10R,0.800000X0.900000*%
G04 APERTURE END LIST*
%TO.C,U1*%
G36*
G01*
X183093500Y-99005500D02*
X182793500Y-99005500D01*
G75*
G02*
X182643500Y-98855500I0J150000D01*
G01*
X182643500Y-97105500D01*
G75*
G02*
X182793500Y-96955500I150000J0D01*
G01*
X183093500Y-96955500D01*
G75*
G02*
X183243500Y-97105500I0J-150000D01*
G01*
X183243500Y-98855500D01*
G75*
G02*
X183093500Y-99005500I-150000J0D01*
G01*
G37*
G36*
G01*
X184363500Y-99005500D02*
X184063500Y-99005500D01*
G75*
G02*
X183913500Y-98855500I0J150000D01*
G01*
X183913500Y-97105500D01*
G75*
G02*
X184063500Y-96955500I150000J0D01*
G01*
X184363500Y-96955500D01*
G75*
G02*
X184513500Y-97105500I0J-150000D01*
G01*
X184513500Y-98855500D01*
G75*
G02*
X184363500Y-99005500I-150000J0D01*
G01*
G37*
G36*
G01*
X185633500Y-99005500D02*
X185333500Y-99005500D01*
G75*
G02*
X185183500Y-98855500I0J150000D01*
G01*
X185183500Y-97105500D01*
G75*
G02*
X185333500Y-96955500I150000J0D01*
G01*
X185633500Y-96955500D01*
G75*
G02*
X185783500Y-97105500I0J-150000D01*
G01*
X185783500Y-98855500D01*
G75*
G02*
X185633500Y-99005500I-150000J0D01*
G01*
G37*
G36*
G01*
X186903500Y-99005500D02*
X186603500Y-99005500D01*
G75*
G02*
X186453500Y-98855500I0J150000D01*
G01*
X186453500Y-97105500D01*
G75*
G02*
X186603500Y-96955500I150000J0D01*
G01*
X186903500Y-96955500D01*
G75*
G02*
X187053500Y-97105500I0J-150000D01*
G01*
X187053500Y-98855500D01*
G75*
G02*
X186903500Y-99005500I-150000J0D01*
G01*
G37*
G36*
G01*
X188173500Y-99005500D02*
X187873500Y-99005500D01*
G75*
G02*
X187723500Y-98855500I0J150000D01*
G01*
X187723500Y-97105500D01*
G75*
G02*
X187873500Y-96955500I150000J0D01*
G01*
X188173500Y-96955500D01*
G75*
G02*
X188323500Y-97105500I0J-150000D01*
G01*
X188323500Y-98855500D01*
G75*
G02*
X188173500Y-99005500I-150000J0D01*
G01*
G37*
G36*
G01*
X189443500Y-99005500D02*
X189143500Y-99005500D01*
G75*
G02*
X188993500Y-98855500I0J150000D01*
G01*
X188993500Y-97105500D01*
G75*
G02*
X189143500Y-96955500I150000J0D01*
G01*
X189443500Y-96955500D01*
G75*
G02*
X189593500Y-97105500I0J-150000D01*
G01*
X189593500Y-98855500D01*
G75*
G02*
X189443500Y-99005500I-150000J0D01*
G01*
G37*
G36*
G01*
X190713500Y-99005500D02*
X190413500Y-99005500D01*
G75*
G02*
X190263500Y-98855500I0J150000D01*
G01*
X190263500Y-97105500D01*
G75*
G02*
X190413500Y-96955500I150000J0D01*
G01*
X190713500Y-96955500D01*
G75*
G02*
X190863500Y-97105500I0J-150000D01*
G01*
X190863500Y-98855500D01*
G75*
G02*
X190713500Y-99005500I-150000J0D01*
G01*
G37*
G36*
G01*
X191983500Y-99005500D02*
X191683500Y-99005500D01*
G75*
G02*
X191533500Y-98855500I0J150000D01*
G01*
X191533500Y-97105500D01*
G75*
G02*
X191683500Y-96955500I150000J0D01*
G01*
X191983500Y-96955500D01*
G75*
G02*
X192133500Y-97105500I0J-150000D01*
G01*
X192133500Y-98855500D01*
G75*
G02*
X191983500Y-99005500I-150000J0D01*
G01*
G37*
G36*
G01*
X193253500Y-99005500D02*
X192953500Y-99005500D01*
G75*
G02*
X192803500Y-98855500I0J150000D01*
G01*
X192803500Y-97105500D01*
G75*
G02*
X192953500Y-96955500I150000J0D01*
G01*
X193253500Y-96955500D01*
G75*
G02*
X193403500Y-97105500I0J-150000D01*
G01*
X193403500Y-98855500D01*
G75*
G02*
X193253500Y-99005500I-150000J0D01*
G01*
G37*
G36*
G01*
X194523500Y-99005500D02*
X194223500Y-99005500D01*
G75*
G02*
X194073500Y-98855500I0J150000D01*
G01*
X194073500Y-97105500D01*
G75*
G02*
X194223500Y-96955500I150000J0D01*
G01*
X194523500Y-96955500D01*
G75*
G02*
X194673500Y-97105500I0J-150000D01*
G01*
X194673500Y-98855500D01*
G75*
G02*
X194523500Y-99005500I-150000J0D01*
G01*
G37*
G36*
G01*
X195793500Y-99005500D02*
X195493500Y-99005500D01*
G75*
G02*
X195343500Y-98855500I0J150000D01*
G01*
X195343500Y-97105500D01*
G75*
G02*
X195493500Y-96955500I150000J0D01*
G01*
X195793500Y-96955500D01*
G75*
G02*
X195943500Y-97105500I0J-150000D01*
G01*
X195943500Y-98855500D01*
G75*
G02*
X195793500Y-99005500I-150000J0D01*
G01*
G37*
G36*
G01*
X197063500Y-99005500D02*
X196763500Y-99005500D01*
G75*
G02*
X196613500Y-98855500I0J150000D01*
G01*
X196613500Y-97105500D01*
G75*
G02*
X196763500Y-96955500I150000J0D01*
G01*
X197063500Y-96955500D01*
G75*
G02*
X197213500Y-97105500I0J-150000D01*
G01*
X197213500Y-98855500D01*
G75*
G02*
X197063500Y-99005500I-150000J0D01*
G01*
G37*
G36*
G01*
X197063500Y-108305500D02*
X196763500Y-108305500D01*
G75*
G02*
X196613500Y-108155500I0J150000D01*
G01*
X196613500Y-106405500D01*
G75*
G02*
X196763500Y-106255500I150000J0D01*
G01*
X197063500Y-106255500D01*
G75*
G02*
X197213500Y-106405500I0J-150000D01*
G01*
X197213500Y-108155500D01*
G75*
G02*
X197063500Y-108305500I-150000J0D01*
G01*
G37*
G36*
G01*
X195793500Y-108305500D02*
X195493500Y-108305500D01*
G75*
G02*
X195343500Y-108155500I0J150000D01*
G01*
X195343500Y-106405500D01*
G75*
G02*
X195493500Y-106255500I150000J0D01*
G01*
X195793500Y-106255500D01*
G75*
G02*
X195943500Y-106405500I0J-150000D01*
G01*
X195943500Y-108155500D01*
G75*
G02*
X195793500Y-108305500I-150000J0D01*
G01*
G37*
G36*
G01*
X194523500Y-108305500D02*
X194223500Y-108305500D01*
G75*
G02*
X194073500Y-108155500I0J150000D01*
G01*
X194073500Y-106405500D01*
G75*
G02*
X194223500Y-106255500I150000J0D01*
G01*
X194523500Y-106255500D01*
G75*
G02*
X194673500Y-106405500I0J-150000D01*
G01*
X194673500Y-108155500D01*
G75*
G02*
X194523500Y-108305500I-150000J0D01*
G01*
G37*
G36*
G01*
X193253500Y-108305500D02*
X192953500Y-108305500D01*
G75*
G02*
X192803500Y-108155500I0J150000D01*
G01*
X192803500Y-106405500D01*
G75*
G02*
X192953500Y-106255500I150000J0D01*
G01*
X193253500Y-106255500D01*
G75*
G02*
X193403500Y-106405500I0J-150000D01*
G01*
X193403500Y-108155500D01*
G75*
G02*
X193253500Y-108305500I-150000J0D01*
G01*
G37*
G36*
G01*
X191983500Y-108305500D02*
X191683500Y-108305500D01*
G75*
G02*
X191533500Y-108155500I0J150000D01*
G01*
X191533500Y-106405500D01*
G75*
G02*
X191683500Y-106255500I150000J0D01*
G01*
X191983500Y-106255500D01*
G75*
G02*
X192133500Y-106405500I0J-150000D01*
G01*
X192133500Y-108155500D01*
G75*
G02*
X191983500Y-108305500I-150000J0D01*
G01*
G37*
G36*
G01*
X190713500Y-108305500D02*
X190413500Y-108305500D01*
G75*
G02*
X190263500Y-108155500I0J150000D01*
G01*
X190263500Y-106405500D01*
G75*
G02*
X190413500Y-106255500I150000J0D01*
G01*
X190713500Y-106255500D01*
G75*
G02*
X190863500Y-106405500I0J-150000D01*
G01*
X190863500Y-108155500D01*
G75*
G02*
X190713500Y-108305500I-150000J0D01*
G01*
G37*
G36*
G01*
X189443500Y-108305500D02*
X189143500Y-108305500D01*
G75*
G02*
X188993500Y-108155500I0J150000D01*
G01*
X188993500Y-106405500D01*
G75*
G02*
X189143500Y-106255500I150000J0D01*
G01*
X189443500Y-106255500D01*
G75*
G02*
X189593500Y-106405500I0J-150000D01*
G01*
X189593500Y-108155500D01*
G75*
G02*
X189443500Y-108305500I-150000J0D01*
G01*
G37*
G36*
G01*
X188173500Y-108305500D02*
X187873500Y-108305500D01*
G75*
G02*
X187723500Y-108155500I0J150000D01*
G01*
X187723500Y-106405500D01*
G75*
G02*
X187873500Y-106255500I150000J0D01*
G01*
X188173500Y-106255500D01*
G75*
G02*
X188323500Y-106405500I0J-150000D01*
G01*
X188323500Y-108155500D01*
G75*
G02*
X188173500Y-108305500I-150000J0D01*
G01*
G37*
G36*
G01*
X186903500Y-108305500D02*
X186603500Y-108305500D01*
G75*
G02*
X186453500Y-108155500I0J150000D01*
G01*
X186453500Y-106405500D01*
G75*
G02*
X186603500Y-106255500I150000J0D01*
G01*
X186903500Y-106255500D01*
G75*
G02*
X187053500Y-106405500I0J-150000D01*
G01*
X187053500Y-108155500D01*
G75*
G02*
X186903500Y-108305500I-150000J0D01*
G01*
G37*
G36*
G01*
X185633500Y-108305500D02*
X185333500Y-108305500D01*
G75*
G02*
X185183500Y-108155500I0J150000D01*
G01*
X185183500Y-106405500D01*
G75*
G02*
X185333500Y-106255500I150000J0D01*
G01*
X185633500Y-106255500D01*
G75*
G02*
X185783500Y-106405500I0J-150000D01*
G01*
X185783500Y-108155500D01*
G75*
G02*
X185633500Y-108305500I-150000J0D01*
G01*
G37*
G36*
G01*
X184363500Y-108305500D02*
X184063500Y-108305500D01*
G75*
G02*
X183913500Y-108155500I0J150000D01*
G01*
X183913500Y-106405500D01*
G75*
G02*
X184063500Y-106255500I150000J0D01*
G01*
X184363500Y-106255500D01*
G75*
G02*
X184513500Y-106405500I0J-150000D01*
G01*
X184513500Y-108155500D01*
G75*
G02*
X184363500Y-108305500I-150000J0D01*
G01*
G37*
G36*
G01*
X183093500Y-108305500D02*
X182793500Y-108305500D01*
G75*
G02*
X182643500Y-108155500I0J150000D01*
G01*
X182643500Y-106405500D01*
G75*
G02*
X182793500Y-106255500I150000J0D01*
G01*
X183093500Y-106255500D01*
G75*
G02*
X183243500Y-106405500I0J-150000D01*
G01*
X183243500Y-108155500D01*
G75*
G02*
X183093500Y-108305500I-150000J0D01*
G01*
G37*
%TD*%
%TO.C,R3*%
G36*
G01*
X131133001Y-115256000D02*
X130232999Y-115256000D01*
G75*
G02*
X129983000Y-115006001I0J249999D01*
G01*
X129983000Y-114355999D01*
G75*
G02*
X130232999Y-114106000I249999J0D01*
G01*
X131133001Y-114106000D01*
G75*
G02*
X131383000Y-114355999I0J-249999D01*
G01*
X131383000Y-115006001D01*
G75*
G02*
X131133001Y-115256000I-249999J0D01*
G01*
G37*
G36*
G01*
X131133001Y-117306000D02*
X130232999Y-117306000D01*
G75*
G02*
X129983000Y-117056001I0J249999D01*
G01*
X129983000Y-116405999D01*
G75*
G02*
X130232999Y-116156000I249999J0D01*
G01*
X131133001Y-116156000D01*
G75*
G02*
X131383000Y-116405999I0J-249999D01*
G01*
X131383000Y-117056001D01*
G75*
G02*
X131133001Y-117306000I-249999J0D01*
G01*
G37*
%TD*%
D10*
%TO.C,Q1*%
X135448000Y-113062000D03*
X136398000Y-115062000D03*
X134498000Y-115062000D03*
%TD*%
%TO.C,C2*%
G36*
G01*
X128010499Y-116156000D02*
X128910501Y-116156000D01*
G75*
G02*
X129160500Y-116405999I0J-249999D01*
G01*
X129160500Y-117056001D01*
G75*
G02*
X128910501Y-117306000I-249999J0D01*
G01*
X128010499Y-117306000D01*
G75*
G02*
X127760500Y-117056001I0J249999D01*
G01*
X127760500Y-116405999D01*
G75*
G02*
X128010499Y-116156000I249999J0D01*
G01*
G37*
G36*
G01*
X128010499Y-114106000D02*
X128910501Y-114106000D01*
G75*
G02*
X129160500Y-114355999I0J-249999D01*
G01*
X129160500Y-115006001D01*
G75*
G02*
X128910501Y-115256000I-249999J0D01*
G01*
X128010499Y-115256000D01*
G75*
G02*
X127760500Y-115006001I0J249999D01*
G01*
X127760500Y-114355999D01*
G75*
G02*
X128010499Y-114106000I249999J0D01*
G01*
G37*
%TD*%
M02*
