%TF.GenerationSoftware,KiCad,Pcbnew,(5.1.6-0-10_14)*%
%TF.CreationDate,2021-01-13T12:07:43-08:00*%
%TF.ProjectId,temperatureController,74656d70-6572-4617-9475-7265436f6e74,rev?*%
%TF.SameCoordinates,Original*%
%TF.FileFunction,Paste,Top*%
%TF.FilePolarity,Positive*%
%FSLAX46Y46*%
G04 Gerber Fmt 4.6, Leading zero omitted, Abs format (unit mm)*
G04 Created by KiCad (PCBNEW (5.1.6-0-10_14)) date 2021-01-13 12:07:43*
%MOMM*%
%LPD*%
G01*
G04 APERTURE LIST*
%ADD10R,1.300000X4.500000*%
%ADD11R,1.800000X3.900000*%
G04 APERTURE END LIST*
%TO.C,R5*%
G36*
G01*
X154544500Y-66478999D02*
X154544500Y-67379001D01*
G75*
G02*
X154294501Y-67629000I-249999J0D01*
G01*
X153644499Y-67629000D01*
G75*
G02*
X153394500Y-67379001I0J249999D01*
G01*
X153394500Y-66478999D01*
G75*
G02*
X153644499Y-66229000I249999J0D01*
G01*
X154294501Y-66229000D01*
G75*
G02*
X154544500Y-66478999I0J-249999D01*
G01*
G37*
G36*
G01*
X156594500Y-66478999D02*
X156594500Y-67379001D01*
G75*
G02*
X156344501Y-67629000I-249999J0D01*
G01*
X155694499Y-67629000D01*
G75*
G02*
X155444500Y-67379001I0J249999D01*
G01*
X155444500Y-66478999D01*
G75*
G02*
X155694499Y-66229000I249999J0D01*
G01*
X156344501Y-66229000D01*
G75*
G02*
X156594500Y-66478999I0J-249999D01*
G01*
G37*
%TD*%
%TO.C,R3*%
G36*
G01*
X154671500Y-62160999D02*
X154671500Y-63061001D01*
G75*
G02*
X154421501Y-63311000I-249999J0D01*
G01*
X153771499Y-63311000D01*
G75*
G02*
X153521500Y-63061001I0J249999D01*
G01*
X153521500Y-62160999D01*
G75*
G02*
X153771499Y-61911000I249999J0D01*
G01*
X154421501Y-61911000D01*
G75*
G02*
X154671500Y-62160999I0J-249999D01*
G01*
G37*
G36*
G01*
X156721500Y-62160999D02*
X156721500Y-63061001D01*
G75*
G02*
X156471501Y-63311000I-249999J0D01*
G01*
X155821499Y-63311000D01*
G75*
G02*
X155571500Y-63061001I0J249999D01*
G01*
X155571500Y-62160999D01*
G75*
G02*
X155821499Y-61911000I249999J0D01*
G01*
X156471501Y-61911000D01*
G75*
G02*
X156721500Y-62160999I0J-249999D01*
G01*
G37*
%TD*%
%TO.C,C3*%
G36*
G01*
X157800999Y-68204500D02*
X158701001Y-68204500D01*
G75*
G02*
X158951000Y-68454499I0J-249999D01*
G01*
X158951000Y-69104501D01*
G75*
G02*
X158701001Y-69354500I-249999J0D01*
G01*
X157800999Y-69354500D01*
G75*
G02*
X157551000Y-69104501I0J249999D01*
G01*
X157551000Y-68454499D01*
G75*
G02*
X157800999Y-68204500I249999J0D01*
G01*
G37*
G36*
G01*
X157800999Y-66154500D02*
X158701001Y-66154500D01*
G75*
G02*
X158951000Y-66404499I0J-249999D01*
G01*
X158951000Y-67054501D01*
G75*
G02*
X158701001Y-67304500I-249999J0D01*
G01*
X157800999Y-67304500D01*
G75*
G02*
X157551000Y-67054501I0J249999D01*
G01*
X157551000Y-66404499D01*
G75*
G02*
X157800999Y-66154500I249999J0D01*
G01*
G37*
%TD*%
%TO.C,C2*%
G36*
G01*
X157918999Y-63959000D02*
X158819001Y-63959000D01*
G75*
G02*
X159069000Y-64208999I0J-249999D01*
G01*
X159069000Y-64859001D01*
G75*
G02*
X158819001Y-65109000I-249999J0D01*
G01*
X157918999Y-65109000D01*
G75*
G02*
X157669000Y-64859001I0J249999D01*
G01*
X157669000Y-64208999D01*
G75*
G02*
X157918999Y-63959000I249999J0D01*
G01*
G37*
G36*
G01*
X157918999Y-61909000D02*
X158819001Y-61909000D01*
G75*
G02*
X159069000Y-62158999I0J-249999D01*
G01*
X159069000Y-62809001D01*
G75*
G02*
X158819001Y-63059000I-249999J0D01*
G01*
X157918999Y-63059000D01*
G75*
G02*
X157669000Y-62809001I0J249999D01*
G01*
X157669000Y-62158999D01*
G75*
G02*
X157918999Y-61909000I249999J0D01*
G01*
G37*
%TD*%
D10*
%TO.C,J3*%
X185562500Y-108943000D03*
X183062500Y-108943000D03*
X180562500Y-108943000D03*
X178062500Y-108943000D03*
X175562500Y-108943000D03*
X173062500Y-108943000D03*
D11*
X188762500Y-115429600D03*
X169862500Y-115443000D03*
%TD*%
%TO.C,R4*%
G36*
G01*
X155825500Y-72459001D02*
X155825500Y-71558999D01*
G75*
G02*
X156075499Y-71309000I249999J0D01*
G01*
X156725501Y-71309000D01*
G75*
G02*
X156975500Y-71558999I0J-249999D01*
G01*
X156975500Y-72459001D01*
G75*
G02*
X156725501Y-72709000I-249999J0D01*
G01*
X156075499Y-72709000D01*
G75*
G02*
X155825500Y-72459001I0J249999D01*
G01*
G37*
G36*
G01*
X153775500Y-72459001D02*
X153775500Y-71558999D01*
G75*
G02*
X154025499Y-71309000I249999J0D01*
G01*
X154675501Y-71309000D01*
G75*
G02*
X154925500Y-71558999I0J-249999D01*
G01*
X154925500Y-72459001D01*
G75*
G02*
X154675501Y-72709000I-249999J0D01*
G01*
X154025499Y-72709000D01*
G75*
G02*
X153775500Y-72459001I0J249999D01*
G01*
G37*
%TD*%
%TO.C,U1*%
G36*
G01*
X208620500Y-100275500D02*
X208320500Y-100275500D01*
G75*
G02*
X208170500Y-100125500I0J150000D01*
G01*
X208170500Y-98375500D01*
G75*
G02*
X208320500Y-98225500I150000J0D01*
G01*
X208620500Y-98225500D01*
G75*
G02*
X208770500Y-98375500I0J-150000D01*
G01*
X208770500Y-100125500D01*
G75*
G02*
X208620500Y-100275500I-150000J0D01*
G01*
G37*
G36*
G01*
X209890500Y-100275500D02*
X209590500Y-100275500D01*
G75*
G02*
X209440500Y-100125500I0J150000D01*
G01*
X209440500Y-98375500D01*
G75*
G02*
X209590500Y-98225500I150000J0D01*
G01*
X209890500Y-98225500D01*
G75*
G02*
X210040500Y-98375500I0J-150000D01*
G01*
X210040500Y-100125500D01*
G75*
G02*
X209890500Y-100275500I-150000J0D01*
G01*
G37*
G36*
G01*
X211160500Y-100275500D02*
X210860500Y-100275500D01*
G75*
G02*
X210710500Y-100125500I0J150000D01*
G01*
X210710500Y-98375500D01*
G75*
G02*
X210860500Y-98225500I150000J0D01*
G01*
X211160500Y-98225500D01*
G75*
G02*
X211310500Y-98375500I0J-150000D01*
G01*
X211310500Y-100125500D01*
G75*
G02*
X211160500Y-100275500I-150000J0D01*
G01*
G37*
G36*
G01*
X212430500Y-100275500D02*
X212130500Y-100275500D01*
G75*
G02*
X211980500Y-100125500I0J150000D01*
G01*
X211980500Y-98375500D01*
G75*
G02*
X212130500Y-98225500I150000J0D01*
G01*
X212430500Y-98225500D01*
G75*
G02*
X212580500Y-98375500I0J-150000D01*
G01*
X212580500Y-100125500D01*
G75*
G02*
X212430500Y-100275500I-150000J0D01*
G01*
G37*
G36*
G01*
X213700500Y-100275500D02*
X213400500Y-100275500D01*
G75*
G02*
X213250500Y-100125500I0J150000D01*
G01*
X213250500Y-98375500D01*
G75*
G02*
X213400500Y-98225500I150000J0D01*
G01*
X213700500Y-98225500D01*
G75*
G02*
X213850500Y-98375500I0J-150000D01*
G01*
X213850500Y-100125500D01*
G75*
G02*
X213700500Y-100275500I-150000J0D01*
G01*
G37*
G36*
G01*
X214970500Y-100275500D02*
X214670500Y-100275500D01*
G75*
G02*
X214520500Y-100125500I0J150000D01*
G01*
X214520500Y-98375500D01*
G75*
G02*
X214670500Y-98225500I150000J0D01*
G01*
X214970500Y-98225500D01*
G75*
G02*
X215120500Y-98375500I0J-150000D01*
G01*
X215120500Y-100125500D01*
G75*
G02*
X214970500Y-100275500I-150000J0D01*
G01*
G37*
G36*
G01*
X216240500Y-100275500D02*
X215940500Y-100275500D01*
G75*
G02*
X215790500Y-100125500I0J150000D01*
G01*
X215790500Y-98375500D01*
G75*
G02*
X215940500Y-98225500I150000J0D01*
G01*
X216240500Y-98225500D01*
G75*
G02*
X216390500Y-98375500I0J-150000D01*
G01*
X216390500Y-100125500D01*
G75*
G02*
X216240500Y-100275500I-150000J0D01*
G01*
G37*
G36*
G01*
X217510500Y-100275500D02*
X217210500Y-100275500D01*
G75*
G02*
X217060500Y-100125500I0J150000D01*
G01*
X217060500Y-98375500D01*
G75*
G02*
X217210500Y-98225500I150000J0D01*
G01*
X217510500Y-98225500D01*
G75*
G02*
X217660500Y-98375500I0J-150000D01*
G01*
X217660500Y-100125500D01*
G75*
G02*
X217510500Y-100275500I-150000J0D01*
G01*
G37*
G36*
G01*
X218780500Y-100275500D02*
X218480500Y-100275500D01*
G75*
G02*
X218330500Y-100125500I0J150000D01*
G01*
X218330500Y-98375500D01*
G75*
G02*
X218480500Y-98225500I150000J0D01*
G01*
X218780500Y-98225500D01*
G75*
G02*
X218930500Y-98375500I0J-150000D01*
G01*
X218930500Y-100125500D01*
G75*
G02*
X218780500Y-100275500I-150000J0D01*
G01*
G37*
G36*
G01*
X220050500Y-100275500D02*
X219750500Y-100275500D01*
G75*
G02*
X219600500Y-100125500I0J150000D01*
G01*
X219600500Y-98375500D01*
G75*
G02*
X219750500Y-98225500I150000J0D01*
G01*
X220050500Y-98225500D01*
G75*
G02*
X220200500Y-98375500I0J-150000D01*
G01*
X220200500Y-100125500D01*
G75*
G02*
X220050500Y-100275500I-150000J0D01*
G01*
G37*
G36*
G01*
X221320500Y-100275500D02*
X221020500Y-100275500D01*
G75*
G02*
X220870500Y-100125500I0J150000D01*
G01*
X220870500Y-98375500D01*
G75*
G02*
X221020500Y-98225500I150000J0D01*
G01*
X221320500Y-98225500D01*
G75*
G02*
X221470500Y-98375500I0J-150000D01*
G01*
X221470500Y-100125500D01*
G75*
G02*
X221320500Y-100275500I-150000J0D01*
G01*
G37*
G36*
G01*
X222590500Y-100275500D02*
X222290500Y-100275500D01*
G75*
G02*
X222140500Y-100125500I0J150000D01*
G01*
X222140500Y-98375500D01*
G75*
G02*
X222290500Y-98225500I150000J0D01*
G01*
X222590500Y-98225500D01*
G75*
G02*
X222740500Y-98375500I0J-150000D01*
G01*
X222740500Y-100125500D01*
G75*
G02*
X222590500Y-100275500I-150000J0D01*
G01*
G37*
G36*
G01*
X222590500Y-109575500D02*
X222290500Y-109575500D01*
G75*
G02*
X222140500Y-109425500I0J150000D01*
G01*
X222140500Y-107675500D01*
G75*
G02*
X222290500Y-107525500I150000J0D01*
G01*
X222590500Y-107525500D01*
G75*
G02*
X222740500Y-107675500I0J-150000D01*
G01*
X222740500Y-109425500D01*
G75*
G02*
X222590500Y-109575500I-150000J0D01*
G01*
G37*
G36*
G01*
X221320500Y-109575500D02*
X221020500Y-109575500D01*
G75*
G02*
X220870500Y-109425500I0J150000D01*
G01*
X220870500Y-107675500D01*
G75*
G02*
X221020500Y-107525500I150000J0D01*
G01*
X221320500Y-107525500D01*
G75*
G02*
X221470500Y-107675500I0J-150000D01*
G01*
X221470500Y-109425500D01*
G75*
G02*
X221320500Y-109575500I-150000J0D01*
G01*
G37*
G36*
G01*
X220050500Y-109575500D02*
X219750500Y-109575500D01*
G75*
G02*
X219600500Y-109425500I0J150000D01*
G01*
X219600500Y-107675500D01*
G75*
G02*
X219750500Y-107525500I150000J0D01*
G01*
X220050500Y-107525500D01*
G75*
G02*
X220200500Y-107675500I0J-150000D01*
G01*
X220200500Y-109425500D01*
G75*
G02*
X220050500Y-109575500I-150000J0D01*
G01*
G37*
G36*
G01*
X218780500Y-109575500D02*
X218480500Y-109575500D01*
G75*
G02*
X218330500Y-109425500I0J150000D01*
G01*
X218330500Y-107675500D01*
G75*
G02*
X218480500Y-107525500I150000J0D01*
G01*
X218780500Y-107525500D01*
G75*
G02*
X218930500Y-107675500I0J-150000D01*
G01*
X218930500Y-109425500D01*
G75*
G02*
X218780500Y-109575500I-150000J0D01*
G01*
G37*
G36*
G01*
X217510500Y-109575500D02*
X217210500Y-109575500D01*
G75*
G02*
X217060500Y-109425500I0J150000D01*
G01*
X217060500Y-107675500D01*
G75*
G02*
X217210500Y-107525500I150000J0D01*
G01*
X217510500Y-107525500D01*
G75*
G02*
X217660500Y-107675500I0J-150000D01*
G01*
X217660500Y-109425500D01*
G75*
G02*
X217510500Y-109575500I-150000J0D01*
G01*
G37*
G36*
G01*
X216240500Y-109575500D02*
X215940500Y-109575500D01*
G75*
G02*
X215790500Y-109425500I0J150000D01*
G01*
X215790500Y-107675500D01*
G75*
G02*
X215940500Y-107525500I150000J0D01*
G01*
X216240500Y-107525500D01*
G75*
G02*
X216390500Y-107675500I0J-150000D01*
G01*
X216390500Y-109425500D01*
G75*
G02*
X216240500Y-109575500I-150000J0D01*
G01*
G37*
G36*
G01*
X214970500Y-109575500D02*
X214670500Y-109575500D01*
G75*
G02*
X214520500Y-109425500I0J150000D01*
G01*
X214520500Y-107675500D01*
G75*
G02*
X214670500Y-107525500I150000J0D01*
G01*
X214970500Y-107525500D01*
G75*
G02*
X215120500Y-107675500I0J-150000D01*
G01*
X215120500Y-109425500D01*
G75*
G02*
X214970500Y-109575500I-150000J0D01*
G01*
G37*
G36*
G01*
X213700500Y-109575500D02*
X213400500Y-109575500D01*
G75*
G02*
X213250500Y-109425500I0J150000D01*
G01*
X213250500Y-107675500D01*
G75*
G02*
X213400500Y-107525500I150000J0D01*
G01*
X213700500Y-107525500D01*
G75*
G02*
X213850500Y-107675500I0J-150000D01*
G01*
X213850500Y-109425500D01*
G75*
G02*
X213700500Y-109575500I-150000J0D01*
G01*
G37*
G36*
G01*
X212430500Y-109575500D02*
X212130500Y-109575500D01*
G75*
G02*
X211980500Y-109425500I0J150000D01*
G01*
X211980500Y-107675500D01*
G75*
G02*
X212130500Y-107525500I150000J0D01*
G01*
X212430500Y-107525500D01*
G75*
G02*
X212580500Y-107675500I0J-150000D01*
G01*
X212580500Y-109425500D01*
G75*
G02*
X212430500Y-109575500I-150000J0D01*
G01*
G37*
G36*
G01*
X211160500Y-109575500D02*
X210860500Y-109575500D01*
G75*
G02*
X210710500Y-109425500I0J150000D01*
G01*
X210710500Y-107675500D01*
G75*
G02*
X210860500Y-107525500I150000J0D01*
G01*
X211160500Y-107525500D01*
G75*
G02*
X211310500Y-107675500I0J-150000D01*
G01*
X211310500Y-109425500D01*
G75*
G02*
X211160500Y-109575500I-150000J0D01*
G01*
G37*
G36*
G01*
X209890500Y-109575500D02*
X209590500Y-109575500D01*
G75*
G02*
X209440500Y-109425500I0J150000D01*
G01*
X209440500Y-107675500D01*
G75*
G02*
X209590500Y-107525500I150000J0D01*
G01*
X209890500Y-107525500D01*
G75*
G02*
X210040500Y-107675500I0J-150000D01*
G01*
X210040500Y-109425500D01*
G75*
G02*
X209890500Y-109575500I-150000J0D01*
G01*
G37*
G36*
G01*
X208620500Y-109575500D02*
X208320500Y-109575500D01*
G75*
G02*
X208170500Y-109425500I0J150000D01*
G01*
X208170500Y-107675500D01*
G75*
G02*
X208320500Y-107525500I150000J0D01*
G01*
X208620500Y-107525500D01*
G75*
G02*
X208770500Y-107675500I0J-150000D01*
G01*
X208770500Y-109425500D01*
G75*
G02*
X208620500Y-109575500I-150000J0D01*
G01*
G37*
%TD*%
%TO.C,R1*%
G36*
G01*
X225684501Y-103000500D02*
X224784499Y-103000500D01*
G75*
G02*
X224534500Y-102750501I0J249999D01*
G01*
X224534500Y-102100499D01*
G75*
G02*
X224784499Y-101850500I249999J0D01*
G01*
X225684501Y-101850500D01*
G75*
G02*
X225934500Y-102100499I0J-249999D01*
G01*
X225934500Y-102750501D01*
G75*
G02*
X225684501Y-103000500I-249999J0D01*
G01*
G37*
G36*
G01*
X225684501Y-105050500D02*
X224784499Y-105050500D01*
G75*
G02*
X224534500Y-104800501I0J249999D01*
G01*
X224534500Y-104150499D01*
G75*
G02*
X224784499Y-103900500I249999J0D01*
G01*
X225684501Y-103900500D01*
G75*
G02*
X225934500Y-104150499I0J-249999D01*
G01*
X225934500Y-104800501D01*
G75*
G02*
X225684501Y-105050500I-249999J0D01*
G01*
G37*
%TD*%
M02*
