%TF.GenerationSoftware,KiCad,Pcbnew,(5.1.6-0-10_14)*%
%TF.CreationDate,2021-01-13T12:07:43-08:00*%
%TF.ProjectId,temperatureController,74656d70-6572-4617-9475-7265436f6e74,rev?*%
%TF.SameCoordinates,Original*%
%TF.FileFunction,Copper,L1,Top*%
%TF.FilePolarity,Positive*%
%FSLAX46Y46*%
G04 Gerber Fmt 4.6, Leading zero omitted, Abs format (unit mm)*
G04 Created by KiCad (PCBNEW (5.1.6-0-10_14)) date 2021-01-13 12:07:43*
%MOMM*%
%LPD*%
G01*
G04 APERTURE LIST*
%TA.AperFunction,ComponentPad*%
%ADD10O,1.600000X1.600000*%
%TD*%
%TA.AperFunction,ComponentPad*%
%ADD11R,1.600000X1.600000*%
%TD*%
%TA.AperFunction,ComponentPad*%
%ADD12O,1.800000X1.800000*%
%TD*%
%TA.AperFunction,ComponentPad*%
%ADD13C,2.000000*%
%TD*%
%TA.AperFunction,SMDPad,CuDef*%
%ADD14R,1.300000X4.500000*%
%TD*%
%TA.AperFunction,SMDPad,CuDef*%
%ADD15R,1.800000X3.900000*%
%TD*%
%TA.AperFunction,ComponentPad*%
%ADD16O,2.000000X1.905000*%
%TD*%
%TA.AperFunction,ComponentPad*%
%ADD17R,2.000000X1.905000*%
%TD*%
%TA.AperFunction,ComponentPad*%
%ADD18C,4.000000*%
%TD*%
%TA.AperFunction,ComponentPad*%
%ADD19O,5.000000X4.000000*%
%TD*%
%TA.AperFunction,ComponentPad*%
%ADD20C,2.500000*%
%TD*%
%TA.AperFunction,ComponentPad*%
%ADD21R,2.000000X2.000000*%
%TD*%
%TA.AperFunction,ComponentPad*%
%ADD22C,1.270000*%
%TD*%
%TA.AperFunction,ComponentPad*%
%ADD23O,1.700000X1.700000*%
%TD*%
%TA.AperFunction,ComponentPad*%
%ADD24R,1.700000X1.700000*%
%TD*%
%TA.AperFunction,ComponentPad*%
%ADD25O,3.960000X1.980000*%
%TD*%
%TA.AperFunction,ComponentPad*%
%ADD26R,3.960000X1.980000*%
%TD*%
%TA.AperFunction,ComponentPad*%
%ADD27R,3.500000X3.500000*%
%TD*%
%TA.AperFunction,ViaPad*%
%ADD28C,0.800000*%
%TD*%
%TA.AperFunction,Conductor*%
%ADD29C,0.250000*%
%TD*%
%TA.AperFunction,Conductor*%
%ADD30C,2.500000*%
%TD*%
%TA.AperFunction,Conductor*%
%ADD31C,1.000000*%
%TD*%
G04 APERTURE END LIST*
D10*
%TO.P,A1,16*%
%TO.N,/SCK*%
X169799000Y-65214500D03*
%TO.P,A1,15*%
%TO.N,/MISO*%
X185039000Y-65214500D03*
%TO.P,A1,30*%
%TO.N,Net-(A1-Pad30)*%
X169799000Y-100774500D03*
%TO.P,A1,14*%
%TO.N,/MOSI*%
X185039000Y-67754500D03*
%TO.P,A1,29*%
%TO.N,GND*%
X169799000Y-98234500D03*
%TO.P,A1,13*%
%TO.N,/SS*%
X185039000Y-70294500D03*
%TO.P,A1,28*%
%TO.N,Net-(A1-Pad28)*%
X169799000Y-95694500D03*
%TO.P,A1,12*%
%TO.N,Net-(A1-Pad12)*%
X185039000Y-72834500D03*
%TO.P,A1,27*%
%TO.N,VDD*%
X169799000Y-93154500D03*
%TO.P,A1,11*%
%TO.N,Net-(A1-Pad11)*%
X185039000Y-75374500D03*
%TO.P,A1,26*%
%TO.N,/A7*%
X169799000Y-90614500D03*
%TO.P,A1,10*%
%TO.N,Net-(A1-Pad10)*%
X185039000Y-77914500D03*
%TO.P,A1,25*%
%TO.N,/A6*%
X169799000Y-88074500D03*
%TO.P,A1,9*%
%TO.N,/ALT*%
X185039000Y-80454500D03*
%TO.P,A1,24*%
%TO.N,/SCL*%
X169799000Y-85534500D03*
%TO.P,A1,8*%
%TO.N,/VDRIVE*%
X185039000Y-82994500D03*
%TO.P,A1,23*%
%TO.N,/SDA*%
X169799000Y-82994500D03*
%TO.P,A1,7*%
%TO.N,/D4*%
X185039000Y-85534500D03*
%TO.P,A1,22*%
%TO.N,/A3*%
X169799000Y-80454500D03*
%TO.P,A1,6*%
%TO.N,/D3*%
X185039000Y-88074500D03*
%TO.P,A1,21*%
%TO.N,/VSNSL_F*%
X169799000Y-77914500D03*
%TO.P,A1,5*%
%TO.N,/D2*%
X185039000Y-90614500D03*
%TO.P,A1,20*%
%TO.N,/TSET*%
X169799000Y-75374500D03*
%TO.P,A1,4*%
%TO.N,GND*%
X185039000Y-93154500D03*
%TO.P,A1,19*%
%TO.N,/VSNSH_F*%
X169799000Y-72834500D03*
%TO.P,A1,3*%
%TO.N,Net-(A1-Pad3)*%
X185039000Y-95694500D03*
%TO.P,A1,18*%
%TO.N,Net-(A1-Pad18)*%
X169799000Y-70294500D03*
%TO.P,A1,2*%
%TO.N,/D0*%
X185039000Y-98234500D03*
%TO.P,A1,17*%
%TO.N,Net-(A1-Pad17)*%
X169799000Y-67754500D03*
D11*
%TO.P,A1,1*%
%TO.N,/D1*%
X185039000Y-100774500D03*
%TD*%
D12*
%TO.P,R2,2*%
%TO.N,/VSNSH*%
X157480000Y-88345000D03*
%TO.P,R2,1*%
%TO.N,/VSNSL*%
X157480000Y-93345000D03*
%TD*%
D13*
%TO.P,TP4,1*%
%TO.N,/VDRIVE*%
X144399000Y-62611000D03*
%TD*%
%TO.P,TP6,1*%
%TO.N,/VSNSH*%
X150241000Y-62484000D03*
%TD*%
%TO.P,TP5,1*%
%TO.N,/VSNSH_F*%
X163639500Y-62611000D03*
%TD*%
%TO.P,TP2,1*%
%TO.N,/VSNSL_F*%
X163957000Y-67691000D03*
%TD*%
%TO.P,R5,2*%
%TO.N,/VSNSL*%
%TA.AperFunction,SMDPad,CuDef*%
G36*
G01*
X154544500Y-66478999D02*
X154544500Y-67379001D01*
G75*
G02*
X154294501Y-67629000I-249999J0D01*
G01*
X153644499Y-67629000D01*
G75*
G02*
X153394500Y-67379001I0J249999D01*
G01*
X153394500Y-66478999D01*
G75*
G02*
X153644499Y-66229000I249999J0D01*
G01*
X154294501Y-66229000D01*
G75*
G02*
X154544500Y-66478999I0J-249999D01*
G01*
G37*
%TD.AperFunction*%
%TO.P,R5,1*%
%TO.N,/VSNSL_F*%
%TA.AperFunction,SMDPad,CuDef*%
G36*
G01*
X156594500Y-66478999D02*
X156594500Y-67379001D01*
G75*
G02*
X156344501Y-67629000I-249999J0D01*
G01*
X155694499Y-67629000D01*
G75*
G02*
X155444500Y-67379001I0J249999D01*
G01*
X155444500Y-66478999D01*
G75*
G02*
X155694499Y-66229000I249999J0D01*
G01*
X156344501Y-66229000D01*
G75*
G02*
X156594500Y-66478999I0J-249999D01*
G01*
G37*
%TD.AperFunction*%
%TD*%
%TO.P,R3,2*%
%TO.N,/VSNSH*%
%TA.AperFunction,SMDPad,CuDef*%
G36*
G01*
X154671500Y-62160999D02*
X154671500Y-63061001D01*
G75*
G02*
X154421501Y-63311000I-249999J0D01*
G01*
X153771499Y-63311000D01*
G75*
G02*
X153521500Y-63061001I0J249999D01*
G01*
X153521500Y-62160999D01*
G75*
G02*
X153771499Y-61911000I249999J0D01*
G01*
X154421501Y-61911000D01*
G75*
G02*
X154671500Y-62160999I0J-249999D01*
G01*
G37*
%TD.AperFunction*%
%TO.P,R3,1*%
%TO.N,/VSNSH_F*%
%TA.AperFunction,SMDPad,CuDef*%
G36*
G01*
X156721500Y-62160999D02*
X156721500Y-63061001D01*
G75*
G02*
X156471501Y-63311000I-249999J0D01*
G01*
X155821499Y-63311000D01*
G75*
G02*
X155571500Y-63061001I0J249999D01*
G01*
X155571500Y-62160999D01*
G75*
G02*
X155821499Y-61911000I249999J0D01*
G01*
X156471501Y-61911000D01*
G75*
G02*
X156721500Y-62160999I0J-249999D01*
G01*
G37*
%TD.AperFunction*%
%TD*%
%TO.P,C3,2*%
%TO.N,GND*%
%TA.AperFunction,SMDPad,CuDef*%
G36*
G01*
X157800999Y-68204500D02*
X158701001Y-68204500D01*
G75*
G02*
X158951000Y-68454499I0J-249999D01*
G01*
X158951000Y-69104501D01*
G75*
G02*
X158701001Y-69354500I-249999J0D01*
G01*
X157800999Y-69354500D01*
G75*
G02*
X157551000Y-69104501I0J249999D01*
G01*
X157551000Y-68454499D01*
G75*
G02*
X157800999Y-68204500I249999J0D01*
G01*
G37*
%TD.AperFunction*%
%TO.P,C3,1*%
%TO.N,/VSNSL_F*%
%TA.AperFunction,SMDPad,CuDef*%
G36*
G01*
X157800999Y-66154500D02*
X158701001Y-66154500D01*
G75*
G02*
X158951000Y-66404499I0J-249999D01*
G01*
X158951000Y-67054501D01*
G75*
G02*
X158701001Y-67304500I-249999J0D01*
G01*
X157800999Y-67304500D01*
G75*
G02*
X157551000Y-67054501I0J249999D01*
G01*
X157551000Y-66404499D01*
G75*
G02*
X157800999Y-66154500I249999J0D01*
G01*
G37*
%TD.AperFunction*%
%TD*%
%TO.P,C2,2*%
%TO.N,GND*%
%TA.AperFunction,SMDPad,CuDef*%
G36*
G01*
X157918999Y-63959000D02*
X158819001Y-63959000D01*
G75*
G02*
X159069000Y-64208999I0J-249999D01*
G01*
X159069000Y-64859001D01*
G75*
G02*
X158819001Y-65109000I-249999J0D01*
G01*
X157918999Y-65109000D01*
G75*
G02*
X157669000Y-64859001I0J249999D01*
G01*
X157669000Y-64208999D01*
G75*
G02*
X157918999Y-63959000I249999J0D01*
G01*
G37*
%TD.AperFunction*%
%TO.P,C2,1*%
%TO.N,/VSNSH_F*%
%TA.AperFunction,SMDPad,CuDef*%
G36*
G01*
X157918999Y-61909000D02*
X158819001Y-61909000D01*
G75*
G02*
X159069000Y-62158999I0J-249999D01*
G01*
X159069000Y-62809001D01*
G75*
G02*
X158819001Y-63059000I-249999J0D01*
G01*
X157918999Y-63059000D01*
G75*
G02*
X157669000Y-62809001I0J249999D01*
G01*
X157669000Y-62158999D01*
G75*
G02*
X157918999Y-61909000I249999J0D01*
G01*
G37*
%TD.AperFunction*%
%TD*%
%TO.P,TP1,1*%
%TO.N,/VSNSL*%
X149923500Y-67627500D03*
%TD*%
D14*
%TO.P,J3,6*%
%TO.N,Net-(J3-Pad6)*%
X185562500Y-108943000D03*
%TO.P,J3,5*%
%TO.N,/ALT*%
X183062500Y-108943000D03*
%TO.P,J3,4*%
%TO.N,/SCL*%
X180562500Y-108943000D03*
%TO.P,J3,3*%
%TO.N,/SDA*%
X178062500Y-108943000D03*
%TO.P,J3,2*%
%TO.N,GND*%
X175562500Y-108943000D03*
%TO.P,J3,1*%
%TO.N,VDD*%
X173062500Y-108943000D03*
D15*
%TO.P,J3,MP*%
%TO.N,N/C*%
X188762500Y-115429600D03*
X169862500Y-115443000D03*
%TD*%
%TO.P,R4,2*%
%TO.N,/VDRIVE*%
%TA.AperFunction,SMDPad,CuDef*%
G36*
G01*
X155825500Y-72459001D02*
X155825500Y-71558999D01*
G75*
G02*
X156075499Y-71309000I249999J0D01*
G01*
X156725501Y-71309000D01*
G75*
G02*
X156975500Y-71558999I0J-249999D01*
G01*
X156975500Y-72459001D01*
G75*
G02*
X156725501Y-72709000I-249999J0D01*
G01*
X156075499Y-72709000D01*
G75*
G02*
X155825500Y-72459001I0J249999D01*
G01*
G37*
%TD.AperFunction*%
%TO.P,R4,1*%
%TO.N,Net-(Q1-Pad1)*%
%TA.AperFunction,SMDPad,CuDef*%
G36*
G01*
X153775500Y-72459001D02*
X153775500Y-71558999D01*
G75*
G02*
X154025499Y-71309000I249999J0D01*
G01*
X154675501Y-71309000D01*
G75*
G02*
X154925500Y-71558999I0J-249999D01*
G01*
X154925500Y-72459001D01*
G75*
G02*
X154675501Y-72709000I-249999J0D01*
G01*
X154025499Y-72709000D01*
G75*
G02*
X153775500Y-72459001I0J249999D01*
G01*
G37*
%TD.AperFunction*%
%TD*%
D16*
%TO.P,Q1,3*%
%TO.N,GND*%
X149225000Y-93726000D03*
%TO.P,Q1,2*%
%TO.N,/VSNSL*%
X149225000Y-91186000D03*
D17*
%TO.P,Q1,1*%
%TO.N,Net-(Q1-Pad1)*%
X149225000Y-88646000D03*
%TD*%
D13*
%TO.P,TP3,1*%
%TO.N,/TSET*%
X144399000Y-67627500D03*
%TD*%
D18*
%TO.P,H4,1*%
%TO.N,N/C*%
X225527000Y-114270000D03*
%TD*%
%TO.P,H3,1*%
%TO.N,N/C*%
X127000000Y-62230000D03*
%TD*%
%TO.P,H2,1*%
%TO.N,N/C*%
X225527000Y-64270000D03*
%TD*%
%TO.P,H1,1*%
%TO.N,N/C*%
X124460000Y-113030000D03*
%TD*%
%TO.P,U1,24*%
%TO.N,/MISO*%
%TA.AperFunction,SMDPad,CuDef*%
G36*
G01*
X208620500Y-100275500D02*
X208320500Y-100275500D01*
G75*
G02*
X208170500Y-100125500I0J150000D01*
G01*
X208170500Y-98375500D01*
G75*
G02*
X208320500Y-98225500I150000J0D01*
G01*
X208620500Y-98225500D01*
G75*
G02*
X208770500Y-98375500I0J-150000D01*
G01*
X208770500Y-100125500D01*
G75*
G02*
X208620500Y-100275500I-150000J0D01*
G01*
G37*
%TD.AperFunction*%
%TO.P,U1,23*%
%TO.N,/SEGD*%
%TA.AperFunction,SMDPad,CuDef*%
G36*
G01*
X209890500Y-100275500D02*
X209590500Y-100275500D01*
G75*
G02*
X209440500Y-100125500I0J150000D01*
G01*
X209440500Y-98375500D01*
G75*
G02*
X209590500Y-98225500I150000J0D01*
G01*
X209890500Y-98225500D01*
G75*
G02*
X210040500Y-98375500I0J-150000D01*
G01*
X210040500Y-100125500D01*
G75*
G02*
X209890500Y-100275500I-150000J0D01*
G01*
G37*
%TD.AperFunction*%
%TO.P,U1,22*%
%TO.N,/SEGDP*%
%TA.AperFunction,SMDPad,CuDef*%
G36*
G01*
X211160500Y-100275500D02*
X210860500Y-100275500D01*
G75*
G02*
X210710500Y-100125500I0J150000D01*
G01*
X210710500Y-98375500D01*
G75*
G02*
X210860500Y-98225500I150000J0D01*
G01*
X211160500Y-98225500D01*
G75*
G02*
X211310500Y-98375500I0J-150000D01*
G01*
X211310500Y-100125500D01*
G75*
G02*
X211160500Y-100275500I-150000J0D01*
G01*
G37*
%TD.AperFunction*%
%TO.P,U1,21*%
%TO.N,/SEGE*%
%TA.AperFunction,SMDPad,CuDef*%
G36*
G01*
X212430500Y-100275500D02*
X212130500Y-100275500D01*
G75*
G02*
X211980500Y-100125500I0J150000D01*
G01*
X211980500Y-98375500D01*
G75*
G02*
X212130500Y-98225500I150000J0D01*
G01*
X212430500Y-98225500D01*
G75*
G02*
X212580500Y-98375500I0J-150000D01*
G01*
X212580500Y-100125500D01*
G75*
G02*
X212430500Y-100275500I-150000J0D01*
G01*
G37*
%TD.AperFunction*%
%TO.P,U1,20*%
%TO.N,/SEGC*%
%TA.AperFunction,SMDPad,CuDef*%
G36*
G01*
X213700500Y-100275500D02*
X213400500Y-100275500D01*
G75*
G02*
X213250500Y-100125500I0J150000D01*
G01*
X213250500Y-98375500D01*
G75*
G02*
X213400500Y-98225500I150000J0D01*
G01*
X213700500Y-98225500D01*
G75*
G02*
X213850500Y-98375500I0J-150000D01*
G01*
X213850500Y-100125500D01*
G75*
G02*
X213700500Y-100275500I-150000J0D01*
G01*
G37*
%TD.AperFunction*%
%TO.P,U1,19*%
%TO.N,VDD*%
%TA.AperFunction,SMDPad,CuDef*%
G36*
G01*
X214970500Y-100275500D02*
X214670500Y-100275500D01*
G75*
G02*
X214520500Y-100125500I0J150000D01*
G01*
X214520500Y-98375500D01*
G75*
G02*
X214670500Y-98225500I150000J0D01*
G01*
X214970500Y-98225500D01*
G75*
G02*
X215120500Y-98375500I0J-150000D01*
G01*
X215120500Y-100125500D01*
G75*
G02*
X214970500Y-100275500I-150000J0D01*
G01*
G37*
%TD.AperFunction*%
%TO.P,U1,18*%
%TO.N,/ISET*%
%TA.AperFunction,SMDPad,CuDef*%
G36*
G01*
X216240500Y-100275500D02*
X215940500Y-100275500D01*
G75*
G02*
X215790500Y-100125500I0J150000D01*
G01*
X215790500Y-98375500D01*
G75*
G02*
X215940500Y-98225500I150000J0D01*
G01*
X216240500Y-98225500D01*
G75*
G02*
X216390500Y-98375500I0J-150000D01*
G01*
X216390500Y-100125500D01*
G75*
G02*
X216240500Y-100275500I-150000J0D01*
G01*
G37*
%TD.AperFunction*%
%TO.P,U1,17*%
%TO.N,/SEGG*%
%TA.AperFunction,SMDPad,CuDef*%
G36*
G01*
X217510500Y-100275500D02*
X217210500Y-100275500D01*
G75*
G02*
X217060500Y-100125500I0J150000D01*
G01*
X217060500Y-98375500D01*
G75*
G02*
X217210500Y-98225500I150000J0D01*
G01*
X217510500Y-98225500D01*
G75*
G02*
X217660500Y-98375500I0J-150000D01*
G01*
X217660500Y-100125500D01*
G75*
G02*
X217510500Y-100275500I-150000J0D01*
G01*
G37*
%TD.AperFunction*%
%TO.P,U1,16*%
%TO.N,/SEGB*%
%TA.AperFunction,SMDPad,CuDef*%
G36*
G01*
X218780500Y-100275500D02*
X218480500Y-100275500D01*
G75*
G02*
X218330500Y-100125500I0J150000D01*
G01*
X218330500Y-98375500D01*
G75*
G02*
X218480500Y-98225500I150000J0D01*
G01*
X218780500Y-98225500D01*
G75*
G02*
X218930500Y-98375500I0J-150000D01*
G01*
X218930500Y-100125500D01*
G75*
G02*
X218780500Y-100275500I-150000J0D01*
G01*
G37*
%TD.AperFunction*%
%TO.P,U1,15*%
%TO.N,/SEGF*%
%TA.AperFunction,SMDPad,CuDef*%
G36*
G01*
X220050500Y-100275500D02*
X219750500Y-100275500D01*
G75*
G02*
X219600500Y-100125500I0J150000D01*
G01*
X219600500Y-98375500D01*
G75*
G02*
X219750500Y-98225500I150000J0D01*
G01*
X220050500Y-98225500D01*
G75*
G02*
X220200500Y-98375500I0J-150000D01*
G01*
X220200500Y-100125500D01*
G75*
G02*
X220050500Y-100275500I-150000J0D01*
G01*
G37*
%TD.AperFunction*%
%TO.P,U1,14*%
%TO.N,/SEGA*%
%TA.AperFunction,SMDPad,CuDef*%
G36*
G01*
X221320500Y-100275500D02*
X221020500Y-100275500D01*
G75*
G02*
X220870500Y-100125500I0J150000D01*
G01*
X220870500Y-98375500D01*
G75*
G02*
X221020500Y-98225500I150000J0D01*
G01*
X221320500Y-98225500D01*
G75*
G02*
X221470500Y-98375500I0J-150000D01*
G01*
X221470500Y-100125500D01*
G75*
G02*
X221320500Y-100275500I-150000J0D01*
G01*
G37*
%TD.AperFunction*%
%TO.P,U1,13*%
%TO.N,/SCK*%
%TA.AperFunction,SMDPad,CuDef*%
G36*
G01*
X222590500Y-100275500D02*
X222290500Y-100275500D01*
G75*
G02*
X222140500Y-100125500I0J150000D01*
G01*
X222140500Y-98375500D01*
G75*
G02*
X222290500Y-98225500I150000J0D01*
G01*
X222590500Y-98225500D01*
G75*
G02*
X222740500Y-98375500I0J-150000D01*
G01*
X222740500Y-100125500D01*
G75*
G02*
X222590500Y-100275500I-150000J0D01*
G01*
G37*
%TD.AperFunction*%
%TO.P,U1,12*%
%TO.N,/SS*%
%TA.AperFunction,SMDPad,CuDef*%
G36*
G01*
X222590500Y-109575500D02*
X222290500Y-109575500D01*
G75*
G02*
X222140500Y-109425500I0J150000D01*
G01*
X222140500Y-107675500D01*
G75*
G02*
X222290500Y-107525500I150000J0D01*
G01*
X222590500Y-107525500D01*
G75*
G02*
X222740500Y-107675500I0J-150000D01*
G01*
X222740500Y-109425500D01*
G75*
G02*
X222590500Y-109575500I-150000J0D01*
G01*
G37*
%TD.AperFunction*%
%TO.P,U1,11*%
%TO.N,/DIG1*%
%TA.AperFunction,SMDPad,CuDef*%
G36*
G01*
X221320500Y-109575500D02*
X221020500Y-109575500D01*
G75*
G02*
X220870500Y-109425500I0J150000D01*
G01*
X220870500Y-107675500D01*
G75*
G02*
X221020500Y-107525500I150000J0D01*
G01*
X221320500Y-107525500D01*
G75*
G02*
X221470500Y-107675500I0J-150000D01*
G01*
X221470500Y-109425500D01*
G75*
G02*
X221320500Y-109575500I-150000J0D01*
G01*
G37*
%TD.AperFunction*%
%TO.P,U1,10*%
%TO.N,/DIG5*%
%TA.AperFunction,SMDPad,CuDef*%
G36*
G01*
X220050500Y-109575500D02*
X219750500Y-109575500D01*
G75*
G02*
X219600500Y-109425500I0J150000D01*
G01*
X219600500Y-107675500D01*
G75*
G02*
X219750500Y-107525500I150000J0D01*
G01*
X220050500Y-107525500D01*
G75*
G02*
X220200500Y-107675500I0J-150000D01*
G01*
X220200500Y-109425500D01*
G75*
G02*
X220050500Y-109575500I-150000J0D01*
G01*
G37*
%TD.AperFunction*%
%TO.P,U1,9*%
%TO.N,GND*%
%TA.AperFunction,SMDPad,CuDef*%
G36*
G01*
X218780500Y-109575500D02*
X218480500Y-109575500D01*
G75*
G02*
X218330500Y-109425500I0J150000D01*
G01*
X218330500Y-107675500D01*
G75*
G02*
X218480500Y-107525500I150000J0D01*
G01*
X218780500Y-107525500D01*
G75*
G02*
X218930500Y-107675500I0J-150000D01*
G01*
X218930500Y-109425500D01*
G75*
G02*
X218780500Y-109575500I-150000J0D01*
G01*
G37*
%TD.AperFunction*%
%TO.P,U1,8*%
%TO.N,/DIG7_D*%
%TA.AperFunction,SMDPad,CuDef*%
G36*
G01*
X217510500Y-109575500D02*
X217210500Y-109575500D01*
G75*
G02*
X217060500Y-109425500I0J150000D01*
G01*
X217060500Y-107675500D01*
G75*
G02*
X217210500Y-107525500I150000J0D01*
G01*
X217510500Y-107525500D01*
G75*
G02*
X217660500Y-107675500I0J-150000D01*
G01*
X217660500Y-109425500D01*
G75*
G02*
X217510500Y-109575500I-150000J0D01*
G01*
G37*
%TD.AperFunction*%
%TO.P,U1,7*%
%TO.N,/DIG3*%
%TA.AperFunction,SMDPad,CuDef*%
G36*
G01*
X216240500Y-109575500D02*
X215940500Y-109575500D01*
G75*
G02*
X215790500Y-109425500I0J150000D01*
G01*
X215790500Y-107675500D01*
G75*
G02*
X215940500Y-107525500I150000J0D01*
G01*
X216240500Y-107525500D01*
G75*
G02*
X216390500Y-107675500I0J-150000D01*
G01*
X216390500Y-109425500D01*
G75*
G02*
X216240500Y-109575500I-150000J0D01*
G01*
G37*
%TD.AperFunction*%
%TO.P,U1,6*%
%TO.N,/DIG2*%
%TA.AperFunction,SMDPad,CuDef*%
G36*
G01*
X214970500Y-109575500D02*
X214670500Y-109575500D01*
G75*
G02*
X214520500Y-109425500I0J150000D01*
G01*
X214520500Y-107675500D01*
G75*
G02*
X214670500Y-107525500I150000J0D01*
G01*
X214970500Y-107525500D01*
G75*
G02*
X215120500Y-107675500I0J-150000D01*
G01*
X215120500Y-109425500D01*
G75*
G02*
X214970500Y-109575500I-150000J0D01*
G01*
G37*
%TD.AperFunction*%
%TO.P,U1,5*%
%TO.N,/DIG6_D*%
%TA.AperFunction,SMDPad,CuDef*%
G36*
G01*
X213700500Y-109575500D02*
X213400500Y-109575500D01*
G75*
G02*
X213250500Y-109425500I0J150000D01*
G01*
X213250500Y-107675500D01*
G75*
G02*
X213400500Y-107525500I150000J0D01*
G01*
X213700500Y-107525500D01*
G75*
G02*
X213850500Y-107675500I0J-150000D01*
G01*
X213850500Y-109425500D01*
G75*
G02*
X213700500Y-109575500I-150000J0D01*
G01*
G37*
%TD.AperFunction*%
%TO.P,U1,4*%
%TO.N,GND*%
%TA.AperFunction,SMDPad,CuDef*%
G36*
G01*
X212430500Y-109575500D02*
X212130500Y-109575500D01*
G75*
G02*
X211980500Y-109425500I0J150000D01*
G01*
X211980500Y-107675500D01*
G75*
G02*
X212130500Y-107525500I150000J0D01*
G01*
X212430500Y-107525500D01*
G75*
G02*
X212580500Y-107675500I0J-150000D01*
G01*
X212580500Y-109425500D01*
G75*
G02*
X212430500Y-109575500I-150000J0D01*
G01*
G37*
%TD.AperFunction*%
%TO.P,U1,3*%
%TO.N,/DIG4*%
%TA.AperFunction,SMDPad,CuDef*%
G36*
G01*
X211160500Y-109575500D02*
X210860500Y-109575500D01*
G75*
G02*
X210710500Y-109425500I0J150000D01*
G01*
X210710500Y-107675500D01*
G75*
G02*
X210860500Y-107525500I150000J0D01*
G01*
X211160500Y-107525500D01*
G75*
G02*
X211310500Y-107675500I0J-150000D01*
G01*
X211310500Y-109425500D01*
G75*
G02*
X211160500Y-109575500I-150000J0D01*
G01*
G37*
%TD.AperFunction*%
%TO.P,U1,2*%
%TO.N,/DIG0*%
%TA.AperFunction,SMDPad,CuDef*%
G36*
G01*
X209890500Y-109575500D02*
X209590500Y-109575500D01*
G75*
G02*
X209440500Y-109425500I0J150000D01*
G01*
X209440500Y-107675500D01*
G75*
G02*
X209590500Y-107525500I150000J0D01*
G01*
X209890500Y-107525500D01*
G75*
G02*
X210040500Y-107675500I0J-150000D01*
G01*
X210040500Y-109425500D01*
G75*
G02*
X209890500Y-109575500I-150000J0D01*
G01*
G37*
%TD.AperFunction*%
%TO.P,U1,1*%
%TO.N,/MOSI*%
%TA.AperFunction,SMDPad,CuDef*%
G36*
G01*
X208620500Y-109575500D02*
X208320500Y-109575500D01*
G75*
G02*
X208170500Y-109425500I0J150000D01*
G01*
X208170500Y-107675500D01*
G75*
G02*
X208320500Y-107525500I150000J0D01*
G01*
X208620500Y-107525500D01*
G75*
G02*
X208770500Y-107675500I0J-150000D01*
G01*
X208770500Y-109425500D01*
G75*
G02*
X208620500Y-109575500I-150000J0D01*
G01*
G37*
%TD.AperFunction*%
%TD*%
D19*
%TO.P,RV1,*%
%TO.N,*%
X124175500Y-78008000D03*
X124175500Y-67408000D03*
D20*
%TO.P,RV1,3*%
%TO.N,GND*%
X134175500Y-69208000D03*
%TO.P,RV1,2*%
%TO.N,/TSET*%
X134175500Y-72958000D03*
D21*
%TO.P,RV1,1*%
%TO.N,VDD*%
X134175500Y-76708000D03*
%TD*%
%TO.P,R1,2*%
%TO.N,/ISET*%
%TA.AperFunction,SMDPad,CuDef*%
G36*
G01*
X225684501Y-103000500D02*
X224784499Y-103000500D01*
G75*
G02*
X224534500Y-102750501I0J249999D01*
G01*
X224534500Y-102100499D01*
G75*
G02*
X224784499Y-101850500I249999J0D01*
G01*
X225684501Y-101850500D01*
G75*
G02*
X225934500Y-102100499I0J-249999D01*
G01*
X225934500Y-102750501D01*
G75*
G02*
X225684501Y-103000500I-249999J0D01*
G01*
G37*
%TD.AperFunction*%
%TO.P,R1,1*%
%TO.N,VDD*%
%TA.AperFunction,SMDPad,CuDef*%
G36*
G01*
X225684501Y-105050500D02*
X224784499Y-105050500D01*
G75*
G02*
X224534500Y-104800501I0J249999D01*
G01*
X224534500Y-104150499D01*
G75*
G02*
X224784499Y-103900500I249999J0D01*
G01*
X225684501Y-103900500D01*
G75*
G02*
X225934500Y-104150499I0J-249999D01*
G01*
X225934500Y-104800501D01*
G75*
G02*
X225684501Y-105050500I-249999J0D01*
G01*
G37*
%TD.AperFunction*%
%TD*%
D22*
%TO.P,LED2,15*%
%TO.N,/SEGF*%
X204724000Y-83566000D03*
%TO.P,LED2,14*%
%TO.N,/DIG7_D*%
X207264000Y-83566000D03*
%TO.P,LED2,12*%
%TO.N,/SEGA*%
X212344000Y-83566000D03*
%TO.P,LED2,11*%
%TO.N,/SEGB*%
X214884000Y-83566000D03*
%TO.P,LED2,8*%
%TO.N,/SEGG*%
X222504000Y-83566000D03*
%TO.P,LED2,7*%
%TO.N,/DIG5*%
X222504000Y-93726000D03*
%TO.P,LED2,6*%
%TO.N,/SEGDP*%
X219964000Y-93726000D03*
%TO.P,LED2,5*%
%TO.N,/DIG4*%
X217424000Y-93726000D03*
%TO.P,LED2,4*%
%TO.N,/SEGD*%
X214884000Y-93726000D03*
%TO.P,LED2,3*%
%TO.N,/SEGC*%
X212344000Y-93726000D03*
%TO.P,LED2,2*%
%TO.N,/SEGE*%
X209804000Y-93726000D03*
%TO.P,LED2,1*%
%TO.N,/DIG3*%
X207264000Y-93726000D03*
%TD*%
%TO.P,LED1,15*%
%TO.N,/SEGF*%
X204724000Y-68643500D03*
%TO.P,LED1,14*%
%TO.N,/DIG6_D*%
X207264000Y-68643500D03*
%TO.P,LED1,12*%
%TO.N,/SEGA*%
X212344000Y-68643500D03*
%TO.P,LED1,11*%
%TO.N,/SEGB*%
X214884000Y-68643500D03*
%TO.P,LED1,8*%
%TO.N,/SEGG*%
X222504000Y-68643500D03*
%TO.P,LED1,7*%
%TO.N,/DIG2*%
X222504000Y-78803500D03*
%TO.P,LED1,6*%
%TO.N,/SEGDP*%
X219964000Y-78803500D03*
%TO.P,LED1,5*%
%TO.N,/DIG1*%
X217424000Y-78803500D03*
%TO.P,LED1,4*%
%TO.N,/SEGD*%
X214884000Y-78803500D03*
%TO.P,LED1,3*%
%TO.N,/SEGC*%
X212344000Y-78803500D03*
%TO.P,LED1,2*%
%TO.N,/SEGE*%
X209804000Y-78803500D03*
%TO.P,LED1,1*%
%TO.N,/DIG0*%
X207264000Y-78803500D03*
%TD*%
D23*
%TO.P,J4,8*%
%TO.N,/A7*%
X192786000Y-78549500D03*
%TO.P,J4,7*%
%TO.N,/A6*%
X192786000Y-81089500D03*
%TO.P,J4,6*%
%TO.N,/A3*%
X192786000Y-83629500D03*
%TO.P,J4,5*%
%TO.N,/D4*%
X192786000Y-86169500D03*
%TO.P,J4,4*%
%TO.N,/D3*%
X192786000Y-88709500D03*
%TO.P,J4,3*%
%TO.N,/D2*%
X192786000Y-91249500D03*
%TO.P,J4,2*%
%TO.N,/D1*%
X192786000Y-93789500D03*
D24*
%TO.P,J4,1*%
%TO.N,/D0*%
X192786000Y-96329500D03*
%TD*%
D25*
%TO.P,J2,2*%
%TO.N,/VSNSH*%
X123634500Y-103806000D03*
D26*
%TO.P,J2,1*%
%TO.N,VDD*%
X123634500Y-98806000D03*
%TD*%
%TO.P,J1,3*%
%TO.N,N/C*%
%TA.AperFunction,ComponentPad*%
G36*
G01*
X129187000Y-93775500D02*
X129187000Y-92025500D01*
G75*
G02*
X130062000Y-91150500I875000J0D01*
G01*
X131812000Y-91150500D01*
G75*
G02*
X132687000Y-92025500I0J-875000D01*
G01*
X132687000Y-93775500D01*
G75*
G02*
X131812000Y-94650500I-875000J0D01*
G01*
X130062000Y-94650500D01*
G75*
G02*
X129187000Y-93775500I0J875000D01*
G01*
G37*
%TD.AperFunction*%
%TO.P,J1,2*%
%TO.N,GND*%
%TA.AperFunction,ComponentPad*%
G36*
G01*
X126287000Y-89100500D02*
X126287000Y-87100500D01*
G75*
G02*
X127037000Y-86350500I750000J0D01*
G01*
X128537000Y-86350500D01*
G75*
G02*
X129287000Y-87100500I0J-750000D01*
G01*
X129287000Y-89100500D01*
G75*
G02*
X128537000Y-89850500I-750000J0D01*
G01*
X127037000Y-89850500D01*
G75*
G02*
X126287000Y-89100500I0J750000D01*
G01*
G37*
%TD.AperFunction*%
D27*
%TO.P,J1,1*%
%TO.N,VDD*%
X134037000Y-88100500D03*
%TD*%
D13*
%TO.P,C1,2*%
%TO.N,GND*%
X189945000Y-70231000D03*
D21*
%TO.P,C1,1*%
%TO.N,VDD*%
X194945000Y-70231000D03*
%TD*%
D28*
%TO.N,/MISO*%
X206438500Y-99504500D03*
X200555016Y-108544081D03*
%TO.N,/MOSI*%
X207264000Y-108077000D03*
X200881263Y-109506737D03*
%TO.N,GND*%
X218249500Y-110172500D03*
X212217000Y-106807000D03*
X159956500Y-64770000D03*
X159893000Y-69342000D03*
X175514000Y-105664000D03*
%TO.N,VDD*%
X214630000Y-100838000D03*
X191412999Y-102274501D03*
X198070039Y-97077961D03*
X223964500Y-104521000D03*
%TO.N,/A7*%
X189357000Y-78740000D03*
X180848000Y-86868000D03*
%TO.N,/A6*%
X186436000Y-84201000D03*
X189865000Y-84455000D03*
%TO.N,/SCL*%
X179832000Y-104140000D03*
%TO.N,/SDA*%
X174498000Y-99568000D03*
X174498000Y-96266000D03*
X174498000Y-89027000D03*
%TO.N,/A3*%
X186182000Y-81978500D03*
%TO.N,/SEGF*%
X203263500Y-85153500D03*
X223012000Y-85153500D03*
X224282000Y-95948500D03*
X220853000Y-96075500D03*
%TO.N,/SEGA*%
X212579001Y-87185500D03*
X222313500Y-88265000D03*
%TO.N,/SEGB*%
X218630500Y-97599500D03*
X217424000Y-96520000D03*
%TO.N,/DIG2*%
X220689000Y-91186000D03*
X202946000Y-90995500D03*
%TO.N,/SEGDP*%
X211555500Y-96556403D03*
X217741500Y-95377000D03*
%TO.N,/DIG1*%
X217170000Y-88138000D03*
X200977500Y-88201500D03*
%TO.N,/SEGD*%
X210629500Y-95821500D03*
%TO.N,/DIG7_D*%
X202628500Y-89471500D03*
X207454500Y-89471500D03*
%TO.N,/DIG5*%
X201495999Y-93091000D03*
%TO.N,/DIG4*%
X216852500Y-91821000D03*
X204697500Y-92138500D03*
%TO.N,/DIG3*%
X203347470Y-95227960D03*
%TO.N,/ISET*%
X216154000Y-100774500D03*
%TO.N,/VDRIVE*%
X156527500Y-70258990D03*
X157607000Y-72009000D03*
%TO.N,/ISET*%
X223964500Y-102298500D03*
%TO.N,/VSNSL*%
X149225000Y-71755000D03*
%TO.N,/ALT*%
X182372000Y-103759000D03*
X182372000Y-100838000D03*
X182528402Y-87405402D03*
%TO.N,/VSNSH*%
X155765500Y-73723500D03*
%TD*%
D29*
%TO.N,/SCK*%
X201797491Y-108713554D02*
X200589437Y-107505500D01*
X188619999Y-67130497D02*
X185579001Y-64089499D01*
X170924001Y-64089499D02*
X169799000Y-65214500D01*
X201797491Y-110811861D02*
X201797491Y-108713554D01*
X221795510Y-109622258D02*
X217581694Y-113836074D01*
X217581694Y-113836074D02*
X204821704Y-113836074D01*
X200589437Y-107505500D02*
X199763950Y-107505500D01*
X204821704Y-113836074D02*
X201797491Y-110811861D01*
X188619999Y-96361549D02*
X188619999Y-67130497D01*
X199763950Y-107505500D02*
X188619999Y-96361549D01*
X221795510Y-99895490D02*
X221795510Y-109622258D01*
X185579001Y-64089499D02*
X170924001Y-64089499D01*
X222440500Y-99250500D02*
X221795510Y-99895490D01*
%TO.N,/MISO*%
X208470500Y-99250500D02*
X208470500Y-100275500D01*
X206692500Y-99250500D02*
X206438500Y-99504500D01*
X208470500Y-99250500D02*
X206692500Y-99250500D01*
X185039000Y-65214500D02*
X186067592Y-65214500D01*
X186067592Y-65214500D02*
X188169989Y-67316897D01*
X188169989Y-67316897D02*
X188169989Y-72136000D01*
X188169989Y-72136000D02*
X188169989Y-72546099D01*
X188169989Y-72546099D02*
X188169989Y-94468511D01*
X188169989Y-94468511D02*
X188169989Y-94615000D01*
X200166121Y-108544081D02*
X200555016Y-108544081D01*
X188169989Y-96547949D02*
X200166121Y-108544081D01*
X188169989Y-94468511D02*
X188169989Y-96547949D01*
%TO.N,/MOSI*%
X207997000Y-108077000D02*
X208470500Y-108550500D01*
X207264000Y-108077000D02*
X207997000Y-108077000D01*
X187719979Y-70435479D02*
X187719979Y-72322400D01*
X185039000Y-67754500D02*
X187719979Y-70435479D01*
X187719979Y-72322400D02*
X187719979Y-71818500D01*
X187719979Y-72322400D02*
X187719979Y-72359699D01*
X187719979Y-72359699D02*
X187719979Y-94742000D01*
X187719979Y-94742000D02*
X187719979Y-96734349D01*
X187719979Y-96734349D02*
X200686815Y-109701185D01*
%TO.N,GND*%
X218630500Y-109791500D02*
X218249500Y-110172500D01*
X218630500Y-108550500D02*
X218630500Y-109791500D01*
X212280500Y-106870500D02*
X212217000Y-106807000D01*
X212280500Y-108550500D02*
X212280500Y-106870500D01*
X159720500Y-64534000D02*
X159956500Y-64770000D01*
X158369000Y-64534000D02*
X159720500Y-64534000D01*
X159330500Y-68779500D02*
X159893000Y-69342000D01*
X158251000Y-68779500D02*
X159330500Y-68779500D01*
X175562500Y-105712500D02*
X175514000Y-105664000D01*
X175562500Y-108943000D02*
X175562500Y-105712500D01*
%TO.N,/SS*%
X222245520Y-108716480D02*
X222245519Y-109808659D01*
X222440500Y-108550500D02*
X222411500Y-108550500D01*
X222411500Y-108550500D02*
X222245520Y-108716480D01*
X222440500Y-109613678D02*
X217768094Y-114286084D01*
X222440500Y-108550500D02*
X222440500Y-109613678D01*
X217768094Y-114286084D02*
X204635303Y-114286083D01*
X204635303Y-114286083D02*
X201601220Y-111252000D01*
X185039000Y-70294500D02*
X186942590Y-70294500D01*
X186942590Y-70294500D02*
X187269969Y-70621879D01*
X187269969Y-70621879D02*
X187269969Y-72136000D01*
X187269969Y-72136000D02*
X187269969Y-72173299D01*
X187269969Y-72173299D02*
X187269969Y-94297500D01*
X187269969Y-96920749D02*
X201676000Y-111326780D01*
X187269969Y-94297500D02*
X187269969Y-96920749D01*
%TO.N,VDD*%
X214630000Y-99441000D02*
X214820500Y-99250500D01*
X214630000Y-100838000D02*
X214630000Y-99441000D01*
D30*
X134037000Y-88100500D02*
X134037000Y-88444000D01*
X134137010Y-94738552D02*
X129942562Y-98933000D01*
X134137010Y-88544010D02*
X134137010Y-94738552D01*
X134037000Y-88444000D02*
X134137010Y-88544010D01*
D29*
X134175500Y-87962000D02*
X134037000Y-88100500D01*
X134175500Y-76708000D02*
X134175500Y-87962000D01*
D30*
X127889000Y-98806000D02*
X128016000Y-98933000D01*
X123634500Y-98806000D02*
X127889000Y-98806000D01*
X128016000Y-98933000D02*
X125666500Y-98933000D01*
X129942562Y-98933000D02*
X128016000Y-98933000D01*
D31*
X173062500Y-96418000D02*
X173062500Y-108943000D01*
X169799000Y-93154500D02*
X173062500Y-96418000D01*
X120954490Y-104506025D02*
X122331474Y-105883009D01*
X122331474Y-105883009D02*
X157070491Y-105883009D01*
X120954490Y-101486010D02*
X120954490Y-104506025D01*
X157070491Y-105883009D02*
X169799000Y-93154500D01*
X123634500Y-98806000D02*
X120954490Y-101486010D01*
X173062500Y-96418000D02*
X178919001Y-102274501D01*
X178919001Y-102274501D02*
X191412999Y-102274501D01*
X194945000Y-93952922D02*
X198070039Y-97077961D01*
X194945000Y-70231000D02*
X194945000Y-93952922D01*
D29*
X225189000Y-104521000D02*
X225234500Y-104475500D01*
X223964500Y-104521000D02*
X225189000Y-104521000D01*
%TO.N,/A3*%
X193802000Y-83058000D02*
X193311999Y-83548001D01*
%TO.N,/TSET*%
X134175500Y-72707500D02*
X134175500Y-72958000D01*
%TO.N,/A7*%
X193802000Y-77978000D02*
X193311999Y-78468001D01*
X192786000Y-78549500D02*
X189547500Y-78549500D01*
X189547500Y-78549500D02*
X189420500Y-78549500D01*
X189547500Y-78549500D02*
X189357000Y-78740000D01*
X168673999Y-87534499D02*
X168673999Y-89489499D01*
X168673999Y-89489499D02*
X169799000Y-90614500D01*
X169340498Y-86868000D02*
X168673999Y-87534499D01*
X180848000Y-86868000D02*
X169340498Y-86868000D01*
%TO.N,/A6*%
X193802000Y-80518000D02*
X193311999Y-81008001D01*
X180833998Y-88074500D02*
X184707498Y-84201000D01*
X169799000Y-88074500D02*
X180833998Y-88074500D01*
X184707498Y-84201000D02*
X186436000Y-84201000D01*
X192786000Y-81534000D02*
X192786000Y-81089500D01*
X189865000Y-84455000D02*
X192786000Y-81534000D01*
%TO.N,/SCL*%
X180562500Y-108943000D02*
X180562500Y-104616500D01*
X180308500Y-104616500D02*
X179832000Y-104140000D01*
X180562500Y-104616500D02*
X180308500Y-104616500D01*
%TO.N,/SDA*%
X178062500Y-108943000D02*
X178062500Y-103132500D01*
X178062500Y-103132500D02*
X174498000Y-99568000D01*
X174498000Y-96266000D02*
X174498000Y-89027000D01*
%TO.N,/A3*%
X171213999Y-81869499D02*
X186072999Y-81869499D01*
X169799000Y-80454500D02*
X171213999Y-81869499D01*
X186072999Y-81869499D02*
X186182000Y-81978500D01*
D30*
%TO.N,/VSNSH*%
X123634500Y-103806000D02*
X127016500Y-103806000D01*
D29*
%TO.N,/SEGF*%
X204724000Y-68643500D02*
X204724000Y-83566000D01*
X204724000Y-83693000D02*
X203263500Y-85153500D01*
X204724000Y-83566000D02*
X204724000Y-83693000D01*
X223012000Y-85153500D02*
X224282000Y-86423500D01*
X224282000Y-86423500D02*
X224282000Y-95948500D01*
X219900500Y-97028000D02*
X219900500Y-99250500D01*
X220853000Y-96075500D02*
X219900500Y-97028000D01*
%TO.N,/DIG6_D*%
X205853989Y-70053511D02*
X207264000Y-68643500D01*
X203972499Y-85738303D02*
X205853989Y-83856813D01*
X203972499Y-92486501D02*
X203972499Y-85738303D01*
X204522480Y-109718390D02*
X204522480Y-93036482D01*
X205853989Y-83856813D02*
X205853989Y-70053511D01*
X205940109Y-111136019D02*
X204522480Y-109718390D01*
X211989981Y-111136019D02*
X205940109Y-111136019D01*
X204522480Y-93036482D02*
X203972499Y-92486501D01*
X213550500Y-109575500D02*
X211989981Y-111136019D01*
X213550500Y-108550500D02*
X213550500Y-109575500D01*
%TO.N,/SEGA*%
X211383999Y-82605999D02*
X212344000Y-83566000D01*
X211383999Y-69603501D02*
X211383999Y-82605999D01*
X212344000Y-68643500D02*
X211383999Y-69603501D01*
X212344000Y-83566000D02*
X212344000Y-86931500D01*
X212579001Y-87166501D02*
X212579001Y-87185500D01*
X212344000Y-86931500D02*
X212579001Y-87166501D01*
X221170500Y-98823732D02*
X221170500Y-99250500D01*
X223464001Y-96530231D02*
X221170500Y-98823732D01*
X223464001Y-89415501D02*
X223464001Y-96530231D01*
X222313500Y-88265000D02*
X223464001Y-89415501D01*
%TO.N,/SEGB*%
X215844001Y-82605999D02*
X214884000Y-83566000D01*
X215844001Y-69603501D02*
X215844001Y-82605999D01*
X214884000Y-68643500D02*
X215844001Y-69603501D01*
X218630500Y-99250500D02*
X218630500Y-97599500D01*
%TO.N,/SEGG*%
X217487500Y-99441000D02*
X217487500Y-98416000D01*
X223464001Y-82605999D02*
X222504000Y-83566000D01*
X223464001Y-69603501D02*
X223464001Y-82605999D01*
X222504000Y-68643500D02*
X223464001Y-69603501D01*
X221543999Y-84526001D02*
X222504000Y-83566000D01*
X221543999Y-93566803D02*
X221543999Y-84526001D01*
X217360500Y-97750302D02*
X221543999Y-93566803D01*
X217360500Y-99250500D02*
X217360500Y-97750302D01*
%TO.N,/DIG2*%
X214820500Y-108977268D02*
X212211739Y-111586029D01*
X214820500Y-108550500D02*
X214820500Y-108977268D01*
X204072470Y-109904790D02*
X204072470Y-109652200D01*
X205753708Y-111586028D02*
X204072470Y-109904790D01*
X212211739Y-111586029D02*
X205753708Y-111586028D01*
X204072470Y-109652200D02*
X204072470Y-107442000D01*
X204072470Y-93222882D02*
X203522489Y-92672901D01*
X204072470Y-107442000D02*
X204072470Y-93222882D01*
X222504000Y-78803500D02*
X220599000Y-80708500D01*
X220599000Y-91096000D02*
X220689000Y-91186000D01*
X220599000Y-80708500D02*
X220599000Y-91096000D01*
X203322011Y-91371511D02*
X203522489Y-91371511D01*
X202946000Y-90995500D02*
X203322011Y-91371511D01*
X203522489Y-92672901D02*
X203522489Y-91371511D01*
%TO.N,/SEGDP*%
X219964000Y-78803500D02*
X219964000Y-93726000D01*
X211010500Y-97101403D02*
X211555500Y-96556403D01*
X211010500Y-99250500D02*
X211010500Y-97101403D01*
X218313000Y-95377000D02*
X219964000Y-93726000D01*
X217741500Y-95377000D02*
X218313000Y-95377000D01*
%TO.N,/DIG1*%
X205008104Y-113386064D02*
X202247500Y-110625460D01*
X217359936Y-113386064D02*
X205008104Y-113386064D01*
X221170500Y-109575500D02*
X217359936Y-113386064D01*
X221170500Y-108550500D02*
X221170500Y-109575500D01*
X202247500Y-110625460D02*
X202247500Y-107759500D01*
X202247500Y-96473812D02*
X200770998Y-94997310D01*
X200770998Y-94997310D02*
X200770998Y-88154002D01*
X202247500Y-107759500D02*
X202247500Y-96473812D01*
X217424000Y-87884000D02*
X217170000Y-88138000D01*
X217424000Y-78803500D02*
X217424000Y-87884000D01*
%TO.N,/SEGD*%
X213923999Y-79763501D02*
X213923999Y-93019999D01*
X214884000Y-78803500D02*
X213923999Y-79763501D01*
X214630000Y-93726000D02*
X214884000Y-93726000D01*
X213923999Y-93019999D02*
X214630000Y-93726000D01*
X209740500Y-99250500D02*
X209740500Y-96710500D01*
X209740500Y-96710500D02*
X210629500Y-95821500D01*
%TO.N,/SEGC*%
X213304001Y-92765999D02*
X212344000Y-93726000D01*
X213304001Y-79763501D02*
X213304001Y-92765999D01*
X212344000Y-78803500D02*
X213304001Y-79763501D01*
%TO.N,/SEGE*%
X209804000Y-78803500D02*
X209804000Y-93726000D01*
X212280500Y-96202500D02*
X209804000Y-93726000D01*
X212280500Y-99250500D02*
X212280500Y-96202500D01*
%TO.N,/DIG0*%
X209740500Y-109575500D02*
X209080000Y-110236000D01*
X209740500Y-108550500D02*
X209740500Y-109575500D01*
X209080000Y-110236000D02*
X206565500Y-110236000D01*
X206565500Y-110236000D02*
X205422500Y-109093000D01*
X205422500Y-107188000D02*
X205422500Y-92138500D01*
X205422500Y-109093000D02*
X205422500Y-107188000D01*
X205422500Y-107188000D02*
X205422500Y-107061000D01*
X206303999Y-91257001D02*
X205422500Y-92138500D01*
X206303999Y-79763501D02*
X206303999Y-91257001D01*
X207264000Y-78803500D02*
X206303999Y-79763501D01*
%TO.N,/DIG7_D*%
X214449954Y-112486046D02*
X205380906Y-112486046D01*
X205380906Y-112486046D02*
X203172450Y-110277590D01*
X217360500Y-109575500D02*
X214449954Y-112486046D01*
X217360500Y-108550500D02*
X217360500Y-109575500D01*
X203172450Y-110277590D02*
X203172450Y-107541450D01*
X202220999Y-95174491D02*
X202220999Y-89879001D01*
X203172450Y-96125942D02*
X202220999Y-95174491D01*
X203172450Y-107541450D02*
X203172450Y-96125942D01*
X202220999Y-89879001D02*
X202628500Y-89471500D01*
X207454500Y-83756500D02*
X207264000Y-83566000D01*
X207454500Y-89471500D02*
X207454500Y-83756500D01*
%TO.N,/DIG5*%
X201770989Y-93059511D02*
X201527488Y-93059511D01*
X201739500Y-93091000D02*
X201770989Y-93059511D01*
X202722440Y-96312342D02*
X201739500Y-95329402D01*
X205194505Y-112936055D02*
X202722440Y-110463990D01*
X202722440Y-110463990D02*
X202722440Y-96312342D01*
X216539945Y-112936055D02*
X205194505Y-112936055D01*
X201527488Y-93059511D02*
X201495999Y-93091000D01*
X219900500Y-108550500D02*
X219900500Y-109575500D01*
X219900500Y-109575500D02*
X216539945Y-112936055D01*
X201739500Y-95329402D02*
X201739500Y-93091000D01*
%TO.N,/DIG4*%
X217424000Y-93726000D02*
X217424000Y-92392500D01*
X217424000Y-92392500D02*
X216852500Y-91821000D01*
X209899990Y-110686010D02*
X206126510Y-110686010D01*
X206126510Y-110686010D02*
X204972490Y-109531990D01*
X211010500Y-109575500D02*
X209899990Y-110686010D01*
X211010500Y-108550500D02*
X211010500Y-109575500D01*
X204972490Y-109531990D02*
X204972490Y-109279400D01*
X204972490Y-107499990D02*
X204972490Y-92704490D01*
X204972490Y-109279400D02*
X204972490Y-107499990D01*
X204972490Y-107499990D02*
X204972490Y-107251500D01*
X204697500Y-92429500D02*
X204972490Y-92704490D01*
X204697500Y-92138500D02*
X204697500Y-92429500D01*
%TO.N,/DIG3*%
X205567307Y-112036037D02*
X203622460Y-110091190D01*
X213629963Y-112036037D02*
X205567307Y-112036037D01*
X216090500Y-109575500D02*
X213629963Y-112036037D01*
X216090500Y-108550500D02*
X216090500Y-109575500D01*
X203622460Y-107654540D02*
X203622460Y-95227960D01*
X203622460Y-110091190D02*
X203622460Y-107654540D01*
X203622460Y-107654540D02*
X203622460Y-107442000D01*
%TO.N,/ISET*%
X216090500Y-100711000D02*
X216154000Y-100774500D01*
X216090500Y-99250500D02*
X216090500Y-100711000D01*
%TO.N,/TSET*%
X134175500Y-72958000D02*
X134175500Y-73088500D01*
X139506000Y-67627500D02*
X134175500Y-72958000D01*
X144399000Y-67627500D02*
X139506000Y-67627500D01*
X170924001Y-76499501D02*
X169799000Y-75374500D01*
X170339001Y-79039501D02*
X170924001Y-78454501D01*
X169258999Y-79039501D02*
X170339001Y-79039501D01*
X161203488Y-70983990D02*
X169258999Y-79039501D01*
X170924001Y-78454501D02*
X170924001Y-76499501D01*
X147755490Y-70983990D02*
X161203488Y-70983990D01*
X144399000Y-67627500D02*
X147755490Y-70983990D01*
%TO.N,/VDRIVE*%
X183624001Y-84409499D02*
X185039000Y-82994500D01*
X168800999Y-84409499D02*
X183624001Y-84409499D01*
X156400500Y-72009000D02*
X168800999Y-84409499D01*
X145597001Y-63809001D02*
X152687671Y-63809001D01*
X155119490Y-66240820D02*
X155119490Y-68886490D01*
X152687671Y-63809001D02*
X155119490Y-66240820D01*
X144399000Y-62611000D02*
X145597001Y-63809001D01*
X156491990Y-70258990D02*
X156527500Y-70258990D01*
X155119490Y-68886490D02*
X156491990Y-70258990D01*
X157607000Y-72009000D02*
X156400500Y-72009000D01*
%TO.N,/SEGB*%
X215844001Y-94940001D02*
X217424000Y-96520000D01*
X215844001Y-84526001D02*
X215844001Y-94940001D01*
X214884000Y-83566000D02*
X215844001Y-84526001D01*
%TO.N,/SEGC*%
X213360000Y-94742000D02*
X213360000Y-94932500D01*
X212344000Y-93726000D02*
X213360000Y-94742000D01*
X213360000Y-99060000D02*
X213360000Y-94932500D01*
%TO.N,/ISET*%
X225107500Y-102298500D02*
X225234500Y-102425500D01*
X223964500Y-102298500D02*
X225107500Y-102298500D01*
%TO.N,/VSNSL*%
X150622000Y-66929000D02*
X149923500Y-67627500D01*
X153969500Y-66929000D02*
X150622000Y-66929000D01*
X149225000Y-91186000D02*
X154686000Y-91186000D01*
D30*
X157028618Y-93345000D02*
X157480000Y-93345000D01*
X154869618Y-91186000D02*
X157028618Y-93345000D01*
X149225000Y-91186000D02*
X154869618Y-91186000D01*
D29*
X147899999Y-89860999D02*
X147899999Y-73080001D01*
X149225000Y-91186000D02*
X147899999Y-89860999D01*
X147899999Y-73080001D02*
X149225000Y-71755000D01*
%TO.N,Net-(Q1-Pad1)*%
X154350500Y-83520500D02*
X149225000Y-88646000D01*
X154350500Y-72009000D02*
X154350500Y-83520500D01*
%TO.N,/ALT*%
X183062500Y-108943000D02*
X183062500Y-104449500D01*
X183062500Y-104449500D02*
X182372000Y-103759000D01*
X182372000Y-100838000D02*
X182372000Y-87503000D01*
X182469598Y-87405402D02*
X182528402Y-87405402D01*
X182372000Y-87503000D02*
X182469598Y-87405402D01*
D30*
%TO.N,/VSNSH*%
X125666500Y-103933000D02*
X142297000Y-103933000D01*
D29*
X153969500Y-62484000D02*
X154096500Y-62611000D01*
X150241000Y-62484000D02*
X153969500Y-62484000D01*
X156070509Y-74028509D02*
X155765500Y-73723500D01*
D30*
X150710390Y-103933000D02*
X142297000Y-103933000D01*
X160180010Y-94463380D02*
X150710390Y-103933000D01*
X160180010Y-91045010D02*
X160180010Y-94463380D01*
X157480000Y-88345000D02*
X160180010Y-91045010D01*
D29*
X156070509Y-86935509D02*
X156070509Y-86626491D01*
X157480000Y-88345000D02*
X156070509Y-86935509D01*
X156070509Y-86626491D02*
X156070509Y-74028509D01*
%TO.N,/VSNSL_F*%
X158051500Y-66929000D02*
X158251000Y-66729500D01*
X156019500Y-66929000D02*
X158051500Y-66929000D01*
X163957000Y-72072500D02*
X169799000Y-77914500D01*
X163957000Y-67691000D02*
X163957000Y-72072500D01*
X162995500Y-66729500D02*
X163957000Y-67691000D01*
X158251000Y-66729500D02*
X162995500Y-66729500D01*
%TO.N,/VSNSH_F*%
X158242000Y-62611000D02*
X158369000Y-62484000D01*
X156146500Y-62611000D02*
X158242000Y-62611000D01*
X163512500Y-62484000D02*
X163639500Y-62611000D01*
X158369000Y-62484000D02*
X163512500Y-62484000D01*
X165282001Y-68317501D02*
X169799000Y-72834500D01*
X165282001Y-64253501D02*
X165282001Y-68317501D01*
X163639500Y-62611000D02*
X165282001Y-64253501D01*
%TD*%
M02*
