%TF.GenerationSoftware,KiCad,Pcbnew,(5.1.6-0-10_14)*%
%TF.CreationDate,2021-01-13T12:07:43-08:00*%
%TF.ProjectId,temperatureController,74656d70-6572-4617-9475-7265436f6e74,rev?*%
%TF.SameCoordinates,Original*%
%TF.FileFunction,Soldermask,Bot*%
%TF.FilePolarity,Negative*%
%FSLAX46Y46*%
G04 Gerber Fmt 4.6, Leading zero omitted, Abs format (unit mm)*
G04 Created by KiCad (PCBNEW (5.1.6-0-10_14)) date 2021-01-13 12:07:43*
%MOMM*%
%LPD*%
G01*
G04 APERTURE LIST*
%ADD10O,1.700000X1.700000*%
%ADD11R,1.700000X1.700000*%
%ADD12O,1.900000X1.900000*%
%ADD13C,2.100000*%
%ADD14O,2.100000X2.005000*%
%ADD15R,2.100000X2.005000*%
%ADD16C,4.100000*%
%ADD17O,5.100000X4.100000*%
%ADD18C,2.600000*%
%ADD19R,2.100000X2.100000*%
%ADD20C,1.370000*%
%ADD21O,1.800000X1.800000*%
%ADD22R,1.800000X1.800000*%
%ADD23O,4.060000X2.080000*%
%ADD24R,4.060000X2.080000*%
%ADD25R,3.600000X3.600000*%
G04 APERTURE END LIST*
D10*
%TO.C,A1*%
X169799000Y-65214500D03*
X185039000Y-65214500D03*
X169799000Y-100774500D03*
X185039000Y-67754500D03*
X169799000Y-98234500D03*
X185039000Y-70294500D03*
X169799000Y-95694500D03*
X185039000Y-72834500D03*
X169799000Y-93154500D03*
X185039000Y-75374500D03*
X169799000Y-90614500D03*
X185039000Y-77914500D03*
X169799000Y-88074500D03*
X185039000Y-80454500D03*
X169799000Y-85534500D03*
X185039000Y-82994500D03*
X169799000Y-82994500D03*
X185039000Y-85534500D03*
X169799000Y-80454500D03*
X185039000Y-88074500D03*
X169799000Y-77914500D03*
X185039000Y-90614500D03*
X169799000Y-75374500D03*
X185039000Y-93154500D03*
X169799000Y-72834500D03*
X185039000Y-95694500D03*
X169799000Y-70294500D03*
X185039000Y-98234500D03*
X169799000Y-67754500D03*
D11*
X185039000Y-100774500D03*
%TD*%
D12*
%TO.C,R2*%
X157480000Y-88345000D03*
X157480000Y-93345000D03*
%TD*%
D13*
%TO.C,TP4*%
X144399000Y-62611000D03*
%TD*%
%TO.C,TP6*%
X150241000Y-62484000D03*
%TD*%
%TO.C,TP5*%
X163639500Y-62611000D03*
%TD*%
%TO.C,TP2*%
X163957000Y-67691000D03*
%TD*%
%TO.C,TP1*%
X149923500Y-67627500D03*
%TD*%
D14*
%TO.C,Q1*%
X149225000Y-93726000D03*
X149225000Y-91186000D03*
D15*
X149225000Y-88646000D03*
%TD*%
D13*
%TO.C,TP3*%
X144399000Y-67627500D03*
%TD*%
D16*
%TO.C,H4*%
X225527000Y-114270000D03*
%TD*%
%TO.C,H3*%
X127000000Y-62230000D03*
%TD*%
%TO.C,H2*%
X225527000Y-64270000D03*
%TD*%
%TO.C,H1*%
X124460000Y-113030000D03*
%TD*%
D17*
%TO.C,RV1*%
X124175500Y-78008000D03*
X124175500Y-67408000D03*
D18*
X134175500Y-69208000D03*
X134175500Y-72958000D03*
D19*
X134175500Y-76708000D03*
%TD*%
D20*
%TO.C,LED2*%
X204724000Y-83566000D03*
X207264000Y-83566000D03*
X212344000Y-83566000D03*
X214884000Y-83566000D03*
X222504000Y-83566000D03*
X222504000Y-93726000D03*
X219964000Y-93726000D03*
X217424000Y-93726000D03*
X214884000Y-93726000D03*
X212344000Y-93726000D03*
X209804000Y-93726000D03*
X207264000Y-93726000D03*
%TD*%
%TO.C,LED1*%
X204724000Y-68643500D03*
X207264000Y-68643500D03*
X212344000Y-68643500D03*
X214884000Y-68643500D03*
X222504000Y-68643500D03*
X222504000Y-78803500D03*
X219964000Y-78803500D03*
X217424000Y-78803500D03*
X214884000Y-78803500D03*
X212344000Y-78803500D03*
X209804000Y-78803500D03*
X207264000Y-78803500D03*
%TD*%
D21*
%TO.C,J4*%
X192786000Y-78549500D03*
X192786000Y-81089500D03*
X192786000Y-83629500D03*
X192786000Y-86169500D03*
X192786000Y-88709500D03*
X192786000Y-91249500D03*
X192786000Y-93789500D03*
D22*
X192786000Y-96329500D03*
%TD*%
D23*
%TO.C,J2*%
X123634500Y-103806000D03*
D24*
X123634500Y-98806000D03*
%TD*%
%TO.C,J1*%
G36*
G01*
X129137000Y-93800500D02*
X129137000Y-92000500D01*
G75*
G02*
X130037000Y-91100500I900000J0D01*
G01*
X131837000Y-91100500D01*
G75*
G02*
X132737000Y-92000500I0J-900000D01*
G01*
X132737000Y-93800500D01*
G75*
G02*
X131837000Y-94700500I-900000J0D01*
G01*
X130037000Y-94700500D01*
G75*
G02*
X129137000Y-93800500I0J900000D01*
G01*
G37*
G36*
G01*
X126237000Y-89125500D02*
X126237000Y-87075500D01*
G75*
G02*
X127012000Y-86300500I775000J0D01*
G01*
X128562000Y-86300500D01*
G75*
G02*
X129337000Y-87075500I0J-775000D01*
G01*
X129337000Y-89125500D01*
G75*
G02*
X128562000Y-89900500I-775000J0D01*
G01*
X127012000Y-89900500D01*
G75*
G02*
X126237000Y-89125500I0J775000D01*
G01*
G37*
D25*
X134037000Y-88100500D03*
%TD*%
D13*
%TO.C,C1*%
X189945000Y-70231000D03*
D19*
X194945000Y-70231000D03*
%TD*%
M02*
